<?xml version="1.0" encoding="UTF-8" standalone="no"?>
<!-- Created with Inkscape (http://www.inkscape.org/) -->

<svg
   width="512"
   height="512"
   viewBox="0 0 135.46666 135.46667"
   version="1.1"
   id="svg5"
   xml:space="preserve"
   xmlns="http://www.w3.org/2000/svg"
   xmlns:svg="http://www.w3.org/2000/svg"
   xmlns:rdf="http://www.w3.org/1999/02/22-rdf-syntax-ns#"
   xmlns:cc="http://creativecommons.org/ns#"><defs
     id="defs2" /><g
     id="g658"
     style="display:inline;stroke:none"><g
       id="g116556"
       style="stroke:none"><path
         d="M 35.0157,7.8782364 51.210553,26.699186 51.429404,7.2216837 Z"
         style="fill:#53ecb1;fill-opacity:1;stroke:none;stroke-width:1;stroke-linecap:round;stroke-linejoin:round"
         id="path480" /><path
         d="m 16.472261,23.600584 10.883771,5.505847 -0.875403,-14.22508 z"
         style="fill:#29d3a9;fill-opacity:1;stroke:none;stroke-width:1;stroke-linecap:round;stroke-linejoin:round"
         id="path482" /><path
         d="M 51.210553,26.699186 70.469204,9.8477794 51.429404,7.2216837 Z"
         style="fill:#67ebc0;fill-opacity:1;stroke:none;stroke-width:1;stroke-linecap:round;stroke-linejoin:round"
         id="path484" /><path
         d="M 51.210553,26.699186 70.031502,29.106431 70.469204,9.8477794 Z"
         style="fill:#72e4cb;fill-opacity:1;stroke:none;stroke-width:1;stroke-linecap:round;stroke-linejoin:round"
         id="path486" /><path
         d="M 70.031502,29.106431 89.290153,12.036289 70.469204,9.8477794 Z"
         style="fill:#8fe8c6;fill-opacity:1;stroke:none;stroke-width:1;stroke-linecap:round;stroke-linejoin:round"
         id="path488" /><path
         d="m 70.031502,29.106431 16.63244,3.282764 2.626211,-20.352906 z"
         style="fill:#9edece;fill-opacity:1;stroke:none;stroke-width:1;stroke-linecap:round;stroke-linejoin:round"
         id="path490" /><path
         d="M 26.480629,14.881351 51.210553,26.699186 35.0157,7.8782364 Z"
         style="fill:#47e5b3;fill-opacity:1;stroke:none;stroke-width:1;stroke-linecap:round;stroke-linejoin:round"
         id="path492" /><path
         d="M 27.356032,29.106431 51.210553,26.699186 26.480629,14.881351 Z"
         style="fill:#3bdaba;fill-opacity:1;stroke:none;stroke-width:1;stroke-linecap:round;stroke-linejoin:round"
         id="path494" /><path
         d="M 86.663942,32.389195 108.76777,21.884465 89.290153,12.036289 Z"
         style="fill:#b6dec2;fill-opacity:1;stroke:none;stroke-width:1;stroke-linecap:round;stroke-linejoin:round"
         id="path496" /><path
         d="M 27.356032,29.106431 39.611569,41.143116 51.210553,26.699186 Z"
         style="fill:#40cbcf;fill-opacity:1;stroke:none;stroke-width:1;stroke-linecap:round;stroke-linejoin:round"
         id="path498" /><path
         d="M 8.7539341,36.984949 27.356032,29.106431 16.472261,23.600584 Z"
         style="fill:#22cba9;fill-opacity:1;stroke:none;stroke-width:1;stroke-linecap:round;stroke-linejoin:round"
         id="path500" /><path
         d="m 106.36029,45.738986 15.97647,-7.222081 -13.56899,-16.63244 z"
         style="fill:#d9bfbe;fill-opacity:1;stroke:none;stroke-width:1;stroke-linecap:round;stroke-linejoin:round"
         id="path502" /><path
         d="M 74.846107,46.614389 86.663942,32.389195 70.031502,29.106431 Z"
         style="fill:#9dcedf;fill-opacity:1;stroke:none;stroke-width:1;stroke-linecap:round;stroke-linejoin:round"
         id="path504" /><path
         d="m 86.663942,32.389195 19.696348,13.349791 2.40748,-23.854521 z"
         style="fill:#c5caca;fill-opacity:1;stroke:none;stroke-width:1;stroke-linecap:round;stroke-linejoin:round"
         id="path506" /><path
         d="M 8.7539341,36.984949 21.666024,47.052091 27.356032,29.106431 Z"
         style="fill:#1dbbb7;fill-opacity:1;stroke:none;stroke-width:1;stroke-linecap:round;stroke-linejoin:round"
         id="path508" /><path
         d="M 21.666024,47.052091 39.611569,41.143116 27.356032,29.106431 Z"
         style="fill:#2cbfc9;fill-opacity:1;stroke:none;stroke-width:1;stroke-linecap:round;stroke-linejoin:round"
         id="path510" /><path
         d="M 51.210553,26.699186 61.496316,50.11589 70.031502,29.106431 Z"
         style="fill:#71cde4;fill-opacity:1;stroke:none;stroke-width:1;stroke-linecap:round;stroke-linejoin:round"
         id="path512" /><path
         d="M 61.496316,50.11589 74.846107,46.614389 70.031502,29.106431 Z"
         style="fill:#84bfec;fill-opacity:1;stroke:none;stroke-width:1;stroke-linecap:round;stroke-linejoin:round"
         id="path514" /><path
         d="M 39.611569,41.143116 61.496316,50.11589 51.210553,26.699186 Z"
         style="fill:#56c5e1;fill-opacity:1;stroke:none;stroke-width:1;stroke-linecap:round;stroke-linejoin:round"
         id="path516" /><path
         d="m 86.663942,32.389195 8.753922,21.884862 10.942426,-8.535071 z"
         style="fill:#c4b7da;fill-opacity:1;stroke:none;stroke-width:1;stroke-linecap:round;stroke-linejoin:round"
         id="path518" /><path
         d="M 1.7507851,49.678187 21.666024,47.052091 8.7539341,36.984949 Z"
         style="fill:#12aead;fill-opacity:1;stroke:none;stroke-width:1;stroke-linecap:round;stroke-linejoin:round"
         id="path520" /><path
         d="m 113.58272,56.900152 8.75404,-18.383247 -15.97647,7.222081 z"
         style="fill:#e3a9c2;fill-opacity:1;stroke:none;stroke-width:1;stroke-linecap:round;stroke-linejoin:round"
         id="path522" /><path
         d="M 74.846107,46.614389 95.417864,54.274057 86.663942,32.389195 Z"
         style="fill:#b0b9e7;fill-opacity:1;stroke:none;stroke-width:1;stroke-linecap:round;stroke-linejoin:round"
         id="path524" /><path
         d="m 113.58272,56.900152 17.50692,-5.033456 -8.75288,-13.349791 z"
         style="fill:#eea2b2;fill-opacity:1;stroke:none;stroke-width:1;stroke-linecap:round;stroke-linejoin:round"
         id="path526" /><path
         d="m 21.666024,47.052091 14.881632,14.22508 3.063913,-20.134055 z"
         style="fill:#2da8d8;fill-opacity:1;stroke:none;stroke-width:1;stroke-linecap:round;stroke-linejoin:round"
         id="path528" /><path
         d="m 61.496316,50.11589 8.753922,12.036685 4.595869,-15.538186 z"
         style="fill:#83aaf7;fill-opacity:1;stroke:none;stroke-width:1;stroke-linecap:round;stroke-linejoin:round"
         id="path530" /><path
         d="m 95.417864,54.274057 18.164856,2.626095 -7.22243,-11.161166 z"
         style="fill:#daa3d1;fill-opacity:1;stroke:none;stroke-width:1;stroke-linecap:round;stroke-linejoin:round"
         id="path532" /><path
         d="M 1.7507851,49.678187 13.568539,64.559935 21.666024,47.052091 Z"
         style="fill:#0e97b5;fill-opacity:1;stroke:none;stroke-width:1;stroke-linecap:round;stroke-linejoin:round"
         id="path534" /><path
         d="M 84.037731,64.778786 95.417864,54.274057 74.846107,46.614389 Z"
         style="fill:#b09cf1;fill-opacity:1;stroke:none;stroke-width:1;stroke-linecap:round;stroke-linejoin:round"
         id="path536" /><path
         d="M 70.250238,62.152575 84.037731,64.778786 74.846107,46.614389 Z"
         style="fill:#9898fb;fill-opacity:1;stroke:none;stroke-width:1;stroke-linecap:round;stroke-linejoin:round"
         id="path538" /><path
         d="M 36.547656,61.277171 61.496316,50.11589 39.611569,41.143116 Z"
         style="fill:#4aa9ec;fill-opacity:1;stroke:none;stroke-width:1;stroke-linecap:round;stroke-linejoin:round"
         id="path540" /><path
         d="m 36.547656,61.277171 16.63244,4.814721 8.31622,-15.976002 z"
         style="fill:#5194f4;fill-opacity:1;stroke:none;stroke-width:1;stroke-linecap:round;stroke-linejoin:round"
         id="path542" /><path
         d="M 7.5520148e-7,64.778786 13.568539,64.559935 1.7507851,49.678187 Z"
         style="fill:#088aa9;fill-opacity:1;stroke:none;stroke-width:1;stroke-linecap:round;stroke-linejoin:round"
         id="path544" /><path
         d="M 53.180096,66.091892 70.250238,62.152575 61.496316,50.11589 Z"
         style="fill:#7195fd;fill-opacity:1;stroke:none;stroke-width:1;stroke-linecap:round;stroke-linejoin:round"
         id="path546" /><path
         d="M 13.568539,64.559935 36.547656,61.277171 21.666024,47.052091 Z"
         style="fill:#2095d1;fill-opacity:1;stroke:none;stroke-width:1;stroke-linecap:round;stroke-linejoin:round"
         id="path548" /><path
         d="m 95.417864,54.274057 8.753916,18.602098 9.41094,-15.976003 z"
         style="fill:#d390dd;fill-opacity:1;stroke:none;stroke-width:1;stroke-linecap:round;stroke-linejoin:round"
         id="path550" /><path
         d="m 113.58272,56.900152 21.88395,14.006344 -4.37703,-19.0398 z"
         style="fill:#f092b6;fill-opacity:1;stroke:none;stroke-width:1;stroke-linecap:round;stroke-linejoin:round"
         id="path552" /><path
         d="M 74.846107,76.377654 84.037731,64.778786 70.250238,62.152575 Z"
         style="fill:#997bfd;fill-opacity:1;stroke:none;stroke-width:1;stroke-linecap:round;stroke-linejoin:round"
         id="path554" /><path
         d="M 84.037731,64.778786 104.17178,72.876155 95.417864,54.274057 Z"
         style="fill:#c28aeb;fill-opacity:1;stroke:none;stroke-width:1;stroke-linecap:round;stroke-linejoin:round"
         id="path556" /><path
         d="M 38.736165,76.596506 53.180096,66.091892 36.547656,61.277171 Z"
         style="fill:#3d7deb;fill-opacity:1;stroke:none;stroke-width:1;stroke-linecap:round;stroke-linejoin:round"
         id="path558" /><path
         d="M 89.508888,79.441568 104.17178,72.876155 84.037731,64.778786 Z"
         style="fill:#bd75ee;fill-opacity:1;stroke:none;stroke-width:1;stroke-linecap:round;stroke-linejoin:round"
         id="path560" /><path
         d="M 21.884875,79.87927 36.547656,61.277171 13.568539,64.559935 Z"
         style="fill:#187bca;fill-opacity:1;stroke:none;stroke-width:1;stroke-linecap:round;stroke-linejoin:round"
         id="path562" /><path
         d="m 104.17178,72.876155 11.59945,7.878518 -2.18851,-23.854521 z"
         style="fill:#e27bd0;fill-opacity:1;stroke:none;stroke-width:1;stroke-linecap:round;stroke-linejoin:round"
         id="path564" /><path
         d="M 21.884875,79.87927 38.736165,76.596506 36.547656,61.277171 Z"
         style="fill:#2b74de;fill-opacity:1;stroke:none;stroke-width:1;stroke-linecap:round;stroke-linejoin:round"
         id="path566" /><path
         d="M 115.77123,80.754673 135.46667,70.906496 113.58272,56.900152 Z"
         style="fill:#f17bb7;fill-opacity:1;stroke:none;stroke-width:1;stroke-linecap:round;stroke-linejoin:round"
         id="path568" /><path
         d="M 74.846107,76.377654 89.508888,79.441568 84.037731,64.778786 Z"
         style="fill:#aa6df8;fill-opacity:1;stroke:none;stroke-width:1;stroke-linecap:round;stroke-linejoin:round"
         id="path570" /><path
         d="M 3.7204781,82.724332 13.568539,64.559935 7.5520148e-7,64.778786 Z"
         style="fill:#087cad;fill-opacity:1;stroke:none;stroke-width:1;stroke-linecap:round;stroke-linejoin:round"
         id="path572" /><path
         d="M 58.651369,82.28663 70.250238,62.152575 53.180096,66.091892 Z"
         style="fill:#6c7afd;fill-opacity:1;stroke:none;stroke-width:1;stroke-linecap:round;stroke-linejoin:round"
         id="path574" /><path
         d="M 58.651369,82.28663 74.846107,76.377654 70.250238,62.152575 Z"
         style="fill:#8371fd;fill-opacity:1;stroke:none;stroke-width:1;stroke-linecap:round;stroke-linejoin:round"
         id="path576" /><path
         d="M 3.7204781,82.724332 21.884875,79.87927 13.568539,64.559935 Z"
         style="fill:#0e6fb9;fill-opacity:1;stroke:none;stroke-width:1;stroke-linecap:round;stroke-linejoin:round"
         id="path578" /><path
         d="M 38.736165,76.596506 58.651369,82.28663 53.180096,66.091892 Z"
         style="fill:#526af5;fill-opacity:1;stroke:none;stroke-width:1;stroke-linecap:round;stroke-linejoin:round"
         id="path580" /><path
         d="m 115.77123,80.754673 17.07014,5.471158 2.6253,-15.319335 z"
         style="fill:#f066b3;fill-opacity:1;stroke:none;stroke-width:1;stroke-linecap:round;stroke-linejoin:round"
         id="path582" /><path
         d="m 98.481777,89.727445 5.690003,-16.85129 -14.662892,6.565413 z"
         style="fill:#cb60e1;fill-opacity:1;stroke:none;stroke-width:1;stroke-linecap:round;stroke-linejoin:round"
         id="path584" /><path
         d="m 58.651369,82.28663 15.100483,6.565412 1.094255,-12.474388 z"
         style="fill:#8157f8;fill-opacity:1;stroke:none;stroke-width:1;stroke-linecap:round;stroke-linejoin:round"
         id="path586" /><path
         d="M 73.751852,88.852042 89.508888,79.441568 74.846107,76.377654 Z"
         style="fill:#9e59f4;fill-opacity:1;stroke:none;stroke-width:1;stroke-linecap:round;stroke-linejoin:round"
         id="path588" /><path
         d="M 98.481777,89.727445 115.77123,80.754673 104.17178,72.876155 Z"
         style="fill:#db5fd2;fill-opacity:1;stroke:none;stroke-width:1;stroke-linecap:round;stroke-linejoin:round"
         id="path590" /><path
         d="M 12.255549,96.074008 21.884875,79.87927 3.7204781,82.724332 Z"
         style="fill:#125bb7;fill-opacity:1;stroke:none;stroke-width:1;stroke-linecap:round;stroke-linejoin:round"
         id="path592" /><path
         d="M 38.736165,76.596506 56.025158,94.979752 58.651369,82.28663 Z"
         style="fill:#5352ee;fill-opacity:1;stroke:none;stroke-width:1;stroke-linecap:round;stroke-linejoin:round"
         id="path594" /><path
         d="M 87.320495,99.575622 98.481777,89.727445 89.508888,79.441568 Z"
         style="fill:#be4adf;fill-opacity:1;stroke:none;stroke-width:1;stroke-linecap:round;stroke-linejoin:round"
         id="path596" /><path
         d="M 56.025158,94.979752 73.751852,88.852042 58.651369,82.28663 Z"
         style="fill:#7848f2;fill-opacity:1;stroke:none;stroke-width:1;stroke-linecap:round;stroke-linejoin:round"
         id="path598" /><path
         d="m 73.751852,88.852042 13.568643,10.72358 2.188393,-20.134054 z"
         style="fill:#a448eb;fill-opacity:1;stroke:none;stroke-width:1;stroke-linecap:round;stroke-linejoin:round"
         id="path600" /><path
         d="M 39.392719,100.67022 56.025158,94.979752 38.736165,76.596506 Z"
         style="fill:#4a45e2;fill-opacity:1;stroke:none;stroke-width:1;stroke-linecap:round;stroke-linejoin:round"
         id="path602" /><path
         d="m 107.8919,102.20183 7.87933,-21.447157 -17.289453,8.972772 z"
         style="fill:#da49c8;fill-opacity:1;stroke:none;stroke-width:1;stroke-linecap:round;stroke-linejoin:round"
         id="path604" /><path
         d="M 21.884875,79.87927 39.392719,100.67022 38.736165,76.596506 Z"
         style="fill:#2f50d7;fill-opacity:1;stroke:none;stroke-width:1;stroke-linecap:round;stroke-linejoin:round"
         id="path606" /><path
         d="m 56.025158,94.979752 15.975887,5.252538 1.750807,-11.380248 z"
         style="fill:#7f3aeb;fill-opacity:1;stroke:none;stroke-width:1;stroke-linecap:round;stroke-linejoin:round"
         id="path608" /><path
         d="m 115.77123,80.754673 9.84772,22.323027 7.22242,-16.851869 z"
         style="fill:#f053aa;fill-opacity:1;stroke:none;stroke-width:1;stroke-linecap:round;stroke-linejoin:round"
         id="path610" /><path
         d="M 72.001045,100.23229 87.320495,99.575622 73.751852,88.852042 Z"
         style="fill:#9a36e4;fill-opacity:1;stroke:none;stroke-width:1;stroke-linecap:round;stroke-linejoin:round"
         id="path612" /><path
         d="m 107.8919,102.20183 17.72705,0.87587 -9.84772,-22.323027 z"
         style="fill:#e446b4;fill-opacity:1;stroke:none;stroke-width:1;stroke-linecap:round;stroke-linejoin:round"
         id="path614" /><path
         d="m 25.824075,107.67253 -3.9392,-27.79326 -9.629326,16.194738 z"
         style="fill:#1b4ab9;fill-opacity:1;stroke:none;stroke-width:1;stroke-linecap:round;stroke-linejoin:round"
         id="path616" /><path
         d="M 25.824075,107.67253 39.392719,100.67022 21.884875,79.87927 Z"
         style="fill:#2b42c8;fill-opacity:1;stroke:none;stroke-width:1;stroke-linecap:round;stroke-linejoin:round"
         id="path618" /><path
         d="M 58.87022,109.42426 72.001045,100.23229 56.025158,94.979752 Z"
         style="fill:#762bde;fill-opacity:1;stroke:none;stroke-width:1;stroke-linecap:round;stroke-linejoin:round"
         id="path620" /><path
         d="M 87.320495,99.575622 107.8919,102.20183 98.481777,89.727445 Z"
         style="fill:#c83bcf;fill-opacity:1;stroke:none;stroke-width:1;stroke-linecap:round;stroke-linejoin:round"
         id="path622" /><path
         d="m 107.8919,102.20183 10.06784,11.16151 7.65921,-10.28564 z"
         style="fill:#de34a7;fill-opacity:1;stroke:none;stroke-width:1;stroke-linecap:round;stroke-linejoin:round"
         id="path624" /><path
         d="M 93.885907,113.80128 107.8919,102.20183 87.320495,99.575622 Z"
         style="fill:#c52bc2;fill-opacity:1;stroke:none;stroke-width:1;stroke-linecap:round;stroke-linejoin:round"
         id="path626" /><path
         d="M 39.392719,100.67022 58.87022,109.42426 56.025158,94.979752 Z"
         style="fill:#5e2fdd;fill-opacity:1;stroke:none;stroke-width:1;stroke-linecap:round;stroke-linejoin:round"
         id="path628" /><path
         d="M 75.721511,114.45703 87.320495,99.575622 72.001045,100.23229 Z"
         style="fill:#9726d8;fill-opacity:1;stroke:none;stroke-width:1;stroke-linecap:round;stroke-linejoin:round"
         id="path630" /><path
         d="m 58.87022,109.42426 16.851291,5.03277 -3.720466,-14.22474 z"
         style="fill:#8220d2;fill-opacity:1;stroke:none;stroke-width:1;stroke-linecap:round;stroke-linejoin:round"
         id="path632" /><path
         d="m 25.824075,107.67253 11.161283,10.72358 2.407361,-17.72589 z"
         style="fill:#3d2ac2;fill-opacity:1;stroke:none;stroke-width:1;stroke-linecap:round;stroke-linejoin:round"
         id="path634" /><path
         d="M 75.721511,114.45703 93.885907,113.80128 87.320495,99.575622 Z"
         style="fill:#a622cd;fill-opacity:1;stroke:none;stroke-width:1;stroke-linecap:round;stroke-linejoin:round"
         id="path636" /><path
         d="M 36.985358,118.39611 58.87022,109.42426 39.392719,100.67022 Z"
         style="fill:#5023c8;fill-opacity:1;stroke:none;stroke-width:1;stroke-linecap:round;stroke-linejoin:round"
         id="path638" /><path
         d="m 101.32672,123.64899 6.56518,-21.44716 -14.005993,11.59945 z"
         style="fill:#c825b4;fill-opacity:1;stroke:none;stroke-width:1;stroke-linecap:round;stroke-linejoin:round"
         id="path640" /><path
         d="m 36.985358,118.39611 12.255536,5.90979 9.629326,-14.88164 z"
         style="fill:#5915bd;fill-opacity:1;stroke:none;stroke-width:1;stroke-linecap:round;stroke-linejoin:round"
         id="path642" /><path
         d="M 101.32672,123.64899 117.95974,113.36334 107.8919,102.20183 Z"
         style="fill:#d42bac;fill-opacity:1;stroke:none;stroke-width:1;stroke-linecap:round;stroke-linejoin:round"
         id="path644" /><path
         d="M 63.247124,127.36911 75.721511,114.45703 58.87022,109.42426 Z"
         style="fill:#7c15c6;fill-opacity:1;stroke:none;stroke-width:1;stroke-linecap:round;stroke-linejoin:round"
         id="path646" /><path
         d="m 75.721511,114.45703 9.410475,13.78795 8.753921,-14.4437 z"
         style="fill:#a614ba;fill-opacity:1;stroke:none;stroke-width:1;stroke-linecap:round;stroke-linejoin:round"
         id="path648" /><path
         d="m 49.240894,124.3059 14.00623,3.06321 -4.376904,-17.94485 z"
         style="fill:#6a10ba;fill-opacity:1;stroke:none;stroke-width:1;stroke-linecap:round;stroke-linejoin:round"
         id="path650" /><path
         d="m 85.131986,128.24498 16.194734,-4.59599 -7.440813,-9.84771 z"
         style="fill:#b314ac;fill-opacity:1;stroke:none;stroke-width:1;stroke-linecap:round;stroke-linejoin:round"
         id="path652" /><path
         d="m 63.247124,127.36911 21.884862,0.87587 -9.410475,-13.78795 z"
         style="fill:#900cb7;fill-opacity:1;stroke:none;stroke-width:1;stroke-linecap:round;stroke-linejoin:round"
         id="path654" /></g></g><g
     id="layer1"
     style="display:none"><g
       id="g12466"
       style="stroke:none;stroke-width:0.991565"
       transform="matrix(1.0085071,0,0,1.0085071,-0.57622206,-0.57621758)"><path
         d="M 35.291692,8.3831378 51.349936,27.045326 51.566941,7.7321233 Z"
         style="fill:#9a9a9a;fill-opacity:1;stroke:none;stroke-width:0.991565;stroke-linecap:round;stroke-linejoin:round"
         id="path1448" /><path
         d="M 16.904673,23.972862 27.696636,29.432265 26.828617,15.327179 Z"
         style="fill:#8c8c8c;fill-opacity:1;stroke:none;stroke-width:0.991565;stroke-linecap:round;stroke-linejoin:round"
         id="path1450" /><path
         d="M 51.349936,27.045326 70.446134,10.336067 51.566941,7.7321233 Z"
         style="fill:#b7b7b7;fill-opacity:1;stroke:none;stroke-width:0.991565;stroke-linecap:round;stroke-linejoin:round"
         id="path1452" /><path
         d="m 51.349936,27.045326 18.662188,2.386939 0.43401,-19.096198 z"
         style="fill:#b3b3b3;fill-opacity:1;stroke:none;stroke-width:0.991565;stroke-linecap:round;stroke-linejoin:round"
         id="path1454" /><path
         d="M 70.012124,29.432265 89.108322,12.506116 70.446134,10.336067 Z"
         style="fill:#8f8f8f;fill-opacity:1;stroke:none;stroke-width:0.991565;stroke-linecap:round;stroke-linejoin:round"
         id="path1456" /><path
         d="m 70.012124,29.432265 16.49214,3.255073 2.604058,-20.181222 z"
         style="fill:#787878;fill-opacity:1;stroke:none;stroke-width:0.991565;stroke-linecap:round;stroke-linejoin:round"
         id="path1458" /><path
         d="M 26.828617,15.327179 51.349936,27.045326 35.291692,8.3831378 Z"
         style="fill:#686868;fill-opacity:1;stroke:none;stroke-width:0.991565;stroke-linecap:round;stroke-linejoin:round"
         id="path1460" /><path
         d="M 27.696636,29.432265 51.349936,27.045326 26.828617,15.327179 Z"
         style="fill:#515151;fill-opacity:1;stroke:none;stroke-width:0.991565;stroke-linecap:round;stroke-linejoin:round"
         id="path1462" /><path
         d="M 86.504264,32.687338 108.42164,22.271219 89.108322,12.506116 Z"
         style="fill:#585858;fill-opacity:1;stroke:none;stroke-width:0.991565;stroke-linecap:round;stroke-linejoin:round"
         id="path1464" /><path
         d="M 27.696636,29.432265 39.848793,41.367417 51.349936,27.045326 Z"
         style="fill:#7d7d7d;fill-opacity:1;stroke:none;stroke-width:0.991565;stroke-linecap:round;stroke-linejoin:round"
         id="path1466" /><path
         d="M 9.2514531,37.244325 27.696636,29.432265 16.904673,23.972862 Z"
         style="fill:#a8a8a8;fill-opacity:1;stroke:none;stroke-width:0.991565;stroke-linecap:round;stroke-linejoin:round"
         id="path1468" /><path
         d="m 106.03447,45.924519 15.8417,-7.16116 -13.45453,-16.49214 z"
         style="fill:#8b8b8b;fill-opacity:1;stroke:none;stroke-width:0.991565;stroke-linecap:round;stroke-linejoin:round"
         id="path1470" /><path
         d="m 74.786116,46.792538 11.718148,-14.1052 -16.49214,-3.255073 z"
         style="fill:#5a5a5a;fill-opacity:1;stroke:none;stroke-width:0.991565;stroke-linecap:round;stroke-linejoin:round"
         id="path1472" /><path
         d="m 86.504264,32.687338 19.530206,13.237181 2.38717,-23.6533 z"
         style="fill:#787878;fill-opacity:1;stroke:none;stroke-width:0.991565;stroke-linecap:round;stroke-linejoin:round"
         id="path1474" /><path
         d="M 9.2514531,37.244325 22.054625,47.226548 27.696636,29.432265 Z"
         style="fill:#bfbfbf;fill-opacity:1;stroke:none;stroke-width:0.991565;stroke-linecap:round;stroke-linejoin:round"
         id="path1476" /><path
         d="M 22.054625,47.226548 39.848793,41.367417 27.696636,29.432265 Z"
         style="fill:#a8a8a8;fill-opacity:1;stroke:none;stroke-width:0.991565;stroke-linecap:round;stroke-linejoin:round"
         id="path1478" /><path
         d="M 51.349936,27.045326 61.548935,50.264502 70.012124,29.432265 Z"
         style="fill:#777777;fill-opacity:1;stroke:none;stroke-width:0.991565;stroke-linecap:round;stroke-linejoin:round"
         id="path1480" /><path
         d="M 61.548935,50.264502 74.786116,46.792538 70.012124,29.432265 Z"
         style="fill:#5d5d5d;fill-opacity:1;stroke:none;stroke-width:0.991565;stroke-linecap:round;stroke-linejoin:round"
         id="path1482" /><path
         d="M 39.848793,41.367417 61.548935,50.264502 51.349936,27.045326 Z"
         style="fill:#aaaaaa;fill-opacity:1;stroke:none;stroke-width:0.991565;stroke-linecap:round;stroke-linejoin:round"
         id="path1484" /><path
         d="m 86.504264,32.687338 8.680079,21.700256 10.850127,-8.463075 z"
         style="fill:#a4a4a4;fill-opacity:1;stroke:none;stroke-width:0.991565;stroke-linecap:round;stroke-linejoin:round"
         id="path1486" /><path
         d="M 2.3073781,49.830492 22.054625,47.226548 9.2514531,37.244325 Z"
         style="fill:#9a9a9a;fill-opacity:1;stroke:none;stroke-width:0.991565;stroke-linecap:round;stroke-linejoin:round"
         id="path1488" /><path
         d="m 113.19597,56.991537 8.6802,-18.228178 -15.8417,7.16116 z"
         style="fill:#6d6d6d;fill-opacity:1;stroke:none;stroke-width:0.991565;stroke-linecap:round;stroke-linejoin:round"
         id="path1490" /><path
         d="M 74.786116,46.792538 95.184343,54.387594 86.504264,32.687338 Z"
         style="fill:#6d6d6d;fill-opacity:1;stroke:none;stroke-width:0.991565;stroke-linecap:round;stroke-linejoin:round"
         id="path1492" /><path
         d="M 113.19597,56.991537 130.55522,52.00054 121.87617,38.763359 Z"
         style="fill:#868686;fill-opacity:1;stroke:none;stroke-width:0.991565;stroke-linecap:round;stroke-linejoin:round"
         id="path1494" /><path
         d="M 22.054625,47.226548 36.810726,61.331634 39.848793,41.367417 Z"
         style="fill:#949494;fill-opacity:1;stroke:none;stroke-width:0.991565;stroke-linecap:round;stroke-linejoin:round"
         id="path1496" /><path
         d="m 61.548935,50.264502 8.68008,11.935152 4.557101,-15.407116 z"
         style="fill:#4c4c4c;fill-opacity:1;stroke:none;stroke-width:0.991565;stroke-linecap:round;stroke-linejoin:round"
         id="path1498" /><path
         d="m 95.184343,54.387594 18.011627,2.603943 -7.1615,-11.067018 z"
         style="fill:#676767;fill-opacity:1;stroke:none;stroke-width:0.991565;stroke-linecap:round;stroke-linejoin:round"
         id="path1500" /><path
         d="M 2.3073781,49.830492 14.025445,64.586707 22.054625,47.226548 Z"
         style="fill:#5d5d5d;fill-opacity:1;stroke:none;stroke-width:0.991565;stroke-linecap:round;stroke-linejoin:round"
         id="path1502" /><path
         d="M 83.900206,64.803712 95.184343,54.387594 74.786116,46.792538 Z"
         style="fill:#646464;fill-opacity:1;stroke:none;stroke-width:0.991565;stroke-linecap:round;stroke-linejoin:round"
         id="path1504" /><path
         d="m 70.229015,62.199654 13.671191,2.604058 -9.11409,-18.011174 z"
         style="fill:#414141;fill-opacity:1;stroke:none;stroke-width:0.991565;stroke-linecap:round;stroke-linejoin:round"
         id="path1506" /><path
         d="M 36.810726,61.331634 61.548935,50.264502 39.848793,41.367417 Z"
         style="fill:#929292;fill-opacity:1;stroke:none;stroke-width:0.991565;stroke-linecap:round;stroke-linejoin:round"
         id="path1508" /><path
         d="m 36.810726,61.331634 16.492139,4.774107 8.24607,-15.841239 z"
         style="fill:#8a8a8a;fill-opacity:1;stroke:none;stroke-width:0.991565;stroke-linecap:round;stroke-linejoin:round"
         id="path1510" /><path
         d="M 0.57136218,64.803712 14.025445,64.586707 2.3073781,49.830492 Z"
         style="fill:#606060;fill-opacity:1;stroke:none;stroke-width:0.991565;stroke-linecap:round;stroke-linejoin:round"
         id="path1512" /><path
         d="m 53.302865,66.105741 16.92615,-3.906087 -8.68008,-11.935152 z"
         style="fill:#707070;fill-opacity:1;stroke:none;stroke-width:0.991565;stroke-linecap:round;stroke-linejoin:round"
         id="path1514" /><path
         d="M 14.025445,64.586707 36.810726,61.331634 22.054625,47.226548 Z"
         style="fill:#707070;fill-opacity:1;stroke:none;stroke-width:0.991565;stroke-linecap:round;stroke-linejoin:round"
         id="path1516" /><path
         d="m 95.184343,54.387594 8.680077,18.445183 9.33155,-15.84124 z"
         style="fill:#787878;fill-opacity:1;stroke:none;stroke-width:0.991565;stroke-linecap:round;stroke-linejoin:round"
         id="path1518" /><path
         d="m 113.19597,56.991537 21.69935,13.888196 -4.3401,-18.879193 z"
         style="fill:#6f6f6f;fill-opacity:1;stroke:none;stroke-width:0.991565;stroke-linecap:round;stroke-linejoin:round"
         id="path1520" /><path
         d="M 74.786116,76.30474 83.900206,64.803712 70.229015,62.199654 Z"
         style="fill:#868686;fill-opacity:1;stroke:none;stroke-width:0.991565;stroke-linecap:round;stroke-linejoin:round"
         id="path1522" /><path
         d="M 83.900206,64.803712 103.86442,72.832777 95.184343,54.387594 Z"
         style="fill:#747474;fill-opacity:1;stroke:none;stroke-width:0.991565;stroke-linecap:round;stroke-linejoin:round"
         id="path1524" /><path
         d="M 38.980774,76.521745 53.302865,66.105741 36.810726,61.331634 Z"
         style="fill:#9a9a9a;fill-opacity:1;stroke:none;stroke-width:0.991565;stroke-linecap:round;stroke-linejoin:round"
         id="path1526" /><path
         d="M 89.325212,79.342808 103.86442,72.832777 83.900206,64.803712 Z"
         style="fill:#9a9a9a;fill-opacity:1;stroke:none;stroke-width:0.991565;stroke-linecap:round;stroke-linejoin:round"
         id="path1528" /><path
         d="M 22.27163,79.776818 36.810726,61.331634 14.025445,64.586707 Z"
         style="fill:#404040;fill-opacity:1;stroke:none;stroke-width:0.991565;stroke-linecap:round;stroke-linejoin:round"
         id="path1530" /><path
         d="m 103.86442,72.832777 11.5016,7.81206 -2.17005,-23.6533 z"
         style="fill:#737373;fill-opacity:1;stroke:none;stroke-width:0.991565;stroke-linecap:round;stroke-linejoin:round"
         id="path1532" /><path
         d="M 22.27163,79.776818 38.980774,76.521745 36.810726,61.331634 Z"
         style="fill:#7d7d7d;fill-opacity:1;stroke:none;stroke-width:0.991565;stroke-linecap:round;stroke-linejoin:round"
         id="path1534" /><path
         d="m 115.36602,80.644837 19.5293,-9.765104 -21.69935,-13.888196 z"
         style="fill:#5e5e5e;fill-opacity:1;stroke:none;stroke-width:0.991565;stroke-linecap:round;stroke-linejoin:round"
         id="path1536" /><path
         d="M 74.786116,76.30474 89.325212,79.342808 83.900206,64.803712 Z"
         style="fill:#a0a0a0;fill-opacity:1;stroke:none;stroke-width:0.991565;stroke-linecap:round;stroke-linejoin:round"
         id="path1538" /><path
         d="M 4.260456,82.597881 14.025445,64.586707 0.57136218,64.803712 Z"
         style="fill:#828282;fill-opacity:1;stroke:none;stroke-width:0.991565;stroke-linecap:round;stroke-linejoin:round"
         id="path1540" /><path
         d="M 58.727986,82.163871 70.229015,62.199654 53.302865,66.105741 Z"
         style="fill:#898989;fill-opacity:1;stroke:none;stroke-width:0.991565;stroke-linecap:round;stroke-linejoin:round"
         id="path1542" /><path
         d="M 58.727986,82.163871 74.786116,76.30474 70.229015,62.199654 Z"
         style="fill:#7d7d7d;fill-opacity:1;stroke:none;stroke-width:0.991565;stroke-linecap:round;stroke-linejoin:round"
         id="path1544" /><path
         d="M 4.260456,82.597881 22.27163,79.776818 14.025445,64.586707 Z"
         style="fill:#585858;fill-opacity:1;stroke:none;stroke-width:0.991565;stroke-linecap:round;stroke-linejoin:round"
         id="path1546" /><path
         d="m 38.980774,76.521745 19.747212,5.642126 -5.425121,-16.05813 z"
         style="fill:#a4a4a4;fill-opacity:1;stroke:none;stroke-width:0.991565;stroke-linecap:round;stroke-linejoin:round"
         id="path1548" /><path
         d="m 115.36602,80.644837 16.92615,5.425007 2.60315,-15.190111 z"
         style="fill:#606060;fill-opacity:1;stroke:none;stroke-width:0.991565;stroke-linecap:round;stroke-linejoin:round"
         id="path1550" /><path
         d="M 98.222411,89.541921 103.86442,72.832777 89.325212,79.342808 Z"
         style="fill:#bdbdbd;fill-opacity:1;stroke:none;stroke-width:0.991565;stroke-linecap:round;stroke-linejoin:round"
         id="path1552" /><path
         d="M 58.727986,82.163871 73.701092,88.673902 74.786116,76.30474 Z"
         style="fill:#7e7e7e;fill-opacity:1;stroke:none;stroke-width:0.991565;stroke-linecap:round;stroke-linejoin:round"
         id="path1554" /><path
         d="M 73.701092,88.673902 89.325212,79.342808 74.786116,76.30474 Z"
         style="fill:#9b9b9b;fill-opacity:1;stroke:none;stroke-width:0.991565;stroke-linecap:round;stroke-linejoin:round"
         id="path1556" /><path
         d="m 98.222411,89.541921 17.143609,-8.897084 -11.5016,-7.81206 z"
         style="fill:#a2a2a2;fill-opacity:1;stroke:none;stroke-width:0.991565;stroke-linecap:round;stroke-linejoin:round"
         id="path1558" /><path
         d="M 12.723531,95.834948 22.27163,79.776818 4.260456,82.597881 Z"
         style="fill:#777777;fill-opacity:1;stroke:none;stroke-width:0.991565;stroke-linecap:round;stroke-linejoin:round"
         id="path1560" /><path
         d="M 38.980774,76.521745 56.123928,94.749923 58.727986,82.163871 Z"
         style="fill:#9f9f9f;fill-opacity:1;stroke:none;stroke-width:0.991565;stroke-linecap:round;stroke-linejoin:round"
         id="path1562" /><path
         d="M 87.155278,99.307025 98.222411,89.541921 89.325212,79.342808 Z"
         style="fill:#aaaaaa;fill-opacity:1;stroke:none;stroke-width:0.991565;stroke-linecap:round;stroke-linejoin:round"
         id="path1564" /><path
         d="M 56.123928,94.749923 73.701092,88.673902 58.727986,82.163871 Z"
         style="fill:#868686;fill-opacity:1;stroke:none;stroke-width:0.991565;stroke-linecap:round;stroke-linejoin:round"
         id="path1566" /><path
         d="M 73.701092,88.673902 87.155278,99.307025 89.325212,79.342808 Z"
         style="fill:#8a8a8a;fill-opacity:1;stroke:none;stroke-width:0.991565;stroke-linecap:round;stroke-linejoin:round"
         id="path1568" /><path
         d="M 39.631789,100.39239 56.123928,94.749923 38.980774,76.521745 Z"
         style="fill:#8c8c8c;fill-opacity:1;stroke:none;stroke-width:0.991565;stroke-linecap:round;stroke-linejoin:round"
         id="path1570" /><path
         d="m 107.55316,101.91108 7.81286,-21.266243 -17.143609,8.897084 z"
         style="fill:#a5a5a5;fill-opacity:1;stroke:none;stroke-width:0.991565;stroke-linecap:round;stroke-linejoin:round"
         id="path1572" /><path
         d="M 22.27163,79.776818 39.631789,100.39239 38.980774,76.521745 Z"
         style="fill:#757575;fill-opacity:1;stroke:none;stroke-width:0.991565;stroke-linecap:round;stroke-linejoin:round"
         id="path1574" /><path
         d="m 56.123928,94.749923 15.841125,5.208231 1.736039,-11.284252 z"
         style="fill:#7b7b7b;fill-opacity:1;stroke:none;stroke-width:0.991565;stroke-linecap:round;stroke-linejoin:round"
         id="path1576" /><path
         d="m 115.36602,80.644837 9.76465,22.134723 7.1615,-16.709716 z"
         style="fill:#7e7e7e;fill-opacity:1;stroke:none;stroke-width:0.991565;stroke-linecap:round;stroke-linejoin:round"
         id="path1578" /><path
         d="M 71.965053,99.958154 87.155278,99.307025 73.701092,88.673902 Z"
         style="fill:#6d6d6d;fill-opacity:1;stroke:none;stroke-width:0.991565;stroke-linecap:round;stroke-linejoin:round"
         id="path1580" /><path
         d="m 107.55316,101.91108 17.57751,0.86848 -9.76465,-22.134723 z"
         style="fill:#a8a8a8;fill-opacity:1;stroke:none;stroke-width:0.991565;stroke-linecap:round;stroke-linejoin:round"
         id="path1582" /><path
         d="M 26.177602,107.33563 22.27163,79.776818 12.723531,95.834948 Z"
         style="fill:#696969;fill-opacity:1;stroke:none;stroke-width:0.991565;stroke-linecap:round;stroke-linejoin:round"
         id="path1584" /><path
         d="M 26.177602,107.33563 39.631789,100.39239 22.27163,79.776818 Z"
         style="fill:#555555;fill-opacity:1;stroke:none;stroke-width:0.991565;stroke-linecap:round;stroke-linejoin:round"
         id="path1586" /><path
         d="M 58.944991,109.07259 71.965053,99.958154 56.123928,94.749923 Z"
         style="fill:#898989;fill-opacity:1;stroke:none;stroke-width:0.991565;stroke-linecap:round;stroke-linejoin:round"
         id="path1588" /><path
         d="M 87.155278,99.307025 107.55316,101.91108 98.222411,89.541921 Z"
         style="fill:#8e8e8e;fill-opacity:1;stroke:none;stroke-width:0.991565;stroke-linecap:round;stroke-linejoin:round"
         id="path1590" /><path
         d="m 107.55316,101.91108 9.98291,11.06736 7.5946,-10.19888 z"
         style="fill:#9f9f9f;fill-opacity:1;stroke:none;stroke-width:0.991565;stroke-linecap:round;stroke-linejoin:round"
         id="path1592" /><path
         d="M 93.665309,113.41268 107.55316,101.91108 87.155278,99.307025 Z"
         style="fill:#888888;fill-opacity:1;stroke:none;stroke-width:0.991565;stroke-linecap:round;stroke-linejoin:round"
         id="path1594" /><path
         d="m 39.631789,100.39239 19.313202,8.6802 -2.821063,-14.322667 z"
         style="fill:#a6a6a6;fill-opacity:1;stroke:none;stroke-width:0.991565;stroke-linecap:round;stroke-linejoin:round"
         id="path1596" /><path
         d="M 75.654136,114.0629 87.155278,99.307025 71.965053,99.958154 Z"
         style="fill:#8f8f8f;fill-opacity:1;stroke:none;stroke-width:0.991565;stroke-linecap:round;stroke-linejoin:round"
         id="path1598" /><path
         d="M 58.944991,109.07259 75.654136,114.0629 71.965053,99.958154 Z"
         style="fill:#949494;fill-opacity:1;stroke:none;stroke-width:0.991565;stroke-linecap:round;stroke-linejoin:round"
         id="path1600" /><path
         d="m 26.177602,107.33563 11.067133,10.63313 2.387054,-17.57637 z"
         style="fill:#878787;fill-opacity:1;stroke:none;stroke-width:0.991565;stroke-linecap:round;stroke-linejoin:round"
         id="path1602" /><path
         d="M 75.654136,114.0629 93.665309,113.41268 87.155278,99.307025 Z"
         style="fill:#868686;fill-opacity:1;stroke:none;stroke-width:0.991565;stroke-linecap:round;stroke-linejoin:round"
         id="path1604" /><path
         d="m 37.244735,117.96876 21.700256,-8.89617 -19.313202,-8.6802 z"
         style="fill:#afafaf;fill-opacity:1;stroke:none;stroke-width:0.991565;stroke-linecap:round;stroke-linejoin:round"
         id="path1606" /><path
         d="m 101.04336,123.17733 6.5098,-21.26625 -13.887851,11.5016 z"
         style="fill:#7f7f7f;fill-opacity:1;stroke:none;stroke-width:0.991565;stroke-linecap:round;stroke-linejoin:round"
         id="path1608" /><path
         d="m 37.244735,117.96876 12.152157,5.85993 9.548099,-14.7561 z"
         style="fill:#909090;fill-opacity:1;stroke:none;stroke-width:0.991565;stroke-linecap:round;stroke-linejoin:round"
         id="path1610" /><path
         d="m 101.04336,123.17733 16.49271,-10.19889 -9.98291,-11.06736 z"
         style="fill:#8a8a8a;fill-opacity:1;stroke:none;stroke-width:0.991565;stroke-linecap:round;stroke-linejoin:round"
         id="path1612" /><path
         d="M 63.284974,126.86607 75.654136,114.0629 58.944991,109.07259 Z"
         style="fill:#aeaeae;fill-opacity:1;stroke:none;stroke-width:0.991565;stroke-linecap:round;stroke-linejoin:round"
         id="path1614" /><path
         d="m 75.654136,114.0629 9.331094,13.67165 8.680079,-14.32187 z"
         style="fill:#a9a9a9;fill-opacity:1;stroke:none;stroke-width:0.991565;stroke-linecap:round;stroke-linejoin:round"
         id="path1616" /><path
         d="m 49.396892,123.82869 13.888082,3.03738 -4.339983,-17.79348 z"
         style="fill:#a8a8a8;fill-opacity:1;stroke:none;stroke-width:0.991565;stroke-linecap:round;stroke-linejoin:round"
         id="path1618" /><path
         d="m 84.98523,127.73455 16.05813,-4.55722 -7.378051,-9.76465 z"
         style="fill:#7e7e7e;fill-opacity:1;stroke:none;stroke-width:0.991565;stroke-linecap:round;stroke-linejoin:round"
         id="path1620" /><path
         d="M 63.284974,126.86607 84.98523,127.73455 75.654136,114.0629 Z"
         style="fill:#c2c2c2;fill-opacity:1;stroke:none;stroke-width:0.991565;stroke-linecap:round;stroke-linejoin:round"
         id="path1622" /></g></g><metadata
     id="metadata132"><rdf:RDF><cc:Work
         rdf:about=""><cc:license
           rdf:resource="http://creativecommons.org/licenses/by-sa/4.0/" /></cc:Work><cc:License
         rdf:about="http://creativecommons.org/licenses/by-sa/4.0/"><cc:permits
           rdf:resource="http://creativecommons.org/ns#Reproduction" /><cc:permits
           rdf:resource="http://creativecommons.org/ns#Distribution" /><cc:requires
           rdf:resource="http://creativecommons.org/ns#Notice" /><cc:requires
           rdf:resource="http://creativecommons.org/ns#Attribution" /><cc:permits
           rdf:resource="http://creativecommons.org/ns#DerivativeWorks" /><cc:requires
           rdf:resource="http://creativecommons.org/ns#ShareAlike" /></cc:License></rdf:RDF></metadata></svg>
