<?xml version="1.0" encoding="UTF-8" standalone="no"?>
<!-- Created with Inkscape (http://www.inkscape.org/) -->

<svg
   width="1023.9999"
   height="512"
   viewBox="0 0 270.93333 135.46667"
   version="1.1"
   id="svg5"
   xml:space="preserve"
   xmlns="http://www.w3.org/2000/svg"
   xmlns:svg="http://www.w3.org/2000/svg"
   xmlns:rdf="http://www.w3.org/1999/02/22-rdf-syntax-ns#"
   xmlns:cc="http://creativecommons.org/ns#"><defs
     id="defs2" /><g
     id="layer1"
     transform="matrix(1.7580339,0,0,1.7580339,-48.87979,-9.7346757)"><path
       id="path554"
       style="fill:#ffffff;fill-opacity:1;stroke-width:0.0657227"
       d="m 52.919132,24.096168 -6.981125,12.978337 0.05672,15.339456 6.56066,11.62015 4.790842,-0.481936 5.08734,-6.990295 2.259229,-12.518137 -5.028584,-17.256675 z m 2.365194,6.622474 1.296033,4.107843 -1.274297,3.818137 -1.719554,-1.390791 -0.06215,-4.767407 z" /><path
       id="path1236"
       style="fill:#ffffff;fill-opacity:1;stroke-width:0.1"
       d="m 118.34854,26.236254 -8.58655,4.32325 -7.2993,-0.187069 -9.880532,-3.907255 -8.855274,4.453992 -6.514848,25.284761 8.41189,5.690092 9.851595,-9.0873 17.618559,-0.379822 5.00745,4.903577 7.08897,4.366658 7.31635,-5.388301 -1.9668,-15.719454 -5.70457,-11.897465 z m -25.705921,4.693253 1.723926,4.788855 4.141349,2.305802 -4.74803,1.650029 -1.451591,5.434294 -2.131653,-5.895765 -4.491716,-0.703833 4.53409,-2.827734 z m 26.431981,0.928626 0.0951,4.297412 -2.49235,-1.318783 z m 3.45612,3.972367 0.38085,3.736206 -2.92178,-1.502234 z m -7.44865,0.15658 0.30283,3.403409 -2.47892,-1.497066 z m 3.49798,3.634403 1.08107,3.870048 -3.01273,-1.584916 z m -8.7421,5.414657 2.50062,2.703711 -5.13767,0.145727 z m -7.33547,0.08113 -1.39888,2.784843 -2.567284,-2.566252 z" /><g
       id="g1359"
       transform="translate(-4.9941025,-1.7209543)"
       style="fill:#ffffff;fill-opacity:1"><path
         id="path1313"
         style="fill:#ffffff;fill-opacity:1;stroke-width:0.1"
         d="m 154.4035,45.906242 -9.25525,1.540991 -1.15652,8.013981 10.54664,-0.05219 z m -3.42047,3.439583 -2.42311,1.207678 3.29593,0.552938 -3.82974,0.249081 0.77876,1.769917 -2.5492,-2.375565 z" /><path
         id="path1315"
         style="fill:#ffffff;fill-opacity:1;stroke-width:0.1"
         d="m 166.50405,45.494381 -7.62848,0.632519 -1.14773,9.212358 9.39271,-0.331763 z m -4.11861,2.502173 0.19327,3.842659 1.73529,-1.061951 -2.56005,3.646289 -1.31,-4.524271 1.14774,2.06654 z" /><path
         id="path1317"
         style="fill:#ffffff;fill-opacity:1;stroke-width:0.1"
         d="m 167.81405,36.110974 -8.4367,1.09399 -0.73432,7.271908 10.18284,-0.330213 z m -3.64164,1.406116 1.10794,3.843176 -1.18081,-1.909444 -0.68057,3.546037 0.17931,-3.374471 -1.48311,0.672827 z" /><path
         id="path1319"
         style="fill:#ffffff;fill-opacity:1;stroke-width:0.1"
         d="m 171.60296,46.051453 -0.45733,9.257832 9.21287,-0.387056 -1.07797,-8.811865 z m 2.8205,2.873209 4.331,0.587561 -2.21123,2.354379 0.29766,-1.37511 -3.52847,0.07493 3.2799,-0.733289 z" /></g></g><metadata
     id="metadata1361"><rdf:RDF><cc:Work
         rdf:about=""><cc:license
           rdf:resource="http://creativecommons.org/licenses/by-sa/4.0/" /></cc:Work><cc:License
         rdf:about="http://creativecommons.org/licenses/by-sa/4.0/"><cc:permits
           rdf:resource="http://creativecommons.org/ns#Reproduction" /><cc:permits
           rdf:resource="http://creativecommons.org/ns#Distribution" /><cc:requires
           rdf:resource="http://creativecommons.org/ns#Notice" /><cc:requires
           rdf:resource="http://creativecommons.org/ns#Attribution" /><cc:permits
           rdf:resource="http://creativecommons.org/ns#DerivativeWorks" /><cc:requires
           rdf:resource="http://creativecommons.org/ns#ShareAlike" /></cc:License></rdf:RDF></metadata></svg>
