<?xml version="1.0" encoding="UTF-8" standalone="no"?>
<!-- Created with Inkscape (http://www.inkscape.org/) -->

<svg
   width="512"
   height="512"
   viewBox="0 0 135.46666 135.46667"
   version="1.1"
   id="svg5"
   xml:space="preserve"
   xmlns="http://www.w3.org/2000/svg"
   xmlns:svg="http://www.w3.org/2000/svg"
   xmlns:rdf="http://www.w3.org/1999/02/22-rdf-syntax-ns#"
   xmlns:cc="http://creativecommons.org/ns#"><defs
     id="defs2" /><g
     id="g550"
     style="display:inline"><g
       id="g106072"
       style="stroke:none"><path
         d="M 35.541666,12.445646 54.449731,7.1801999 30.754908,3.0768e-7 Z"
         style="fill:#4ff294;fill-opacity:1;stroke:none;stroke-width:1;stroke-linecap:round;stroke-linejoin:round"
         id="path426" /><path
         d="M 35.541666,12.445646 48.226782,21.062037 54.449731,7.1801999 Z"
         style="fill:#51ecb0;fill-opacity:1;stroke:none;stroke-width:1;stroke-linecap:round;stroke-linejoin:round"
         id="path428" /><path
         d="M 12.31255,8.5014453 35.541666,12.445646 30.754908,3.0768e-7 Z"
         style="fill:#40e99b;fill-opacity:1;stroke:none;stroke-width:1;stroke-linecap:round;stroke-linejoin:round"
         id="path430" /><path
         d="M 12.31255,8.5014453 24.532085,23.934041 35.541666,12.445646 Z"
         style="fill:#2cd9a1;fill-opacity:1;stroke:none;stroke-width:1;stroke-linecap:round;stroke-linejoin:round"
         id="path432" /><path
         d="M 48.226782,21.062037 70.485539,24.652073 54.449731,7.1801999 Z"
         style="fill:#68ebbf;fill-opacity:1;stroke:none;stroke-width:1;stroke-linecap:round;stroke-linejoin:round"
         id="path434" /><path
         d="M 4.9061142,31.11424 24.532085,23.934041 12.31255,8.5014453 Z"
         style="fill:#28d6a0;fill-opacity:1;stroke:none;stroke-width:1;stroke-linecap:round;stroke-linejoin:round"
         id="path436" /><path
         d="M 93.462329,33.986371 54.449731,7.1801999 70.485539,24.652073 Z"
         style="fill:#8be5cb;fill-opacity:1;stroke:none;stroke-width:1;stroke-linecap:round;stroke-linejoin:round"
         id="path438" /><path
         d="M 24.532085,23.934041 48.226782,21.062037 35.541666,12.445646 Z"
         style="fill:#40e2af;fill-opacity:1;stroke:none;stroke-width:1;stroke-linecap:round;stroke-linejoin:round"
         id="path440" /><path
         d="M 48.226782,21.062037 66.656158,36.858501 70.485539,24.652073 Z"
         style="fill:#72dcd5;fill-opacity:1;stroke:none;stroke-width:1;stroke-linecap:round;stroke-linejoin:round"
         id="path442" /><path
         d="M 48.944814,41.884729 66.656158,36.858501 48.226782,21.062037 Z"
         style="fill:#61d1dc;fill-opacity:1;stroke:none;stroke-width:1;stroke-linecap:round;stroke-linejoin:round"
         id="path444" /><path
         d="M 24.532085,23.934041 48.944814,41.884729 48.226782,21.062037 Z"
         style="fill:#42d3c9;fill-opacity:1;stroke:none;stroke-width:1;stroke-linecap:round;stroke-linejoin:round"
         id="path446" /><path
         d="m 66.656158,36.858501 26.806171,-2.87213 -22.97679,-9.334298 z"
         style="fill:#90d7d9;fill-opacity:1;stroke:none;stroke-width:1;stroke-linecap:round;stroke-linejoin:round"
         id="path448" /><path
         d="M 66.656158,36.858501 83.649343,47.389519 93.462329,33.986371 Z"
         style="fill:#a1c3e5;fill-opacity:1;stroke:none;stroke-width:1;stroke-linecap:round;stroke-linejoin:round"
         id="path450" /><path
         d="M 4.9061142,31.11424 25.72868,45.235421 24.532085,23.934041 Z"
         style="fill:#1bc2ab;fill-opacity:1;stroke:none;stroke-width:1;stroke-linecap:round;stroke-linejoin:round"
         id="path452" /><path
         d="M 25.72868,45.235421 48.944814,41.884729 24.532085,23.934041 Z"
         style="fill:#33c3cb;fill-opacity:1;stroke:none;stroke-width:1;stroke-linecap:round;stroke-linejoin:round"
         id="path454" /><path
         d="M 70.485539,52.894435 83.649343,47.389519 66.656158,36.858501 Z"
         style="fill:#90b7ef;fill-opacity:1;stroke:none;stroke-width:1;stroke-linecap:round;stroke-linejoin:round"
         id="path456" /><path
         d="M 9.4535277,55.048407 25.72868,45.235421 4.9061142,31.11424 Z"
         style="fill:#14aeb0;fill-opacity:1;stroke:none;stroke-width:1;stroke-linecap:round;stroke-linejoin:round"
         id="path458" /><path
         d="M 83.649343,47.389519 105.66876,53.13378 93.462329,33.986371 Z"
         style="fill:#c2b8db;fill-opacity:1;stroke:none;stroke-width:1;stroke-linecap:round;stroke-linejoin:round"
         id="path460" /><path
         d="M 48.944814,41.884729 70.485539,52.894435 66.656158,36.858501 Z"
         style="fill:#74beef;fill-opacity:1;stroke:none;stroke-width:1;stroke-linecap:round;stroke-linejoin:round"
         id="path462" /><path
         d="m 25.72868,45.235421 22.019413,14.59987 1.196721,-17.950562 z"
         style="fill:#3aaee0;fill-opacity:1;stroke:none;stroke-width:1;stroke-linecap:round;stroke-linejoin:round"
         id="path464" /><path
         d="M 29.797532,61.271356 47.748093,59.835291 25.72868,45.235421 Z"
         style="fill:#309dde;fill-opacity:1;stroke:none;stroke-width:1;stroke-linecap:round;stroke-linejoin:round"
         id="path466" /><path
         d="M 47.748093,59.835291 70.485539,52.894435 48.944814,41.884729 Z"
         style="fill:#5fa9f3;fill-opacity:1;stroke:none;stroke-width:1;stroke-linecap:round;stroke-linejoin:round"
         id="path468" /><path
         d="M 9.4535277,55.048407 29.797532,61.271356 25.72868,45.235421 Z"
         style="fill:#1c9cc9;fill-opacity:1;stroke:none;stroke-width:1;stroke-linecap:round;stroke-linejoin:round"
         id="path470" /><path
         d="M 70.485539,52.894435 85.324753,66.536802 83.649343,47.389519 Z"
         style="fill:#a0a2f5;fill-opacity:1;stroke:none;stroke-width:1;stroke-linecap:round;stroke-linejoin:round"
         id="path472" /><path
         d="M 85.324753,66.536802 105.66876,53.13378 83.649343,47.389519 Z"
         style="fill:#bf9ae9;fill-opacity:1;stroke:none;stroke-width:1;stroke-linecap:round;stroke-linejoin:round"
         id="path474" /><path
         d="M 69.049474,78.74323 85.324753,66.536802 70.485539,52.894435 Z"
         style="fill:#9888fb;fill-opacity:1;stroke:none;stroke-width:1;stroke-linecap:round;stroke-linejoin:round"
         id="path476" /><path
         d="M 47.748093,59.835291 69.049474,78.74323 70.485539,52.894435 Z"
         style="fill:#7288ff;fill-opacity:1;stroke:none;stroke-width:1;stroke-linecap:round;stroke-linejoin:round"
         id="path478" /><path
         d="m 29.797532,61.271356 11.727739,19.865315 6.222822,-21.30138 z"
         style="fill:#377ae8;fill-opacity:1;stroke:none;stroke-width:1;stroke-linecap:round;stroke-linejoin:round"
         id="path480" /><path
         d="M 15.197662,82.333392 29.797532,61.271356 9.4535277,55.048407 Z"
         style="fill:#127fc3;fill-opacity:1;stroke:none;stroke-width:1;stroke-linecap:round;stroke-linejoin:round"
         id="path482" /><path
         d="M 104.23269,83.051425 121.7052,73.477783 105.66876,53.13378 Z"
         style="fill:#e37ace;fill-opacity:1;stroke:none;stroke-width:1;stroke-linecap:round;stroke-linejoin:round"
         id="path484" /><path
         d="M 85.324753,66.536802 104.23269,83.051425 105.66876,53.13378 Z"
         style="fill:#cc7de5;fill-opacity:1;stroke:none;stroke-width:1;stroke-linecap:round;stroke-linejoin:round"
         id="path486" /><path
         d="M 41.525271,81.136671 69.049474,78.74323 47.748093,59.835291 Z"
         style="fill:#5b73f9;fill-opacity:1;stroke:none;stroke-width:1;stroke-linecap:round;stroke-linejoin:round"
         id="path488" /><path
         d="M 15.197662,82.333392 41.525271,81.136671 29.797532,61.271356 Z"
         style="fill:#2a6edd;fill-opacity:1;stroke:none;stroke-width:1;stroke-linecap:round;stroke-linejoin:round"
         id="path490" /><path
         d="M 69.049474,78.74323 84.128032,91.907034 85.324753,66.536802 Z"
         style="fill:#9b65f8;fill-opacity:1;stroke:none;stroke-width:1;stroke-linecap:round;stroke-linejoin:round"
         id="path492" /><path
         d="M 84.128032,91.907034 104.23269,83.051425 85.324753,66.536802 Z"
         style="fill:#c05ee8;fill-opacity:1;stroke:none;stroke-width:1;stroke-linecap:round;stroke-linejoin:round"
         id="path494" /><path
         d="M 15.197662,82.333392 30.515564,99.565922 41.525271,81.136671 Z"
         style="fill:#264eca;fill-opacity:1;stroke:none;stroke-width:1;stroke-linecap:round;stroke-linejoin:round"
         id="path496" /><path
         d="M 66.656158,98.129857 84.128032,91.907034 69.049474,78.74323 Z"
         style="fill:#9446f0;fill-opacity:1;stroke:none;stroke-width:1;stroke-linecap:round;stroke-linejoin:round"
         id="path498" /><path
         d="m 115.24202,101.95936 6.46318,-28.481577 -17.47251,9.573642 z"
         style="fill:#e254c4;fill-opacity:1;stroke:none;stroke-width:1;stroke-linecap:round;stroke-linejoin:round"
         id="path500" /><path
         d="m 115.24202,101.95936 15.31853,-5.744257 -8.85535,-22.73732 z"
         style="fill:#ef4fa4;fill-opacity:1;stroke:none;stroke-width:1;stroke-linecap:round;stroke-linejoin:round"
         id="path502" /><path
         d="M 41.525271,81.136671 66.656158,98.129857 69.049474,78.74323 Z"
         style="fill:#6f4ef3;fill-opacity:1;stroke:none;stroke-width:1;stroke-linecap:round;stroke-linejoin:round"
         id="path504" /><path
         d="M 53.492354,102.43805 66.656158,98.129857 41.525271,81.136671 Z"
         style="fill:#613ae7;fill-opacity:1;stroke:none;stroke-width:1;stroke-linecap:round;stroke-linejoin:round"
         id="path506" /><path
         d="M 30.515564,99.565922 53.492354,102.43805 41.525271,81.136671 Z"
         style="fill:#3f3ed8;fill-opacity:1;stroke:none;stroke-width:1;stroke-linecap:round;stroke-linejoin:round"
         id="path508" /><path
         d="M 92.026264,107.7035 104.23269,83.051425 84.128032,91.907034 Z"
         style="fill:#bb3fdb;fill-opacity:1;stroke:none;stroke-width:1;stroke-linecap:round;stroke-linejoin:round"
         id="path510" /><path
         d="M 8.7354951,109.13956 30.515564,99.565922 15.197662,82.333392 Z"
         style="fill:#1a43b2;fill-opacity:1;stroke:none;stroke-width:1;stroke-linecap:round;stroke-linejoin:round"
         id="path512" /><path
         d="M 92.026264,107.7035 115.24202,101.95936 104.23269,83.051425 Z"
         style="fill:#d03ec8;fill-opacity:1;stroke:none;stroke-width:1;stroke-linecap:round;stroke-linejoin:round"
         id="path514" /><path
         d="m 115.24202,101.95936 10.05271,13.16368 5.26582,-18.907937 z"
         style="fill:#e73997;fill-opacity:1;stroke:none;stroke-width:1;stroke-linecap:round;stroke-linejoin:round"
         id="path516" /><path
         d="m 53.492354,102.43805 15.55712,13.16393 -2.393316,-17.472123 z"
         style="fill:#7624d8;fill-opacity:1;stroke:none;stroke-width:1;stroke-linecap:round;stroke-linejoin:round"
         id="path518" /><path
         d="M 66.656158,98.129857 92.026264,107.7035 84.128032,91.907034 Z"
         style="fill:#9f31de;fill-opacity:1;stroke:none;stroke-width:1;stroke-linecap:round;stroke-linejoin:round"
         id="path520" /><path
         d="M 69.049474,115.60198 92.026264,107.7035 66.656158,98.129857 Z"
         style="fill:#9322d4;fill-opacity:1;stroke:none;stroke-width:1;stroke-linecap:round;stroke-linejoin:round"
         id="path522" /><path
         d="M 30.515564,99.565922 42.243303,119.90993 53.492354,102.43805 Z"
         style="fill:#4924c7;fill-opacity:1;stroke:none;stroke-width:1;stroke-linecap:round;stroke-linejoin:round"
         id="path524" /><path
         d="m 92.026264,107.7035 13.163806,14.3604 10.05195,-20.10454 z"
         style="fill:#cd26b1;fill-opacity:1;stroke:none;stroke-width:1;stroke-linecap:round;stroke-linejoin:round"
         id="path526" /><path
         d="m 105.19007,122.0639 20.10466,-6.94086 -10.05271,-13.16368 z"
         style="fill:#dc2996;fill-opacity:1;stroke:none;stroke-width:1;stroke-linecap:round;stroke-linejoin:round"
         id="path528" /><path
         d="M 8.7354951,109.13956 24.77143,127.80866 30.515564,99.565922 Z"
         style="fill:#2729a0;fill-opacity:1;stroke:none;stroke-width:1;stroke-linecap:round;stroke-linejoin:round"
         id="path530" /><path
         d="M 24.77143,127.80866 42.243303,119.90993 30.515564,99.565922 Z"
         style="fill:#3821b0;fill-opacity:1;stroke:none;stroke-width:1;stroke-linecap:round;stroke-linejoin:round"
         id="path532" /><path
         d="m 42.243303,119.90993 26.806171,-4.30795 -15.55712,-13.16393 z"
         style="fill:#691acb;fill-opacity:1;stroke:none;stroke-width:1;stroke-linecap:round;stroke-linejoin:round"
         id="path534" /><path
         d="m 80.777213,130.2021 11.249051,-22.4986 -22.97679,7.89848 z"
         style="fill:#9b14bf;fill-opacity:1;stroke:none;stroke-width:1;stroke-linecap:round;stroke-linejoin:round"
         id="path536" /><path
         d="M 80.777213,130.2021 105.19007,122.0639 92.026264,107.7035 Z"
         style="fill:#b616ae;fill-opacity:1;stroke:none;stroke-width:1;stroke-linecap:round;stroke-linejoin:round"
         id="path538" /><path
         d="m 52.534977,135.46667 16.514497,-19.86469 -26.806171,4.30795 z"
         style="fill:#650bab;fill-opacity:1;stroke:none;stroke-width:1;stroke-linecap:round;stroke-linejoin:round"
         id="path540" /><path
         d="M 9.4535277,55.048407 8.7354951,109.13956 15.197662,82.333392 Z"
         style="fill:#0d62b1;fill-opacity:1;stroke:none;stroke-width:1;stroke-linecap:round;stroke-linejoin:round"
         id="path542" /><path
         d="M 52.534977,135.46667 80.777213,130.2021 69.049474,115.60198 Z"
         style="fill:#8009b0;fill-opacity:1;stroke:none;stroke-width:1;stroke-linecap:round;stroke-linejoin:round"
         id="path544" /><path
         d="m 24.77143,127.80866 27.763547,7.65801 -10.291674,-15.55674 z"
         style="fill:#4f0c9d;fill-opacity:1;stroke:none;stroke-width:1;stroke-linecap:round;stroke-linejoin:round"
         id="path546" /></g></g><g
     id="layer1"
     style="display:none"><g
       id="g12108"
       transform="matrix(1.2603696,0,0,1.2603696,-19.746085,-15.79659)"
       style="stroke-width:0.793418"><path
         d="M 43.8663,22.4079 58.8683,18.2302 40.0684,12.5333 Z"
         style="fill:#c0c0c0;fill-opacity:1;stroke:none;stroke-width:0.793418;stroke-linecap:round;stroke-linejoin:round"
         id="path2493" /><path
         d="m 43.8663,22.4079 10.0646,6.8364 4.9374,-11.0141 z"
         style="fill:#a5a5a5;fill-opacity:1;stroke:none;stroke-width:0.793418;stroke-linecap:round;stroke-linejoin:round"
         id="path2495" /><path
         d="m 25.4359,19.2785 18.4304,3.1294 -3.7979,-9.8746 z"
         style="fill:#b5b5b5;fill-opacity:1;stroke:none;stroke-width:0.793418;stroke-linecap:round;stroke-linejoin:round"
         id="path2497" /><path
         d="m 25.4359,19.2785 9.6952,12.2445 8.7352,-9.1151 z"
         style="fill:#9e9e9e;fill-opacity:1;stroke:none;stroke-width:0.793418;stroke-linecap:round;stroke-linejoin:round"
         id="path2499" /><path
         d="M 53.9309,29.2443 71.5914,32.0927 58.8683,18.2302 Z"
         style="fill:#858585;fill-opacity:1;stroke:none;stroke-width:0.793418;stroke-linecap:round;stroke-linejoin:round"
         id="path2501" /><path
         d="M 19.5595,37.2199 35.1311,31.523 25.4359,19.2785 Z"
         style="fill:#747474;fill-opacity:1;stroke:none;stroke-width:0.793418;stroke-linecap:round;stroke-linejoin:round"
         id="path2503" /><path
         d="M 89.8216,39.4987 58.8683,18.2302 71.5914,32.0927 Z"
         style="fill:#9d9d9d;fill-opacity:1;stroke:none;stroke-width:0.793418;stroke-linecap:round;stroke-linejoin:round"
         id="path2505" /><path
         d="M 35.1311,31.523 53.9309,29.2443 43.8663,22.4079 Z"
         style="fill:#9d9d9d;fill-opacity:1;stroke:none;stroke-width:0.793418;stroke-linecap:round;stroke-linejoin:round"
         id="path2507" /><path
         d="m 53.9309,29.2443 14.6222,12.5332 3.0383,-9.6848 z"
         style="fill:#707070;fill-opacity:1;stroke:none;stroke-width:0.793418;stroke-linecap:round;stroke-linejoin:round"
         id="path2509" /><path
         d="M 54.5006,45.7654 68.5531,41.7775 53.9309,29.2443 Z"
         style="fill:#757575;fill-opacity:1;stroke:none;stroke-width:0.793418;stroke-linecap:round;stroke-linejoin:round"
         id="path2511" /><path
         d="M 35.1311,31.523 54.5006,45.7654 53.9309,29.2443 Z"
         style="fill:#7e7e7e;fill-opacity:1;stroke:none;stroke-width:0.793418;stroke-linecap:round;stroke-linejoin:round"
         id="path2513" /><path
         d="M 68.5531,41.7775 89.8216,39.4987 71.5914,32.0927 Z"
         style="fill:#b6b6b6;fill-opacity:1;stroke:none;stroke-width:0.793418;stroke-linecap:round;stroke-linejoin:round"
         id="path2515" /><path
         d="M 68.5531,41.7775 82.0358,50.133 89.8216,39.4987 Z"
         style="fill:#b2b2b2;fill-opacity:1;stroke:none;stroke-width:0.793418;stroke-linecap:round;stroke-linejoin:round"
         id="path2517" /><path
         d="M 19.5595,37.2199 36.0805,48.4239 35.1311,31.523 Z"
         style="fill:#4e4e4e;fill-opacity:1;stroke:none;stroke-width:0.793418;stroke-linecap:round;stroke-linejoin:round"
         id="path2519" /><path
         d="M 36.0805,48.4239 54.5006,45.7654 35.1311,31.523 Z"
         style="fill:#7e7e7e;fill-opacity:1;stroke:none;stroke-width:0.793418;stroke-linecap:round;stroke-linejoin:round"
         id="path2521" /><path
         d="M 71.5914,54.5007 82.0358,50.133 68.5531,41.7775 Z"
         style="fill:#969696;fill-opacity:1;stroke:none;stroke-width:0.793418;stroke-linecap:round;stroke-linejoin:round"
         id="path2523" /><path
         d="m 23.1675,56.2097 12.913,-7.7858 -16.521,-11.204 z"
         style="fill:#969696;fill-opacity:1;stroke:none;stroke-width:0.793418;stroke-linecap:round;stroke-linejoin:round"
         id="path2525" /><path
         d="M 82.0358,50.133 99.5064,54.6906 89.8216,39.4987 Z"
         style="fill:#969696;fill-opacity:1;stroke:none;stroke-width:0.793418;stroke-linecap:round;stroke-linejoin:round"
         id="path2527" /><path
         d="M 54.5006,45.7654 71.5914,54.5007 68.5531,41.7775 Z"
         style="fill:#6b6b6b;fill-opacity:1;stroke:none;stroke-width:0.793418;stroke-linecap:round;stroke-linejoin:round"
         id="path2529" /><path
         d="M 36.0805,48.4239 53.5511,60.0077 54.5006,45.7654 Z"
         style="fill:#717171;fill-opacity:1;stroke:none;stroke-width:0.793418;stroke-linecap:round;stroke-linejoin:round"
         id="path2531" /><path
         d="M 39.3088,61.1471 53.5511,60.0077 36.0805,48.4239 Z"
         style="fill:#707070;fill-opacity:1;stroke:none;stroke-width:0.793418;stroke-linecap:round;stroke-linejoin:round"
         id="path2533" /><path
         d="M 53.5511,60.0077 71.5914,54.5007 54.5006,45.7654 Z"
         style="fill:#6a6a6a;fill-opacity:1;stroke:none;stroke-width:0.793418;stroke-linecap:round;stroke-linejoin:round"
         id="path2535" /><path
         d="M 23.1675,56.2097 39.3088,61.1471 36.0805,48.4239 Z"
         style="fill:#707070;fill-opacity:1;stroke:none;stroke-width:0.793418;stroke-linecap:round;stroke-linejoin:round"
         id="path2537" /><path
         d="M 71.5914,54.5007 83.3651,65.3248 82.0358,50.133 Z"
         style="fill:#7e7e7e;fill-opacity:1;stroke:none;stroke-width:0.793418;stroke-linecap:round;stroke-linejoin:round"
         id="path2539" /><path
         d="M 83.3651,65.3248 99.5064,54.6906 82.0358,50.133 Z"
         style="fill:#5d5d5d;fill-opacity:1;stroke:none;stroke-width:0.793418;stroke-linecap:round;stroke-linejoin:round"
         id="path2541" /><path
         d="M 70.452,75.0096 83.3651,65.3248 71.5914,54.5007 Z"
         style="fill:#8a8a8a;fill-opacity:1;stroke:none;stroke-width:0.793418;stroke-linecap:round;stroke-linejoin:round"
         id="path2543" /><path
         d="M 53.5511,60.0077 70.452,75.0096 71.5914,54.5007 Z"
         style="fill:#868686;fill-opacity:1;stroke:none;stroke-width:0.793418;stroke-linecap:round;stroke-linejoin:round"
         id="path2545" /><path
         d="m 39.3088,61.1471 9.305,15.7615 4.9373,-16.9009 z"
         style="fill:#727272;fill-opacity:1;stroke:none;stroke-width:0.793418;stroke-linecap:round;stroke-linejoin:round"
         id="path2547" /><path
         d="M 27.725,77.8581 39.3088,61.1471 23.1675,56.2097 Z"
         style="fill:#828282;fill-opacity:1;stroke:none;stroke-width:0.793418;stroke-linecap:round;stroke-linejoin:round"
         id="path2549" /><path
         d="M 98.367,78.4278 112.23,70.8319 99.5064,54.6906 Z"
         style="fill:#838383;fill-opacity:1;stroke:none;stroke-width:0.793418;stroke-linecap:round;stroke-linejoin:round"
         id="path2551" /><path
         d="M 83.3651,65.3248 98.367,78.4278 99.5064,54.6906 Z"
         style="fill:#626262;fill-opacity:1;stroke:none;stroke-width:0.793418;stroke-linecap:round;stroke-linejoin:round"
         id="path2553" /><path
         d="M 48.6138,76.9086 70.452,75.0096 53.5511,60.0077 Z"
         style="fill:#676767;fill-opacity:1;stroke:none;stroke-width:0.793418;stroke-linecap:round;stroke-linejoin:round"
         id="path2555" /><path
         d="M 27.725,77.8581 48.6138,76.9086 39.3088,61.1471 Z"
         style="fill:#878787;fill-opacity:1;stroke:none;stroke-width:0.793418;stroke-linecap:round;stroke-linejoin:round"
         id="path2557" /><path
         d="M 70.452,75.0096 82.4156,85.454 83.3651,65.3248 Z"
         style="fill:#555555;fill-opacity:1;stroke:none;stroke-width:0.793418;stroke-linecap:round;stroke-linejoin:round"
         id="path2559" /><path
         d="M 82.4156,85.454 98.367,78.4278 83.3651,65.3248 Z"
         style="fill:#4a4a4a;fill-opacity:1;stroke:none;stroke-width:0.793418;stroke-linecap:round;stroke-linejoin:round"
         id="path2561" /><path
         d="M 27.725,77.8581 39.8785,91.5307 48.6138,76.9086 Z"
         style="fill:#adadad;fill-opacity:1;stroke:none;stroke-width:0.793418;stroke-linecap:round;stroke-linejoin:round"
         id="path2563" /><path
         d="M 68.5531,90.3913 82.4156,85.454 70.452,75.0096 Z"
         style="fill:#595959;fill-opacity:1;stroke:none;stroke-width:0.793418;stroke-linecap:round;stroke-linejoin:round"
         id="path2565" /><path
         d="M 107.102,93.4297 112.23,70.8319 98.367,78.4278 Z"
         style="fill:#a6a6a6;fill-opacity:1;stroke:none;stroke-width:0.793418;stroke-linecap:round;stroke-linejoin:round"
         id="path2567" /><path
         d="M 107.102,93.4297 119.256,88.8721 112.23,70.8319 Z"
         style="fill:#898989;fill-opacity:1;stroke:none;stroke-width:0.793418;stroke-linecap:round;stroke-linejoin:round"
         id="path2569" /><path
         d="M 48.6138,76.9086 68.5531,90.3913 70.452,75.0096 Z"
         style="fill:#484848;fill-opacity:1;stroke:none;stroke-width:0.793418;stroke-linecap:round;stroke-linejoin:round"
         id="path2571" /><path
         d="M 58.1087,93.8095 68.5531,90.3913 48.6138,76.9086 Z"
         style="fill:#363636;fill-opacity:1;stroke:none;stroke-width:0.793418;stroke-linecap:round;stroke-linejoin:round"
         id="path2573" /><path
         d="M 39.8785,91.5307 58.1087,93.8095 48.6138,76.9086 Z"
         style="fill:#737373;fill-opacity:1;stroke:none;stroke-width:0.793418;stroke-linecap:round;stroke-linejoin:round"
         id="path2575" /><path
         d="M 88.6822,97.9872 98.367,78.4278 82.4156,85.454 Z"
         style="fill:#a3a3a3;fill-opacity:1;stroke:none;stroke-width:0.793418;stroke-linecap:round;stroke-linejoin:round"
         id="path2577" /><path
         d="M 22.5978,99.1266 39.8785,91.5307 27.725,77.8581 Z"
         style="fill:#a6a6a6;fill-opacity:1;stroke:none;stroke-width:0.793418;stroke-linecap:round;stroke-linejoin:round"
         id="path2579" /><path
         d="M 88.6822,97.9872 107.102,93.4297 98.367,78.4278 Z"
         style="fill:#a6a6a6;fill-opacity:1;stroke:none;stroke-width:0.793418;stroke-linecap:round;stroke-linejoin:round"
         id="path2581" /><path
         d="m 107.102,93.4297 7.976,10.4443 4.178,-15.0019 z"
         style="fill:#666666;fill-opacity:1;stroke:none;stroke-width:0.793418;stroke-linecap:round;stroke-linejoin:round"
         id="path2583" /><path
         d="M 58.1087,93.8095 70.452,104.254 68.5531,90.3913 Z"
         style="fill:#555555;fill-opacity:1;stroke:none;stroke-width:0.793418;stroke-linecap:round;stroke-linejoin:round"
         id="path2585" /><path
         d="M 68.5531,90.3913 88.6822,97.9872 82.4156,85.454 Z"
         style="fill:#8d8d8d;fill-opacity:1;stroke:none;stroke-width:0.793418;stroke-linecap:round;stroke-linejoin:round"
         id="path2587" /><path
         d="M 70.452,104.254 88.6822,97.9872 68.5531,90.3913 Z"
         style="fill:#9e9e9e;fill-opacity:1;stroke:none;stroke-width:0.793418;stroke-linecap:round;stroke-linejoin:round"
         id="path2589" /><path
         d="m 39.8785,91.5307 9.305,16.1413 8.9252,-13.8625 z"
         style="fill:#797979;fill-opacity:1;stroke:none;stroke-width:0.793418;stroke-linecap:round;stroke-linejoin:round"
         id="path2591" /><path
         d="M 88.6822,97.9872 99.1266,109.381 107.102,93.4297 Z"
         style="fill:#8b8b8b;fill-opacity:1;stroke:none;stroke-width:0.793418;stroke-linecap:round;stroke-linejoin:round"
         id="path2593" /><path
         d="m 99.1266,109.381 15.9514,-5.507 -7.976,-10.4443 z"
         style="fill:#636363;fill-opacity:1;stroke:none;stroke-width:0.793418;stroke-linecap:round;stroke-linejoin:round"
         id="path2595" /><path
         d="M 22.5978,99.1266 35.321,113.939 39.8785,91.5307 Z"
         style="fill:#7d7d7d;fill-opacity:1;stroke:none;stroke-width:0.793418;stroke-linecap:round;stroke-linejoin:round"
         id="path2597" /><path
         d="m 35.321,113.939 13.8625,-6.267 -9.305,-16.1413 z"
         style="fill:#858585;fill-opacity:1;stroke:none;stroke-width:0.793418;stroke-linecap:round;stroke-linejoin:round"
         id="path2599" /><path
         d="M 49.1835,107.672 70.452,104.254 58.1087,93.8095 Z"
         style="fill:#5d5d5d;fill-opacity:1;stroke:none;stroke-width:0.793418;stroke-linecap:round;stroke-linejoin:round"
         id="path2601" /><path
         d="M 79.757,115.838 88.6822,97.9872 70.452,104.254 Z"
         style="fill:#cbcbcb;fill-opacity:1;stroke:none;stroke-width:0.793418;stroke-linecap:round;stroke-linejoin:round"
         id="path2603" /><path
         d="M 79.757,115.838 99.1266,109.381 88.6822,97.9872 Z"
         style="fill:#b0b0b0;fill-opacity:1;stroke:none;stroke-width:0.793418;stroke-linecap:round;stroke-linejoin:round"
         id="path2605" /><path
         d="M 57.3491,120.015 70.452,104.254 49.1835,107.672 Z"
         style="fill:#686868;fill-opacity:1;stroke:none;stroke-width:0.793418;stroke-linecap:round;stroke-linejoin:round"
         id="path2607" /><path
         d="M 23.1675,56.2097 22.5978,99.1266 27.725,77.8581 Z"
         style="fill:#bbbbbb;fill-opacity:1;stroke:none;stroke-width:0.793418;stroke-linecap:round;stroke-linejoin:round"
         id="path2609" /><path
         d="M 57.3491,120.015 79.757,115.838 70.452,104.254 Z"
         style="fill:#919191;fill-opacity:1;stroke:none;stroke-width:0.793418;stroke-linecap:round;stroke-linejoin:round"
         id="path2611" /><path
         d="m 35.321,113.939 22.0281,6.076 -8.1656,-12.343 z"
         style="fill:#696969;fill-opacity:1;stroke:none;stroke-width:0.793418;stroke-linecap:round;stroke-linejoin:round"
         id="path2613" /></g></g><metadata
     id="metadata254"><rdf:RDF><cc:Work
         rdf:about=""><cc:license
           rdf:resource="http://creativecommons.org/licenses/by-sa/4.0/" /></cc:Work><cc:License
         rdf:about="http://creativecommons.org/licenses/by-sa/4.0/"><cc:permits
           rdf:resource="http://creativecommons.org/ns#Reproduction" /><cc:permits
           rdf:resource="http://creativecommons.org/ns#Distribution" /><cc:requires
           rdf:resource="http://creativecommons.org/ns#Notice" /><cc:requires
           rdf:resource="http://creativecommons.org/ns#Attribution" /><cc:permits
           rdf:resource="http://creativecommons.org/ns#DerivativeWorks" /><cc:requires
           rdf:resource="http://creativecommons.org/ns#ShareAlike" /></cc:License></rdf:RDF></metadata></svg>
