<?xml version="1.0" encoding="UTF-8" standalone="no"?>
<!-- Created with Inkscape (http://www.inkscape.org/) -->

<svg
   width="512"
   height="512"
   viewBox="0 0 135.46666 135.46667"
   version="1.1"
   id="svg5"
   sodipodi:docname="asteroid_1.svg"
   inkscape:version="1.2.1 (9c6d41e410, 2022-07-14)"
   xml:space="preserve"
   inkscape:export-filename="asteroid.png"
   inkscape:export-xdpi="96"
   inkscape:export-ydpi="96"
   xmlns:inkscape="http://www.inkscape.org/namespaces/inkscape"
   xmlns:sodipodi="http://sodipodi.sourceforge.net/DTD/sodipodi-0.dtd"
   xmlns="http://www.w3.org/2000/svg"
   xmlns:svg="http://www.w3.org/2000/svg"
   xmlns:rdf="http://www.w3.org/1999/02/22-rdf-syntax-ns#"
   xmlns:cc="http://creativecommons.org/ns#"><sodipodi:namedview
     id="namedview7"
     pagecolor="#000000"
     bordercolor="#000000"
     borderopacity="0.25"
     inkscape:showpageshadow="2"
     inkscape:pageopacity="0"
     inkscape:pagecheckerboard="0"
     inkscape:deskcolor="#d1d1d1"
     inkscape:document-units="mm"
     showgrid="false"
     inkscape:zoom="1.4142136"
     inkscape:cx="304.40947"
     inkscape:cy="267.99347"
     inkscape:window-width="1920"
     inkscape:window-height="1011"
     inkscape:window-x="0"
     inkscape:window-y="0"
     inkscape:window-maximized="1"
     inkscape:current-layer="svg5" /><defs
     id="defs2" /><metadata
     id="metadata254"><rdf:RDF><cc:Work
         rdf:about=""><cc:license
           rdf:resource="http://creativecommons.org/licenses/by-sa/4.0/" /></cc:Work><cc:License
         rdf:about="http://creativecommons.org/licenses/by-sa/4.0/"><cc:permits
           rdf:resource="http://creativecommons.org/ns#Reproduction" /><cc:permits
           rdf:resource="http://creativecommons.org/ns#Distribution" /><cc:requires
           rdf:resource="http://creativecommons.org/ns#Notice" /><cc:requires
           rdf:resource="http://creativecommons.org/ns#Attribution" /><cc:permits
           rdf:resource="http://creativecommons.org/ns#DerivativeWorks" /><cc:requires
           rdf:resource="http://creativecommons.org/ns#ShareAlike" /></cc:License></rdf:RDF></metadata><g
     inkscape:groupmode="layer"
     id="g475"
     inkscape:label="normal_map"
     style="display:none"
     sodipodi:insensitive="true"><g
       id="g8623"><path
         d="M 25.386404,20.243162 41.800007,9.0818702 24.073298,2.07875 Z"
         style="fill:#3b19a1;fill-opacity:1;stroke:none;stroke-width:1;stroke-linecap:round;stroke-linejoin:round"
         id="path303" /><path
         d="M 3.720375,13.896479 25.386404,20.243162 24.073298,2.07875 Z"
         style="fill:#2d239d;fill-opacity:1;stroke:none;stroke-width:1;stroke-linecap:round;stroke-linejoin:round"
         id="path305" /><path
         d="M 87.320462,7.1122103 104.82867,22.431673 106.79821,7.5499125 Z"
         style="fill:#be1eb4;fill-opacity:1;stroke:none;stroke-width:1;stroke-linecap:round;stroke-linejoin:round"
         id="path307" /><path
         d="M 104.82867,22.431673 120.36606,23.088111 106.79821,7.5499125 Z"
         style="fill:#cc26b0;fill-opacity:1;stroke:none;stroke-width:1;stroke-linecap:round;stroke-linejoin:round"
         id="path309" /><path
         d="M 80.09849,18.05465 91.259782,28.121686 87.320462,7.1122103 Z"
         style="fill:#a426d3;fill-opacity:1;stroke:none;stroke-width:1;stroke-linecap:round;stroke-linejoin:round"
         id="path311" /><path
         d="M 91.259782,28.121686 104.82867,22.431673 87.320462,7.1122103 Z"
         style="fill:#b72ccd;fill-opacity:1;stroke:none;stroke-width:1;stroke-linecap:round;stroke-linejoin:round"
         id="path313" /><path
         d="M 12.474304,30.091346 25.386404,20.243162 3.720375,13.896479 Z"
         style="fill:#252a9d;fill-opacity:1;stroke:none;stroke-width:1;stroke-linecap:round;stroke-linejoin:round"
         id="path315" /><path
         d="M 41.143454,30.091346 54.055554,23.744664 41.800007,9.0818702 Z"
         style="fill:#582bd7;fill-opacity:1;stroke:none;stroke-width:1;stroke-linecap:round;stroke-linejoin:round"
         id="path317" /><path
         d="m 25.386404,20.243162 15.75705,9.848184 0.656553,-21.0094758 z"
         style="fill:#442aca;fill-opacity:1;stroke:none;stroke-width:1;stroke-linecap:round;stroke-linejoin:round"
         id="path319" /><path
         d="M 77.03469,39.939531 80.09849,18.05465 66.898276,29.001355 Z"
         style="fill:#8939ea;fill-opacity:1;stroke:none;stroke-width:1;stroke-linecap:round;stroke-linejoin:round"
         id="path321" /><path
         d="M 77.03469,39.939531 91.259782,28.121686 80.09849,18.05465 Z"
         style="fill:#9e39e5;fill-opacity:1;stroke:none;stroke-width:1;stroke-linecap:round;stroke-linejoin:round"
         id="path323" /><path
         d="M 25.386404,20.243162 30.857567,41.471489 41.143454,30.091346 Z"
         style="fill:#403ed9;fill-opacity:1;stroke:none;stroke-width:1;stroke-linecap:round;stroke-linejoin:round"
         id="path325" /><path
         d="m 104.82867,22.431673 14.88164,16.194751 0.65575,-15.538313 z"
         style="fill:#da37b5;fill-opacity:1;stroke:none;stroke-width:1;stroke-linecap:round;stroke-linejoin:round"
         id="path327" /><path
         d="M 41.143454,30.091346 52.742447,42.565629 54.055554,23.744664 Z"
         style="fill:#5c40e8;fill-opacity:1;stroke:none;stroke-width:1;stroke-linecap:round;stroke-linejoin:round"
         id="path329" /><path
         d="M 12.474304,30.091346 30.857567,41.471489 25.386404,20.243162 Z"
         style="fill:#2c3fc7;fill-opacity:1;stroke:none;stroke-width:1;stroke-linecap:round;stroke-linejoin:round"
         id="path331" /><path
         d="M 3.720375,13.896479 -1.70749e-6,43.441033 12.474304,30.091346 Z"
         style="fill:#1a3b89;fill-opacity:1;stroke:none;stroke-width:1;stroke-linecap:round;stroke-linejoin:round"
         id="path333" /><path
         d="M 52.742447,42.565629 66.898276,29.001355 54.055554,23.744664 Z"
         style="fill:#6c3fec;fill-opacity:1;stroke:none;stroke-width:1;stroke-linecap:round;stroke-linejoin:round"
         id="path335" /><path
         d="m 105.48441,44.972991 14.2259,-6.346567 -14.88164,-16.194751 z"
         style="fill:#d345cc;fill-opacity:1;stroke:none;stroke-width:1;stroke-linecap:round;stroke-linejoin:round"
         id="path337" /><path
         d="M 91.259782,28.121686 105.48441,44.972991 104.82867,22.431673 Z"
         style="fill:#bc3fdb;fill-opacity:1;stroke:none;stroke-width:1;stroke-linecap:round;stroke-linejoin:round"
         id="path339" /><path
         d="M 93.885995,43.659885 105.48441,44.972991 91.259782,28.121686 Z"
         style="fill:#b64de7;fill-opacity:1;stroke:none;stroke-width:1;stroke-linecap:round;stroke-linejoin:round"
         id="path341" /><path
         d="M 77.03469,39.939531 93.885995,43.659885 91.259782,28.121686 Z"
         style="fill:#a64aec;fill-opacity:1;stroke:none;stroke-width:1;stroke-linecap:round;stroke-linejoin:round"
         id="path343" /><path
         d="m 30.857567,41.471489 21.88488,1.09414 -11.598993,-12.474283 z"
         style="fill:#4c46e5;fill-opacity:1;stroke:none;stroke-width:1;stroke-linecap:round;stroke-linejoin:round"
         id="path345" /><path
         d="M 52.742447,42.565629 77.03469,39.939531 66.898276,29.001355 Z"
         style="fill:#8045f1;fill-opacity:1;stroke:none;stroke-width:1;stroke-linecap:round;stroke-linejoin:round"
         id="path347" /><path
         d="M 81.192746,54.821176 93.885995,43.659885 77.03469,39.939531 Z"
         style="fill:#9f57f4;fill-opacity:1;stroke:none;stroke-width:1;stroke-linecap:round;stroke-linejoin:round"
         id="path349" /><path
         d="M 52.742447,42.565629 69.593752,55.258878 77.03469,39.939531 Z"
         style="fill:#7f58f9;fill-opacity:1;stroke:none;stroke-width:1;stroke-linecap:round;stroke-linejoin:round"
         id="path351" /><path
         d="M 69.593752,55.258878 81.192746,54.821176 77.03469,39.939531 Z"
         style="fill:#905ffa;fill-opacity:1;stroke:none;stroke-width:1;stroke-linecap:round;stroke-linejoin:round"
         id="path353" /><path
         d="m 105.48441,44.972991 17.07016,9.629334 -2.84426,-15.975901 z"
         style="fill:#da57cf;fill-opacity:1;stroke:none;stroke-width:1;stroke-linecap:round;stroke-linejoin:round"
         id="path355" /><path
         d="M 14.662815,60.948892 12.474304,30.091346 -1.70749e-6,43.441033 Z"
         style="fill:#1157b0;fill-opacity:1;stroke:none;stroke-width:1;stroke-linecap:round;stroke-linejoin:round"
         id="path357" /><path
         d="M 14.662815,60.948892 30.857567,41.471489 12.474304,30.091346 Z"
         style="fill:#2a57d5;fill-opacity:1;stroke:none;stroke-width:1;stroke-linecap:round;stroke-linejoin:round"
         id="path359" /><path
         d="m 112.48788,62.699701 10.06669,-8.097376 -17.07016,-9.629334 z"
         style="fill:#d867d8;fill-opacity:1;stroke:none;stroke-width:1;stroke-linecap:round;stroke-linejoin:round"
         id="path361" /><path
         d="M 14.662815,60.948892 30.857567,58.760496 V 41.471489 Z"
         style="fill:#3066e0;fill-opacity:1;stroke:none;stroke-width:1;stroke-linecap:round;stroke-linejoin:round"
         id="path363" /><path
         d="m 30.857567,58.760496 21.88488,-16.194867 -21.88488,-1.09414 z"
         style="fill:#445deb;fill-opacity:1;stroke:none;stroke-width:1;stroke-linecap:round;stroke-linejoin:round"
         id="path365" /><path
         d="M 50.991638,61.605445 69.593752,55.258878 52.742447,42.565629 Z"
         style="fill:#7367fc;fill-opacity:1;stroke:none;stroke-width:1;stroke-linecap:round;stroke-linejoin:round"
         id="path367" /><path
         d="m 30.857567,58.760496 20.134071,2.844949 1.750809,-19.039816 z"
         style="fill:#5a67f7;fill-opacity:1;stroke:none;stroke-width:1;stroke-linecap:round;stroke-linejoin:round"
         id="path369" /><path
         d="M 97.606349,67.733276 105.48441,44.972991 93.885995,43.659885 Z"
         style="fill:#bc63ec;fill-opacity:1;stroke:none;stroke-width:1;stroke-linecap:round;stroke-linejoin:round"
         id="path371" /><path
         d="m 81.192746,54.821176 16.413603,12.9121 -3.720354,-24.073391 z"
         style="fill:#aa6bf6;fill-opacity:1;stroke:none;stroke-width:1;stroke-linecap:round;stroke-linejoin:round"
         id="path373" /><path
         d="m 97.606349,67.733276 14.881531,-5.033575 -7.00347,-17.72671 z"
         style="fill:#c96de6;fill-opacity:1;stroke:none;stroke-width:1;stroke-linecap:round;stroke-linejoin:round"
         id="path375" /><path
         d="M 69.593752,55.258878 80.755044,70.578225 81.192746,54.821176 Z"
         style="fill:#9170fd;fill-opacity:1;stroke:none;stroke-width:1;stroke-linecap:round;stroke-linejoin:round"
         id="path377" /><path
         d="M 0.2188494,72.110183 14.662815,60.948892 -1.70749e-6,43.441033 Z"
         style="fill:#1073bd;fill-opacity:1;stroke:none;stroke-width:1;stroke-linecap:round;stroke-linejoin:round"
         id="path379" /><path
         d="M 80.755044,70.578225 97.606349,67.733276 81.192746,54.821176 Z"
         style="fill:#a678f9;fill-opacity:1;stroke:none;stroke-width:1;stroke-linecap:round;stroke-linejoin:round"
         id="path381" /><path
         d="m 50.991638,61.605445 13.349803,13.349803 5.252311,-19.69637 z"
         style="fill:#767aff;fill-opacity:1;stroke:none;stroke-width:1;stroke-linecap:round;stroke-linejoin:round"
         id="path383" /><path
         d="M 64.341441,74.955248 80.755044,70.578225 69.593752,55.258878 Z"
         style="fill:#8d7ffe;fill-opacity:1;stroke:none;stroke-width:1;stroke-linecap:round;stroke-linejoin:round"
         id="path385" /><path
         d="M 14.662815,60.948892 28.012618,77.143759 30.857567,58.760496 Z"
         style="fill:#2e7de2;fill-opacity:1;stroke:none;stroke-width:1;stroke-linecap:round;stroke-linejoin:round"
         id="path387" /><path
         d="M 112.48788,62.699701 133.49712,77.143759 122.55457,54.602325 Z"
         style="fill:#e87dc8;fill-opacity:1;stroke:none;stroke-width:1;stroke-linecap:round;stroke-linejoin:round"
         id="path389" /><path
         d="M 51.429341,81.082963 64.341441,74.955248 50.991638,61.605445 Z"
         style="fill:#6887fd;fill-opacity:1;stroke:none;stroke-width:1;stroke-linecap:round;stroke-linejoin:round"
         id="path391" /><path
         d="M 122.77353,82.833772 133.49712,77.143759 112.48788,62.699701 Z"
         style="fill:#e58dcb;fill-opacity:1;stroke:none;stroke-width:1;stroke-linecap:round;stroke-linejoin:round"
         id="path393" /><path
         d="M 16.413624,83.052623 28.012618,77.143759 14.662815,60.948892 Z"
         style="fill:#248bd7;fill-opacity:1;stroke:none;stroke-width:1;stroke-linecap:round;stroke-linejoin:round"
         id="path395" /><path
         d="M 28.012618,77.143759 50.991638,61.605445 30.857567,58.760496 Z"
         style="fill:#4082ee;fill-opacity:1;stroke:none;stroke-width:1;stroke-linecap:round;stroke-linejoin:round"
         id="path397" /><path
         d="M 0.2188494,72.110183 16.413624,83.052623 14.662815,60.948892 Z"
         style="fill:#128ac0;fill-opacity:1;stroke:none;stroke-width:1;stroke-linecap:round;stroke-linejoin:round"
         id="path399" /><path
         d="M 28.012618,77.143759 51.429341,81.082963 50.991638,61.605445 Z"
         style="fill:#4f8bf5;fill-opacity:1;stroke:none;stroke-width:1;stroke-linecap:round;stroke-linejoin:round"
         id="path401" /><path
         d="M 100.23256,83.709177 112.48788,62.699701 97.606349,67.733276 Z"
         style="fill:#c386eb;fill-opacity:1;stroke:none;stroke-width:1;stroke-linecap:round;stroke-linejoin:round"
         id="path403" /><path
         d="M 80.755044,70.578225 100.23256,83.709177 97.606349,67.733276 Z"
         style="fill:#ad8bf6;fill-opacity:1;stroke:none;stroke-width:1;stroke-linecap:round;stroke-linejoin:round"
         id="path405" /><path
         d="M 100.23256,83.709177 122.77353,82.833772 112.48788,62.699701 Z"
         style="fill:#d28fdf;fill-opacity:1;stroke:none;stroke-width:1;stroke-linecap:round;stroke-linejoin:round"
         id="path407" /><path
         d="M 82.287001,89.618041 100.23256,83.709177 80.755044,70.578225 Z"
         style="fill:#a79bf5;fill-opacity:1;stroke:none;stroke-width:1;stroke-linecap:round;stroke-linejoin:round"
         id="path409" /><path
         d="M 64.341441,74.955248 82.287001,89.618041 80.755044,70.578225 Z"
         style="fill:#9196fc;fill-opacity:1;stroke:none;stroke-width:1;stroke-linecap:round;stroke-linejoin:round"
         id="path411" /><path
         d="M 51.429341,81.082963 64.12259,93.995064 64.341441,74.955248 Z"
         style="fill:#729bfb;fill-opacity:1;stroke:none;stroke-width:1;stroke-linecap:round;stroke-linejoin:round"
         id="path413" /><path
         d="m 110.29937,96.183575 12.47416,-13.349803 -22.54097,0.875405 z"
         style="fill:#d4a7d6;fill-opacity:1;stroke:none;stroke-width:1;stroke-linecap:round;stroke-linejoin:round"
         id="path415" /><path
         d="M 64.12259,93.995064 82.287001,89.618041 64.341441,74.955248 Z"
         style="fill:#84a3fa;fill-opacity:1;stroke:none;stroke-width:1;stroke-linecap:round;stroke-linejoin:round"
         id="path417" /><path
         d="M 28.012618,77.143759 38.955058,97.715532 51.429341,81.082963 Z"
         style="fill:#46a1ec;fill-opacity:1;stroke:none;stroke-width:1;stroke-linecap:round;stroke-linejoin:round"
         id="path419" /><path
         d="m 122.77353,82.833772 12.69314,17.070156 -1.96955,-22.760169 z"
         style="fill:#f59fa5;fill-opacity:1;stroke:none;stroke-width:1;stroke-linecap:round;stroke-linejoin:round"
         id="path421" /><path
         d="M 50.991638,101.43589 64.12259,93.995064 51.429341,81.082963 Z"
         style="fill:#66acf4;fill-opacity:1;stroke:none;stroke-width:1;stroke-linecap:round;stroke-linejoin:round"
         id="path423" /><path
         d="m 38.955058,97.715532 12.03658,3.720358 0.437703,-20.352927 z"
         style="fill:#57b0ee;fill-opacity:1;stroke:none;stroke-width:1;stroke-linecap:round;stroke-linejoin:round"
         id="path425" /><path
         d="M 16.413624,83.052623 38.955058,97.715532 28.012618,77.143759 Z"
         style="fill:#35a5e0;fill-opacity:1;stroke:none;stroke-width:1;stroke-linecap:round;stroke-linejoin:round"
         id="path427" /><path
         d="M 23.416744,104.06256 38.955058,97.715532 16.413624,83.052623 Z"
         style="fill:#36b5d8;fill-opacity:1;stroke:none;stroke-width:1;stroke-linecap:round;stroke-linejoin:round"
         id="path429" /><path
         d="m 110.29937,96.183575 25.1673,3.720353 -12.69314,-17.070156 z"
         style="fill:#e5adbd;fill-opacity:1;stroke:none;stroke-width:1;stroke-linecap:round;stroke-linejoin:round"
         id="path431" /><path
         d="M 64.12259,93.995064 82.724704,109.97119 82.287001,89.618041 Z"
         style="fill:#8db8f1;fill-opacity:1;stroke:none;stroke-width:1;stroke-linecap:round;stroke-linejoin:round"
         id="path433" /><path
         d="M 82.287001,89.618041 110.29937,96.183575 100.23256,83.709177 Z"
         style="fill:#b6a8eb;fill-opacity:1;stroke:none;stroke-width:1;stroke-linecap:round;stroke-linejoin:round"
         id="path435" /><path
         d="M 82.287001,89.618041 98.262902,114.34822 110.29937,96.183575 Z"
         style="fill:#b5c1de;fill-opacity:1;stroke:none;stroke-width:1;stroke-linecap:round;stroke-linejoin:round"
         id="path437" /><path
         d="M 82.724704,109.97119 98.262902,114.34822 82.287001,89.618041 Z"
         style="fill:#a4c9e1;fill-opacity:1;stroke:none;stroke-width:1;stroke-linecap:round;stroke-linejoin:round"
         id="path439" /><path
         d="M 50.991638,101.43589 64.560292,115.22293 64.12259,93.995064 Z"
         style="fill:#70c5e9;fill-opacity:1;stroke:none;stroke-width:1;stroke-linecap:round;stroke-linejoin:round"
         id="path441" /><path
         d="m 115.55225,114.34822 19.91442,-14.444292 -25.1673,-3.720353 z"
         style="fill:#dac3b9;fill-opacity:1;stroke:none;stroke-width:1;stroke-linecap:round;stroke-linejoin:round"
         id="path443" /><path
         d="M 64.560292,115.22293 82.724704,109.97119 64.12259,93.995064 Z"
         style="fill:#82cae7;fill-opacity:1;stroke:none;stroke-width:1;stroke-linecap:round;stroke-linejoin:round"
         id="path445" /><path
         d="M 98.262902,114.34822 H 115.55225 L 110.29937,96.183575 Z"
         style="fill:#cecebe;fill-opacity:1;stroke:none;stroke-width:1;stroke-linecap:round;stroke-linejoin:round"
         id="path447" /><path
         d="m 41.362305,120.47582 9.629333,-19.03993 -12.03658,-3.720358 z"
         style="fill:#51d0d7;fill-opacity:1;stroke:none;stroke-width:1;stroke-linecap:round;stroke-linejoin:round"
         id="path449" /><path
         d="M 23.416744,104.06256 41.362305,120.47582 38.955058,97.715532 Z"
         style="fill:#40d4c7;fill-opacity:1;stroke:none;stroke-width:1;stroke-linecap:round;stroke-linejoin:round"
         id="path451" /><path
         d="M 41.362305,120.47582 64.560292,115.22293 50.991638,101.43589 Z"
         style="fill:#65d8d7;fill-opacity:1;stroke:none;stroke-width:1;stroke-linecap:round;stroke-linejoin:round"
         id="path453" /><path
         d="M 86.664024,126.16549 98.262902,114.34822 82.724704,109.97119 Z"
         style="fill:#a7e5c1;fill-opacity:1;stroke:none;stroke-width:1;stroke-linecap:round;stroke-linejoin:round"
         id="path455" /><path
         d="m 86.664024,126.16549 8.097375,2.84541 3.501503,-14.66268 z"
         style="fill:#aeecad;fill-opacity:1;stroke:none;stroke-width:1;stroke-linecap:round;stroke-linejoin:round"
         id="path457" /><path
         d="m 41.362305,120.47582 20.571774,6.7845 2.626213,-12.03739 z"
         style="fill:#69e8c5;fill-opacity:1;stroke:none;stroke-width:1;stroke-linecap:round;stroke-linejoin:round"
         id="path459" /><path
         d="m 64.560292,115.22293 22.103732,10.94256 -3.93932,-16.1943 z"
         style="fill:#94e2cd;fill-opacity:1;stroke:none;stroke-width:1;stroke-linecap:round;stroke-linejoin:round"
         id="path461" /><path
         d="m 64.560292,115.22293 13.130951,18.16499 8.972781,-7.22243 z"
         style="fill:#91f1b5;fill-opacity:1;stroke:none;stroke-width:1;stroke-linecap:round;stroke-linejoin:round"
         id="path463" /><path
         d="m 61.934079,127.26032 15.757164,6.1276 -13.130951,-18.16499 z"
         style="fill:#7df0bb;fill-opacity:1;stroke:none;stroke-width:1;stroke-linecap:round;stroke-linejoin:round"
         id="path465" /><path
         d="M 0.2188494,72.110183 23.416744,104.06256 16.413624,83.052623 Z"
         style="fill:#17a4bf;fill-opacity:1;stroke:none;stroke-width:1;stroke-linecap:round;stroke-linejoin:round"
         id="path467" /><path
         d="M 94.761399,129.0109 115.55225,114.34822 H 98.262902 Z"
         style="fill:#c4e3a7;fill-opacity:1;stroke:none;stroke-width:1;stroke-linecap:round;stroke-linejoin:round"
         id="path469" /><path
         d="m 77.691243,133.38792 17.070156,-4.37702 -8.097375,-2.84541 z"
         style="fill:#a4f4a3;fill-opacity:1;stroke:none;stroke-width:1;stroke-linecap:round;stroke-linejoin:round"
         id="path471" /><path
         d="M 54.055555,23.744664 80.09849,18.05465 66.898276,29.001355 Z"
         style="display:inline;fill:#7b2de1;fill-opacity:1;stroke:none;stroke-width:1;stroke-linecap:round;stroke-linejoin:round"
         id="path558-3"
         sodipodi:nodetypes="cccc" /><path
         d="M 54.055555,23.744664 80.09849,18.05465 41.800008,9.0818696 Z"
         style="display:inline;fill:#6e21d3;fill-opacity:1;stroke:none;stroke-width:1;stroke-linecap:round;stroke-linejoin:round"
         id="path656-6"
         sodipodi:nodetypes="cccc" /><path
         d="M 87.320463,7.11221 80.09849,18.05465 41.800008,9.0818696 Z"
         style="display:inline;fill:#8a13c1;fill-opacity:1;stroke:none;stroke-width:1;stroke-linecap:round;stroke-linejoin:round"
         id="path658-7"
         sodipodi:nodetypes="cccc" /></g></g><g
     inkscape:groupmode="layer"
     id="g70759"
     inkscape:label="asteroid"
     style="display:inline"
     sodipodi:insensitive="true"><g
       id="g3871"
       style="stroke:none"><path
         d="M 25.386404,20.243162 41.800007,9.0818702 24.073298,2.07875 Z"
         style="fill:#565656;fill-opacity:1;stroke:none;stroke-width:1;stroke-linecap:round;stroke-linejoin:round"
         id="path70587" /><path
         d="M 3.720375,13.896479 25.386404,20.243162 24.073298,2.07875 Z"
         style="fill:#6d6d6d;fill-opacity:1;stroke:none;stroke-width:1;stroke-linecap:round;stroke-linejoin:round"
         id="path70589" /><path
         d="M 87.320462,7.1122103 104.82867,22.431673 106.79821,7.5499125 Z"
         style="fill:#4d4d4d;fill-opacity:1;stroke:none;stroke-width:1;stroke-linecap:round;stroke-linejoin:round"
         id="path70591" /><path
         d="M 104.82867,22.431673 120.36606,23.088111 106.79821,7.5499125 Z"
         style="fill:#626262;fill-opacity:1;stroke:none;stroke-width:1;stroke-linecap:round;stroke-linejoin:round"
         id="path70593" /><path
         d="M 80.09849,18.05465 91.259782,28.121686 87.320462,7.1122103 Z"
         style="fill:#474747;fill-opacity:1;stroke:none;stroke-width:1;stroke-linecap:round;stroke-linejoin:round"
         id="path70595" /><path
         d="M 91.259782,28.121686 104.82867,22.431673 87.320462,7.1122103 Z"
         style="fill:#575757;fill-opacity:1;stroke:none;stroke-width:1;stroke-linecap:round;stroke-linejoin:round"
         id="path70597" /><path
         d="M 12.474304,30.091346 25.386404,20.243162 3.720375,13.896479 Z"
         style="fill:#989898;fill-opacity:1;stroke:none;stroke-width:1;stroke-linecap:round;stroke-linejoin:round"
         id="path70599" /><path
         d="M 41.143454,30.091346 54.055554,23.744664 41.800007,9.0818702 Z"
         style="fill:#989898;fill-opacity:1;stroke:none;stroke-width:1;stroke-linecap:round;stroke-linejoin:round"
         id="path70601" /><path
         d="m 25.386404,20.243162 15.75705,9.848184 0.656553,-21.0094758 z"
         style="fill:#686868;fill-opacity:1;stroke:none;stroke-width:1;stroke-linecap:round;stroke-linejoin:round"
         id="path70603" /><path
         d="M 77.03469,39.939531 80.09849,18.05465 66.898276,29.001355 Z"
         style="fill:#5e5e5e;fill-opacity:1;stroke:none;stroke-width:1;stroke-linecap:round;stroke-linejoin:round"
         id="path70605" /><path
         d="M 77.03469,39.939531 91.259782,28.121686 80.09849,18.05465 Z"
         style="fill:#464646;fill-opacity:1;stroke:none;stroke-width:1;stroke-linecap:round;stroke-linejoin:round"
         id="path70607" /><path
         d="M 25.386404,20.243162 30.857567,41.471489 41.143454,30.091346 Z"
         style="fill:#8f8f8f;fill-opacity:1;stroke:none;stroke-width:1;stroke-linecap:round;stroke-linejoin:round"
         id="path70609" /><path
         d="m 104.82867,22.431673 14.88164,16.194751 0.65575,-15.538313 z"
         style="fill:#868686;fill-opacity:1;stroke:none;stroke-width:1;stroke-linecap:round;stroke-linejoin:round"
         id="path70611" /><path
         d="M 41.143454,30.091346 52.742447,42.565629 54.055554,23.744664 Z"
         style="fill:#777777;fill-opacity:1;stroke:none;stroke-width:1;stroke-linecap:round;stroke-linejoin:round"
         id="path70613" /><path
         d="M 12.474304,30.091346 30.857567,41.471489 25.386404,20.243162 Z"
         style="fill:#a2a2a2;fill-opacity:1;stroke:none;stroke-width:1;stroke-linecap:round;stroke-linejoin:round"
         id="path70615" /><path
         d="M 3.720375,13.896479 -1.70749e-6,43.441033 12.474304,30.091346 Z"
         style="fill:#777777;fill-opacity:1;stroke:none;stroke-width:1;stroke-linecap:round;stroke-linejoin:round"
         id="path70617" /><path
         d="M 52.742447,42.565629 66.898276,29.001355 54.055554,23.744664 Z"
         style="fill:#929292;fill-opacity:1;stroke:none;stroke-width:1;stroke-linecap:round;stroke-linejoin:round"
         id="path70619" /><path
         d="m 105.48441,44.972991 14.2259,-6.346567 -14.88164,-16.194751 z"
         style="fill:#9b9b9b;fill-opacity:1;stroke:none;stroke-width:1;stroke-linecap:round;stroke-linejoin:round"
         id="path70621" /><path
         d="M 91.259782,28.121686 105.48441,44.972991 104.82867,22.431673 Z"
         style="fill:#858585;fill-opacity:1;stroke:none;stroke-width:1;stroke-linecap:round;stroke-linejoin:round"
         id="path70623" /><path
         d="M 93.885995,43.659885 105.48441,44.972991 91.259782,28.121686 Z"
         style="fill:#6e6e6e;fill-opacity:1;stroke:none;stroke-width:1;stroke-linecap:round;stroke-linejoin:round"
         id="path70625" /><path
         d="M 77.03469,39.939531 93.885995,43.659885 91.259782,28.121686 Z"
         style="fill:#454545;fill-opacity:1;stroke:none;stroke-width:1;stroke-linecap:round;stroke-linejoin:round"
         id="path70627" /><path
         d="m 30.857567,41.471489 21.88488,1.09414 -11.598993,-12.474283 z"
         style="fill:#787878;fill-opacity:1;stroke:none;stroke-width:1;stroke-linecap:round;stroke-linejoin:round"
         id="path70629" /><path
         d="M 52.742447,42.565629 77.03469,39.939531 66.898276,29.001355 Z"
         style="fill:#8e8e8e;fill-opacity:1;stroke:none;stroke-width:1;stroke-linecap:round;stroke-linejoin:round"
         id="path70631" /><path
         d="M 81.192746,54.821176 93.885995,43.659885 77.03469,39.939531 Z"
         style="fill:#848484;fill-opacity:1;stroke:none;stroke-width:1;stroke-linecap:round;stroke-linejoin:round"
         id="path70633" /><path
         d="M 52.742447,42.565629 69.593752,55.258878 77.03469,39.939531 Z"
         style="fill:#838383;fill-opacity:1;stroke:none;stroke-width:1;stroke-linecap:round;stroke-linejoin:round"
         id="path70635" /><path
         d="M 69.593752,55.258878 81.192746,54.821176 77.03469,39.939531 Z"
         style="fill:#6b6b6b;fill-opacity:1;stroke:none;stroke-width:1;stroke-linecap:round;stroke-linejoin:round"
         id="path70637" /><path
         d="m 105.48441,44.972991 17.07016,9.629334 -2.84426,-15.975901 z"
         style="fill:#808080;fill-opacity:1;stroke:none;stroke-width:1;stroke-linecap:round;stroke-linejoin:round"
         id="path70639" /><path
         d="M 14.662815,60.948892 12.474304,30.091346 -1.70749e-6,43.441033 Z"
         style="fill:#686868;fill-opacity:1;stroke:none;stroke-width:1;stroke-linecap:round;stroke-linejoin:round"
         id="path70641" /><path
         d="M 14.662815,60.948892 30.857567,41.471489 12.474304,30.091346 Z"
         style="fill:#a3a3a3;fill-opacity:1;stroke:none;stroke-width:1;stroke-linecap:round;stroke-linejoin:round"
         id="path70643" /><path
         d="m 112.48788,62.699701 10.06669,-8.097376 -17.07016,-9.629334 z"
         style="fill:#686868;fill-opacity:1;stroke:none;stroke-width:1;stroke-linecap:round;stroke-linejoin:round"
         id="path70645" /><path
         d="M 14.662815,60.948892 30.857567,58.760496 V 41.471489 Z"
         style="fill:#8c8c8c;fill-opacity:1;stroke:none;stroke-width:1;stroke-linecap:round;stroke-linejoin:round"
         id="path70647" /><path
         d="m 30.857567,58.760496 21.88488,-16.194867 -21.88488,-1.09414 z"
         style="fill:#868686;fill-opacity:1;stroke:none;stroke-width:1;stroke-linecap:round;stroke-linejoin:round"
         id="path70649" /><path
         d="M 50.991638,61.605445 69.593752,55.258878 52.742447,42.565629 Z"
         style="fill:#9e9e9e;fill-opacity:1;stroke:none;stroke-width:1;stroke-linecap:round;stroke-linejoin:round"
         id="path70651" /><path
         d="m 30.857567,58.760496 20.134071,2.844949 1.750809,-19.039816 z"
         style="fill:#a8a8a8;fill-opacity:1;stroke:none;stroke-width:1;stroke-linecap:round;stroke-linejoin:round"
         id="path70653" /><path
         d="M 97.606349,67.733276 105.48441,44.972991 93.885995,43.659885 Z"
         style="fill:#777777;fill-opacity:1;stroke:none;stroke-width:1;stroke-linecap:round;stroke-linejoin:round"
         id="path70655" /><path
         d="m 81.192746,54.821176 16.413603,12.9121 -3.720354,-24.073391 z"
         style="fill:#a5a5a5;fill-opacity:1;stroke:none;stroke-width:1;stroke-linecap:round;stroke-linejoin:round"
         id="path70657" /><path
         d="m 97.606349,67.733276 14.881531,-5.033575 -7.00347,-17.72671 z"
         style="fill:#737373;fill-opacity:1;stroke:none;stroke-width:1;stroke-linecap:round;stroke-linejoin:round"
         id="path70659" /><path
         d="M 69.593752,55.258878 80.755044,70.578225 81.192746,54.821176 Z"
         style="fill:#6f6f6f;fill-opacity:1;stroke:none;stroke-width:1;stroke-linecap:round;stroke-linejoin:round"
         id="path70661" /><path
         d="M 0.2188494,72.110183 14.662815,60.948892 -1.70749e-6,43.441033 Z"
         style="fill:#555555;fill-opacity:1;stroke:none;stroke-width:1;stroke-linecap:round;stroke-linejoin:round"
         id="path70663" /><path
         d="M 80.755044,70.578225 97.606349,67.733276 81.192746,54.821176 Z"
         style="fill:#afafaf;fill-opacity:1;stroke:none;stroke-width:1;stroke-linecap:round;stroke-linejoin:round"
         id="path70665" /><path
         d="m 50.991638,61.605445 13.349803,13.349803 5.252311,-19.69637 z"
         style="fill:#8c8c8c;fill-opacity:1;stroke:none;stroke-width:1;stroke-linecap:round;stroke-linejoin:round"
         id="path70667" /><path
         d="M 64.341441,74.955248 80.755044,70.578225 69.593752,55.258878 Z"
         style="fill:#7e7e7e;fill-opacity:1;stroke:none;stroke-width:1;stroke-linecap:round;stroke-linejoin:round"
         id="path70669" /><path
         d="M 14.662815,60.948892 28.012618,77.143759 30.857567,58.760496 Z"
         style="fill:#787878;fill-opacity:1;stroke:none;stroke-width:1;stroke-linecap:round;stroke-linejoin:round"
         id="path70671" /><path
         d="M 112.48788,62.699701 133.49712,77.143759 122.55457,54.602325 Z"
         style="fill:#787878;fill-opacity:1;stroke:none;stroke-width:1;stroke-linecap:round;stroke-linejoin:round"
         id="path70673" /><path
         d="M 51.429341,81.082963 64.341441,74.955248 50.991638,61.605445 Z"
         style="fill:#a1a1a1;fill-opacity:1;stroke:none;stroke-width:1;stroke-linecap:round;stroke-linejoin:round"
         id="path70675" /><path
         d="M 122.77353,82.833772 133.49712,77.143759 112.48788,62.699701 Z"
         style="fill:#717171;fill-opacity:1;stroke:none;stroke-width:1;stroke-linecap:round;stroke-linejoin:round"
         id="path70677" /><path
         d="M 16.413624,83.052623 28.012618,77.143759 14.662815,60.948892 Z"
         style="fill:#5d5d5d;fill-opacity:1;stroke:none;stroke-width:1;stroke-linecap:round;stroke-linejoin:round"
         id="path70679" /><path
         d="M 28.012618,77.143759 50.991638,61.605445 30.857567,58.760496 Z"
         style="fill:#7b7b7b;fill-opacity:1;stroke:none;stroke-width:1;stroke-linecap:round;stroke-linejoin:round"
         id="path70681" /><path
         d="M 0.2188494,72.110183 16.413624,83.052623 14.662815,60.948892 Z"
         style="fill:#303030;fill-opacity:1;stroke:none;stroke-width:1;stroke-linecap:round;stroke-linejoin:round"
         id="path70683" /><path
         d="M 28.012618,77.143759 51.429341,81.082963 50.991638,61.605445 Z"
         style="fill:#7d7d7d;fill-opacity:1;stroke:none;stroke-width:1;stroke-linecap:round;stroke-linejoin:round"
         id="path70685" /><path
         d="M 100.23256,83.709177 112.48788,62.699701 97.606349,67.733276 Z"
         style="fill:#8f8f8f;fill-opacity:1;stroke:none;stroke-width:1;stroke-linecap:round;stroke-linejoin:round"
         id="path70687" /><path
         d="M 80.755044,70.578225 100.23256,83.709177 97.606349,67.733276 Z"
         style="fill:#acacac;fill-opacity:1;stroke:none;stroke-width:1;stroke-linecap:round;stroke-linejoin:round"
         id="path70689" /><path
         d="M 100.23256,83.709177 122.77353,82.833772 112.48788,62.699701 Z"
         style="fill:#6d6d6d;fill-opacity:1;stroke:none;stroke-width:1;stroke-linecap:round;stroke-linejoin:round"
         id="path70691" /><path
         d="M 82.287001,89.618041 100.23256,83.709177 80.755044,70.578225 Z"
         style="fill:#9b9b9b;fill-opacity:1;stroke:none;stroke-width:1;stroke-linecap:round;stroke-linejoin:round"
         id="path70693" /><path
         d="M 64.341441,74.955248 82.287001,89.618041 80.755044,70.578225 Z"
         style="fill:#aaaaaa;fill-opacity:1;stroke:none;stroke-width:1;stroke-linecap:round;stroke-linejoin:round"
         id="path70695" /><path
         d="M 51.429341,81.082963 64.12259,93.995064 64.341441,74.955248 Z"
         style="fill:#bdbdbd;fill-opacity:1;stroke:none;stroke-width:1;stroke-linecap:round;stroke-linejoin:round"
         id="path70697" /><path
         d="m 110.29937,96.183575 12.47416,-13.349803 -22.54097,0.875405 z"
         style="fill:#515151;fill-opacity:1;stroke:none;stroke-width:1;stroke-linecap:round;stroke-linejoin:round"
         id="path70699" /><path
         d="M 64.12259,93.995064 82.287001,89.618041 64.341441,74.955248 Z"
         style="fill:#a8a8a8;fill-opacity:1;stroke:none;stroke-width:1;stroke-linecap:round;stroke-linejoin:round"
         id="path70701" /><path
         d="M 28.012618,77.143759 38.955058,97.715532 51.429341,81.082963 Z"
         style="fill:#535353;fill-opacity:1;stroke:none;stroke-width:1;stroke-linecap:round;stroke-linejoin:round"
         id="path70703" /><path
         d="m 122.77353,82.833772 12.69314,17.070156 -1.96955,-22.760169 z"
         style="fill:#727272;fill-opacity:1;stroke:none;stroke-width:1;stroke-linecap:round;stroke-linejoin:round"
         id="path70705" /><path
         d="M 50.991638,101.43589 64.12259,93.995064 51.429341,81.082963 Z"
         style="fill:#c3c3c3;fill-opacity:1;stroke:none;stroke-width:1;stroke-linecap:round;stroke-linejoin:round"
         id="path70707" /><path
         d="m 38.955058,97.715532 12.03658,3.720358 0.437703,-20.352927 z"
         style="fill:#7f7f7f;fill-opacity:1;stroke:none;stroke-width:1;stroke-linecap:round;stroke-linejoin:round"
         id="path70709" /><path
         d="M 16.413624,83.052623 38.955058,97.715532 28.012618,77.143759 Z"
         style="fill:#545454;fill-opacity:1;stroke:none;stroke-width:1;stroke-linecap:round;stroke-linejoin:round"
         id="path70711" /><path
         d="M 23.416744,104.06256 38.955058,97.715532 16.413624,83.052623 Z"
         style="fill:#646464;fill-opacity:1;stroke:none;stroke-width:1;stroke-linecap:round;stroke-linejoin:round"
         id="path70713" /><path
         d="m 110.29937,96.183575 25.1673,3.720353 -12.69314,-17.070156 z"
         style="fill:#8f8f8f;fill-opacity:1;stroke:none;stroke-width:1;stroke-linecap:round;stroke-linejoin:round"
         id="path70715" /><path
         d="M 64.12259,93.995064 82.724704,109.97119 82.287001,89.618041 Z"
         style="fill:#656565;fill-opacity:1;stroke:none;stroke-width:1;stroke-linecap:round;stroke-linejoin:round"
         id="path70717" /><path
         d="M 82.287001,89.618041 110.29937,96.183575 100.23256,83.709177 Z"
         style="fill:#5f5f5f;fill-opacity:1;stroke:none;stroke-width:1;stroke-linecap:round;stroke-linejoin:round"
         id="path70719" /><path
         d="M 82.287001,89.618041 98.262902,114.34822 110.29937,96.183575 Z"
         style="fill:#5a5a5a;fill-opacity:1;stroke:none;stroke-width:1;stroke-linecap:round;stroke-linejoin:round"
         id="path70721" /><path
         d="M 82.724704,109.97119 98.262902,114.34822 82.287001,89.618041 Z"
         style="fill:#505050;fill-opacity:1;stroke:none;stroke-width:1;stroke-linecap:round;stroke-linejoin:round"
         id="path70723" /><path
         d="M 50.991638,101.43589 64.560292,115.22293 64.12259,93.995064 Z"
         style="fill:#ababab;fill-opacity:1;stroke:none;stroke-width:1;stroke-linecap:round;stroke-linejoin:round"
         id="path70725" /><path
         d="m 115.55225,114.34822 19.91442,-14.444292 -25.1673,-3.720353 z"
         style="fill:#9f9f9f;fill-opacity:1;stroke:none;stroke-width:1;stroke-linecap:round;stroke-linejoin:round"
         id="path70727" /><path
         d="M 64.560292,115.22293 82.724704,109.97119 64.12259,93.995064 Z"
         style="fill:#666666;fill-opacity:1;stroke:none;stroke-width:1;stroke-linecap:round;stroke-linejoin:round"
         id="path70729" /><path
         d="M 98.262902,114.34822 H 115.55225 L 110.29937,96.183575 Z"
         style="fill:#979797;fill-opacity:1;stroke:none;stroke-width:1;stroke-linecap:round;stroke-linejoin:round"
         id="path70731" /><path
         d="m 41.362305,120.47582 9.629333,-19.03993 -12.03658,-3.720358 z"
         style="fill:#8a8a8a;fill-opacity:1;stroke:none;stroke-width:1;stroke-linecap:round;stroke-linejoin:round"
         id="path70733" /><path
         d="M 23.416744,104.06256 41.362305,120.47582 38.955058,97.715532 Z"
         style="fill:#7c7c7c;fill-opacity:1;stroke:none;stroke-width:1;stroke-linecap:round;stroke-linejoin:round"
         id="path70735" /><path
         d="M 41.362305,120.47582 64.560292,115.22293 50.991638,101.43589 Z"
         style="fill:#aeaeae;fill-opacity:1;stroke:none;stroke-width:1;stroke-linecap:round;stroke-linejoin:round"
         id="path70737" /><path
         d="M 86.664024,126.16549 98.262902,114.34822 82.724704,109.97119 Z"
         style="fill:#4e4e4e;fill-opacity:1;stroke:none;stroke-width:1;stroke-linecap:round;stroke-linejoin:round"
         id="path70739" /><path
         d="m 86.664024,126.16549 8.097375,2.84541 3.501503,-14.66268 z"
         style="fill:#818181;fill-opacity:1;stroke:none;stroke-width:1;stroke-linecap:round;stroke-linejoin:round"
         id="path70741" /><path
         d="m 41.362305,120.47582 20.571774,6.7845 2.626213,-12.03739 z"
         style="fill:#979797;fill-opacity:1;stroke:none;stroke-width:1;stroke-linecap:round;stroke-linejoin:round"
         id="path70743" /><path
         d="m 64.560292,115.22293 22.103732,10.94256 -3.93932,-16.1943 z"
         style="fill:#555555;fill-opacity:1;stroke:none;stroke-width:1;stroke-linecap:round;stroke-linejoin:round"
         id="path70745" /><path
         d="m 64.560292,115.22293 13.130951,18.16499 8.972781,-7.22243 z"
         style="fill:#777777;fill-opacity:1;stroke:none;stroke-width:1;stroke-linecap:round;stroke-linejoin:round"
         id="path70747" /><path
         d="m 61.934079,127.26032 15.757164,6.1276 -13.130951,-18.16499 z"
         style="fill:#7e7e7e;fill-opacity:1;stroke:none;stroke-width:1;stroke-linecap:round;stroke-linejoin:round"
         id="path70749" /><path
         d="M 0.2188494,72.110183 23.416744,104.06256 16.413624,83.052623 Z"
         style="fill:#4d4d4d;fill-opacity:1;stroke:none;stroke-width:1;stroke-linecap:round;stroke-linejoin:round"
         id="path70751" /><path
         d="M 94.761399,129.0109 115.55225,114.34822 H 98.262902 Z"
         style="fill:#adadad;fill-opacity:1;stroke:none;stroke-width:1;stroke-linecap:round;stroke-linejoin:round"
         id="path70753" /><path
         d="m 77.691243,133.38792 17.070156,-4.37702 -8.097375,-2.84541 z"
         style="fill:#797979;fill-opacity:1;stroke:none;stroke-width:1;stroke-linecap:round;stroke-linejoin:round"
         id="path70755" /><path
         d="M 54.055554,23.744664 80.09849,18.05465 66.898276,29.001355 Z"
         style="fill:#7c7c7c;fill-opacity:1;stroke:none;stroke-width:1;stroke-linecap:round;stroke-linejoin:round"
         id="path558"
         sodipodi:nodetypes="cccc" /><path
         d="M 54.055554,23.744664 80.09849,18.05465 41.800007,9.0818702 Z"
         style="fill:#686868;fill-opacity:1;stroke:none;stroke-width:1;stroke-linecap:round;stroke-linejoin:round"
         id="path656"
         sodipodi:nodetypes="cccc" /><path
         d="M 87.320462,7.1122103 80.09849,18.05465 41.800007,9.0818702 Z"
         style="fill:#767676;fill-opacity:1;stroke:none;stroke-width:1;stroke-linecap:round;stroke-linejoin:round"
         id="path658"
         sodipodi:nodetypes="cccc" /></g></g></svg>
