<?xml version="1.0" encoding="UTF-8" standalone="no"?>
<!-- Created with Inkscape (http://www.inkscape.org/) -->

<svg
   width="512"
   height="512"
   viewBox="0 0 135.46666 135.46667"
   version="1.1"
   id="svg5"
   sodipodi:docname="asteroid_2.svg"
   inkscape:version="1.2.2 (b0a8486541, 2022-12-01)"
   xml:space="preserve"
   inkscape:export-filename="asteroid.png"
   inkscape:export-xdpi="96"
   inkscape:export-ydpi="96"
   xmlns:inkscape="http://www.inkscape.org/namespaces/inkscape"
   xmlns:sodipodi="http://sodipodi.sourceforge.net/DTD/sodipodi-0.dtd"
   xmlns="http://www.w3.org/2000/svg"
   xmlns:svg="http://www.w3.org/2000/svg"
   xmlns:rdf="http://www.w3.org/1999/02/22-rdf-syntax-ns#"
   xmlns:cc="http://creativecommons.org/ns#"><sodipodi:namedview
     id="namedview7"
     pagecolor="#000000"
     bordercolor="#000000"
     borderopacity="0.25"
     inkscape:showpageshadow="2"
     inkscape:pageopacity="0"
     inkscape:pagecheckerboard="0"
     inkscape:deskcolor="#d1d1d1"
     inkscape:document-units="mm"
     showgrid="false"
     inkscape:zoom="0.98520767"
     inkscape:cx="36.033012"
     inkscape:cy="238.52839"
     inkscape:window-width="1920"
     inkscape:window-height="1011"
     inkscape:window-x="0"
     inkscape:window-y="0"
     inkscape:window-maximized="1"
     inkscape:current-layer="svg5" /><defs
     id="defs2" /><g
     inkscape:label="normal_map"
     inkscape:groupmode="layer"
     id="g658"
     style="display:none"
     sodipodi:insensitive="true"><g
       id="g111518"><path
         d="M 36.524044,8.3690181 49.368259,21.327413 58.84697,4.7396941 Z"
         style="fill:#59ecb6;fill-opacity:1;stroke:none;stroke-width:1;stroke-linecap:round;stroke-linejoin:round"
         id="path480" /><path
         d="M 58.84697,4.7396941 68.523157,21.722364 76.817016,9.2815225 Z"
         style="fill:#80eebd;fill-opacity:1;stroke:none;stroke-width:1;stroke-linecap:round;stroke-linejoin:round"
         id="path482" /><path
         d="M 68.523157,21.722364 84.320974,22.117314 76.817016,9.2815225 Z"
         style="fill:#92e9c4;fill-opacity:1;stroke:none;stroke-width:1;stroke-linecap:round;stroke-linejoin:round"
         id="path484" /><path
         d="M 49.368259,21.327413 68.523157,21.722364 58.84697,4.7396941 Z"
         style="fill:#6ceebd;fill-opacity:1;stroke:none;stroke-width:1;stroke-linecap:round;stroke-linejoin:round"
         id="path486" /><path
         d="M 22.906878,18.957709 49.368259,21.327413 36.524044,8.3690181 Z"
         style="fill:#48e5b4;fill-opacity:1;stroke:none;stroke-width:1;stroke-linecap:round;stroke-linejoin:round"
         id="path488" /><path
         d="M 34.360342,35.150477 49.368259,21.327413 22.906878,18.957709 Z"
         style="fill:#3ed6c2;fill-opacity:1;stroke:none;stroke-width:1;stroke-linecap:round;stroke-linejoin:round"
         id="path490" /><path
         d="M 50.750586,35.347953 68.523157,21.722364 49.368259,21.327413 Z"
         style="fill:#60ddcf;fill-opacity:1;stroke:none;stroke-width:1;stroke-linecap:round;stroke-linejoin:round"
         id="path492" /><path
         d="m 50.750586,35.347953 16.390243,0.197475 1.382328,-13.823064 z"
         style="fill:#73d5dc;fill-opacity:1;stroke:none;stroke-width:1;stroke-linecap:round;stroke-linejoin:round"
         id="path494" /><path
         d="m 34.360342,35.150477 16.390244,0.197476 -1.382327,-14.02054 z"
         style="fill:#4cd4cf;fill-opacity:1;stroke:none;stroke-width:1;stroke-linecap:round;stroke-linejoin:round"
         id="path496" /><path
         d="M 67.140829,35.545428 84.320974,22.117314 68.523157,21.722364 Z"
         style="fill:#8bded3;fill-opacity:1;stroke:none;stroke-width:1;stroke-linecap:round;stroke-linejoin:round"
         id="path498" /><path
         d="M 86.888049,41.864534 100.31627,31.990976 84.320974,22.117314 Z"
         style="fill:#b5d0d2;fill-opacity:1;stroke:none;stroke-width:1;stroke-linecap:round;stroke-linejoin:round"
         id="path500" /><path
         d="M 11.058462,33.965626 34.360342,35.150477 22.906878,18.957709 Z"
         style="fill:#28cbb5;fill-opacity:1;stroke:none;stroke-width:1;stroke-linecap:round;stroke-linejoin:round"
         id="path502" /><path
         d="m 67.140829,35.545428 19.74722,6.319106 -2.567075,-19.74722 z"
         style="fill:#9cd2dc;fill-opacity:1;stroke:none;stroke-width:1;stroke-linecap:round;stroke-linejoin:round"
         id="path504" /><path
         d="M 50.750586,35.347953 64.968601,48.183745 67.140829,35.545428 Z"
         style="fill:#72c6e8;fill-opacity:1;stroke:none;stroke-width:1;stroke-linecap:round;stroke-linejoin:round"
         id="path506" /><path
         d="M 104.66093,51.935672 117.69389,33.76815 100.31627,31.990976 Z"
         style="fill:#d6bac6;fill-opacity:1;stroke:none;stroke-width:1;stroke-linecap:round;stroke-linejoin:round"
         id="path508" /><path
         d="M 86.888049,41.864534 104.66093,51.935672 100.31627,31.990976 Z"
         style="fill:#c7bad6;fill-opacity:1;stroke:none;stroke-width:1;stroke-linecap:round;stroke-linejoin:round"
         id="path510" /><path
         d="M 34.360342,35.150477 47.19603,53.515474 50.750586,35.347953 Z"
         style="fill:#4abde0;fill-opacity:1;stroke:none;stroke-width:1;stroke-linecap:round;stroke-linejoin:round"
         id="path512" /><path
         d="M 64.968601,48.183745 86.888049,41.864534 67.140829,35.545428 Z"
         style="fill:#8bbfec;fill-opacity:1;stroke:none;stroke-width:1;stroke-linecap:round;stroke-linejoin:round"
         id="path514" /><path
         d="m 64.968601,48.183745 13.230638,7.306482 8.68881,-13.625693 z"
         style="fill:#94b3f3;fill-opacity:1;stroke:none;stroke-width:1;stroke-linecap:round;stroke-linejoin:round"
         id="path516" /><path
         d="m 11.058462,33.965626 17.377621,20.7347 5.924259,-19.549849 z"
         style="fill:#24b5c5;fill-opacity:1;stroke:none;stroke-width:1;stroke-linecap:round;stroke-linejoin:round"
         id="path518" /><path
         d="M 47.19603,53.515474 64.968601,48.183745 50.750586,35.347953 Z"
         style="fill:#5cb7ec;fill-opacity:1;stroke:none;stroke-width:1;stroke-linecap:round;stroke-linejoin:round"
         id="path520" /><path
         d="m 117.69389,33.76815 0.98685,22.906929 9.47965,-9.873662 z"
         style="fill:#efa8af;fill-opacity:1;stroke:none;stroke-width:1;stroke-linecap:round;stroke-linejoin:round"
         id="path522" /><path
         d="m 104.66093,51.935672 14.01981,4.739407 -0.98685,-22.906929 z"
         style="fill:#e4a8c2;fill-opacity:1;stroke:none;stroke-width:1;stroke-linecap:round;stroke-linejoin:round"
         id="path524" /><path
         d="m 7.1090288,48.973646 21.3270542,5.72668 -17.377621,-20.7347 z"
         style="fill:#12a9b4;fill-opacity:1;stroke:none;stroke-width:1;stroke-linecap:round;stroke-linejoin:round"
         id="path526" /><path
         d="M 28.436083,54.700326 47.19603,53.515474 34.360342,35.150477 Z"
         style="fill:#38aede;fill-opacity:1;stroke:none;stroke-width:1;stroke-linecap:round;stroke-linejoin:round"
         id="path528" /><path
         d="m 47.19603,53.515474 16.192768,7.109008 1.579803,-12.440737 z"
         style="fill:#6ca4f7;fill-opacity:1;stroke:none;stroke-width:1;stroke-linecap:round;stroke-linejoin:round"
         id="path530" /><path
         d="M 63.388798,60.624482 78.199239,55.490227 64.968601,48.183745 Z"
         style="fill:#84a4f9;fill-opacity:1;stroke:none;stroke-width:1;stroke-linecap:round;stroke-linejoin:round"
         id="path532" /><path
         d="m 118.68074,56.675079 16.78593,6.319107 -7.30628,-16.192769 z"
         style="fill:#f596aa;fill-opacity:1;stroke:none;stroke-width:1;stroke-linecap:round;stroke-linejoin:round"
         id="path534" /><path
         d="M 78.199239,55.490227 104.66093,51.935672 86.888049,41.864534 Z"
         style="fill:#bdabe6;fill-opacity:1;stroke:none;stroke-width:1;stroke-linecap:round;stroke-linejoin:round"
         id="path536" /><path
         d="M 86.690574,66.943692 104.66093,51.935672 78.199239,55.490227 Z"
         style="fill:#bc95eb;fill-opacity:1;stroke:none;stroke-width:1;stroke-linecap:round;stroke-linejoin:round"
         id="path538" /><path
         d="M 7.1090288,48.973646 17.180197,70.695619 28.436083,54.700326 Z"
         style="fill:#1492c2;fill-opacity:1;stroke:none;stroke-width:1;stroke-linecap:round;stroke-linejoin:round"
         id="path540" /><path
         d="M 28.436083,54.700326 39.494597,71.09057 47.19603,53.515474 Z"
         style="fill:#3793e6;fill-opacity:1;stroke:none;stroke-width:1;stroke-linecap:round;stroke-linejoin:round"
         id="path542" /><path
         d="M 5.04345e-7,62.994186 17.180197,70.695619 7.1090288,48.973646 Z"
         style="fill:#0989ac;fill-opacity:1;stroke:none;stroke-width:1;stroke-linecap:round;stroke-linejoin:round"
         id="path544" /><path
         d="M 105.25263,71.880471 118.68074,56.675079 104.66093,51.935672 Z"
         style="fill:#df8fd1;fill-opacity:1;stroke:none;stroke-width:1;stroke-linecap:round;stroke-linejoin:round"
         id="path546" /><path
         d="m 86.690574,66.943692 18.562056,4.936779 -0.5917,-19.944799 z"
         style="fill:#cb88e3;fill-opacity:1;stroke:none;stroke-width:1;stroke-linecap:round;stroke-linejoin:round"
         id="path548" /><path
         d="M 118.68074,56.675079 131.122,73.262798 135.46667,62.994186 Z"
         style="fill:#f787ad;fill-opacity:1;stroke:none;stroke-width:1;stroke-linecap:round;stroke-linejoin:round"
         id="path550" /><path
         d="M 121.44581,75.040076 131.122,73.262798 118.68074,56.675079 Z"
         style="fill:#f380b5;fill-opacity:1;stroke:none;stroke-width:1;stroke-linecap:round;stroke-linejoin:round"
         id="path552" /><path
         d="m 105.25263,71.880471 16.19318,3.159605 -2.76507,-18.364997 z"
         style="fill:#e87cc6;fill-opacity:1;stroke:none;stroke-width:1;stroke-linecap:round;stroke-linejoin:round"
         id="path554" /><path
         d="M 17.180197,70.695619 39.494597,71.09057 28.436083,54.700326 Z"
         style="fill:#2382d8;fill-opacity:1;stroke:none;stroke-width:1;stroke-linecap:round;stroke-linejoin:round"
         id="path556" /><path
         d="M 47.19603,53.515474 57.267167,77.409676 63.388798,60.624482 Z"
         style="fill:#6089fa;fill-opacity:1;stroke:none;stroke-width:1;stroke-linecap:round;stroke-linejoin:round"
         id="path558" /><path
         d="M 39.494597,71.09057 57.267167,77.409676 47.19603,53.515474 Z"
         style="fill:#497ff2;fill-opacity:1;stroke:none;stroke-width:1;stroke-linecap:round;stroke-linejoin:round"
         id="path560" /><path
         d="m 63.388798,60.624482 23.301776,6.31921 -8.491335,-11.453465 z"
         style="fill:#9893fa;fill-opacity:1;stroke:none;stroke-width:1;stroke-linecap:round;stroke-linejoin:round"
         id="path562" /><path
         d="M 2.3696835,78.989479 17.180197,70.695619 5.04345e-7,62.994186 Z"
         style="fill:#0b79b4;fill-opacity:1;stroke:none;stroke-width:1;stroke-linecap:round;stroke-linejoin:round"
         id="path564" /><path
         d="M 72.670034,81.556658 86.690574,66.943692 63.388798,60.624482 Z"
         style="fill:#9077fe;fill-opacity:1;stroke:none;stroke-width:1;stroke-linecap:round;stroke-linejoin:round"
         id="path566" /><path
         d="M 57.267167,77.409676 72.670034,81.556658 63.388798,60.624482 Z"
         style="fill:#766ffd;fill-opacity:1;stroke:none;stroke-width:1;stroke-linecap:round;stroke-linejoin:round"
         id="path568" /><path
         d="M 92.614834,84.321312 105.25263,71.880471 86.690574,66.943692 Z"
         style="fill:#c56ae9;fill-opacity:1;stroke:none;stroke-width:1;stroke-linecap:round;stroke-linejoin:round"
         id="path570" /><path
         d="m 108.61044,84.123837 12.83537,-9.083761 -16.19318,-3.159605 z"
         style="fill:#e267cb;fill-opacity:1;stroke:none;stroke-width:1;stroke-linecap:round;stroke-linejoin:round"
         id="path572" /><path
         d="M 17.180197,70.695619 31.595688,85.308585 39.494597,71.09057 Z"
         style="fill:#2868d9;fill-opacity:1;stroke:none;stroke-width:1;stroke-linecap:round;stroke-linejoin:round"
         id="path574" /><path
         d="m 124.01331,85.308585 7.10869,-12.045787 -9.67619,1.777278 z"
         style="fill:#f569ac;fill-opacity:1;stroke:none;stroke-width:1;stroke-linecap:round;stroke-linejoin:round"
         id="path576" /><path
         d="M 43.049152,86.098486 57.267167,77.409676 39.494597,71.09057 Z"
         style="fill:#4962f0;fill-opacity:1;stroke:none;stroke-width:1;stroke-linecap:round;stroke-linejoin:round"
         id="path578" /><path
         d="M 31.595688,85.308585 43.049152,86.098486 39.494597,71.09057 Z"
         style="fill:#375ce1;fill-opacity:1;stroke:none;stroke-width:1;stroke-linecap:round;stroke-linejoin:round"
         id="path580" /><path
         d="M 92.614834,84.321312 108.61044,84.123837 105.25263,71.880471 Z"
         style="fill:#d361da;fill-opacity:1;stroke:none;stroke-width:1;stroke-linecap:round;stroke-linejoin:round"
         id="path582" /><path
         d="m 72.670034,81.556658 19.9448,2.764654 -5.92426,-17.37762 z"
         style="fill:#a964f5;fill-opacity:1;stroke:none;stroke-width:1;stroke-linecap:round;stroke-linejoin:round"
         id="path584" /><path
         d="m 108.61044,84.123837 15.40287,1.184748 -2.5675,-10.268509 z"
         style="fill:#ec63bc;fill-opacity:1;stroke:none;stroke-width:1;stroke-linecap:round;stroke-linejoin:round"
         id="path586" /><path
         d="M 18.364945,91.627795 31.595688,85.308585 17.180197,70.695619 Z"
         style="fill:#1e5eca;fill-opacity:1;stroke:none;stroke-width:1;stroke-linecap:round;stroke-linejoin:round"
         id="path588" /><path
         d="M 2.3696835,78.989479 18.364945,91.627795 17.180197,70.695619 Z"
         style="fill:#1061b8;fill-opacity:1;stroke:none;stroke-width:1;stroke-linecap:round;stroke-linejoin:round"
         id="path590" /><path
         d="M 72.670034,81.556658 85.703301,93.79992 92.614834,84.321312 Z"
         style="fill:#a94eec;fill-opacity:1;stroke:none;stroke-width:1;stroke-linecap:round;stroke-linejoin:round"
         id="path592" /><path
         d="M 58.452019,93.010018 72.670034,81.556658 57.267167,77.409676 Z"
         style="fill:#7251f3;fill-opacity:1;stroke:none;stroke-width:1;stroke-linecap:round;stroke-linejoin:round"
         id="path594" /><path
         d="M 43.049152,86.098486 58.452019,93.010018 57.267167,77.409676 Z"
         style="fill:#5451ee;fill-opacity:1;stroke:none;stroke-width:1;stroke-linecap:round;stroke-linejoin:round"
         id="path596" /><path
         d="m 92.614834,84.321312 12.441256,12.045787 3.55435,-12.243262 z"
         style="fill:#d24cd3;fill-opacity:1;stroke:none;stroke-width:1;stroke-linecap:round;stroke-linejoin:round"
         id="path598" /><path
         d="m 58.452019,93.010018 13.625589,5.134047 0.592426,-16.587407 z"
         style="fill:#853fed;fill-opacity:1;stroke:none;stroke-width:1;stroke-linecap:round;stroke-linejoin:round"
         id="path600" /><path
         d="M 72.077608,98.144065 85.703301,93.79992 72.670034,81.556658 Z"
         style="fill:#9d3feb;fill-opacity:1;stroke:none;stroke-width:1;stroke-linecap:round;stroke-linejoin:round"
         id="path602" /><path
         d="m 18.364945,91.627795 12.440841,9.083765 0.789902,-15.402975 z"
         style="fill:#2849cc;fill-opacity:1;stroke:none;stroke-width:1;stroke-linecap:round;stroke-linejoin:round"
         id="path604" /><path
         d="M 30.805786,100.71156 43.049152,86.098486 31.595688,85.308585 Z"
         style="fill:#3448d8;fill-opacity:1;stroke:none;stroke-width:1;stroke-linecap:round;stroke-linejoin:round"
         id="path606" /><path
         d="m 108.61044,84.123837 8.09555,18.957633 7.30732,-17.772885 z"
         style="fill:#e74eb6;fill-opacity:1;stroke:none;stroke-width:1;stroke-linecap:round;stroke-linejoin:round"
         id="path608" /><path
         d="m 105.05609,96.367099 11.6499,6.714371 -8.09555,-18.957633 z"
         style="fill:#db45c2;fill-opacity:1;stroke:none;stroke-width:1;stroke-linecap:round;stroke-linejoin:round"
         id="path610" /><path
         d="M 85.703301,93.79992 105.05609,96.367099 92.614834,84.321312 Z"
         style="fill:#c344db;fill-opacity:1;stroke:none;stroke-width:1;stroke-linecap:round;stroke-linejoin:round"
         id="path612" /><path
         d="M 47.393505,104.66106 58.452019,93.010018 43.049152,86.098486 Z"
         style="fill:#543de3;fill-opacity:1;stroke:none;stroke-width:1;stroke-linecap:round;stroke-linejoin:round"
         id="path614" /><path
         d="m 30.805786,100.71156 16.587719,3.9495 -4.344353,-18.562574 z"
         style="fill:#4139d6;fill-opacity:1;stroke:none;stroke-width:1;stroke-linecap:round;stroke-linejoin:round"
         id="path616" /><path
         d="M 60.004785,108.61057 72.077608,98.144065 58.452019,93.010018 Z"
         style="fill:#7532e4;fill-opacity:1;stroke:none;stroke-width:1;stroke-linecap:round;stroke-linejoin:round"
         id="path618" /><path
         d="m 47.393505,104.66106 12.61128,3.94951 -1.552766,-15.600552 z"
         style="fill:#632ddb;fill-opacity:1;stroke:none;stroke-width:1;stroke-linecap:round;stroke-linejoin:round"
         id="path620" /><path
         d="m 85.703301,93.79992 14.810439,15.00823 4.54235,-12.441051 z"
         style="fill:#c235cf;fill-opacity:1;stroke:none;stroke-width:1;stroke-linecap:round;stroke-linejoin:round"
         id="path622" /><path
         d="M 88.862803,108.80815 H 100.51374 L 85.703301,93.79992 Z"
         style="fill:#b62bce;fill-opacity:1;stroke:none;stroke-width:1;stroke-linecap:round;stroke-linejoin:round"
         id="path624" /><path
         d="M 72.077608,98.144065 88.862803,108.80815 85.703301,93.79992 Z"
         style="fill:#a42eda;fill-opacity:1;stroke:none;stroke-width:1;stroke-linecap:round;stroke-linejoin:round"
         id="path626" /><path
         d="m 100.51374,108.80815 16.19225,-5.72668 -11.6499,-6.714371 z"
         style="fill:#d436be;fill-opacity:1;stroke:none;stroke-width:1;stroke-linecap:round;stroke-linejoin:round"
         id="path628" /><path
         d="m 30.805786,100.71156 12.243366,12.63779 4.344353,-8.68829 z"
         style="fill:#4826c8;fill-opacity:1;stroke:none;stroke-width:1;stroke-linecap:round;stroke-linejoin:round"
         id="path630" /><path
         d="m 60.004785,108.61057 13.652626,8.88587 -1.579803,-19.352375 z"
         style="fill:#8421d4;fill-opacity:1;stroke:none;stroke-width:1;stroke-linecap:round;stroke-linejoin:round"
         id="path632" /><path
         d="M 73.657411,117.49644 88.862803,108.80815 72.077608,98.144065 Z"
         style="fill:#9821d1;fill-opacity:1;stroke:none;stroke-width:1;stroke-linecap:round;stroke-linejoin:round"
         id="path634" /><path
         d="m 109.79487,118.68191 6.91112,-15.60044 -16.19225,5.72668 z"
         style="fill:#cf27ac;fill-opacity:1;stroke:none;stroke-width:1;stroke-linecap:round;stroke-linejoin:round"
         id="path636" /><path
         d="m 43.049152,113.34935 16.955633,-4.73878 -12.61128,-3.94951 z"
         style="fill:#5a21cc;fill-opacity:1;stroke:none;stroke-width:1;stroke-linecap:round;stroke-linejoin:round"
         id="path638" /><path
         d="m 43.049152,113.34935 13.625589,9.47965 3.330044,-14.21843 z"
         style="fill:#6117c2;fill-opacity:1;stroke:none;stroke-width:1;stroke-linecap:round;stroke-linejoin:round"
         id="path640" /><path
         d="m 56.674741,122.829 16.98267,-5.33256 -13.652626,-8.88587 z"
         style="fill:#7614c3;fill-opacity:1;stroke:none;stroke-width:1;stroke-linecap:round;stroke-linejoin:round"
         id="path642" /><path
         d="m 56.674741,122.829 8.491335,3.75193 8.491335,-9.08449 z"
         style="fill:#7d0db7;fill-opacity:1;stroke:none;stroke-width:1;stroke-linecap:round;stroke-linejoin:round"
         id="path644" /><path
         d="m 88.862803,108.80815 7.109007,18.56205 4.54193,-18.56205 z"
         style="fill:#ba1db8;fill-opacity:1;stroke:none;stroke-width:1;stroke-linecap:round;stroke-linejoin:round"
         id="path646" /><path
         d="m 95.97181,127.3702 13.82306,-8.68829 -9.28113,-9.87376 z"
         style="fill:#c61ba5;fill-opacity:1;stroke:none;stroke-width:1;stroke-linecap:round;stroke-linejoin:round"
         id="path648" /><path
         d="m 82.148746,130.72697 6.714057,-21.91882 -15.205392,8.68829 z"
         style="fill:#a115be;fill-opacity:1;stroke:none;stroke-width:1;stroke-linecap:round;stroke-linejoin:round"
         id="path650" /><path
         d="M 82.148746,130.72697 95.97181,127.3702 88.862803,108.80815 Z"
         style="fill:#ab13b3;fill-opacity:1;stroke:none;stroke-width:1;stroke-linecap:round;stroke-linejoin:round"
         id="path652" /><path
         d="m 65.166076,126.58093 16.98267,4.14604 -8.491335,-13.23053 z"
         style="fill:#8d0cb4;fill-opacity:1;stroke:none;stroke-width:1;stroke-linecap:round;stroke-linejoin:round"
         id="path654" /></g></g><g
     inkscape:label="asteroid"
     inkscape:groupmode="layer"
     id="layer1"
     sodipodi:insensitive="true"
     style="display:inline"><g
       id="g14348"
       style="stroke:none;stroke-width:0.961639"
       transform="matrix(1.0398911,0,0,1.0398911,-1.9747007,-7.5036717)"><path
         d="M 37.0219,15.2638 49.3734,27.7251 58.4885,11.7737 Z"
         style="fill:#7b7b7b;fill-opacity:1;stroke:none;stroke-width:0.961639;stroke-linecap:round;stroke-linejoin:round"
         id="path1794" /><path
         d="m 58.4885,11.7737 9.305,16.3312 7.9757,-11.9636 z"
         style="fill:#7f7f7f;fill-opacity:1;stroke:none;stroke-width:0.961639;stroke-linecap:round;stroke-linejoin:round"
         id="path1796" /><path
         d="M 67.7935,28.1049 82.9853,28.4847 75.7692,16.1413 Z"
         style="fill:#838383;fill-opacity:1;stroke:none;stroke-width:0.961639;stroke-linecap:round;stroke-linejoin:round"
         id="path1798" /><path
         d="m 49.3734,27.7251 18.4201,0.3798 -9.305,-16.3312 z"
         style="fill:#7b7b7b;fill-opacity:1;stroke:none;stroke-width:0.961639;stroke-linecap:round;stroke-linejoin:round"
         id="path1800" /><path
         d="M 23.9271,25.4463 49.3734,27.7251 37.0219,15.2638 Z"
         style="fill:#707070;fill-opacity:1;stroke:none;stroke-width:0.961639;stroke-linecap:round;stroke-linejoin:round"
         id="path1806" /><path
         d="M 34.9412,41.0179 49.3734,27.7251 23.9271,25.4463 Z"
         style="fill:#818181;fill-opacity:1;stroke:none;stroke-width:0.961639;stroke-linecap:round;stroke-linejoin:round"
         id="path1808" /><path
         d="M 50.7027,41.2078 67.7935,28.1049 49.3734,27.7251 Z"
         style="fill:#7e7e7e;fill-opacity:1;stroke:none;stroke-width:0.961639;stroke-linecap:round;stroke-linejoin:round"
         id="path1810" /><path
         d="m 50.7027,41.2078 15.7615,0.1899 1.3293,-13.2928 z"
         style="fill:#7a7a7a;fill-opacity:1;stroke:none;stroke-width:0.961639;stroke-linecap:round;stroke-linejoin:round"
         id="path1812" /><path
         d="M 34.9412,41.0179 50.7027,41.2078 49.3734,27.7251 Z"
         style="fill:#6d6d6d;fill-opacity:1;stroke:none;stroke-width:0.961639;stroke-linecap:round;stroke-linejoin:round"
         id="path1814" /><path
         d="M 66.4642,41.3977 82.9853,28.4847 67.7935,28.1049 Z"
         style="fill:#666666;fill-opacity:1;stroke:none;stroke-width:0.961639;stroke-linecap:round;stroke-linejoin:round"
         id="path1816" /><path
         d="M 85.4539,47.4744 98.367,37.9796 82.9853,28.4847 Z"
         style="fill:#808080;fill-opacity:1;stroke:none;stroke-width:0.961639;stroke-linecap:round;stroke-linejoin:round"
         id="path1818" /><path
         d="M 12.5332,39.8785 34.9412,41.0179 23.9271,25.4463 Z"
         style="fill:#757575;fill-opacity:1;stroke:none;stroke-width:0.961639;stroke-linecap:round;stroke-linejoin:round"
         id="path1820" /><path
         d="M 66.4642,41.3977 85.4539,47.4744 82.9853,28.4847 Z"
         style="fill:#4f4f4f;fill-opacity:1;stroke:none;stroke-width:0.961639;stroke-linecap:round;stroke-linejoin:round"
         id="path1822" /><path
         d="M 50.7027,41.2078 64.3753,53.5512 66.4642,41.3977 Z"
         style="fill:#464646;fill-opacity:1;stroke:none;stroke-width:0.961639;stroke-linecap:round;stroke-linejoin:round"
         id="path1824" /><path
         d="M 102.545,57.1592 115.078,39.6886 98.367,37.9796 Z"
         style="fill:#4c4c4c;fill-opacity:1;stroke:none;stroke-width:0.961639;stroke-linecap:round;stroke-linejoin:round"
         id="path1826" /><path
         d="M 85.4539,47.4744 102.545,57.1592 98.367,37.9796 Z"
         style="fill:#7c7c7c;fill-opacity:1;stroke:none;stroke-width:0.961639;stroke-linecap:round;stroke-linejoin:round"
         id="path1828" /><path
         d="M 34.9412,41.0179 47.2845,58.6784 50.7027,41.2078 Z"
         style="fill:#3c3c3c;fill-opacity:1;stroke:none;stroke-width:0.961639;stroke-linecap:round;stroke-linejoin:round"
         id="path1830" /><path
         d="M 64.3753,53.5512 85.4539,47.4744 66.4642,41.3977 Z"
         style="fill:#3d3d3d;fill-opacity:1;stroke:none;stroke-width:0.961639;stroke-linecap:round;stroke-linejoin:round"
         id="path1832" /><path
         d="m 64.3753,53.5512 12.7231,7.0262 8.3555,-13.103 z"
         style="fill:#616161;fill-opacity:1;stroke:none;stroke-width:0.961639;stroke-linecap:round;stroke-linejoin:round"
         id="path1834" /><path
         d="m 12.5332,39.8785 16.711,19.9393 5.697,-18.7999 z"
         style="fill:#545454;fill-opacity:1;stroke:none;stroke-width:0.961639;stroke-linecap:round;stroke-linejoin:round"
         id="path1836" /><path
         d="M 47.2845,58.6784 64.3753,53.5512 50.7027,41.2078 Z"
         style="fill:#343434;fill-opacity:1;stroke:none;stroke-width:0.961639;stroke-linecap:round;stroke-linejoin:round"
         id="path1838" /><path
         d="m 115.078,39.6886 0.949,22.0282 9.116,-9.4949 z"
         style="fill:#6e6e6e;fill-opacity:1;stroke:none;stroke-width:0.961639;stroke-linecap:round;stroke-linejoin:round"
         id="path1840" /><path
         d="m 102.545,57.1592 13.482,4.5576 -0.949,-22.0282 z"
         style="fill:#7a7a7a;fill-opacity:1;stroke:none;stroke-width:0.961639;stroke-linecap:round;stroke-linejoin:round"
         id="path1842" /><path
         d="M 8.73527,54.3108 29.2442,59.8178 12.5332,39.8785 Z"
         style="fill:#717171;fill-opacity:1;stroke:none;stroke-width:0.961639;stroke-linecap:round;stroke-linejoin:round"
         id="path1844" /><path
         d="M 29.2442,59.8178 47.2845,58.6784 34.9412,41.0179 Z"
         style="fill:#404040;fill-opacity:1;stroke:none;stroke-width:0.961639;stroke-linecap:round;stroke-linejoin:round"
         id="path1846" /><path
         d="m 47.2845,58.6784 15.5716,6.8363 1.5192,-11.9635 z"
         style="fill:#585858;fill-opacity:1;stroke:none;stroke-width:0.961639;stroke-linecap:round;stroke-linejoin:round"
         id="path1848" /><path
         d="M 62.8561,65.5147 77.0984,60.5774 64.3753,53.5512 Z"
         style="fill:#5e5e5e;fill-opacity:1;stroke:none;stroke-width:0.961639;stroke-linecap:round;stroke-linejoin:round"
         id="path1850" /><path
         d="m 116.027,61.7168 16.142,6.0767 -7.026,-15.5716 z"
         style="fill:#a4a4a4;fill-opacity:1;stroke:none;stroke-width:0.961639;stroke-linecap:round;stroke-linejoin:round"
         id="path1852" /><path
         d="M 77.0984,60.5774 102.545,57.1592 85.4539,47.4744 Z"
         style="fill:#989898;fill-opacity:1;stroke:none;stroke-width:0.961639;stroke-linecap:round;stroke-linejoin:round"
         id="path1854" /><path
         d="M 85.264,71.5915 102.545,57.1592 77.0984,60.5774 Z"
         style="fill:#adadad;fill-opacity:1;stroke:none;stroke-width:0.961639;stroke-linecap:round;stroke-linejoin:round"
         id="path1856" /><path
         d="M 8.73527,54.3108 18.4201,75.1995 29.2442,59.8178 Z"
         style="fill:#8b8b8b;fill-opacity:1;stroke:none;stroke-width:0.961639;stroke-linecap:round;stroke-linejoin:round"
         id="path1858" /><path
         d="m 29.2442,59.8178 10.6343,15.7615 7.406,-16.9009 z"
         style="fill:#5a5a5a;fill-opacity:1;stroke:none;stroke-width:0.961639;stroke-linecap:round;stroke-linejoin:round"
         id="path1860" /><path
         d="M 1.89895,67.7935 18.4201,75.1995 8.73527,54.3108 Z"
         style="fill:#9c9c9c;fill-opacity:1;stroke:none;stroke-width:0.961639;stroke-linecap:round;stroke-linejoin:round"
         id="path1862" /><path
         d="M 103.114,76.3389 116.027,61.7168 102.545,57.1592 Z"
         style="fill:#848484;fill-opacity:1;stroke:none;stroke-width:0.961639;stroke-linecap:round;stroke-linejoin:round"
         id="path1864" /><path
         d="m 85.264,71.5915 17.85,4.7474 -0.569,-19.1797 z"
         style="fill:#777777;fill-opacity:1;stroke:none;stroke-width:0.961639;stroke-linecap:round;stroke-linejoin:round"
         id="path1866" /><path
         d="m 116.027,61.7168 11.964,15.9514 4.178,-9.8747 z"
         style="fill:#a4a4a4;fill-opacity:1;stroke:none;stroke-width:0.961639;stroke-linecap:round;stroke-linejoin:round"
         id="path1868" /><path
         d="m 118.686,79.3773 9.305,-1.7091 -11.964,-15.9514 z"
         style="fill:#858585;fill-opacity:1;stroke:none;stroke-width:0.961639;stroke-linecap:round;stroke-linejoin:round"
         id="path1870" /><path
         d="m 103.114,76.3389 15.572,3.0384 -2.659,-17.6605 z"
         style="fill:#666666;fill-opacity:1;stroke:none;stroke-width:0.961639;stroke-linecap:round;stroke-linejoin:round"
         id="path1872" /><path
         d="M 18.4201,75.1995 39.8785,75.5793 29.2442,59.8178 Z"
         style="fill:#a1a1a1;fill-opacity:1;stroke:none;stroke-width:0.961639;stroke-linecap:round;stroke-linejoin:round"
         id="path1874" /><path
         d="M 47.2845,58.6784 56.9693,81.656 62.8561,65.5147 Z"
         style="fill:#5f5f5f;fill-opacity:1;stroke:none;stroke-width:0.961639;stroke-linecap:round;stroke-linejoin:round"
         id="path1876" /><path
         d="M 39.8785,75.5793 56.9693,81.656 47.2845,58.6784 Z"
         style="fill:#5a5a5a;fill-opacity:1;stroke:none;stroke-width:0.961639;stroke-linecap:round;stroke-linejoin:round"
         id="path1878" /><path
         d="M 62.8561,65.5147 85.264,71.5915 77.0984,60.5774 Z"
         style="fill:#a1a1a1;fill-opacity:1;stroke:none;stroke-width:0.961639;stroke-linecap:round;stroke-linejoin:round"
         id="path1880" /><path
         d="M 4.17773,83.1752 18.4201,75.1995 1.89895,67.7935 Z"
         style="fill:#b5b5b5;fill-opacity:1;stroke:none;stroke-width:0.961639;stroke-linecap:round;stroke-linejoin:round"
         id="path1882" /><path
         d="M 71.7813,85.6439 85.264,71.5915 62.8561,65.5147 Z"
         style="fill:#cbcbcb;fill-opacity:1;stroke:none;stroke-width:0.961639;stroke-linecap:round;stroke-linejoin:round"
         id="path1884" /><path
         d="m 56.9693,81.656 14.812,3.9879 -8.9252,-20.1292 z"
         style="fill:#b6b6b6;fill-opacity:1;stroke:none;stroke-width:0.961639;stroke-linecap:round;stroke-linejoin:round"
         id="path1886" /><path
         d="M 90.961,88.3025 103.114,76.3389 85.264,71.5915 Z"
         style="fill:#828282;fill-opacity:1;stroke:none;stroke-width:0.961639;stroke-linecap:round;stroke-linejoin:round"
         id="path1888" /><path
         d="m 106.343,88.1126 12.343,-8.7353 -15.572,-3.0384 z"
         style="fill:#525252;fill-opacity:1;stroke:none;stroke-width:0.961639;stroke-linecap:round;stroke-linejoin:round"
         id="path1890" /><path
         d="M 18.4201,75.1995 32.2826,89.2519 39.8785,75.5793 Z"
         style="fill:#bcbcbc;fill-opacity:1;stroke:none;stroke-width:0.961639;stroke-linecap:round;stroke-linejoin:round"
         id="path1892" /><path
         d="m 121.155,89.2519 6.836,-11.5837 -9.305,1.7091 z"
         style="fill:#7d7d7d;fill-opacity:1;stroke:none;stroke-width:0.961639;stroke-linecap:round;stroke-linejoin:round"
         id="path1894" /><path
         d="M 43.2967,90.0115 56.9693,81.656 39.8785,75.5793 Z"
         style="fill:#8f8f8f;fill-opacity:1;stroke:none;stroke-width:0.961639;stroke-linecap:round;stroke-linejoin:round"
         id="path1896" /><path
         d="M 32.2826,89.2519 43.2967,90.0115 39.8785,75.5793 Z"
         style="fill:#9b9b9b;fill-opacity:1;stroke:none;stroke-width:0.961639;stroke-linecap:round;stroke-linejoin:round"
         id="path1898" /><path
         d="m 90.961,88.3025 15.382,-0.1899 -3.229,-11.7737 z"
         style="fill:#4c4c4c;fill-opacity:1;stroke:none;stroke-width:0.961639;stroke-linecap:round;stroke-linejoin:round"
         id="path1900" /><path
         d="M 71.7813,85.6439 90.961,88.3025 85.264,71.5915 Z"
         style="fill:#b0b0b0;fill-opacity:1;stroke:none;stroke-width:0.961639;stroke-linecap:round;stroke-linejoin:round"
         id="path1902" /><path
         d="m 106.343,88.1126 14.812,1.1393 -2.469,-9.8746 z"
         style="fill:#585858;fill-opacity:1;stroke:none;stroke-width:0.961639;stroke-linecap:round;stroke-linejoin:round"
         id="path1904" /><path
         d="M 19.5594,95.3287 32.2826,89.2519 18.4201,75.1995 Z"
         style="fill:#858585;fill-opacity:1;stroke:none;stroke-width:0.961639;stroke-linecap:round;stroke-linejoin:round"
         id="path1906" /><path
         d="M 4.17773,83.1752 19.5594,95.3287 18.4201,75.1995 Z"
         style="fill:#898989;fill-opacity:1;stroke:none;stroke-width:0.961639;stroke-linecap:round;stroke-linejoin:round"
         id="path1908" /><path
         d="m 71.7813,85.6439 12.5333,11.7736 6.6464,-9.115 z"
         style="fill:#a0a0a0;fill-opacity:1;stroke:none;stroke-width:0.961639;stroke-linecap:round;stroke-linejoin:round"
         id="path1910" /><path
         d="M 58.1087,96.6579 71.7813,85.6439 56.9693,81.656 Z"
         style="fill:#989898;fill-opacity:1;stroke:none;stroke-width:0.961639;stroke-linecap:round;stroke-linejoin:round"
         id="path1912" /><path
         d="M 43.2967,90.0115 58.1087,96.6579 56.9693,81.656 Z"
         style="fill:#9d9d9d;fill-opacity:1;stroke:none;stroke-width:0.961639;stroke-linecap:round;stroke-linejoin:round"
         id="path1914" /><path
         d="m 90.961,88.3025 11.964,11.5837 3.418,-11.7736 z"
         style="fill:#535353;fill-opacity:1;stroke:none;stroke-width:0.961639;stroke-linecap:round;stroke-linejoin:round"
         id="path1918" /><path
         d="m 58.1087,96.6579 13.1029,4.9371 0.5697,-15.9511 z"
         style="fill:#848484;fill-opacity:1;stroke:none;stroke-width:0.961639;stroke-linecap:round;stroke-linejoin:round"
         id="path1920" /><path
         d="M 71.2116,101.595 84.3146,97.4175 71.7813,85.6439 Z"
         style="fill:#b0b0b0;fill-opacity:1;stroke:none;stroke-width:0.961639;stroke-linecap:round;stroke-linejoin:round"
         id="path1922" /><path
         d="M 19.5594,95.3287 31.523,104.064 32.2826,89.2519 Z"
         style="fill:#8a8a8a;fill-opacity:1;stroke:none;stroke-width:0.961639;stroke-linecap:round;stroke-linejoin:round"
         id="path1924" /><path
         d="M 31.523,104.064 43.2967,90.0115 32.2826,89.2519 Z"
         style="fill:#969696;fill-opacity:1;stroke:none;stroke-width:0.961639;stroke-linecap:round;stroke-linejoin:round"
         id="path1926" /><path
         d="m 106.343,88.1126 7.785,18.2304 7.027,-17.0911 z"
         style="fill:#5c5c5c;fill-opacity:1;stroke:none;stroke-width:0.961639;stroke-linecap:round;stroke-linejoin:round"
         id="path1928" /><path
         d="m 102.925,99.8862 11.203,6.4568 -7.785,-18.2304 z"
         style="fill:#7c7c7c;fill-opacity:1;stroke:none;stroke-width:0.961639;stroke-linecap:round;stroke-linejoin:round"
         id="path1930" /><path
         d="M 84.3146,97.4175 102.925,99.8862 90.961,88.3025 Z"
         style="fill:#6d6d6d;fill-opacity:1;stroke:none;stroke-width:0.961639;stroke-linecap:round;stroke-linejoin:round"
         id="path1932" /><path
         d="M 47.4744,107.862 58.1087,96.6579 43.2967,90.0115 Z"
         style="fill:#878787;fill-opacity:1;stroke:none;stroke-width:0.961639;stroke-linecap:round;stroke-linejoin:round"
         id="path1934" /><path
         d="m 31.523,104.064 15.9514,3.798 -4.1777,-17.8505 z"
         style="fill:#8a8a8a;fill-opacity:1;stroke:none;stroke-width:0.961639;stroke-linecap:round;stroke-linejoin:round"
         id="path1936" /><path
         d="M 59.6019,111.66 71.2116,101.595 58.1087,96.6579 Z"
         style="fill:#5d5d5d;fill-opacity:1;stroke:none;stroke-width:0.961639;stroke-linecap:round;stroke-linejoin:round"
         id="path1938" /><path
         d="M 47.4744,107.862 59.6019,111.66 58.1087,96.6579 Z"
         style="fill:#696969;fill-opacity:1;stroke:none;stroke-width:0.961639;stroke-linecap:round;stroke-linejoin:round"
         id="path1940" /><path
         d="M 84.3146,97.4175 98.5569,111.85 102.925,99.8862 Z"
         style="fill:#7c7c7c;fill-opacity:1;stroke:none;stroke-width:0.961639;stroke-linecap:round;stroke-linejoin:round"
         id="path1942" /><path
         d="m 87.3529,111.85 h 11.204 L 84.3146,97.4175 Z"
         style="fill:#868686;fill-opacity:1;stroke:none;stroke-width:0.961639;stroke-linecap:round;stroke-linejoin:round"
         id="path1944" /><path
         d="M 71.2116,101.595 87.3529,111.85 84.3146,97.4175 Z"
         style="fill:#8d8d8d;fill-opacity:1;stroke:none;stroke-width:0.961639;stroke-linecap:round;stroke-linejoin:round"
         id="path1946" /><path
         d="m 98.5569,111.85 15.5711,-5.507 -11.203,-6.4568 z"
         style="fill:#8c8c8c;fill-opacity:1;stroke:none;stroke-width:0.961639;stroke-linecap:round;stroke-linejoin:round"
         id="path1948" /><path
         d="m 31.523,104.064 11.7737,12.153 4.1777,-8.355 z"
         style="fill:#6c6c6c;fill-opacity:1;stroke:none;stroke-width:0.961639;stroke-linecap:round;stroke-linejoin:round"
         id="path1950" /><path
         d="m 59.6019,111.66 13.1289,8.545 -1.5192,-18.61 z"
         style="fill:#707070;fill-opacity:1;stroke:none;stroke-width:0.961639;stroke-linecap:round;stroke-linejoin:round"
         id="path1952" /><path
         d="M 72.7308,120.205 87.3529,111.85 71.2116,101.595 Z"
         style="fill:#787878;fill-opacity:1;stroke:none;stroke-width:0.961639;stroke-linecap:round;stroke-linejoin:round"
         id="path1954" /><path
         d="m 107.482,121.345 6.646,-15.002 -15.5711,5.507 z"
         style="fill:#b3b3b3;fill-opacity:1;stroke:none;stroke-width:0.961639;stroke-linecap:round;stroke-linejoin:round"
         id="path1956" /><path
         d="M 43.2967,116.217 59.6019,111.66 47.4744,107.862 Z"
         style="fill:#7d7d7d;fill-opacity:1;stroke:none;stroke-width:0.961639;stroke-linecap:round;stroke-linejoin:round"
         id="path1958" /><path
         d="m 43.2967,116.217 13.1029,9.116 3.2023,-13.673 z"
         style="fill:#656565;fill-opacity:1;stroke:none;stroke-width:0.961639;stroke-linecap:round;stroke-linejoin:round"
         id="path1960" /><path
         d="M 56.3996,125.333 72.7308,120.205 59.6019,111.66 Z"
         style="fill:#5b5b5b;fill-opacity:1;stroke:none;stroke-width:0.961639;stroke-linecap:round;stroke-linejoin:round"
         id="path1962" /><path
         d="m 56.3996,125.333 8.1656,3.608 8.1656,-8.736 z"
         style="fill:#737373;fill-opacity:1;stroke:none;stroke-width:0.961639;stroke-linecap:round;stroke-linejoin:round"
         id="path1964" /><path
         d="m 87.3529,111.85 6.8363,17.85 4.3677,-17.85 z"
         style="fill:#b5b5b5;fill-opacity:1;stroke:none;stroke-width:0.961639;stroke-linecap:round;stroke-linejoin:round"
         id="path1966" /><path
         d="m 94.1892,129.7 13.2928,-8.355 -8.9251,-9.495 z"
         style="fill:#c1c1c1;fill-opacity:1;stroke:none;stroke-width:0.961639;stroke-linecap:round;stroke-linejoin:round"
         id="path1968" /><path
         d="m 80.8964,132.928 6.4565,-21.078 -14.6221,8.355 z"
         style="fill:#7d7d7d;fill-opacity:1;stroke:none;stroke-width:0.961639;stroke-linecap:round;stroke-linejoin:round"
         id="path1970" /><path
         d="M 80.8964,132.928 94.1892,129.7 87.3529,111.85 Z"
         style="fill:#989898;fill-opacity:1;stroke:none;stroke-width:0.961639;stroke-linecap:round;stroke-linejoin:round"
         id="path1972" /><path
         d="m 64.5652,128.941 16.3312,3.987 -8.1656,-12.723 z"
         style="fill:#6b6b6b;fill-opacity:1;stroke:none;stroke-width:0.961639;stroke-linecap:round;stroke-linejoin:round"
         id="path1974" /></g></g><metadata
     id="metadata644"><rdf:RDF><cc:Work
         rdf:about=""><cc:license
           rdf:resource="http://creativecommons.org/licenses/by-sa/4.0/" /></cc:Work><cc:License
         rdf:about="http://creativecommons.org/licenses/by-sa/4.0/"><cc:permits
           rdf:resource="http://creativecommons.org/ns#Reproduction" /><cc:permits
           rdf:resource="http://creativecommons.org/ns#Distribution" /><cc:requires
           rdf:resource="http://creativecommons.org/ns#Notice" /><cc:requires
           rdf:resource="http://creativecommons.org/ns#Attribution" /><cc:permits
           rdf:resource="http://creativecommons.org/ns#DerivativeWorks" /><cc:requires
           rdf:resource="http://creativecommons.org/ns#ShareAlike" /></cc:License></rdf:RDF></metadata></svg>
