<?xml version="1.0" encoding="UTF-8" standalone="no"?>
<!-- Created with Inkscape (http://www.inkscape.org/) -->

<svg
   width="512"
   height="512"
   viewBox="0 0 135.46666 135.46667"
   version="1.1"
   id="svg5"
   xml:space="preserve"
   xmlns="http://www.w3.org/2000/svg"
   xmlns:svg="http://www.w3.org/2000/svg"
   xmlns:rdf="http://www.w3.org/1999/02/22-rdf-syntax-ns#"
   xmlns:cc="http://creativecommons.org/ns#"><defs
     id="defs2" /><metadata
     id="metadata254"><rdf:RDF><cc:Work
         rdf:about=""><cc:license
           rdf:resource="http://creativecommons.org/licenses/by-sa/4.0/" /></cc:Work><cc:License
         rdf:about="http://creativecommons.org/licenses/by-sa/4.0/"><cc:permits
           rdf:resource="http://creativecommons.org/ns#Reproduction" /><cc:permits
           rdf:resource="http://creativecommons.org/ns#Distribution" /><cc:requires
           rdf:resource="http://creativecommons.org/ns#Notice" /><cc:requires
           rdf:resource="http://creativecommons.org/ns#Attribution" /><cc:permits
           rdf:resource="http://creativecommons.org/ns#DerivativeWorks" /><cc:requires
           rdf:resource="http://creativecommons.org/ns#ShareAlike" /></cc:License></rdf:RDF></metadata><g
     id="g659"
     style="display:none"><g
       id="g128233"><path
         d="M 25.386404,20.243162 41.800007,9.0818702 24.073298,2.07875 Z"
         style="fill:#3be79b;fill-opacity:1;stroke:none;stroke-width:1;stroke-linecap:round;stroke-linejoin:round"
         id="path480" /><path
         d="M 3.720375,13.896479 25.386404,20.243162 24.073298,2.07875 Z"
         style="fill:#2ddc99;fill-opacity:1;stroke:none;stroke-width:1;stroke-linecap:round;stroke-linejoin:round"
         id="path482" /><path
         d="M 87.320462,7.1122103 104.82867,22.431673 106.79821,7.5499125 Z"
         style="fill:#bbeaa1;fill-opacity:1;stroke:none;stroke-width:1;stroke-linecap:round;stroke-linejoin:round"
         id="path484" /><path
         d="M 104.82867,22.431673 120.36606,23.088111 106.79821,7.5499125 Z"
         style="fill:#cedda3;fill-opacity:1;stroke:none;stroke-width:1;stroke-linecap:round;stroke-linejoin:round"
         id="path486" /><path
         d="M 80.09849,18.05465 91.259782,28.121686 87.320462,7.1122103 Z"
         style="fill:#a6eab9;fill-opacity:1;stroke:none;stroke-width:1;stroke-linecap:round;stroke-linejoin:round"
         id="path488" /><path
         d="M 91.259782,28.121686 104.82867,22.431673 87.320462,7.1122103 Z"
         style="fill:#b9e2b5;fill-opacity:1;stroke:none;stroke-width:1;stroke-linecap:round;stroke-linejoin:round"
         id="path490" /><path
         d="M 12.474304,30.091346 25.386404,20.243162 3.720375,13.896479 Z"
         style="fill:#2ad99a;fill-opacity:1;stroke:none;stroke-width:1;stroke-linecap:round;stroke-linejoin:round"
         id="path492" /><path
         d="M 41.143454,30.091346 54.055554,23.744664 41.800007,9.0818702 Z"
         style="fill:#50e1c0;fill-opacity:1;stroke:none;stroke-width:1;stroke-linecap:round;stroke-linejoin:round"
         id="path494" /><path
         d="m 25.386404,20.243162 15.75705,9.848184 0.656553,-21.0094758 z"
         style="fill:#3de0b0;fill-opacity:1;stroke:none;stroke-width:1;stroke-linecap:round;stroke-linejoin:round"
         id="path496" /><path
         d="M 77.03469,39.939531 80.09849,18.05465 66.898276,29.001355 Z"
         style="fill:#8fdad7;fill-opacity:1;stroke:none;stroke-width:1;stroke-linecap:round;stroke-linejoin:round"
         id="path498" /><path
         d="M 77.03469,39.939531 91.259782,28.121686 80.09849,18.05465 Z"
         style="fill:#a3dbd1;fill-opacity:1;stroke:none;stroke-width:1;stroke-linecap:round;stroke-linejoin:round"
         id="path500" /><path
         d="M 25.386404,20.243162 30.857567,41.471489 41.143454,30.091346 Z"
         style="fill:#36d1c1;fill-opacity:1;stroke:none;stroke-width:1;stroke-linecap:round;stroke-linejoin:round"
         id="path502" /><path
         d="m 104.82867,22.431673 14.88164,16.194751 0.65575,-15.538313 z"
         style="fill:#ddcea3;fill-opacity:1;stroke:none;stroke-width:1;stroke-linecap:round;stroke-linejoin:round"
         id="path504" /><path
         d="M 41.143454,30.091346 52.742447,42.565629 54.055554,23.744664 Z"
         style="fill:#53d1d7;fill-opacity:1;stroke:none;stroke-width:1;stroke-linecap:round;stroke-linejoin:round"
         id="path506" /><path
         d="M 12.474304,30.091346 30.857567,41.471489 25.386404,20.243162 Z"
         style="fill:#25cab1;fill-opacity:1;stroke:none;stroke-width:1;stroke-linecap:round;stroke-linejoin:round"
         id="path508" /><path
         d="M 3.720375,13.896479 -1.70749e-6,43.441033 12.474304,30.091346 Z"
         style="fill:#2ad99a;fill-opacity:1;stroke:none;stroke-width:1;stroke-linecap:round;stroke-linejoin:round"
         id="path510" /><path
         d="M 52.742447,42.565629 66.898276,29.001355 54.055554,23.744664 Z"
         style="fill:#67d6d8;fill-opacity:1;stroke:none;stroke-width:1;stroke-linecap:round;stroke-linejoin:round"
         id="path512" /><path
         d="m 105.48441,44.972991 14.2259,-6.346567 -14.88164,-16.194751 z"
         style="fill:#d9c5b8;fill-opacity:1;stroke:none;stroke-width:1;stroke-linecap:round;stroke-linejoin:round"
         id="path514" /><path
         d="M 91.259782,28.121686 105.48441,44.972991 104.82867,22.431673 Z"
         style="fill:#c8cec3;fill-opacity:1;stroke:none;stroke-width:1;stroke-linecap:round;stroke-linejoin:round"
         id="path516" /><path
         d="M 93.885995,43.659885 105.48441,44.972991 91.259782,28.121686 Z"
         style="fill:#c1c3d4;fill-opacity:1;stroke:none;stroke-width:1;stroke-linecap:round;stroke-linejoin:round"
         id="path518" /><path
         d="M 77.03469,39.939531 93.885995,43.659885 91.259782,28.121686 Z"
         style="fill:#adc6de;fill-opacity:1;stroke:none;stroke-width:1;stroke-linecap:round;stroke-linejoin:round"
         id="path520" /><path
         d="m 30.857567,41.471489 21.88488,1.09414 -11.598993,-12.474283 z"
         style="fill:#41c6d5;fill-opacity:1;stroke:none;stroke-width:1;stroke-linecap:round;stroke-linejoin:round"
         id="path522" /><path
         d="M 52.742447,42.565629 77.03469,39.939531 66.898276,29.001355 Z"
         style="fill:#7bcde4;fill-opacity:1;stroke:none;stroke-width:1;stroke-linecap:round;stroke-linejoin:round"
         id="path524" /><path
         d="M 81.192746,54.821176 93.885995,43.659885 77.03469,39.939531 Z"
         style="fill:#a8b8eb;fill-opacity:1;stroke:none;stroke-width:1;stroke-linecap:round;stroke-linejoin:round"
         id="path526" /><path
         d="M 52.742447,42.565629 69.593752,55.258878 77.03469,39.939531 Z"
         style="fill:#7fb7f0;fill-opacity:1;stroke:none;stroke-width:1;stroke-linecap:round;stroke-linejoin:round"
         id="path528" /><path
         d="M 69.593752,55.258878 81.192746,54.821176 77.03469,39.939531 Z"
         style="fill:#97aef2;fill-opacity:1;stroke:none;stroke-width:1;stroke-linecap:round;stroke-linejoin:round"
         id="path530" /><path
         d="m 105.48441,44.972991 17.07016,9.629334 -2.84426,-15.975901 z"
         style="fill:#e6adbb;fill-opacity:1;stroke:none;stroke-width:1;stroke-linecap:round;stroke-linejoin:round"
         id="path532" /><path
         d="M 14.662815,60.948892 12.474304,30.091346 -1.70749e-6,43.441033 Z"
         style="fill:#0ea5ac;fill-opacity:1;stroke:none;stroke-width:1;stroke-linecap:round;stroke-linejoin:round"
         id="path534" /><path
         d="M 14.662815,60.948892 30.857567,41.471489 12.474304,30.091346 Z"
         style="fill:#1aaebd;fill-opacity:1;stroke:none;stroke-width:1;stroke-linecap:round;stroke-linejoin:round"
         id="path536" /><path
         d="m 112.48788,62.699701 10.06669,-8.097376 -17.07016,-9.629334 z"
         style="fill:#e79cc3;fill-opacity:1;stroke:none;stroke-width:1;stroke-linecap:round;stroke-linejoin:round"
         id="path538" /><path
         d="M 14.662815,60.948892 30.857567,58.760496 V 41.471489 Z"
         style="fill:#219ed0;fill-opacity:1;stroke:none;stroke-width:1;stroke-linecap:round;stroke-linejoin:round"
         id="path540" /><path
         d="m 30.857567,58.760496 21.88488,-16.194867 -21.88488,-1.09414 z"
         style="fill:#36b0dc;fill-opacity:1;stroke:none;stroke-width:1;stroke-linecap:round;stroke-linejoin:round"
         id="path542" /><path
         d="M 50.991638,61.605445 69.593752,55.258878 52.742447,42.565629 Z"
         style="fill:#63a6f5;fill-opacity:1;stroke:none;stroke-width:1;stroke-linecap:round;stroke-linejoin:round"
         id="path544" /><path
         d="m 30.857567,58.760496 20.134071,2.844949 1.750809,-19.039816 z"
         style="fill:#44a2ec;fill-opacity:1;stroke:none;stroke-width:1;stroke-linecap:round;stroke-linejoin:round"
         id="path546" /><path
         d="M 97.606349,67.733276 105.48441,44.972991 93.885995,43.659885 Z"
         style="fill:#cda6de;fill-opacity:1;stroke:none;stroke-width:1;stroke-linecap:round;stroke-linejoin:round"
         id="path548" /><path
         d="m 81.192746,54.821176 16.413603,12.9121 -3.720354,-24.073391 z"
         style="fill:#bda0ea;fill-opacity:1;stroke:none;stroke-width:1;stroke-linecap:round;stroke-linejoin:round"
         id="path550" /><path
         d="m 97.606349,67.733276 14.881531,-5.033575 -7.00347,-17.72671 z"
         style="fill:#db96d4;fill-opacity:1;stroke:none;stroke-width:1;stroke-linecap:round;stroke-linejoin:round"
         id="path552" /><path
         d="M 69.593752,55.258878 80.755044,70.578225 81.192746,54.821176 Z"
         style="fill:#9898fa;fill-opacity:1;stroke:none;stroke-width:1;stroke-linecap:round;stroke-linejoin:round"
         id="path554" /><path
         d="M 0.2188494,72.110183 14.662815,60.948892 -1.70749e-6,43.441033 Z"
         style="fill:#088dad;fill-opacity:1;stroke:none;stroke-width:1;stroke-linecap:round;stroke-linejoin:round"
         id="path556" /><path
         d="M 80.755044,70.578225 97.606349,67.733276 81.192746,54.821176 Z"
         style="fill:#b588f2;fill-opacity:1;stroke:none;stroke-width:1;stroke-linecap:round;stroke-linejoin:round"
         id="path559" /><path
         d="m 50.991638,61.605445 13.349803,13.349803 5.252311,-19.69637 z"
         style="fill:#7387fd;fill-opacity:1;stroke:none;stroke-width:1;stroke-linecap:round;stroke-linejoin:round"
         id="path561" /><path
         d="M 64.341441,74.955248 80.755044,70.578225 69.593752,55.258878 Z"
         style="fill:#8c82fd;fill-opacity:1;stroke:none;stroke-width:1;stroke-linecap:round;stroke-linejoin:round"
         id="path563" /><path
         d="M 14.662815,60.948892 28.012618,77.143759 30.857567,58.760496 Z"
         style="fill:#1c81cf;fill-opacity:1;stroke:none;stroke-width:1;stroke-linecap:round;stroke-linejoin:round"
         id="path565" /><path
         d="M 112.48788,62.699701 133.49712,77.143759 122.55457,54.602325 Z"
         style="fill:#f286b7;fill-opacity:1;stroke:none;stroke-width:1;stroke-linecap:round;stroke-linejoin:round"
         id="path567" /><path
         d="M 51.429341,81.082963 64.341441,74.955248 50.991638,61.605445 Z"
         style="fill:#6173fa;fill-opacity:1;stroke:none;stroke-width:1;stroke-linecap:round;stroke-linejoin:round"
         id="path569" /><path
         d="M 122.77353,82.833772 133.49712,77.143759 112.48788,62.699701 Z"
         style="fill:#f271b6;fill-opacity:1;stroke:none;stroke-width:1;stroke-linecap:round;stroke-linejoin:round"
         id="path571" /><path
         d="M 16.413624,83.052623 28.012618,77.143759 14.662815,60.948892 Z"
         style="fill:#1672c6;fill-opacity:1;stroke:none;stroke-width:1;stroke-linecap:round;stroke-linejoin:round"
         id="path573" /><path
         d="M 28.012618,77.143759 50.991638,61.605445 30.857567,58.760496 Z"
         style="fill:#3080e3;fill-opacity:1;stroke:none;stroke-width:1;stroke-linecap:round;stroke-linejoin:round"
         id="path575" /><path
         d="M 0.2188494,72.110183 16.413624,83.052623 14.662815,60.948892 Z"
         style="fill:#0b75b3;fill-opacity:1;stroke:none;stroke-width:1;stroke-linecap:round;stroke-linejoin:round"
         id="path577" /><path
         d="M 28.012618,77.143759 51.429341,81.082963 50.991638,61.605445 Z"
         style="fill:#406ded;fill-opacity:1;stroke:none;stroke-width:1;stroke-linecap:round;stroke-linejoin:round"
         id="path579" /><path
         d="M 100.23256,83.709177 112.48788,62.699701 97.606349,67.733276 Z"
         style="fill:#d776da;fill-opacity:1;stroke:none;stroke-width:1;stroke-linecap:round;stroke-linejoin:round"
         id="path581" /><path
         d="M 80.755044,70.578225 100.23256,83.709177 97.606349,67.733276 Z"
         style="fill:#c270ea;fill-opacity:1;stroke:none;stroke-width:1;stroke-linecap:round;stroke-linejoin:round"
         id="path583" /><path
         d="M 100.23256,83.709177 122.77353,82.833772 112.48788,62.699701 Z"
         style="fill:#e66ac8;fill-opacity:1;stroke:none;stroke-width:1;stroke-linecap:round;stroke-linejoin:round"
         id="path585" /><path
         d="M 82.287001,89.618041 100.23256,83.709177 80.755044,70.578225 Z"
         style="fill:#b85ced;fill-opacity:1;stroke:none;stroke-width:1;stroke-linecap:round;stroke-linejoin:round"
         id="path587" /><path
         d="M 64.341441,74.955248 82.287001,89.618041 80.755044,70.578225 Z"
         style="fill:#9860f8;fill-opacity:1;stroke:none;stroke-width:1;stroke-linecap:round;stroke-linejoin:round"
         id="path589" /><path
         d="M 51.429341,81.082963 64.12259,93.995064 64.341441,74.955248 Z"
         style="fill:#6a54f5;fill-opacity:1;stroke:none;stroke-width:1;stroke-linecap:round;stroke-linejoin:round"
         id="path591" /><path
         d="m 110.29937,96.183575 12.47416,-13.349803 -22.54097,0.875405 z"
         style="fill:#e152c4;fill-opacity:1;stroke:none;stroke-width:1;stroke-linecap:round;stroke-linejoin:round"
         id="path593" /><path
         d="M 64.12259,93.995064 82.287001,89.618041 64.341441,74.955248 Z"
         style="fill:#874bf2;fill-opacity:1;stroke:none;stroke-width:1;stroke-linecap:round;stroke-linejoin:round"
         id="path595" /><path
         d="M 28.012618,77.143759 38.955058,97.715532 51.429341,81.082963 Z"
         style="fill:#3b53e1;fill-opacity:1;stroke:none;stroke-width:1;stroke-linecap:round;stroke-linejoin:round"
         id="path597" /><path
         d="m 122.77353,82.833772 12.69314,17.070156 -1.96955,-22.760169 z"
         style="fill:#f65fa4;fill-opacity:1;stroke:none;stroke-width:1;stroke-linecap:round;stroke-linejoin:round"
         id="path599" /><path
         d="M 50.991638,101.43589 64.12259,93.995064 51.429341,81.082963 Z"
         style="fill:#6043eb;fill-opacity:1;stroke:none;stroke-width:1;stroke-linecap:round;stroke-linejoin:round"
         id="path601" /><path
         d="m 38.955058,97.715532 12.03658,3.720358 0.437703,-20.352927 z"
         style="fill:#4d3de0;fill-opacity:1;stroke:none;stroke-width:1;stroke-linecap:round;stroke-linejoin:round"
         id="path603" /><path
         d="M 16.413624,83.052623 38.955058,97.715532 28.012618,77.143759 Z"
         style="fill:#2656d0;fill-opacity:1;stroke:none;stroke-width:1;stroke-linecap:round;stroke-linejoin:round"
         id="path605" /><path
         d="M 23.416744,104.06256 38.955058,97.715532 16.413624,83.052623 Z"
         style="fill:#2744c5;fill-opacity:1;stroke:none;stroke-width:1;stroke-linecap:round;stroke-linejoin:round"
         id="path607" /><path
         d="m 110.29937,96.183575 25.1673,3.720353 -12.69314,-17.070156 z"
         style="fill:#e84db5;fill-opacity:1;stroke:none;stroke-width:1;stroke-linecap:round;stroke-linejoin:round"
         id="path609" /><path
         d="M 64.12259,93.995064 82.724704,109.97119 82.287001,89.618041 Z"
         style="fill:#9336e6;fill-opacity:1;stroke:none;stroke-width:1;stroke-linecap:round;stroke-linejoin:round"
         id="path611" /><path
         d="M 82.287001,89.618041 110.29937,96.183575 100.23256,83.709177 Z"
         style="fill:#c84ada;fill-opacity:1;stroke:none;stroke-width:1;stroke-linecap:round;stroke-linejoin:round"
         id="path613" /><path
         d="M 82.287001,89.618041 98.262902,114.34822 110.29937,96.183575 Z"
         style="fill:#c035d0;fill-opacity:1;stroke:none;stroke-width:1;stroke-linecap:round;stroke-linejoin:round"
         id="path615" /><path
         d="M 82.724704,109.97119 98.262902,114.34822 82.287001,89.618041 Z"
         style="fill:#af27cf;fill-opacity:1;stroke:none;stroke-width:1;stroke-linecap:round;stroke-linejoin:round"
         id="path617" /><path
         d="M 50.991638,101.43589 64.560292,115.22293 64.12259,93.995064 Z"
         style="fill:#6f29da;fill-opacity:1;stroke:none;stroke-width:1;stroke-linecap:round;stroke-linejoin:round"
         id="path619" /><path
         d="m 115.55225,114.34822 19.91442,-14.444292 -25.1673,-3.720353 z"
         style="fill:#e03bb1;fill-opacity:1;stroke:none;stroke-width:1;stroke-linecap:round;stroke-linejoin:round"
         id="path621" /><path
         d="M 64.560292,115.22293 82.724704,109.97119 64.12259,93.995064 Z"
         style="fill:#8324d8;fill-opacity:1;stroke:none;stroke-width:1;stroke-linecap:round;stroke-linejoin:round"
         id="path623" /><path
         d="M 98.262902,114.34822 H 115.55225 L 110.29937,96.183575 Z"
         style="fill:#d42baf;fill-opacity:1;stroke:none;stroke-width:1;stroke-linecap:round;stroke-linejoin:round"
         id="path625" /><path
         d="m 41.362305,120.47582 9.629333,-19.03993 -12.03658,-3.720358 z"
         style="fill:#4d28cd;fill-opacity:1;stroke:none;stroke-width:1;stroke-linecap:round;stroke-linejoin:round"
         id="path627" /><path
         d="M 23.416744,104.06256 41.362305,120.47582 38.955058,97.715532 Z"
         style="fill:#382ec3;fill-opacity:1;stroke:none;stroke-width:1;stroke-linecap:round;stroke-linejoin:round"
         id="path629" /><path
         d="M 41.362305,120.47582 64.560292,115.22293 50.991638,101.43589 Z"
         style="fill:#5e1ecc;fill-opacity:1;stroke:none;stroke-width:1;stroke-linecap:round;stroke-linejoin:round"
         id="path631" /><path
         d="M 86.664024,126.16549 98.262902,114.34822 82.724704,109.97119 Z"
         style="fill:#ad17ba;fill-opacity:1;stroke:none;stroke-width:1;stroke-linecap:round;stroke-linejoin:round"
         id="path633" /><path
         d="m 86.664024,126.16549 8.097375,2.84541 3.501503,-14.66268 z"
         style="fill:#b212a7;fill-opacity:1;stroke:none;stroke-width:1;stroke-linecap:round;stroke-linejoin:round"
         id="path635" /><path
         d="m 41.362305,120.47582 20.571774,6.7845 2.626213,-12.03739 z"
         style="fill:#6b11be;fill-opacity:1;stroke:none;stroke-width:1;stroke-linecap:round;stroke-linejoin:round"
         id="path637" /><path
         d="m 64.560292,115.22293 22.103732,10.94256 -3.93932,-16.1943 z"
         style="fill:#9415c2;fill-opacity:1;stroke:none;stroke-width:1;stroke-linecap:round;stroke-linejoin:round"
         id="path639" /><path
         d="m 64.560292,115.22293 13.130951,18.16499 8.972781,-7.22243 z"
         style="fill:#900bb2;fill-opacity:1;stroke:none;stroke-width:1;stroke-linecap:round;stroke-linejoin:round"
         id="path641" /><path
         d="m 61.934079,127.26032 15.757164,6.1276 -13.130951,-18.16499 z"
         style="fill:#7d0ab3;fill-opacity:1;stroke:none;stroke-width:1;stroke-linecap:round;stroke-linejoin:round"
         id="path643" /><path
         d="M 0.2188494,72.110183 23.416744,104.06256 16.413624,83.052623 Z"
         style="fill:#115bb6;fill-opacity:1;stroke:none;stroke-width:1;stroke-linecap:round;stroke-linejoin:round"
         id="path645" /><path
         d="M 94.761399,129.0109 115.55225,114.34822 H 98.262902 Z"
         style="fill:#c01dae;fill-opacity:1;stroke:none;stroke-width:1;stroke-linecap:round;stroke-linejoin:round"
         id="path647" /><path
         d="m 77.691243,133.38792 17.070156,-4.37702 -8.097375,-2.84541 z"
         style="fill:#a50ba1;fill-opacity:1;stroke:none;stroke-width:1;stroke-linecap:round;stroke-linejoin:round"
         id="path649" /><path
         d="M 54.055554,23.744664 80.09849,18.05465 66.898276,29.001355 Z"
         style="fill:#7ee4cd;fill-opacity:1;stroke:none;stroke-width:1;stroke-linecap:round;stroke-linejoin:round"
         id="path651" /><path
         d="M 54.055554,23.744664 80.09849,18.05465 41.800007,9.0818702 Z"
         style="fill:#68ebbd;fill-opacity:1;stroke:none;stroke-width:1;stroke-linecap:round;stroke-linejoin:round"
         id="path653" /><path
         d="M 87.320462,7.1122103 80.09849,18.05465 41.800007,9.0818702 Z"
         style="fill:#8cf3b4;fill-opacity:1;stroke:none;stroke-width:1;stroke-linecap:round;stroke-linejoin:round"
         id="path655" /></g></g><g
     id="g70759"
     style="display:inline"><g
       id="g3871"
       style="stroke:none"><path
         d="M 25.386404,20.243162 41.800007,9.0818702 24.073298,2.07875 Z"
         style="fill:#565656;fill-opacity:1;stroke:none;stroke-width:1;stroke-linecap:round;stroke-linejoin:round"
         id="path70587" /><path
         d="M 3.720375,13.896479 25.386404,20.243162 24.073298,2.07875 Z"
         style="fill:#6d6d6d;fill-opacity:1;stroke:none;stroke-width:1;stroke-linecap:round;stroke-linejoin:round"
         id="path70589" /><path
         d="M 87.320462,7.1122103 104.82867,22.431673 106.79821,7.5499125 Z"
         style="fill:#4d4d4d;fill-opacity:1;stroke:none;stroke-width:1;stroke-linecap:round;stroke-linejoin:round"
         id="path70591" /><path
         d="M 104.82867,22.431673 120.36606,23.088111 106.79821,7.5499125 Z"
         style="fill:#626262;fill-opacity:1;stroke:none;stroke-width:1;stroke-linecap:round;stroke-linejoin:round"
         id="path70593" /><path
         d="M 80.09849,18.05465 91.259782,28.121686 87.320462,7.1122103 Z"
         style="fill:#474747;fill-opacity:1;stroke:none;stroke-width:1;stroke-linecap:round;stroke-linejoin:round"
         id="path70595" /><path
         d="M 91.259782,28.121686 104.82867,22.431673 87.320462,7.1122103 Z"
         style="fill:#575757;fill-opacity:1;stroke:none;stroke-width:1;stroke-linecap:round;stroke-linejoin:round"
         id="path70597" /><path
         d="M 12.474304,30.091346 25.386404,20.243162 3.720375,13.896479 Z"
         style="fill:#989898;fill-opacity:1;stroke:none;stroke-width:1;stroke-linecap:round;stroke-linejoin:round"
         id="path70599" /><path
         d="M 41.143454,30.091346 54.055554,23.744664 41.800007,9.0818702 Z"
         style="fill:#989898;fill-opacity:1;stroke:none;stroke-width:1;stroke-linecap:round;stroke-linejoin:round"
         id="path70601" /><path
         d="m 25.386404,20.243162 15.75705,9.848184 0.656553,-21.0094758 z"
         style="fill:#686868;fill-opacity:1;stroke:none;stroke-width:1;stroke-linecap:round;stroke-linejoin:round"
         id="path70603" /><path
         d="M 77.03469,39.939531 80.09849,18.05465 66.898276,29.001355 Z"
         style="fill:#5e5e5e;fill-opacity:1;stroke:none;stroke-width:1;stroke-linecap:round;stroke-linejoin:round"
         id="path70605" /><path
         d="M 77.03469,39.939531 91.259782,28.121686 80.09849,18.05465 Z"
         style="fill:#464646;fill-opacity:1;stroke:none;stroke-width:1;stroke-linecap:round;stroke-linejoin:round"
         id="path70607" /><path
         d="M 25.386404,20.243162 30.857567,41.471489 41.143454,30.091346 Z"
         style="fill:#8f8f8f;fill-opacity:1;stroke:none;stroke-width:1;stroke-linecap:round;stroke-linejoin:round"
         id="path70609" /><path
         d="m 104.82867,22.431673 14.88164,16.194751 0.65575,-15.538313 z"
         style="fill:#868686;fill-opacity:1;stroke:none;stroke-width:1;stroke-linecap:round;stroke-linejoin:round"
         id="path70611" /><path
         d="M 41.143454,30.091346 52.742447,42.565629 54.055554,23.744664 Z"
         style="fill:#777777;fill-opacity:1;stroke:none;stroke-width:1;stroke-linecap:round;stroke-linejoin:round"
         id="path70613" /><path
         d="M 12.474304,30.091346 30.857567,41.471489 25.386404,20.243162 Z"
         style="fill:#a2a2a2;fill-opacity:1;stroke:none;stroke-width:1;stroke-linecap:round;stroke-linejoin:round"
         id="path70615" /><path
         d="M 3.720375,13.896479 -1.70749e-6,43.441033 12.474304,30.091346 Z"
         style="fill:#777777;fill-opacity:1;stroke:none;stroke-width:1;stroke-linecap:round;stroke-linejoin:round"
         id="path70617" /><path
         d="M 52.742447,42.565629 66.898276,29.001355 54.055554,23.744664 Z"
         style="fill:#929292;fill-opacity:1;stroke:none;stroke-width:1;stroke-linecap:round;stroke-linejoin:round"
         id="path70619" /><path
         d="m 105.48441,44.972991 14.2259,-6.346567 -14.88164,-16.194751 z"
         style="fill:#9b9b9b;fill-opacity:1;stroke:none;stroke-width:1;stroke-linecap:round;stroke-linejoin:round"
         id="path70621" /><path
         d="M 91.259782,28.121686 105.48441,44.972991 104.82867,22.431673 Z"
         style="fill:#858585;fill-opacity:1;stroke:none;stroke-width:1;stroke-linecap:round;stroke-linejoin:round"
         id="path70623" /><path
         d="M 93.885995,43.659885 105.48441,44.972991 91.259782,28.121686 Z"
         style="fill:#6e6e6e;fill-opacity:1;stroke:none;stroke-width:1;stroke-linecap:round;stroke-linejoin:round"
         id="path70625" /><path
         d="M 77.03469,39.939531 93.885995,43.659885 91.259782,28.121686 Z"
         style="fill:#454545;fill-opacity:1;stroke:none;stroke-width:1;stroke-linecap:round;stroke-linejoin:round"
         id="path70627" /><path
         d="m 30.857567,41.471489 21.88488,1.09414 -11.598993,-12.474283 z"
         style="fill:#787878;fill-opacity:1;stroke:none;stroke-width:1;stroke-linecap:round;stroke-linejoin:round"
         id="path70629" /><path
         d="M 52.742447,42.565629 77.03469,39.939531 66.898276,29.001355 Z"
         style="fill:#8e8e8e;fill-opacity:1;stroke:none;stroke-width:1;stroke-linecap:round;stroke-linejoin:round"
         id="path70631" /><path
         d="M 81.192746,54.821176 93.885995,43.659885 77.03469,39.939531 Z"
         style="fill:#848484;fill-opacity:1;stroke:none;stroke-width:1;stroke-linecap:round;stroke-linejoin:round"
         id="path70633" /><path
         d="M 52.742447,42.565629 69.593752,55.258878 77.03469,39.939531 Z"
         style="fill:#838383;fill-opacity:1;stroke:none;stroke-width:1;stroke-linecap:round;stroke-linejoin:round"
         id="path70635" /><path
         d="M 69.593752,55.258878 81.192746,54.821176 77.03469,39.939531 Z"
         style="fill:#6b6b6b;fill-opacity:1;stroke:none;stroke-width:1;stroke-linecap:round;stroke-linejoin:round"
         id="path70637" /><path
         d="m 105.48441,44.972991 17.07016,9.629334 -2.84426,-15.975901 z"
         style="fill:#808080;fill-opacity:1;stroke:none;stroke-width:1;stroke-linecap:round;stroke-linejoin:round"
         id="path70639" /><path
         d="M 14.662815,60.948892 12.474304,30.091346 -1.70749e-6,43.441033 Z"
         style="fill:#686868;fill-opacity:1;stroke:none;stroke-width:1;stroke-linecap:round;stroke-linejoin:round"
         id="path70641" /><path
         d="M 14.662815,60.948892 30.857567,41.471489 12.474304,30.091346 Z"
         style="fill:#a3a3a3;fill-opacity:1;stroke:none;stroke-width:1;stroke-linecap:round;stroke-linejoin:round"
         id="path70643" /><path
         d="m 112.48788,62.699701 10.06669,-8.097376 -17.07016,-9.629334 z"
         style="fill:#686868;fill-opacity:1;stroke:none;stroke-width:1;stroke-linecap:round;stroke-linejoin:round"
         id="path70645" /><path
         d="M 14.662815,60.948892 30.857567,58.760496 V 41.471489 Z"
         style="fill:#8c8c8c;fill-opacity:1;stroke:none;stroke-width:1;stroke-linecap:round;stroke-linejoin:round"
         id="path70647" /><path
         d="m 30.857567,58.760496 21.88488,-16.194867 -21.88488,-1.09414 z"
         style="fill:#868686;fill-opacity:1;stroke:none;stroke-width:1;stroke-linecap:round;stroke-linejoin:round"
         id="path70649" /><path
         d="M 50.991638,61.605445 69.593752,55.258878 52.742447,42.565629 Z"
         style="fill:#9e9e9e;fill-opacity:1;stroke:none;stroke-width:1;stroke-linecap:round;stroke-linejoin:round"
         id="path70651" /><path
         d="m 30.857567,58.760496 20.134071,2.844949 1.750809,-19.039816 z"
         style="fill:#a8a8a8;fill-opacity:1;stroke:none;stroke-width:1;stroke-linecap:round;stroke-linejoin:round"
         id="path70653" /><path
         d="M 97.606349,67.733276 105.48441,44.972991 93.885995,43.659885 Z"
         style="fill:#777777;fill-opacity:1;stroke:none;stroke-width:1;stroke-linecap:round;stroke-linejoin:round"
         id="path70655" /><path
         d="m 81.192746,54.821176 16.413603,12.9121 -3.720354,-24.073391 z"
         style="fill:#a5a5a5;fill-opacity:1;stroke:none;stroke-width:1;stroke-linecap:round;stroke-linejoin:round"
         id="path70657" /><path
         d="m 97.606349,67.733276 14.881531,-5.033575 -7.00347,-17.72671 z"
         style="fill:#737373;fill-opacity:1;stroke:none;stroke-width:1;stroke-linecap:round;stroke-linejoin:round"
         id="path70659" /><path
         d="M 69.593752,55.258878 80.755044,70.578225 81.192746,54.821176 Z"
         style="fill:#6f6f6f;fill-opacity:1;stroke:none;stroke-width:1;stroke-linecap:round;stroke-linejoin:round"
         id="path70661" /><path
         d="M 0.2188494,72.110183 14.662815,60.948892 -1.70749e-6,43.441033 Z"
         style="fill:#555555;fill-opacity:1;stroke:none;stroke-width:1;stroke-linecap:round;stroke-linejoin:round"
         id="path70663" /><path
         d="M 80.755044,70.578225 97.606349,67.733276 81.192746,54.821176 Z"
         style="fill:#afafaf;fill-opacity:1;stroke:none;stroke-width:1;stroke-linecap:round;stroke-linejoin:round"
         id="path70665" /><path
         d="m 50.991638,61.605445 13.349803,13.349803 5.252311,-19.69637 z"
         style="fill:#8c8c8c;fill-opacity:1;stroke:none;stroke-width:1;stroke-linecap:round;stroke-linejoin:round"
         id="path70667" /><path
         d="M 64.341441,74.955248 80.755044,70.578225 69.593752,55.258878 Z"
         style="fill:#7e7e7e;fill-opacity:1;stroke:none;stroke-width:1;stroke-linecap:round;stroke-linejoin:round"
         id="path70669" /><path
         d="M 14.662815,60.948892 28.012618,77.143759 30.857567,58.760496 Z"
         style="fill:#787878;fill-opacity:1;stroke:none;stroke-width:1;stroke-linecap:round;stroke-linejoin:round"
         id="path70671" /><path
         d="M 112.48788,62.699701 133.49712,77.143759 122.55457,54.602325 Z"
         style="fill:#787878;fill-opacity:1;stroke:none;stroke-width:1;stroke-linecap:round;stroke-linejoin:round"
         id="path70673" /><path
         d="M 51.429341,81.082963 64.341441,74.955248 50.991638,61.605445 Z"
         style="fill:#a1a1a1;fill-opacity:1;stroke:none;stroke-width:1;stroke-linecap:round;stroke-linejoin:round"
         id="path70675" /><path
         d="M 122.77353,82.833772 133.49712,77.143759 112.48788,62.699701 Z"
         style="fill:#717171;fill-opacity:1;stroke:none;stroke-width:1;stroke-linecap:round;stroke-linejoin:round"
         id="path70677" /><path
         d="M 16.413624,83.052623 28.012618,77.143759 14.662815,60.948892 Z"
         style="fill:#5d5d5d;fill-opacity:1;stroke:none;stroke-width:1;stroke-linecap:round;stroke-linejoin:round"
         id="path70679" /><path
         d="M 28.012618,77.143759 50.991638,61.605445 30.857567,58.760496 Z"
         style="fill:#7b7b7b;fill-opacity:1;stroke:none;stroke-width:1;stroke-linecap:round;stroke-linejoin:round"
         id="path70681" /><path
         d="M 0.2188494,72.110183 16.413624,83.052623 14.662815,60.948892 Z"
         style="fill:#303030;fill-opacity:1;stroke:none;stroke-width:1;stroke-linecap:round;stroke-linejoin:round"
         id="path70683" /><path
         d="M 28.012618,77.143759 51.429341,81.082963 50.991638,61.605445 Z"
         style="fill:#7d7d7d;fill-opacity:1;stroke:none;stroke-width:1;stroke-linecap:round;stroke-linejoin:round"
         id="path70685" /><path
         d="M 100.23256,83.709177 112.48788,62.699701 97.606349,67.733276 Z"
         style="fill:#8f8f8f;fill-opacity:1;stroke:none;stroke-width:1;stroke-linecap:round;stroke-linejoin:round"
         id="path70687" /><path
         d="M 80.755044,70.578225 100.23256,83.709177 97.606349,67.733276 Z"
         style="fill:#acacac;fill-opacity:1;stroke:none;stroke-width:1;stroke-linecap:round;stroke-linejoin:round"
         id="path70689" /><path
         d="M 100.23256,83.709177 122.77353,82.833772 112.48788,62.699701 Z"
         style="fill:#6d6d6d;fill-opacity:1;stroke:none;stroke-width:1;stroke-linecap:round;stroke-linejoin:round"
         id="path70691" /><path
         d="M 82.287001,89.618041 100.23256,83.709177 80.755044,70.578225 Z"
         style="fill:#9b9b9b;fill-opacity:1;stroke:none;stroke-width:1;stroke-linecap:round;stroke-linejoin:round"
         id="path70693" /><path
         d="M 64.341441,74.955248 82.287001,89.618041 80.755044,70.578225 Z"
         style="fill:#aaaaaa;fill-opacity:1;stroke:none;stroke-width:1;stroke-linecap:round;stroke-linejoin:round"
         id="path70695" /><path
         d="M 51.429341,81.082963 64.12259,93.995064 64.341441,74.955248 Z"
         style="fill:#bdbdbd;fill-opacity:1;stroke:none;stroke-width:1;stroke-linecap:round;stroke-linejoin:round"
         id="path70697" /><path
         d="m 110.29937,96.183575 12.47416,-13.349803 -22.54097,0.875405 z"
         style="fill:#515151;fill-opacity:1;stroke:none;stroke-width:1;stroke-linecap:round;stroke-linejoin:round"
         id="path70699" /><path
         d="M 64.12259,93.995064 82.287001,89.618041 64.341441,74.955248 Z"
         style="fill:#a8a8a8;fill-opacity:1;stroke:none;stroke-width:1;stroke-linecap:round;stroke-linejoin:round"
         id="path70701" /><path
         d="M 28.012618,77.143759 38.955058,97.715532 51.429341,81.082963 Z"
         style="fill:#535353;fill-opacity:1;stroke:none;stroke-width:1;stroke-linecap:round;stroke-linejoin:round"
         id="path70703" /><path
         d="m 122.77353,82.833772 12.69314,17.070156 -1.96955,-22.760169 z"
         style="fill:#727272;fill-opacity:1;stroke:none;stroke-width:1;stroke-linecap:round;stroke-linejoin:round"
         id="path70705" /><path
         d="M 50.991638,101.43589 64.12259,93.995064 51.429341,81.082963 Z"
         style="fill:#c3c3c3;fill-opacity:1;stroke:none;stroke-width:1;stroke-linecap:round;stroke-linejoin:round"
         id="path70707" /><path
         d="m 38.955058,97.715532 12.03658,3.720358 0.437703,-20.352927 z"
         style="fill:#7f7f7f;fill-opacity:1;stroke:none;stroke-width:1;stroke-linecap:round;stroke-linejoin:round"
         id="path70709" /><path
         d="M 16.413624,83.052623 38.955058,97.715532 28.012618,77.143759 Z"
         style="fill:#545454;fill-opacity:1;stroke:none;stroke-width:1;stroke-linecap:round;stroke-linejoin:round"
         id="path70711" /><path
         d="M 23.416744,104.06256 38.955058,97.715532 16.413624,83.052623 Z"
         style="fill:#646464;fill-opacity:1;stroke:none;stroke-width:1;stroke-linecap:round;stroke-linejoin:round"
         id="path70713" /><path
         d="m 110.29937,96.183575 25.1673,3.720353 -12.69314,-17.070156 z"
         style="fill:#8f8f8f;fill-opacity:1;stroke:none;stroke-width:1;stroke-linecap:round;stroke-linejoin:round"
         id="path70715" /><path
         d="M 64.12259,93.995064 82.724704,109.97119 82.287001,89.618041 Z"
         style="fill:#656565;fill-opacity:1;stroke:none;stroke-width:1;stroke-linecap:round;stroke-linejoin:round"
         id="path70717" /><path
         d="M 82.287001,89.618041 110.29937,96.183575 100.23256,83.709177 Z"
         style="fill:#5f5f5f;fill-opacity:1;stroke:none;stroke-width:1;stroke-linecap:round;stroke-linejoin:round"
         id="path70719" /><path
         d="M 82.287001,89.618041 98.262902,114.34822 110.29937,96.183575 Z"
         style="fill:#5a5a5a;fill-opacity:1;stroke:none;stroke-width:1;stroke-linecap:round;stroke-linejoin:round"
         id="path70721" /><path
         d="M 82.724704,109.97119 98.262902,114.34822 82.287001,89.618041 Z"
         style="fill:#505050;fill-opacity:1;stroke:none;stroke-width:1;stroke-linecap:round;stroke-linejoin:round"
         id="path70723" /><path
         d="M 50.991638,101.43589 64.560292,115.22293 64.12259,93.995064 Z"
         style="fill:#ababab;fill-opacity:1;stroke:none;stroke-width:1;stroke-linecap:round;stroke-linejoin:round"
         id="path70725" /><path
         d="m 115.55225,114.34822 19.91442,-14.444292 -25.1673,-3.720353 z"
         style="fill:#9f9f9f;fill-opacity:1;stroke:none;stroke-width:1;stroke-linecap:round;stroke-linejoin:round"
         id="path70727" /><path
         d="M 64.560292,115.22293 82.724704,109.97119 64.12259,93.995064 Z"
         style="fill:#666666;fill-opacity:1;stroke:none;stroke-width:1;stroke-linecap:round;stroke-linejoin:round"
         id="path70729" /><path
         d="M 98.262902,114.34822 H 115.55225 L 110.29937,96.183575 Z"
         style="fill:#979797;fill-opacity:1;stroke:none;stroke-width:1;stroke-linecap:round;stroke-linejoin:round"
         id="path70731" /><path
         d="m 41.362305,120.47582 9.629333,-19.03993 -12.03658,-3.720358 z"
         style="fill:#8a8a8a;fill-opacity:1;stroke:none;stroke-width:1;stroke-linecap:round;stroke-linejoin:round"
         id="path70733" /><path
         d="M 23.416744,104.06256 41.362305,120.47582 38.955058,97.715532 Z"
         style="fill:#7c7c7c;fill-opacity:1;stroke:none;stroke-width:1;stroke-linecap:round;stroke-linejoin:round"
         id="path70735" /><path
         d="M 41.362305,120.47582 64.560292,115.22293 50.991638,101.43589 Z"
         style="fill:#aeaeae;fill-opacity:1;stroke:none;stroke-width:1;stroke-linecap:round;stroke-linejoin:round"
         id="path70737" /><path
         d="M 86.664024,126.16549 98.262902,114.34822 82.724704,109.97119 Z"
         style="fill:#4e4e4e;fill-opacity:1;stroke:none;stroke-width:1;stroke-linecap:round;stroke-linejoin:round"
         id="path70739" /><path
         d="m 86.664024,126.16549 8.097375,2.84541 3.501503,-14.66268 z"
         style="fill:#818181;fill-opacity:1;stroke:none;stroke-width:1;stroke-linecap:round;stroke-linejoin:round"
         id="path70741" /><path
         d="m 41.362305,120.47582 20.571774,6.7845 2.626213,-12.03739 z"
         style="fill:#979797;fill-opacity:1;stroke:none;stroke-width:1;stroke-linecap:round;stroke-linejoin:round"
         id="path70743" /><path
         d="m 64.560292,115.22293 22.103732,10.94256 -3.93932,-16.1943 z"
         style="fill:#555555;fill-opacity:1;stroke:none;stroke-width:1;stroke-linecap:round;stroke-linejoin:round"
         id="path70745" /><path
         d="m 64.560292,115.22293 13.130951,18.16499 8.972781,-7.22243 z"
         style="fill:#777777;fill-opacity:1;stroke:none;stroke-width:1;stroke-linecap:round;stroke-linejoin:round"
         id="path70747" /><path
         d="m 61.934079,127.26032 15.757164,6.1276 -13.130951,-18.16499 z"
         style="fill:#7e7e7e;fill-opacity:1;stroke:none;stroke-width:1;stroke-linecap:round;stroke-linejoin:round"
         id="path70749" /><path
         d="M 0.2188494,72.110183 23.416744,104.06256 16.413624,83.052623 Z"
         style="fill:#4d4d4d;fill-opacity:1;stroke:none;stroke-width:1;stroke-linecap:round;stroke-linejoin:round"
         id="path70751" /><path
         d="M 94.761399,129.0109 115.55225,114.34822 H 98.262902 Z"
         style="fill:#adadad;fill-opacity:1;stroke:none;stroke-width:1;stroke-linecap:round;stroke-linejoin:round"
         id="path70753" /><path
         d="m 77.691243,133.38792 17.070156,-4.37702 -8.097375,-2.84541 z"
         style="fill:#797979;fill-opacity:1;stroke:none;stroke-width:1;stroke-linecap:round;stroke-linejoin:round"
         id="path70755" /><path
         d="M 54.055554,23.744664 80.09849,18.05465 66.898276,29.001355 Z"
         style="fill:#7c7c7c;fill-opacity:1;stroke:none;stroke-width:1;stroke-linecap:round;stroke-linejoin:round"
         id="path558" /><path
         d="M 54.055554,23.744664 80.09849,18.05465 41.800007,9.0818702 Z"
         style="fill:#686868;fill-opacity:1;stroke:none;stroke-width:1;stroke-linecap:round;stroke-linejoin:round"
         id="path656" /><path
         d="M 87.320462,7.1122103 80.09849,18.05465 41.800007,9.0818702 Z"
         style="fill:#767676;fill-opacity:1;stroke:none;stroke-width:1;stroke-linecap:round;stroke-linejoin:round"
         id="path658" /></g></g></svg>
