<?xml version="1.0" encoding="UTF-8" standalone="no"?>
<!-- Created with Inkscape (http://www.inkscape.org/) -->

<svg
   width="512"
   height="512"
   viewBox="0 0 135.46666 135.46667"
   version="1.1"
   id="svg5"
   xml:space="preserve"
   xmlns="http://www.w3.org/2000/svg"
   xmlns:svg="http://www.w3.org/2000/svg"
   xmlns:rdf="http://www.w3.org/1999/02/22-rdf-syntax-ns#"
   xmlns:cc="http://creativecommons.org/ns#"><defs
     id="defs2" /><g
     id="layer1"><g
       id="g73968"
       transform="matrix(0.82680857,-0.21350189,0.21350189,0.82680857,-11.366323,17.610226)"><rect
         style="opacity:1;fill:#473b3b;fill-opacity:1;stroke:none;stroke-width:0.1"
         id="rect73308"
         width="0.26458332"
         height="79.375"
         x="78.638451"
         y="-65.403709"
         transform="rotate(84.225312)" /><rect
         style="opacity:1;fill:#473b3b;fill-opacity:1;stroke:none;stroke-width:0.1"
         id="rect73861"
         width="0.26458332"
         height="79.375"
         x="98.039253"
         y="-52.937309"
         transform="rotate(32.523224)" /><g
         id="g73254"
         style="stroke:none"><path
           d="m 35.6785,17.2274 0.8481,-0.431 -1.226,-1.276 z"
           style="fill:#2a1a04;fill-opacity:1;stroke:none;stroke-width:0.1;stroke-linecap:round;stroke-linejoin:round"
           id="path4032" /><path
           d="m 34.9227,18.2479 1.6039,-1.4515 -0.8481,0.431 z"
           style="fill:#423024;fill-opacity:1;stroke:none;stroke-width:0.1;stroke-linecap:round;stroke-linejoin:round"
           id="path4036" /><path
           d="m 34.9227,18.2479 2.9888,-1.5731 -1.3849,0.1216 z"
           style="fill:#22170d;fill-opacity:1;stroke:none;stroke-width:0.1;stroke-linecap:round;stroke-linejoin:round"
           id="path4038" /><path
           d="m 37.5183,23.3604 0.3932,-6.6856 -2.9888,1.5731 z"
           style="fill:#0a0500;fill-opacity:1;stroke:none;stroke-width:0.1;stroke-linecap:round;stroke-linejoin:round"
           id="path4040" /><path
           d="m 37.5183,23.3604 3.7754,-1.8877 -3.3822,-4.7979 z"
           style="fill:#070200;fill-opacity:1;stroke:none;stroke-width:0.1;stroke-linecap:round;stroke-linejoin:round"
           id="path4042" /><path
           d="m 37.5183,23.3604 3.3821,5.4272 0.3933,-7.3149 z"
           style="fill:#110a02;fill-opacity:1;stroke:none;stroke-width:0.1;stroke-linecap:round;stroke-linejoin:round"
           id="path4044" /><path
           d="m 40.9004,28.7876 3.9327,-1.7304 -3.5394,-5.5845 z"
           style="fill:#090400;fill-opacity:1;stroke:none;stroke-width:0.1;stroke-linecap:round;stroke-linejoin:round"
           id="path4046" /><path
           d="m 44.8331,27.0572 0.1574,8.1014 3.4608,-1.9663 z"
           style="fill:#261a10;fill-opacity:1;stroke:none;stroke-width:0.1;stroke-linecap:round;stroke-linejoin:round"
           id="path4048" /><path
           d="m 40.9004,28.7876 4.0901,6.371 -0.1574,-8.1014 z"
           style="fill:#261a0c;fill-opacity:1;stroke:none;stroke-width:0.1;stroke-linecap:round;stroke-linejoin:round"
           id="path4050" /><path
           d="m 44.9905,35.1586 3.7754,6.3711 -0.3146,-8.3374 z"
           style="fill:#271b0e;fill-opacity:1;stroke:none;stroke-width:0.1;stroke-linecap:round;stroke-linejoin:round"
           id="path4052" /><path
           d="m 48.7659,41.5297 3.7754,-1.8091 -4.09,-6.5283 z"
           style="fill:#080400;fill-opacity:1;stroke:none;stroke-width:0.1;stroke-linecap:round;stroke-linejoin:round"
           id="path4054" /><path
           d="m 52.5413,39.7206 0.2547,6.5304 2.0399,-1.3716 z"
           style="fill:#070200;fill-opacity:1;stroke:none;stroke-width:0.1;stroke-linecap:round;stroke-linejoin:round"
           id="path4056" /><path
           d="M 48.7659,41.5297 52.796,46.251 52.5413,39.7206 Z"
           style="fill:#27190d;fill-opacity:1;stroke:none;stroke-width:0.1;stroke-linecap:round;stroke-linejoin:round"
           id="path4058" /><path
           d="m 52.796,46.251 2.8212,0.0782 -0.7813,-1.4498 z"
           style="fill:#2a2322;fill-opacity:1;stroke:none;stroke-width:0.1;stroke-linecap:round;stroke-linejoin:round"
           id="path4060" /><path
           d="M 53.615,47.4415 55.6172,46.3292 52.796,46.251 Z"
           style="fill:#1d1816;fill-opacity:1;stroke:none;stroke-width:0.1;stroke-linecap:round;stroke-linejoin:round"
           id="path4062" /><path
           d="m 55.4504,52.1134 0.1668,-5.7842 -2.0022,1.1123 z"
           style="fill:#0b0500;fill-opacity:1;stroke:none;stroke-width:0.1;stroke-linecap:round;stroke-linejoin:round"
           id="path4064" /><path
           d="m 55.4504,52.1134 3.5595,-2.0579 -3.3927,-3.7263 z"
           style="fill:#0b0600;fill-opacity:1;stroke:none;stroke-width:0.1;stroke-linecap:round;stroke-linejoin:round"
           id="path4066" /><path
           d="m 55.4504,52.1134 3.5039,5.8954 0.0556,-7.9533 z"
           style="fill:#1a1005;fill-opacity:1;stroke:none;stroke-width:0.1;stroke-linecap:round;stroke-linejoin:round"
           id="path4072" /><path
           d="m 58.9543,58.0088 3.8376,-1.8354 -3.782,-6.1179 z"
           style="fill:#352517;fill-opacity:1;stroke:none;stroke-width:0.1;stroke-linecap:round;stroke-linejoin:round"
           id="path4074" /><path
           d="m 62.7919,56.1734 -0.3894,7.4527 3.5039,-2.614 z"
           style="fill:#0a0500;fill-opacity:1;stroke:none;stroke-width:0.1;stroke-linecap:round;stroke-linejoin:round"
           id="path4076" /><path
           d="m 58.9543,58.0088 3.4482,5.6173 0.3894,-7.4527 z"
           style="fill:#201509;fill-opacity:1;stroke:none;stroke-width:0.1;stroke-linecap:round;stroke-linejoin:round"
           id="path4078" /><path
           d="m 62.4025,63.6261 7.1282,3.191 -3.6243,-5.805 z"
           style="fill:#291c0e;fill-opacity:1;stroke:none;stroke-width:0.1;stroke-linecap:round;stroke-linejoin:round"
           id="path4088" /><path
           d="m 65.8227,69.0719 3.708,-2.2548 -7.1282,-3.191 z"
           style="fill:#2f2012;fill-opacity:1;stroke:none;stroke-width:0.1;stroke-linecap:round;stroke-linejoin:round"
           id="path4090" /><path
           d="m 76.531,71.0252 2.9889,-4.444 -4.8766,-0.7866 z"
           style="fill:#6e5f67;fill-opacity:1;stroke:none;stroke-width:0.1;stroke-linecap:round;stroke-linejoin:round"
           id="path4094" /><path
           d="m 79.5199,66.5812 1.8483,5.6238 2.4777,-3.2249 z"
           style="fill:#66575d;fill-opacity:1;stroke:none;stroke-width:0.1;stroke-linecap:round;stroke-linejoin:round"
           id="path4096" /><path
           d="m 65.8227,69.0719 4.4159,3.0937 -0.7079,-5.3485 z"
           style="fill:#7d6d78;fill-opacity:1;stroke:none;stroke-width:0.1;stroke-linecap:round;stroke-linejoin:round"
           id="path4100" /><path
           d="m 76.531,71.0252 4.8372,1.1798 -1.8483,-5.6238 z"
           style="fill:#695a61;fill-opacity:1;stroke:none;stroke-width:0.1;stroke-linecap:round;stroke-linejoin:round"
           id="path4102" /><path
           d="m 70.2386,72.1656 4.4047,-6.371 -5.1126,1.0225 z"
           style="fill:#786973;fill-opacity:1;stroke:none;stroke-width:0.1;stroke-linecap:round;stroke-linejoin:round"
           id="path4104" /><path
           d="M 70.2386,72.1656 76.531,71.0252 74.6433,65.7946 Z"
           style="fill:#73646d;fill-opacity:1;stroke:none;stroke-width:0.1;stroke-linecap:round;stroke-linejoin:round"
           id="path4108" /><path
           d="m 81.3682,72.205 6.0958,1.0618 -3.6181,-4.2867 z"
           style="fill:#605256;fill-opacity:1;stroke:none;stroke-width:0.1;stroke-linecap:round;stroke-linejoin:round"
           id="path4110" /><path
           d="m 65.8227,69.0719 2.1742,7.0658 2.2417,-3.9721 z"
           style="fill:#7b6b76;fill-opacity:1;stroke:none;stroke-width:0.1;stroke-linecap:round;stroke-linejoin:round"
           id="path4112" /><path
           d="m 62.6878,72.9129 5.3091,3.2248 -2.1742,-7.0658 z"
           style="fill:#7f6f7b;fill-opacity:1;stroke:none;stroke-width:0.1;stroke-linecap:round;stroke-linejoin:round"
           id="path4114" /><path
           d="m 76.531,71.0252 2.2023,5.6631 2.6349,-4.4833 z"
           style="fill:#63555b;fill-opacity:1;stroke:none;stroke-width:0.1;stroke-linecap:round;stroke-linejoin:round"
           id="path4116" /><path
           d="M 78.7333,76.6883 81.6829,75.8231 81.3682,72.205 Z"
           style="fill:#5c4f53;fill-opacity:1;stroke:none;stroke-width:0.1;stroke-linecap:round;stroke-linejoin:round"
           id="path4118" /><path
           d="M 81.6829,75.8231 87.464,73.2668 81.3682,72.205 Z"
           style="fill:#5d4f53;fill-opacity:1;stroke:none;stroke-width:0.1;stroke-linecap:round;stroke-linejoin:round"
           id="path4120" /><path
           d="m 70.2386,72.1656 4.5226,4.916 1.7698,-6.0564 z"
           style="fill:#6e6069;fill-opacity:1;stroke:none;stroke-width:0.1;stroke-linecap:round;stroke-linejoin:round"
           id="path4122" /><path
           d="m 71.733,76.7276 3.0282,0.354 -4.5226,-4.916 z"
           style="fill:#70626b;fill-opacity:1;stroke:none;stroke-width:0.1;stroke-linecap:round;stroke-linejoin:round"
           id="path4124" /><path
           d="m 67.9969,76.1377 3.7361,0.5899 -1.4944,-4.562 z"
           style="fill:#756771;fill-opacity:1;stroke:none;stroke-width:0.1;stroke-linecap:round;stroke-linejoin:round"
           id="path4126" /><path
           d="M 74.7612,77.0816 78.7333,76.6883 76.531,71.0252 Z"
           style="fill:#66585f;fill-opacity:1;stroke:none;stroke-width:0.1;stroke-linecap:round;stroke-linejoin:round"
           id="path4128" /><path
           d="m 81.6829,75.8231 3.1068,2.2023 2.6743,-4.7586 z"
           style="fill:#5a4c4e;fill-opacity:1;stroke:none;stroke-width:0.1;stroke-linecap:round;stroke-linejoin:round"
           id="path4132" /><path
           d="m 74.7612,77.0816 2.1237,1.0225 1.8484,-1.4158 z"
           style="fill:#5f5258;fill-opacity:1;stroke:none;stroke-width:0.1;stroke-linecap:round;stroke-linejoin:round"
           id="path4134" /><path
           d="m 79.7165,78.4187 1.9664,-2.5956 -2.9496,0.8652 z"
           style="fill:#5b4e52;fill-opacity:1;stroke:none;stroke-width:0.1;stroke-linecap:round;stroke-linejoin:round"
           id="path4136" /><path
           d="m 72.6769,78.4974 2.0843,-1.4158 -3.0282,-0.354 z"
           style="fill:#6a5c65;fill-opacity:1;stroke:none;stroke-width:0.1;stroke-linecap:round;stroke-linejoin:round"
           id="path4138" /><path
           d="m 67.9969,76.1377 2.3597,2.399 1.3764,-1.8091 z"
           style="fill:#71636d;fill-opacity:1;stroke:none;stroke-width:0.1;stroke-linecap:round;stroke-linejoin:round"
           id="path4140" /><path
           d="m 84.7897,78.0254 4.208,-0.6685 -1.5337,-4.0901 z"
           style="fill:#594a4c;fill-opacity:1;stroke:none;stroke-width:0.1;stroke-linecap:round;stroke-linejoin:round"
           id="path4142" /><path
           d="m 72.6769,78.4974 1.927,0.0393 0.1573,-1.4551 z"
           style="fill:#554950;fill-opacity:1;stroke:none;stroke-width:0.1;stroke-linecap:round;stroke-linejoin:round"
           id="path4144" /><path
           d="m 74.6039,78.5367 2.281,-0.4326 -2.1237,-1.0225 z"
           style="fill:#584c52;fill-opacity:1;stroke:none;stroke-width:0.1;stroke-linecap:round;stroke-linejoin:round"
           id="path4146" /><path
           d="M 70.3566,78.5367 72.6769,78.4974 71.733,76.7276 Z"
           style="fill:#6c5f68;fill-opacity:1;stroke:none;stroke-width:0.1;stroke-linecap:round;stroke-linejoin:round"
           id="path4148" /><path
           d="m 76.8849,78.1041 2.8316,0.3146 -0.9832,-1.7304 z"
           style="fill:#5c4f54;fill-opacity:1;stroke:none;stroke-width:0.1;stroke-linecap:round;stroke-linejoin:round"
           id="path4150" /><path
           d="m 74.6039,78.5367 1.9271,0.6686 0.3539,-1.1012 z"
           style="fill:#554a50;fill-opacity:1;stroke:none;stroke-width:0.1;stroke-linecap:round;stroke-linejoin:round"
           id="path4152" /><path
           d="m 62.6878,72.9129 2.6349,6.607 2.6742,-3.3822 z"
           style="fill:#7a6b76;fill-opacity:1;stroke:none;stroke-width:0.1;stroke-linecap:round;stroke-linejoin:round"
           id="path4154" /><path
           d="m 61.036,77.3569 4.2867,2.163 -2.6349,-6.607 z"
           style="fill:#7e6f7b;fill-opacity:1;stroke:none;stroke-width:0.1;stroke-linecap:round;stroke-linejoin:round"
           id="path4156" /><path
           d="m 76.531,79.2053 0.8652,0.5505 -0.5113,-1.6517 z"
           style="fill:#594d53;fill-opacity:1;stroke:none;stroke-width:0.1;stroke-linecap:round;stroke-linejoin:round"
           id="path4158" /><path
           d="m 73.4241,79.8738 1.1798,-1.3371 -1.927,-0.0393 z"
           style="fill:#4d4143;fill-opacity:1;stroke:none;stroke-width:0.1;stroke-linecap:round;stroke-linejoin:round"
           id="path4160" /><path
           d="m 77.3962,79.7558 2.3203,-1.3371 -2.8316,-0.3146 z"
           style="fill:#5b4e53;fill-opacity:1;stroke:none;stroke-width:0.1;stroke-linecap:round;stroke-linejoin:round"
           id="path4162" /><path
           d="M 74.9972,80.0704 76.531,79.2053 74.6039,78.5367 Z"
           style="fill:#60535a;fill-opacity:1;stroke:none;stroke-width:0.1;stroke-linecap:round;stroke-linejoin:round"
           id="path4164" /><path
           d="m 73.4241,79.8738 1.5731,0.1966 -0.3933,-1.5337 z"
           style="fill:#594a48;fill-opacity:1;stroke:none;stroke-width:0.1;stroke-linecap:round;stroke-linejoin:round"
           id="path4166" /><path
           d="m 79.7165,78.4187 5.0732,-0.3933 -3.1068,-2.2023 z"
           style="fill:#584a4d;fill-opacity:1;stroke:none;stroke-width:0.1;stroke-linecap:round;stroke-linejoin:round"
           id="path4168" /><path
           d="m 72.6769,78.4974 -0.118,2.3203 0.8652,-0.9439 z"
           style="fill:#564a50;fill-opacity:1;stroke:none;stroke-width:0.1;stroke-linecap:round;stroke-linejoin:round"
           id="path4170" /><path
           d="m 70.3566,78.5367 2.2023,2.281 0.118,-2.3203 z"
           style="fill:#685b64;fill-opacity:1;stroke:none;stroke-width:0.1;stroke-linecap:round;stroke-linejoin:round"
           id="path4174" /><path
           d="m 75.9804,81.2503 0.5506,-2.045 -1.5338,0.8651 z"
           style="fill:#8c7c89;fill-opacity:1;stroke:none;stroke-width:0.1;stroke-linecap:round;stroke-linejoin:round"
           id="path4176" /><path
           d="m 65.3227,79.5199 5.0339,-0.9832 -2.3597,-2.399 z"
           style="fill:#73656f;fill-opacity:1;stroke:none;stroke-width:0.1;stroke-linecap:round;stroke-linejoin:round"
           id="path4178" /><path
           d="M 75.9804,81.2503 77.3962,79.7558 76.531,79.2053 Z"
           style="fill:#54484e;fill-opacity:1;stroke:none;stroke-width:0.1;stroke-linecap:round;stroke-linejoin:round"
           id="path4180" /><path
           d="m 73.4241,79.8738 1.0619,1.6124 0.5112,-1.4158 z"
           style="fill:#655456;fill-opacity:1;stroke:none;stroke-width:0.1;stroke-linecap:round;stroke-linejoin:round"
           id="path4182" /><path
           d="m 74.486,81.4862 1.4944,-0.2359 -0.9832,-1.1799 z"
           style="fill:#7a6a75;fill-opacity:1;stroke:none;stroke-width:0.1;stroke-linecap:round;stroke-linejoin:round"
           id="path4184" /><path
           d="m 76.919,81.8708 0.4772,-2.115 -1.4158,1.4945 z"
           style="fill:#574b52;fill-opacity:1;stroke:none;stroke-width:0.1;stroke-linecap:round;stroke-linejoin:round"
           id="path4186" /><path
           d="m 72.5589,80.8177 1.9271,0.6685 -1.0619,-1.6124 z"
           style="fill:#524548;fill-opacity:1;stroke:none;stroke-width:0.1;stroke-linecap:round;stroke-linejoin:round"
           id="path4188" /><path
           d="m 60.9574,81.4076 4.3653,-1.8877 -4.2867,-2.163 z"
           style="fill:#7b6c77;fill-opacity:1;stroke:none;stroke-width:0.1;stroke-linecap:round;stroke-linejoin:round"
           id="path4190" /><path
           d="m 72.5589,80.8177 1.6124,1.6517 0.3147,-0.9832 z"
           style="fill:#564a50;fill-opacity:1;stroke:none;stroke-width:0.1;stroke-linecap:round;stroke-linejoin:round"
           id="path4194" /><path
           d="m 84.7897,78.0254 4.2474,4.68 -0.0394,-5.3485 z"
           style="fill:#554647;fill-opacity:1;stroke:none;stroke-width:0.1;stroke-linecap:round;stroke-linejoin:round"
           id="path4196" /><path
           d="m 79.7165,78.4187 3.4215,4.9946 1.6517,-5.3879 z"
           style="fill:#534648;fill-opacity:1;stroke:none;stroke-width:0.1;stroke-linecap:round;stroke-linejoin:round"
           id="path4198" /><path
           d="m 74.1713,82.4694 1.8091,-1.2191 -1.4944,0.2359 z"
           style="fill:#51464c;fill-opacity:1;stroke:none;stroke-width:0.1;stroke-linecap:round;stroke-linejoin:round"
           id="path4200" /><path
           d="M 74.1713,82.4694 76.919,81.8708 75.9804,81.2503 Z"
           style="fill:#584b52;fill-opacity:1;stroke:none;stroke-width:0.1;stroke-linecap:round;stroke-linejoin:round"
           id="path4204" /><path
           d="m 76.919,81.8708 2.7975,-3.4521 -2.3203,1.3371 z"
           style="fill:#5b4d52;fill-opacity:1;stroke:none;stroke-width:0.1;stroke-linecap:round;stroke-linejoin:round"
           id="path4206" /><path
           d="m 83.138,83.4133 5.8991,-0.7079 -4.2474,-4.68 z"
           style="fill:#514445;fill-opacity:1;stroke:none;stroke-width:0.1;stroke-linecap:round;stroke-linejoin:round"
           id="path4208" /><path
           d="m 74.1713,82.4694 1.9664,2.3203 0.7813,-2.9189 z"
           style="fill:#54484e;fill-opacity:1;stroke:none;stroke-width:0.1;stroke-linecap:round;stroke-linejoin:round"
           id="path4210" /><path
           d="m 67.4464,84.8291 2.9102,-6.2924 -5.0339,0.9832 z"
           style="fill:#70626c;fill-opacity:1;stroke:none;stroke-width:0.1;stroke-linecap:round;stroke-linejoin:round"
           id="path4212" /><path
           d="m 76.919,81.8708 6.219,1.5425 -3.4215,-4.9946 z"
           style="fill:#53464a;fill-opacity:1;stroke:none;stroke-width:0.1;stroke-linecap:round;stroke-linejoin:round"
           id="path4214" /><path
           d="m 74.0534,84.7111 2.0843,0.0786 -1.9664,-2.3203 z"
           style="fill:#55494f;fill-opacity:1;stroke:none;stroke-width:0.1;stroke-linecap:round;stroke-linejoin:round"
           id="path4216" /><path
           d="m 67.4464,84.8291 5.1125,-4.0114 -2.2023,-2.281 z"
           style="fill:#695b64;fill-opacity:1;stroke:none;stroke-width:0.1;stroke-linecap:round;stroke-linejoin:round"
           id="path4218" /><path
           d="m 72.5589,80.8177 1.4945,3.8934 0.1179,-2.2417 z"
           style="fill:#5b4e55;fill-opacity:1;stroke:none;stroke-width:0.1;stroke-linecap:round;stroke-linejoin:round"
           id="path4220" /><path
           d="m 62.1765,85.8516 3.1462,-6.3317 -4.3653,1.8877 z"
           style="fill:#766872;fill-opacity:1;stroke:none;stroke-width:0.1;stroke-linecap:round;stroke-linejoin:round"
           id="path4224" /><path
           d="m 62.1765,85.8516 5.2699,-1.0225 -2.1237,-5.3092 z"
           style="fill:#71636d;fill-opacity:1;stroke:none;stroke-width:0.1;stroke-linecap:round;stroke-linejoin:round"
           id="path4226" /><path
           d="m 67.4464,84.8291 6.607,-0.118 -1.4945,-3.8934 z"
           style="fill:#5f525a;fill-opacity:1;stroke:none;stroke-width:0.1;stroke-linecap:round;stroke-linejoin:round"
           id="path4228" /><path
           d="m 83.138,83.4133 4.1293,3.7754 1.7698,-4.4833 z"
           style="fill:#4d4040;fill-opacity:1;stroke:none;stroke-width:0.1;stroke-linecap:round;stroke-linejoin:round"
           id="path4230" /><path
           d="M 76.1377,84.7897 83.138,83.4133 76.919,81.8708 Z"
           style="fill:#4f4346;fill-opacity:1;stroke:none;stroke-width:0.1;stroke-linecap:round;stroke-linejoin:round"
           id="path4232" /><path
           d="m 74.0534,84.7111 1.1798,3.0675 0.9045,-2.9889 z"
           style="fill:#50454a;fill-opacity:1;stroke:none;stroke-width:0.1;stroke-linecap:round;stroke-linejoin:round"
           id="path4236" /><path
           d="m 76.1377,84.7897 4.4047,3.1069 2.5956,-4.4833 z"
           style="fill:#4a3f41;fill-opacity:1;stroke:none;stroke-width:0.1;stroke-linecap:round;stroke-linejoin:round"
           id="path4238" /><path
           d="m 67.4464,84.8291 3.4214,3.972 3.1856,-4.09 z"
           style="fill:#5b4f56;fill-opacity:1;stroke:none;stroke-width:0.1;stroke-linecap:round;stroke-linejoin:round"
           id="path4240" /><path
           d="m 64.4182,89.509 3.0282,-4.6799 -5.2699,1.0225 z"
           style="fill:#6a5d66;fill-opacity:1;stroke:none;stroke-width:0.1;stroke-linecap:round;stroke-linejoin:round"
           id="path4242" /><path
           d="m 70.8678,88.8011 4.3654,-1.0225 -1.1798,-3.0675 z"
           style="fill:#50454a;fill-opacity:1;stroke:none;stroke-width:0.1;stroke-linecap:round;stroke-linejoin:round"
           id="path4244" /><path
           d="m 75.2332,87.7786 5.3092,0.118 -4.4047,-3.1069 z"
           style="fill:#4b3f43;fill-opacity:1;stroke:none;stroke-width:0.1;stroke-linecap:round;stroke-linejoin:round"
           id="path4246" /><path
           d="M 80.5424,87.8966 87.2673,87.1887 83.138,83.4133 Z"
           style="fill:#4a3d3e;fill-opacity:1;stroke:none;stroke-width:0.1;stroke-linecap:round;stroke-linejoin:round"
           id="path4248" /><path
           d="m 80.5424,87.8966 3.5927,2.9862 3.1322,-3.6941 z"
           style="fill:#473b3b;fill-opacity:1;stroke:none;stroke-width:0.1;stroke-linecap:round;stroke-linejoin:round"
           id="path4250" /><path
           d="m 64.4182,89.509 6.4496,-0.7079 -3.4214,-3.972 z"
           style="fill:#61555d;fill-opacity:1;stroke:none;stroke-width:0.1;stroke-linecap:round;stroke-linejoin:round"
           id="path4252" /><path
           d="m 64.4182,89.509 3.2641,2.6743 3.1855,-3.3822 z"
           style="fill:#5a4f56;fill-opacity:1;stroke:none;stroke-width:0.1;stroke-linecap:round;stroke-linejoin:round"
           id="path4254" /><path
           d="m 80.4651,93.0231 3.67,-2.1403 -3.5927,-2.9862 z"
           style="fill:#453939;fill-opacity:1;stroke:none;stroke-width:0.1;stroke-linecap:round;stroke-linejoin:round"
           id="path4256" /><path
           d="m 67.6823,92.1833 4.0185,1.5139 -0.833,-4.8961 z"
           style="fill:#554950;fill-opacity:1;stroke:none;stroke-width:0.1;stroke-linecap:round;stroke-linejoin:round"
           id="path4258" /><path
           d="m 75.2332,87.7786 5.2319,5.2445 0.0773,-5.1265 z"
           style="fill:#463b3d;fill-opacity:1;stroke:none;stroke-width:0.1;stroke-linecap:round;stroke-linejoin:round"
           id="path4260" /><path
           d="m 71.7008,93.6972 3.5324,-5.9186 -4.3654,1.0225 z"
           style="fill:#50454a;fill-opacity:1;stroke:none;stroke-width:0.1;stroke-linecap:round;stroke-linejoin:round"
           id="path4262" /><path
           d="m 76.1609,94.0166 4.3042,-0.9935 -5.2319,-5.2445 z"
           style="fill:#463b3d;fill-opacity:1;stroke:none;stroke-width:0.1;stroke-linecap:round;stroke-linejoin:round"
           id="path4264" /><path
           d="m 71.7008,93.6972 4.4601,0.3194 -0.9277,-6.238 z"
           style="fill:#4a3f43;fill-opacity:1;stroke:none;stroke-width:0.1;stroke-linecap:round;stroke-linejoin:round"
           id="path4266" /></g></g></g><metadata
     id="metadata132"><rdf:RDF><cc:Work
         rdf:about=""><cc:license
           rdf:resource="http://creativecommons.org/licenses/by-sa/4.0/" /></cc:Work><cc:License
         rdf:about="http://creativecommons.org/licenses/by-sa/4.0/"><cc:permits
           rdf:resource="http://creativecommons.org/ns#Reproduction" /><cc:permits
           rdf:resource="http://creativecommons.org/ns#Distribution" /><cc:requires
           rdf:resource="http://creativecommons.org/ns#Notice" /><cc:requires
           rdf:resource="http://creativecommons.org/ns#Attribution" /><cc:permits
           rdf:resource="http://creativecommons.org/ns#DerivativeWorks" /><cc:requires
           rdf:resource="http://creativecommons.org/ns#ShareAlike" /></cc:License></rdf:RDF></metadata></svg>
