<?xml version="1.0" encoding="UTF-8" standalone="no"?>
<!-- Created with Inkscape (http://www.inkscape.org/) -->

<svg
   xml:space="preserve"
   id="svg5"
   version="1.1"
   viewBox="0 0 135.46666 135.46667"
   height="512"
   width="512"
   xmlns="http://www.w3.org/2000/svg"
   xmlns:svg="http://www.w3.org/2000/svg"
   xmlns:rdf="http://www.w3.org/1999/02/22-rdf-syntax-ns#"
   xmlns:cc="http://creativecommons.org/ns#"><defs
     id="defs2" /><g
     id="layer1"><g
       id="g425998"
       style="stroke:none"
       transform="translate(-10.688218,-0.5785675)"><path
         d="m 74.1378,44.7997 5.6173,3.4761 0.723,-2.1691 z"
         style="fill:#9d9ea0;fill-opacity:1;stroke:none;stroke-width:0.1;stroke-linecap:round;stroke-linejoin:round"
         id="path2938" /><path
         d="m 70.3558,49.6106 3.782,-4.8109 -5.1724,-0.6118 z"
         style="fill:#232e49;fill-opacity:1;stroke:none;stroke-width:0.1;stroke-linecap:round;stroke-linejoin:round"
         id="path2940" /><path
         d="m 91.2123,48.9988 2.8587,0.8289 -4.4047,-2.9888 z"
         style="fill:#5e442a;fill-opacity:1;stroke:none;stroke-width:0.1;stroke-linecap:round;stroke-linejoin:round"
         id="path2942" /><path
         d="m 80.4781,46.1067 4.3938,2.7809 v -2.7253 z"
         style="fill:#535355;fill-opacity:1;stroke:none;stroke-width:0.1;stroke-linecap:round;stroke-linejoin:round"
         id="path2944" /><path
         d="m 84.8719,48.8876 4.7944,-2.0487 -4.7944,-0.6766 z"
         style="fill:#535455;fill-opacity:1;stroke:none;stroke-width:0.1;stroke-linecap:round;stroke-linejoin:round"
         id="path2946" /><path
         d="m 79.7551,48.2758 5.1168,0.6118 -4.3938,-2.7809 z"
         style="fill:#9b9c9e;fill-opacity:1;stroke:none;stroke-width:0.1;stroke-linecap:round;stroke-linejoin:round"
         id="path2948" /><path
         d="m 62.9206,46.6093 7.4352,3.0013 -1.3904,-5.4227 z"
         style="fill:#33466e;fill-opacity:1;stroke:none;stroke-width:0.1;stroke-linecap:round;stroke-linejoin:round"
         id="path2950" /><path
         d="m 64.8497,51.3347 5.5061,-1.7241 -7.4352,-3.0013 z"
         style="fill:#476499;fill-opacity:1;stroke:none;stroke-width:0.1;stroke-linecap:round;stroke-linejoin:round"
         id="path2952" /><path
         d="m 89.6663,46.8389 -0.5899,5.1518 2.1359,-2.9919 z"
         style="fill:#454545;fill-opacity:1;stroke:none;stroke-width:0.1;stroke-linecap:round;stroke-linejoin:round"
         id="path2954" /><path
         d="m 84.8719,48.8876 4.2045,3.1031 0.5899,-5.1518 z"
         style="fill:#535353;fill-opacity:1;stroke:none;stroke-width:0.1;stroke-linecap:round;stroke-linejoin:round"
         id="path2956" /><path
         d="m 91.2123,48.9988 2.8365,2.5584 0.0222,-1.7295 z"
         style="fill:#5e472a;fill-opacity:1;stroke:none;stroke-width:0.1;stroke-linecap:round;stroke-linejoin:round"
         id="path2958" /><path
         d="m 94.0488,51.5572 2.5784,1.3774 -2.5562,-3.1069 z"
         style="fill:#624327;fill-opacity:1;stroke:none;stroke-width:0.1;stroke-linecap:round;stroke-linejoin:round"
         id="path2960" /><path
         d="m 58.7874,51.7797 6.0623,-0.445 -1.9291,-4.7254 z"
         style="fill:#597ab3;fill-opacity:1;stroke:none;stroke-width:0.1;stroke-linecap:round;stroke-linejoin:round"
         id="path2962" /><path
         d="m 74.1378,44.7997 4.3937,7.7586 1.2236,-4.2825 z"
         style="fill:#32374a;fill-opacity:1;stroke:none;stroke-width:0.1;stroke-linecap:round;stroke-linejoin:round"
         id="path2964" /><path
         d="m 89.0764,51.9907 4.9724,-0.4335 -2.8365,-2.5584 z"
         style="fill:#535353;fill-opacity:1;stroke:none;stroke-width:0.1;stroke-linecap:round;stroke-linejoin:round"
         id="path2966" /><path
         d="m 70.3558,49.6106 8.1757,2.9477 -4.3937,-7.7586 z"
         style="fill:#1f2c50;fill-opacity:1;stroke:none;stroke-width:0.1;stroke-linecap:round;stroke-linejoin:round"
         id="path2968" /><path
         d="m 84.5382,54.2824 4.5382,-2.2917 -4.2045,-3.1031 z"
         style="fill:#535355;fill-opacity:1;stroke:none;stroke-width:0.1;stroke-linecap:round;stroke-linejoin:round"
         id="path2970" /><path
         d="M 78.5315,52.5583 82.360097,51.033782 79.7551,48.2758 Z"
         style="fill:#4d4a4c;fill-opacity:1;stroke:none;stroke-width:0.1;stroke-linecap:round;stroke-linejoin:round"
         id="path2972" /><path
         d="M 82.360097,51.033782 84.8719,48.8876 79.7551,48.2758 Z"
         style="fill:#595a5d;fill-opacity:1;stroke:none;stroke-width:0.1;stroke-linecap:round;stroke-linejoin:round"
         id="path2972-0" /><path
         d="m 78.5315,52.5583 6.0067,1.7241 -2.178103,-3.248618 z"
         style="fill:#252831;fill-opacity:1;stroke:none;stroke-width:0.1;stroke-linecap:round;stroke-linejoin:round"
         id="path2974" /><path
         d="m 72.5805,55.1167 5.951,-2.5584 -8.1757,-2.9477 z"
         style="fill:#324575;fill-opacity:1;stroke:none;stroke-width:0.1;stroke-linecap:round;stroke-linejoin:round"
         id="path2976" /><path
         d="m 84.5382,54.2824 3.8376,1.0568 0.7006,-3.3485 z"
         style="fill:#4f4f4f;fill-opacity:1;stroke:none;stroke-width:0.1;stroke-linecap:round;stroke-linejoin:round"
         id="path2978" /><path
         d="m 94.0488,51.5572 2.7252,3.2814 -0.1468,-1.904 z"
         style="fill:#614829;fill-opacity:1;stroke:none;stroke-width:0.1;stroke-linecap:round;stroke-linejoin:round"
         id="path2980" /><path
         d="m 72.5805,55.1167 3.5595,1.6129 2.3915,-4.1713 z"
         style="fill:#556a92;fill-opacity:1;stroke:none;stroke-width:0.1;stroke-linecap:round;stroke-linejoin:round"
         id="path2982" /><path
         d="m 65.7952,55.951 4.5606,-6.3404 -5.5061,1.7241 z"
         style="fill:#5273a8;fill-opacity:1;stroke:none;stroke-width:0.1;stroke-linecap:round;stroke-linejoin:round"
         id="path2984" /><path
         d="m 99.2622,57.2213 -2.635,-4.2867 0.1468,1.904 z"
         style="fill:#694d2b;fill-opacity:1;stroke:none;stroke-width:0.1;stroke-linecap:round;stroke-linejoin:round"
         id="path2986" /><path
         d="m 65.7952,55.951 6.7853,-0.8343 -2.2247,-5.5061 z"
         style="fill:#425f92;fill-opacity:1;stroke:none;stroke-width:0.1;stroke-linecap:round;stroke-linejoin:round"
         id="path2988" /><path
         d="m 88.3758,55.3392 5.673,-3.782 -4.9724,0.4335 z"
         style="fill:#545455;fill-opacity:1;stroke:none;stroke-width:0.1;stroke-linecap:round;stroke-linejoin:round"
         id="path2990" /><path
         d="m 96.4845,57.8193 2.7777,-0.598 -2.4882,-2.3827 z"
         style="fill:#56514b;fill-opacity:1;stroke:none;stroke-width:0.1;stroke-linecap:round;stroke-linejoin:round"
         id="path2992" /><path
         d="m 58.7874,51.7797 7.0078,4.1713 -0.9455,-4.6163 z"
         style="fill:#5276b0;fill-opacity:1;stroke:none;stroke-width:0.1;stroke-linecap:round;stroke-linejoin:round"
         id="path2994" /><path
         d="m 97.6492,58.7218 1.613,-1.5005 -2.7777,0.598 z"
         style="fill:#565353;fill-opacity:1;stroke:none;stroke-width:0.1;stroke-linecap:round;stroke-linejoin:round"
         id="path2996" /><path
         d="m 58.7874,51.7797 2.8921,7.4527 4.1157,-3.2814 z"
         style="fill:#5d7db1;fill-opacity:1;stroke:none;stroke-width:0.1;stroke-linecap:round;stroke-linejoin:round"
         id="path2998" /><path
         d="m 94.0488,51.5572 -1.168,7.7308 3.8932,-4.4494 z"
         style="fill:#525252;fill-opacity:1;stroke:none;stroke-width:0.1;stroke-linecap:round;stroke-linejoin:round"
         id="path3000" /><path
         d="m 88.3758,55.3392 4.505,3.9488 1.168,-7.7308 z"
         style="fill:#505051;fill-opacity:1;stroke:none;stroke-width:0.1;stroke-linecap:round;stroke-linejoin:round"
         id="path3002" /><path
         d="m 92.8808,59.288 3.6037,-1.4687 0.2895,-2.9807 z"
         style="fill:#525252;fill-opacity:1;stroke:none;stroke-width:0.1;stroke-linecap:round;stroke-linejoin:round"
         id="path3004" /><path
         d="m 97.6492,58.7218 1.127,0.733 0.486,-2.2335 z"
         style="fill:#5f492a;fill-opacity:1;stroke:none;stroke-width:0.1;stroke-linecap:round;stroke-linejoin:round"
         id="path3006" /><path
         d="m 92.8808,59.288 2.8038,-0.1221 0.7999,-1.3466 z"
         style="fill:#525252;fill-opacity:1;stroke:none;stroke-width:0.1;stroke-linecap:round;stroke-linejoin:round"
         id="path3008" /><path
         d="m 56.2846,57.7307 5.3949,1.5017 -2.8921,-7.4527 z"
         style="fill:#4b6ba5;fill-opacity:1;stroke:none;stroke-width:0.1;stroke-linecap:round;stroke-linejoin:round"
         id="path3010" /><path
         d="m 95.6846,59.1659 1.9646,-0.4441 -1.1647,-0.9025 z"
         style="fill:#3d3838;fill-opacity:1;stroke:none;stroke-width:0.1;stroke-linecap:round;stroke-linejoin:round"
         id="path3012" /><path
         d="m 61.6795,59.2324 4.5606,0.5561 -0.4449,-3.8375 z"
         style="fill:#42608f;fill-opacity:1;stroke:none;stroke-width:0.1;stroke-linecap:round;stroke-linejoin:round"
         id="path3014" /><path
         d="m 76.14,56.7296 8.3982,-2.4472 -6.0067,-1.7241 z"
         style="fill:#222b3e;fill-opacity:1;stroke:none;stroke-width:0.1;stroke-linecap:round;stroke-linejoin:round"
         id="path3016" /><path
         d="m 66.2401,59.7885 6.3404,-4.6718 -6.7853,0.8343 z"
         style="fill:#3b5680;fill-opacity:1;stroke:none;stroke-width:0.1;stroke-linecap:round;stroke-linejoin:round"
         id="path3018" /><path
         d="m 66.2401,59.7885 4.0601,1.6129 2.2803,-6.2847 z"
         style="fill:#465f85;fill-opacity:1;stroke:none;stroke-width:0.1;stroke-linecap:round;stroke-linejoin:round"
         id="path3020" /><path
         d="M 72.7474,61.6239 76.14,56.7296 72.5805,55.1167 Z"
         style="fill:#3a5589;fill-opacity:1;stroke:none;stroke-width:0.1;stroke-linecap:round;stroke-linejoin:round"
         id="path3022" /><path
         d="m 70.3002,61.4014 2.4472,0.2225 -0.1669,-6.5072 z"
         style="fill:#364e76;fill-opacity:1;stroke:none;stroke-width:0.1;stroke-linecap:round;stroke-linejoin:round"
         id="path3024" /><path
         d="m 97.6492,58.7218 -0.1214,3.1215 1.2484,-2.3885 z"
         style="fill:#555554;fill-opacity:1;stroke:none;stroke-width:0.1;stroke-linecap:round;stroke-linejoin:round"
         id="path3026" /><path
         d="m 84.5382,54.2824 2.7809,7.1747 1.0567,-6.1179 z"
         style="fill:#535458;fill-opacity:1;stroke:none;stroke-width:0.1;stroke-linecap:round;stroke-linejoin:round"
         id="path3028" /><path
         d="m 95.6846,59.1659 1.8432,2.6774 0.1214,-3.1215 z"
         style="fill:#535252;fill-opacity:1;stroke:none;stroke-width:0.1;stroke-linecap:round;stroke-linejoin:round"
         id="path3030" /><path
         d="m 87.3191,61.4571 5.5617,-2.1691 -4.505,-3.9488 z"
         style="fill:#545456;fill-opacity:1;stroke:none;stroke-width:0.1;stroke-linecap:round;stroke-linejoin:round"
         id="path3032" /><path
         d="m 100.993,62.2945 -1.7308,-5.0732 -0.486,2.2335 z"
         style="fill:#6c4b2b;fill-opacity:1;stroke:none;stroke-width:0.1;stroke-linecap:round;stroke-linejoin:round"
         id="path3034" /><path
         d="m 63.6261,62.5138 2.614,-2.7253 -4.5606,-0.5561 z"
         style="fill:#3e5a88;fill-opacity:1;stroke:none;stroke-width:0.1;stroke-linecap:round;stroke-linejoin:round"
         id="path3036" /><path
         d="m 87.3191,61.4571 4.8387,0.1668 0.723,-2.3359 z"
         style="fill:#555556;fill-opacity:1;stroke:none;stroke-width:0.1;stroke-linecap:round;stroke-linejoin:round"
         id="path3038" /><path
         d="m 98.6925,62.7458 0.0837,-3.291 -1.2484,2.3885 z"
         style="fill:#565756;fill-opacity:1;stroke:none;stroke-width:0.1;stroke-linecap:round;stroke-linejoin:round"
         id="path3040" /><path
         d="M 79.0699,62.5218 84.5382,54.2824 76.14,56.7296 Z"
         style="fill:#33405e;fill-opacity:1;stroke:none;stroke-width:0.1;stroke-linecap:round;stroke-linejoin:round"
         id="path3042" /><path
         d="m 98.6925,62.7458 2.3005,-0.4513 -2.2168,-2.8397 z"
         style="fill:#644a27;fill-opacity:1;stroke:none;stroke-width:0.1;stroke-linecap:round;stroke-linejoin:round"
         id="path3044" /><path
         d="m 67.7974,63.0143 2.5028,-1.6129 -4.0601,-1.6129 z"
         style="fill:#575a5c;fill-opacity:1;stroke:none;stroke-width:0.1;stroke-linecap:round;stroke-linejoin:round"
         id="path3046" /><path
         d="m 92.1578,61.6239 3.5268,-2.458 -2.8038,0.1221 z"
         style="fill:#535353;fill-opacity:1;stroke:none;stroke-width:0.1;stroke-linecap:round;stroke-linejoin:round"
         id="path3048" /><path
         d="m 95.6846,59.1659 1.0432,4.024 0.8,-1.3466 z"
         style="fill:#545454;fill-opacity:1;stroke:none;stroke-width:0.1;stroke-linecap:round;stroke-linejoin:round"
         id="path3050" /><path
         d="m 96.7278,63.1899 1.9647,-0.4441 -1.1647,-0.9025 z"
         style="fill:#393939;fill-opacity:1;stroke:none;stroke-width:0.1;stroke-linecap:round;stroke-linejoin:round"
         id="path3052" /><path
         d="M 72.7474,61.6239 79.0699,62.5218 76.14,56.7296 Z"
         style="fill:#344667;fill-opacity:1;stroke:none;stroke-width:0.1;stroke-linecap:round;stroke-linejoin:round"
         id="path3054" /><path
         d="m 92.1578,61.6239 4.57,1.566 -1.0432,-4.024 z"
         style="fill:#545454;fill-opacity:1;stroke:none;stroke-width:0.1;stroke-linecap:round;stroke-linejoin:round"
         id="path3056" /><path
         d="m 79.0699,62.5218 8.2492,-1.0647 -2.7809,-7.1747 z"
         style="fill:#1d222e;fill-opacity:1;stroke:none;stroke-width:0.1;stroke-linecap:round;stroke-linejoin:round"
         id="path3058" /><path
         d="m 63.6261,62.5138 4.1713,0.5005 -1.5573,-3.2258 z"
         style="fill:#363736;fill-opacity:1;stroke:none;stroke-width:0.1;stroke-linecap:round;stroke-linejoin:round"
         id="path3060" /><path
         d="m 55.4504,63.793 6.2291,-4.5606 -5.3949,-1.5017 z"
         style="fill:#3d5685;fill-opacity:1;stroke:none;stroke-width:0.1;stroke-linecap:round;stroke-linejoin:round"
         id="path3062" /><path
         d="m 98.6925,62.7458 1.4745,2.4376 0.826,-2.8889 z"
         style="fill:#684f29;fill-opacity:1;stroke:none;stroke-width:0.1;stroke-linecap:round;stroke-linejoin:round"
         id="path3064" /><path
         d="m 68.4648,65.2946 1.8354,-3.8932 -2.5028,1.6129 z"
         style="fill:#b6b9bd;fill-opacity:1;stroke:none;stroke-width:0.1;stroke-linecap:round;stroke-linejoin:round"
         id="path3066" /><path
         d="m 65.1834,65.9621 2.614,-2.9478 -4.1713,-0.5005 z"
         style="fill:#474c50;fill-opacity:1;stroke:none;stroke-width:0.1;stroke-linecap:round;stroke-linejoin:round"
         id="path3068" /><path
         d="m 96.7278,63.1899 1.4955,2.8152 0.4692,-3.2593 z"
         style="fill:#595959;fill-opacity:1;stroke:none;stroke-width:0.1;stroke-linecap:round;stroke-linejoin:round"
         id="path3070" /><path
         d="m 98.2233,66.0051 1.9437,-0.8217 -1.4745,-2.4376 z"
         style="fill:#5d5e5f;fill-opacity:1;stroke:none;stroke-width:0.1;stroke-linecap:round;stroke-linejoin:round"
         id="path3072" /><path
         d="m 65.1834,65.9621 3.2814,-0.6675 -0.6674,-2.2803 z"
         style="fill:#d8d8db;fill-opacity:1;stroke:none;stroke-width:0.1;stroke-linecap:round;stroke-linejoin:round"
         id="path3074" /><path
         d="m 61.902,66.2958 3.2814,-0.3337 -1.5573,-3.4483 z"
         style="fill:#42454a;fill-opacity:1;stroke:none;stroke-width:0.1;stroke-linecap:round;stroke-linejoin:round"
         id="path3076" /><path
         d="m 98.2233,66.0051 1.1647,0.9025 0.779,-1.7242 z"
         style="fill:#5f615f;fill-opacity:1;stroke:none;stroke-width:0.1;stroke-linecap:round;stroke-linejoin:round"
         id="path3078" /><path
         d="m 55.4504,63.793 8.1757,-1.2792 -1.9466,-3.2814 z"
         style="fill:#405a8b;fill-opacity:1;stroke:none;stroke-width:0.1;stroke-linecap:round;stroke-linejoin:round"
         id="path3080" /><path
         d="m 75.1389,66.9632 3.931,-4.4414 -6.3225,-0.8979 z"
         style="fill:#3a5178;fill-opacity:1;stroke:none;stroke-width:0.1;stroke-linecap:round;stroke-linejoin:round"
         id="path3082" /><path
         d="m 55.4504,63.793 6.4516,2.5028 1.7241,-3.782 z"
         style="fill:#34466b;fill-opacity:1;stroke:none;stroke-width:0.1;stroke-linecap:round;stroke-linejoin:round"
         id="path3084" /><path
         d="m 68.4648,65.2946 4.2826,-3.6707 -2.4472,-0.2225 z"
         style="fill:#a4a8af;fill-opacity:1;stroke:none;stroke-width:0.1;stroke-linecap:round;stroke-linejoin:round"
         id="path3086" /><path
         d="m 82.7028,67.6862 4.6163,-6.2291 -8.2492,1.0647 z"
         style="fill:#293147;fill-opacity:1;stroke:none;stroke-width:0.1;stroke-linecap:round;stroke-linejoin:round"
         id="path3088" /><path
         d="m 93.0476,67.853 3.6802,-4.6631 -4.57,-1.566 z"
         style="fill:#595858;fill-opacity:1;stroke:none;stroke-width:0.1;stroke-linecap:round;stroke-linejoin:round"
         id="path3090" /><path
         d="m 96.7278,63.1899 0.6956,4.1617 0.7999,-1.3465 z"
         style="fill:#5c5c5c;fill-opacity:1;stroke:none;stroke-width:0.1;stroke-linecap:round;stroke-linejoin:round"
         id="path3092" /><path
         d="m 97.4234,67.3516 1.9646,-0.444 -1.1647,-0.9025 z"
         style="fill:#434242;fill-opacity:1;stroke:none;stroke-width:0.1;stroke-linecap:round;stroke-linejoin:round"
         id="path3094" /><path
         d="m 88.4314,68.0755 3.7264,-6.4516 -4.8387,-0.1668 z"
         style="fill:#b5b5b5;fill-opacity:1;stroke:none;stroke-width:0.1;stroke-linecap:round;stroke-linejoin:round"
         id="path3096" /><path
         d="m 70.0777,67.853 2.6697,-6.2291 -4.2826,3.6707 z"
         style="fill:#d1cdd1;fill-opacity:1;stroke:none;stroke-width:0.1;stroke-linecap:round;stroke-linejoin:round"
         id="path3098" /><path
         d="m 99.388,66.9076 2.116,1.522 -1.337,-3.2462 z"
         style="fill:#6c512e;fill-opacity:1;stroke:none;stroke-width:0.1;stroke-linecap:round;stroke-linejoin:round"
         id="path3100" /><path
         d="m 70.0777,67.853 5.0612,-0.8898 -2.3915,-5.3393 z"
         style="fill:#a5aaaf;fill-opacity:1;stroke:none;stroke-width:0.1;stroke-linecap:round;stroke-linejoin:round"
         id="path3102" /><path
         d="m 93.0476,67.853 4.3758,-0.5014 -0.6956,-4.1617 z"
         style="fill:#5f5f5f;fill-opacity:1;stroke:none;stroke-width:0.1;stroke-linecap:round;stroke-linejoin:round"
         id="path3104" /><path
         d="M 88.4314,68.0755 93.0476,67.853 92.1578,61.6239 Z"
         style="fill:#b7b7b7;fill-opacity:1;stroke:none;stroke-width:0.1;stroke-linecap:round;stroke-linejoin:round"
         id="path3106" /><path
         d="m 82.7028,67.6862 5.7286,0.3893 -1.1123,-6.6184 z"
         style="fill:#222738;fill-opacity:1;stroke:none;stroke-width:0.1;stroke-linecap:round;stroke-linejoin:round"
         id="path3108" /><path
         d="m 93.0476,67.853 3.4483,1.5573 0.9275,-2.0587 z"
         style="fill:#626262;fill-opacity:1;stroke:none;stroke-width:0.1;stroke-linecap:round;stroke-linejoin:round"
         id="path3110" /><path
         d="m 61.902,66.2958 2.9477,3.3926 0.3337,-3.7263 z"
         style="fill:#42454a;fill-opacity:1;stroke:none;stroke-width:0.1;stroke-linecap:round;stroke-linejoin:round"
         id="path3112" /><path
         d="m 101.504,68.4296 -0.511,-6.1351 -0.826,2.8889 z"
         style="fill:#6f522d;fill-opacity:1;stroke:none;stroke-width:0.1;stroke-linecap:round;stroke-linejoin:round"
         id="path3114" /><path
         d="m 99.388,66.9076 0.6118,3.2814 1.5042,-1.7594 z"
         style="fill:#69502e;fill-opacity:1;stroke:none;stroke-width:0.1;stroke-linecap:round;stroke-linejoin:round"
         id="path3116" /><path
         d="m 70.0777,67.853 2.6697,2.3916 2.3915,-3.2814 z"
         style="fill:#c4c7cc;fill-opacity:1;stroke:none;stroke-width:0.1;stroke-linecap:round;stroke-linejoin:round"
         id="path3118" /><path
         d="m 75.1389,66.9632 7.5639,0.723 -3.6329,-5.1644 z"
         style="fill:#405884;fill-opacity:1;stroke:none;stroke-width:0.1;stroke-linecap:round;stroke-linejoin:round"
         id="path3120" /><path
         d="m 65.1834,65.9621 4.8943,1.8909 -1.6129,-2.5584 z"
         style="fill:#cfd0d4;fill-opacity:1;stroke:none;stroke-width:0.1;stroke-linecap:round;stroke-linejoin:round"
         id="path3122" /><path
         d="M 97.4234,67.3516 99.9998,70.189 99.388,66.9076 Z"
         style="fill:#636463;fill-opacity:1;stroke:none;stroke-width:0.1;stroke-linecap:round;stroke-linejoin:round"
         id="path3124" /><path
         d="M 55.3391,69.9109 61.902,66.2958 55.4504,63.793 Z"
         style="fill:#283653;fill-opacity:1;stroke:none;stroke-width:0.1;stroke-linecap:round;stroke-linejoin:round"
         id="path3126" /><path
         d="m 64.8497,69.6884 5.228,-1.8354 -4.8943,-1.8909 z"
         style="fill:#cdced2;fill-opacity:1;stroke:none;stroke-width:0.1;stroke-linecap:round;stroke-linejoin:round"
         id="path3128" /><path
         d="m 96.4959,69.4103 3.5039,0.7787 -2.5764,-2.8374 z"
         style="fill:#626262;fill-opacity:1;stroke:none;stroke-width:0.1;stroke-linecap:round;stroke-linejoin:round"
         id="path3130" /><path
         d="M 62.3469,71.0788 64.8497,69.6884 61.902,66.2958 Z"
         style="fill:#323538;fill-opacity:1;stroke:none;stroke-width:0.1;stroke-linecap:round;stroke-linejoin:round"
         id="path3132" /><path
         d="m 72.7474,70.2446 2.7808,1.0011 -0.3893,-4.2825 z"
         style="fill:#c5ccd3;fill-opacity:1;stroke:none;stroke-width:0.1;stroke-linecap:round;stroke-linejoin:round"
         id="path3134" /><path
         d="M 69.9109,71.4682 72.7474,70.2446 70.0777,67.853 Z"
         style="fill:#d4d5d9;fill-opacity:1;stroke:none;stroke-width:0.1;stroke-linecap:round;stroke-linejoin:round"
         id="path3136" /><path
         d="M 94.0488,72.4137 96.4959,69.4103 93.0476,67.853 Z"
         style="fill:#626262;fill-opacity:1;stroke:none;stroke-width:0.1;stroke-linecap:round;stroke-linejoin:round"
         id="path3138" /><path
         d="m 64.8497,69.6884 5.0612,1.7798 0.1668,-3.6152 z"
         style="fill:#cbccd0;fill-opacity:1;stroke:none;stroke-width:0.1;stroke-linecap:round;stroke-linejoin:round"
         id="path3140" /><path
         d="m 55.3391,69.9109 7.0078,1.1679 -0.4449,-4.783 z"
         style="fill:#35445f;fill-opacity:1;stroke:none;stroke-width:0.1;stroke-linecap:round;stroke-linejoin:round"
         id="path3142" /><path
         d="m 75.5282,71.2457 7.1746,-3.5595 -7.5639,-0.723 z"
         style="fill:#405c8c;fill-opacity:1;stroke:none;stroke-width:0.1;stroke-linecap:round;stroke-linejoin:round"
         id="path3144" /><path
         d="m 66.9075,73.0255 3.0034,-1.5573 -5.0612,-1.7798 z"
         style="fill:#c9cdd0;fill-opacity:1;stroke:none;stroke-width:0.1;stroke-linecap:round;stroke-linejoin:round"
         id="path3146" /><path
         d="m 55.3391,69.9109 4.3938,3.2258 2.614,-2.0579 z"
         style="fill:#323f59;fill-opacity:1;stroke:none;stroke-width:0.1;stroke-linecap:round;stroke-linejoin:round"
         id="path3148" /><path
         d="m 93.0476,67.853 -0.8342,5.7286 1.8354,-1.1679 z"
         style="fill:#636363;fill-opacity:1;stroke:none;stroke-width:0.1;stroke-linecap:round;stroke-linejoin:round"
         id="path3150" /><path
         d="m 88.4314,68.0755 3.782,5.5061 0.8342,-5.7286 z"
         style="fill:#bababa;fill-opacity:1;stroke:none;stroke-width:0.1;stroke-linecap:round;stroke-linejoin:round"
         id="path3152" /><path
         d="m 100.993,73.5814 0.511,-5.1518 -1.5042,1.7594 z"
         style="fill:#725430;fill-opacity:1;stroke:none;stroke-width:0.1;stroke-linecap:round;stroke-linejoin:round"
         id="path3154" /><path
         d="m 95.1611,74.0822 1.3348,-4.6719 -2.4471,3.0034 z"
         style="fill:#646060;fill-opacity:1;stroke:none;stroke-width:0.1;stroke-linecap:round;stroke-linejoin:round"
         id="path3156" /><path
         d="m 88.0421,74.0266 4.1713,-0.445 -3.782,-5.5061 z"
         style="fill:#bbbbbb;fill-opacity:1;stroke:none;stroke-width:0.1;stroke-linecap:round;stroke-linejoin:round"
         id="path3158" /><path
         d="m 62.3469,71.0788 4.5606,1.9467 -2.0578,-3.3371 z"
         style="fill:#9f9fa2;fill-opacity:1;stroke:none;stroke-width:0.1;stroke-linecap:round;stroke-linejoin:round"
         id="path3160" /><path
         d="m 75.5282,71.2457 6.9522,2.5584 0.2224,-6.1179 z"
         style="fill:#5e75a3;fill-opacity:1;stroke:none;stroke-width:0.1;stroke-linecap:round;stroke-linejoin:round"
         id="path3162" /><path
         d="m 82.4804,73.8041 5.951,-5.7286 -5.7286,-0.3893 z"
         style="fill:#2b3753;fill-opacity:1;stroke:none;stroke-width:0.1;stroke-linecap:round;stroke-linejoin:round"
         id="path3164" /><path
         d="m 82.4804,73.8041 5.5617,0.2225 0.3893,-5.9511 z"
         style="fill:#3a3e51;fill-opacity:1;stroke:none;stroke-width:0.1;stroke-linecap:round;stroke-linejoin:round"
         id="path3166" /><path
         d="m 99.9998,70.189 -0.723,4.7831 1.7162,-1.3907 z"
         style="fill:#72552f;fill-opacity:1;stroke:none;stroke-width:0.1;stroke-linecap:round;stroke-linejoin:round"
         id="path3168" /><path
         d="m 72.7474,70.2446 0.8898,4.8943 1.891,-3.8932 z"
         style="fill:#eceef0;fill-opacity:1;stroke:none;stroke-width:0.1;stroke-linecap:round;stroke-linejoin:round"
         id="path3170" /><path
         d="m 92.2134,73.5816 2.9477,0.5006 -1.1123,-1.6685 z"
         style="fill:#848080;fill-opacity:1;stroke:none;stroke-width:0.1;stroke-linecap:round;stroke-linejoin:round"
         id="path3172" /><path
         d="M 95.1611,74.0822 99.9998,70.189 96.4959,69.4103 Z"
         style="fill:#626262;fill-opacity:1;stroke:none;stroke-width:0.1;stroke-linecap:round;stroke-linejoin:round"
         id="path3174" /><path
         d="m 95.1611,74.0822 4.1157,0.8899 0.723,-4.7831 z"
         style="fill:#636262;fill-opacity:1;stroke:none;stroke-width:0.1;stroke-linecap:round;stroke-linejoin:round"
         id="path3176" /><path
         d="m 66.9075,73.0255 2.8921,2.2246 0.1113,-3.7819 z"
         style="fill:#c2c6ca;fill-opacity:1;stroke:none;stroke-width:0.1;stroke-linecap:round;stroke-linejoin:round"
         id="path3178" /><path
         d="m 69.9109,71.4682 3.7263,3.6707 -0.8898,-4.8943 z"
         style="fill:#c4c8cc;fill-opacity:1;stroke:none;stroke-width:0.1;stroke-linecap:round;stroke-linejoin:round"
         id="path3180" /><path
         d="m 69.7996,75.2501 3.8376,-0.1112 -3.7263,-3.6707 z"
         style="fill:#b4b9be;fill-opacity:1;stroke:none;stroke-width:0.1;stroke-linecap:round;stroke-linejoin:round"
         id="path3182" /><path
         d="m 62.3469,71.0788 2.2803,5.1168 2.2803,-3.1701 z"
         style="fill:#343638;fill-opacity:1;stroke:none;stroke-width:0.1;stroke-linecap:round;stroke-linejoin:round"
         id="path3184" /><path
         d="m 92.1021,75.5838 3.059,-1.5016 -2.9477,-0.5006 z"
         style="fill:#919191;fill-opacity:1;stroke:none;stroke-width:0.1;stroke-linecap:round;stroke-linejoin:round"
         id="path3186" /><path
         d="m 93.3813,76.5293 1.7798,-2.4471 -3.059,1.5016 z"
         style="fill:#7f7d7d;fill-opacity:1;stroke:none;stroke-width:0.1;stroke-linecap:round;stroke-linejoin:round"
         id="path3188" /><path
         d="m 88.0421,74.0266 4.06,1.5572 0.1113,-2.0022 z"
         style="fill:#aea776;fill-opacity:1;stroke:none;stroke-width:0.1;stroke-linecap:round;stroke-linejoin:round"
         id="path3190" /><path
         d="m 59.7329,73.1367 4.8943,3.0589 -2.2803,-5.1168 z"
         style="fill:#171f38;fill-opacity:1;stroke:none;stroke-width:0.1;stroke-linecap:round;stroke-linejoin:round"
         id="path3192" /><path
         d="m 55.3391,69.9109 1.5573,7.3415 2.8365,-4.1157 z"
         style="fill:#1c2330;fill-opacity:1;stroke:none;stroke-width:0.1;stroke-linecap:round;stroke-linejoin:round"
         id="path3194" /><path
         d="m 71.0788,77.7529 2.5584,-2.614 -3.8376,0.1112 z"
         style="fill:#999da3;fill-opacity:1;stroke:none;stroke-width:0.1;stroke-linecap:round;stroke-linejoin:round"
         id="path3196" /><path
         d="m 87.8752,76.9743 4.2269,-1.3905 -4.06,-1.5572 z"
         style="fill:#a19a86;fill-opacity:1;stroke:none;stroke-width:0.1;stroke-linecap:round;stroke-linejoin:round"
         id="path3198" /><path
         d="m 64.6272,76.1956 5.1724,-0.9455 -2.8921,-2.2246 z"
         style="fill:#4a4c50;fill-opacity:1;stroke:none;stroke-width:0.1;stroke-linecap:round;stroke-linejoin:round"
         id="path3200" /><path
         d="m 82.4804,73.8041 5.3948,3.1702 0.1669,-2.9477 z"
         style="fill:#766657;fill-opacity:1;stroke:none;stroke-width:0.1;stroke-linecap:round;stroke-linejoin:round"
         id="path3202" /><path
         d="m 73.6372,75.1389 8.8432,-1.3348 -6.9522,-2.5584 z"
         style="fill:#627b9e;fill-opacity:1;stroke:none;stroke-width:0.1;stroke-linecap:round;stroke-linejoin:round"
         id="path3204" /><path
         d="m 73.6372,75.1389 5.5061,4.2825 3.3371,-5.6173 z"
         style="fill:#354d7b;fill-opacity:1;stroke:none;stroke-width:0.1;stroke-linecap:round;stroke-linejoin:round"
         id="path3206" /><path
         d="m 99.3802,78.2221 1.6128,-4.6407 -1.7162,1.3907 z"
         style="fill:#70522e;fill-opacity:1;stroke:none;stroke-width:0.1;stroke-linecap:round;stroke-linejoin:round"
         id="path3208" /><path
         d="m 95.1611,74.0822 4.2191,4.1399 -0.1034,-3.25 z"
         style="fill:#616261;fill-opacity:1;stroke:none;stroke-width:0.1;stroke-linecap:round;stroke-linejoin:round"
         id="path3210" /><path
         d="m 95.1611,74.0822 1.9466,5.8398 2.2725,-1.6999 z"
         style="fill:#636160;fill-opacity:1;stroke:none;stroke-width:0.1;stroke-linecap:round;stroke-linejoin:round"
         id="path3212" /><path
         d="m 93.3813,76.5293 3.7264,3.3927 -1.9466,-5.8398 z"
         style="fill:#616362;fill-opacity:1;stroke:none;stroke-width:0.1;stroke-linecap:round;stroke-linejoin:round"
         id="path3214" /><path
         d="m 94.2712,79.5883 2.8365,0.3337 -3.7264,-3.3927 z"
         style="fill:#606060;fill-opacity:1;stroke:none;stroke-width:0.1;stroke-linecap:round;stroke-linejoin:round"
         id="path3216" /><path
         d="m 56.8964,77.2524 7.7308,-1.0568 -4.8943,-3.0589 z"
         style="fill:#202b43;fill-opacity:1;stroke:none;stroke-width:0.1;stroke-linecap:round;stroke-linejoin:round"
         id="path3218" /><path
         d="m 64.6272,76.1956 6.4516,1.5573 -1.2792,-2.5028 z"
         style="fill:#44484d;fill-opacity:1;stroke:none;stroke-width:0.1;stroke-linecap:round;stroke-linejoin:round"
         id="path3220" /><path
         d="m 90.4336,81.4237 1.6685,-5.8399 -4.2269,1.3905 z"
         style="fill:#bdbdbd;fill-opacity:1;stroke:none;stroke-width:0.1;stroke-linecap:round;stroke-linejoin:round"
         id="path3222" /><path
         d="m 90.4336,81.4237 2.9477,-4.8944 -1.2792,-0.9455 z"
         style="fill:#636463;fill-opacity:1;stroke:none;stroke-width:0.1;stroke-linecap:round;stroke-linejoin:round"
         id="path3224" /><path
         d="m 90.4336,81.4237 3.8376,-1.8354 -0.8899,-3.059 z"
         style="fill:#616264;fill-opacity:1;stroke:none;stroke-width:0.1;stroke-linecap:round;stroke-linejoin:round"
         id="path3226" /><path
         d="m 79.1433,79.4214 8.7319,-2.4471 -5.3948,-3.1702 z"
         style="fill:#29385c;fill-opacity:1;stroke:none;stroke-width:0.1;stroke-linecap:round;stroke-linejoin:round"
         id="path3228" /><path
         d="m 94.2712,79.5883 2.3954,3.1957 0.4411,-2.862 z"
         style="fill:#616163;fill-opacity:1;stroke:none;stroke-width:0.1;stroke-linecap:round;stroke-linejoin:round"
         id="path3230" /><path
         d="m 71.0788,77.7529 8.0645,1.6685 -5.5061,-4.2825 z"
         style="fill:#2f446a;fill-opacity:1;stroke:none;stroke-width:0.1;stroke-linecap:round;stroke-linejoin:round"
         id="path3232" /><path
         d="m 66.407,83.3146 4.6718,-5.5617 -6.4516,-1.5573 z"
         style="fill:#171f33;fill-opacity:1;stroke:none;stroke-width:0.1;stroke-linecap:round;stroke-linejoin:round"
         id="path3234" /><path
         d="m 59.8998,83.8152 4.7274,-7.6196 -7.7308,1.0568 z"
         style="fill:#2d3240;fill-opacity:1;stroke:none;stroke-width:0.1;stroke-linecap:round;stroke-linejoin:round"
         id="path3236" /><path
         d="m 79.1433,79.4214 6.3404,4.3382 2.3915,-6.7853 z"
         style="fill:#1f2d4e;fill-opacity:1;stroke:none;stroke-width:0.1;stroke-linecap:round;stroke-linejoin:round"
         id="path3238" /><path
         d="m 85.4837,83.7596 4.9499,-2.3359 -2.5584,-4.4494 z"
         style="fill:#bfbfc0;fill-opacity:1;stroke:none;stroke-width:0.1;stroke-linecap:round;stroke-linejoin:round"
         id="path3240" /><path
         d="m 93.7707,84.427 2.8959,-1.643 -2.3954,-3.1957 z"
         style="fill:#646465;fill-opacity:1;stroke:none;stroke-width:0.1;stroke-linecap:round;stroke-linejoin:round"
         id="path3242" /><path
         d="m 90.4336,81.4237 3.3371,3.0033 0.5005,-4.8387 z"
         style="fill:#65686c;fill-opacity:1;stroke:none;stroke-width:0.1;stroke-linecap:round;stroke-linejoin:round"
         id="path3244" /><path
         d="m 71.0788,77.7529 6.7297,5.7842 1.3348,-4.1157 z"
         style="fill:#2b3e66;fill-opacity:1;stroke:none;stroke-width:0.1;stroke-linecap:round;stroke-linejoin:round"
         id="path3246" /><path
         d="m 59.8998,83.8152 6.5072,-0.5006 -1.7798,-7.119 z"
         style="fill:#37425c;fill-opacity:1;stroke:none;stroke-width:0.1;stroke-linecap:round;stroke-linejoin:round"
         id="path3248" /><path
         d="m 85.4837,83.7596 3.0033,1.3348 1.9466,-3.6707 z"
         style="fill:#bfc0c2;fill-opacity:1;stroke:none;stroke-width:0.1;stroke-linecap:round;stroke-linejoin:round"
         id="path3250" /><path
         d="m 73.1923,85.3168 4.6162,-1.7797 -6.7297,-5.7842 z"
         style="fill:#263456;fill-opacity:1;stroke:none;stroke-width:0.1;stroke-linecap:round;stroke-linejoin:round"
         id="path3252" /><path
         d="m 96.6666,82.784 2.7136,-4.5619 -2.2725,1.6999 z"
         style="fill:#6a5331;fill-opacity:1;stroke:none;stroke-width:0.1;stroke-linecap:round;stroke-linejoin:round"
         id="path3254" /><path
         d="m 66.407,83.3146 6.7853,2.0022 -2.1135,-7.5639 z"
         style="fill:#161d2e;fill-opacity:1;stroke:none;stroke-width:0.1;stroke-linecap:round;stroke-linejoin:round"
         id="path3256" /><path
         d="m 77.8085,83.5371 7.6752,0.2225 -6.3404,-4.3382 z"
         style="fill:#20315c;fill-opacity:1;stroke:none;stroke-width:0.1;stroke-linecap:round;stroke-linejoin:round"
         id="path3258" /><path
         d="m 85.4837,83.7596 1.6129,2.8365 1.3904,-1.5017 z"
         style="fill:#c1c1c5;fill-opacity:1;stroke:none;stroke-width:0.1;stroke-linecap:round;stroke-linejoin:round"
         id="path3260" /><path
         d="M 88.487,85.0944 93.7707,84.427 90.4336,81.4237 Z"
         style="fill:#6a6f74;fill-opacity:1;stroke:none;stroke-width:0.1;stroke-linecap:round;stroke-linejoin:round"
         id="path3262" /><path
         d="M 91.04332,87.079308 93.7707,84.427 88.487,85.0944 Z"
         style="fill:#76808a;fill-opacity:1;stroke:none;stroke-width:0.1;stroke-linecap:round;stroke-linejoin:round"
         id="path3264" /><path
         d="m 77.8085,83.5371 5.0056,4.1713 2.6696,-3.9488 z"
         style="fill:#1b294c;fill-opacity:1;stroke:none;stroke-width:0.1;stroke-linecap:round;stroke-linejoin:round"
         id="path3266" /><path
         d="m 63.1812,88.2646 3.2258,-4.95 -6.5072,0.5006 z"
         style="fill:#2e333f;fill-opacity:1;stroke:none;stroke-width:0.1;stroke-linecap:round;stroke-linejoin:round"
         id="path3268" /><path
         d="m 82.8141,87.7084 4.2825,-1.1123 -1.6129,-2.8365 z"
         style="fill:#adb1b5;fill-opacity:1;stroke:none;stroke-width:0.1;stroke-linecap:round;stroke-linejoin:round"
         id="path3270" /><path
         d="M 87.0966,86.5961 91.04332,87.079308 88.487,85.0944 Z"
         style="fill:#788490;fill-opacity:1;stroke:none;stroke-width:0.1;stroke-linecap:round;stroke-linejoin:round"
         id="path3272" /><path
         d="m 82.8141,87.7084 2.3359,0.8899 1.9466,-2.0022 z"
         style="fill:#c3c1c1;fill-opacity:1;stroke:none;stroke-width:0.1;stroke-linecap:round;stroke-linejoin:round"
         id="path3274" /><path
         d="m 77.8085,83.5371 2.5028,6.5072 2.5028,-2.3359 z"
         style="fill:#334261;fill-opacity:1;stroke:none;stroke-width:0.1;stroke-linecap:round;stroke-linejoin:round"
         id="path3276" /><path
         d="m 73.1923,85.3168 7.119,4.7275 -2.5028,-6.5072 z"
         style="fill:#1d284a;fill-opacity:1;stroke:none;stroke-width:0.1;stroke-linecap:round;stroke-linejoin:round"
         id="path3278" /><path
         d="m 68.6873,91.9909 4.505,-6.6741 -6.7853,-2.0022 z"
         style="fill:#2b303f;fill-opacity:1;stroke:none;stroke-width:0.1;stroke-linecap:round;stroke-linejoin:round"
         id="path3280" /><path
         d="m 63.1812,88.2646 5.5061,3.7263 -2.2803,-8.6763 z"
         style="fill:#2f3036;fill-opacity:1;stroke:none;stroke-width:0.1;stroke-linecap:round;stroke-linejoin:round"
         id="path3282" /><path
         d="m 75.2501,92.4359 5.0612,-2.3916 -7.119,-4.7275 z"
         style="fill:#26314d;fill-opacity:1;stroke:none;stroke-width:0.1;stroke-linecap:round;stroke-linejoin:round"
         id="path3284" /><path
         d="M 80.3113,90.0443 85.15,88.5983 82.8141,87.7084 Z"
         style="fill:#c3c3c6;fill-opacity:1;stroke:none;stroke-width:0.1;stroke-linecap:round;stroke-linejoin:round"
         id="path3286" /><path
         d="M 85.15,88.5983 91.04332,87.079308 87.0966,86.5961 Z"
         style="fill:#7d8b9b;fill-opacity:1;stroke:none;stroke-width:0.1;stroke-linecap:round;stroke-linejoin:round"
         id="path3288" /><path
         d="m 68.6873,91.9909 6.5628,0.445 -2.0578,-7.1191 z"
         style="fill:#222633;fill-opacity:1;stroke:none;stroke-width:0.1;stroke-linecap:round;stroke-linejoin:round"
         id="path3290" /><path
         d="m 84.5382,54.2824 0.3337,-5.3948 -2.511803,2.146182 z"
         style="fill:#555659;fill-opacity:1;stroke:none;stroke-width:0.1;stroke-linecap:round;stroke-linejoin:round"
         id="path2972-0-8" /><path
         d="M 91.04332,87.079308 96.6666,82.784 93.870683,84.427 Z"
         style="fill:#766445;fill-opacity:1;stroke:none;stroke-width:0.1;stroke-linecap:round;stroke-linejoin:round"
         id="path2972-0-88" /></g></g><metadata
     id="metadata152"><rdf:RDF><cc:License
         rdf:about="http://creativecommons.org/licenses/by-sa/4.0/"><cc:permits
           rdf:resource="http://creativecommons.org/ns#Reproduction" /><cc:permits
           rdf:resource="http://creativecommons.org/ns#Distribution" /><cc:requires
           rdf:resource="http://creativecommons.org/ns#Notice" /><cc:requires
           rdf:resource="http://creativecommons.org/ns#Attribution" /><cc:permits
           rdf:resource="http://creativecommons.org/ns#DerivativeWorks" /><cc:requires
           rdf:resource="http://creativecommons.org/ns#ShareAlike" /></cc:License><cc:Work
         rdf:about=""><cc:license
           rdf:resource="http://creativecommons.org/licenses/by-sa/4.0/" /></cc:Work></rdf:RDF></metadata></svg>
