<?xml version="1.0" encoding="UTF-8" standalone="no"?>
<!-- Created with Inkscape (http://www.inkscape.org/) -->

<svg
   width="512"
   height="512"
   viewBox="0 0 135.46666 135.46667"
   version="1.1"
   id="svg5"
   xml:space="preserve"
   xmlns="http://www.w3.org/2000/svg"
   xmlns:svg="http://www.w3.org/2000/svg"
   xmlns:rdf="http://www.w3.org/1999/02/22-rdf-syntax-ns#"
   xmlns:cc="http://creativecommons.org/ns#"><defs
     id="defs2" /><g
     id="layer1"><rect
       style="fill:#999999;fill-opacity:1;stroke:none;stroke-width:0.1"
       id="rect274126"
       width="0.26458332"
       height="78.06279"
       x="86.552597"
       y="29.818214"
       transform="rotate(-1.9692573)" /><rect
       style="fill:#9b6c30;fill-opacity:1;stroke:none;stroke-width:0.113101"
       id="rect270266"
       width="0.36691871"
       height="22.800076"
       x="74.387115"
       y="-24.870762"
       transform="rotate(69.526929)" /><rect
       style="fill:#9b6c30;fill-opacity:1;stroke:none;stroke-width:0.0999988"
       id="rect274010"
       width="0.36691639"
       height="17.823612"
       x="70.004753"
       y="-25.530931"
       transform="matrix(0.03704432,0.99931362,-0.99920422,0.03988652,0,0)" /><rect
       style="fill:#000000;fill-opacity:1;stroke:none;stroke-width:0.1"
       id="rect274118"
       width="0.26458332"
       height="14.481037"
       x="6.5353541"
       y="94.180252"
       transform="rotate(-44.591609)" /><rect
       style="fill:#000000;fill-opacity:1;stroke:none;stroke-width:0.1"
       id="rect274120"
       width="0.26458332"
       height="14.481037"
       x="24.869135"
       y="95.197151"
       transform="rotate(-37.105545)" /><rect
       style="fill:#000000;fill-opacity:1;stroke:none;stroke-width:0.1"
       id="rect274122"
       width="0.26458332"
       height="14.481037"
       x="-105.67622"
       y="-18.04854"
       transform="rotate(-147.21)" /><rect
       style="fill:#000000;fill-opacity:1;stroke:none;stroke-width:0.1"
       id="rect274124"
       width="0.26458332"
       height="14.481037"
       x="-99.643639"
       y="-12.291359"
       transform="rotate(-141.77301)" /><g
       id="g270212"
       style="stroke:none"><path
         d="m 85.4528,52.1975 3.9092,0.6409 -0.6714,-3.0213 z"
         style="fill:#353935;fill-opacity:1;stroke:none;stroke-width:0.1;stroke-linecap:round;stroke-linejoin:round"
         id="path1605" /><path
         d="M 86.1057,56.0946 89.362,52.8384 85.4528,52.1975 Z"
         style="fill:#2b3231;fill-opacity:1;stroke:none;stroke-width:0.1;stroke-linecap:round;stroke-linejoin:round"
         id="path1611" /><path
         d="m 80.8689,53.4091 5.2368,2.6855 -0.6529,-3.8971 z"
         style="fill:#6c6638;fill-opacity:1;stroke:none;stroke-width:0.1;stroke-linecap:round;stroke-linejoin:round"
         id="path1615" /><path
         d="m 82.3124,57.5717 3.7933,-1.4771 -5.2368,-2.6855 z"
         style="fill:#766e3c;fill-opacity:1;stroke:none;stroke-width:0.1;stroke-linecap:round;stroke-linejoin:round"
         id="path1619" /><path
         d="m 60.9097,56.4471 5.5545,1.5667 2.6111,-2.0652 z"
         style="fill:#6e6453;fill-opacity:1;stroke:none;stroke-width:0.1;stroke-linecap:round;stroke-linejoin:round"
         id="path1621" /><path
         d="m 64.1142,58.2511 2.35,-0.2373 -5.5545,-1.5667 z"
         style="fill:#2e281e;fill-opacity:1;stroke:none;stroke-width:0.1;stroke-linecap:round;stroke-linejoin:round"
         id="path1623" /><path
         d="m 76.572,55.289 5.7404,2.2827 -1.4435,-4.1626 z"
         style="fill:#6f6c37;fill-opacity:1;stroke:none;stroke-width:0.1;stroke-linecap:round;stroke-linejoin:round"
         id="path1625" /><path
         d="m 64.1142,58.2511 1.804,1.1394 0.546,-1.3767 z"
         style="fill:#9d6d92;fill-opacity:1;stroke:none;stroke-width:0.1;stroke-linecap:round;stroke-linejoin:round"
         id="path1627" /><path
         d="m 64.3753,59.5092 1.5429,-0.1187 -1.804,-1.1394 z"
         style="fill:#723e61;fill-opacity:1;stroke:none;stroke-width:0.1;stroke-linecap:round;stroke-linejoin:round"
         id="path1631" /><path
         d="m 71.4694,57.4374 5.069,1.5442 0.0336,-3.6926 z"
         style="fill:#756d3b;fill-opacity:1;stroke:none;stroke-width:0.1;stroke-linecap:round;stroke-linejoin:round"
         id="path1635" /><path
         d="m 82.3124,57.5717 3.8269,2.0813 -0.0336,-3.5584 z"
         style="fill:#7c7845;fill-opacity:1;stroke:none;stroke-width:0.1;stroke-linecap:round;stroke-linejoin:round"
         id="path1639" /><path
         d="M 76.5384,58.9816 82.3124,57.5717 76.572,55.289 Z"
         style="fill:#756f3c;fill-opacity:1;stroke:none;stroke-width:0.1;stroke-linecap:round;stroke-linejoin:round"
         id="path1641" /><path
         d="m 51.7471,59.9602 h 2.3737 L 52.934,58.2037 Z"
         style="fill:#d9d882;fill-opacity:1;stroke:none;stroke-width:0.1;stroke-linecap:round;stroke-linejoin:round"
         id="path1647" /><path
         d="m 76.5384,58.9816 2.9541,2.182 2.8199,-3.5919 z"
         style="fill:#7f7744;fill-opacity:1;stroke:none;stroke-width:0.1;stroke-linecap:round;stroke-linejoin:round"
         id="path1649" /><path
         d="M 71.4694,57.4374 71.629522,62.739996 76.5384,58.9816 Z"
         style="fill:#787440;fill-opacity:1;stroke:none;stroke-width:0.1;stroke-linecap:round;stroke-linejoin:round"
         id="path1653" /><path
         d="m 61.242,62.6662 3.1333,-3.157 -3.306014,0.0539 z"
         style="fill:#595238;fill-opacity:1;stroke:none;stroke-width:0.1;stroke-linecap:round;stroke-linejoin:round"
         id="path1657" /><path
         d="m 67.7935,62.69 2.075,-3.0243 -3.9503,-0.2752 z"
         style="fill:#4e4d3d;fill-opacity:1;stroke:none;stroke-width:0.1;stroke-linecap:round;stroke-linejoin:round"
         id="path1659" /><path
         d="m 90.0229,62.6773 -3.9172,-6.5827 0.0336,3.5584 z"
         style="fill:#182a33;fill-opacity:1;stroke:none;stroke-width:0.1;stroke-linecap:round;stroke-linejoin:round"
         id="path1661" /><path
         d="M 69.8685,59.6657 71.629522,62.739996 71.4694,57.4374 Z"
         style="fill:#5b6065;fill-opacity:1;stroke:none;stroke-width:0.1;stroke-linecap:round;stroke-linejoin:round"
         id="path1663" /><path
         d="M 90.0229,62.6773 89.362,52.8384 86.1057,56.0946 Z"
         style="fill:#3f4345;fill-opacity:1;stroke:none;stroke-width:0.1;stroke-linecap:round;stroke-linejoin:round"
         id="path1665" /><path
         d="m 56.9456,59.9602 4.2964,2.706 -0.172714,-3.1031 z"
         style="fill:#514c3f;fill-opacity:1;stroke:none;stroke-width:0.1;stroke-linecap:round;stroke-linejoin:round"
         id="path1667" /><path
         d="m 54.5956,62.8087 2.35,-2.8485 h -2.8248 z"
         style="fill:#4c4941;fill-opacity:1;stroke:none;stroke-width:0.1;stroke-linecap:round;stroke-linejoin:round"
         id="path1669" /><path
         d="m 47.8194,60.0464 2.3136,3.0946 1.6141,-3.1808 z"
         style="fill:#655736;fill-opacity:1;stroke:none;stroke-width:0.1;stroke-linecap:round;stroke-linejoin:round"
         id="path1671" /><path
         d="m 51.7471,59.9602 2.8485,2.8485 -0.4748,-2.8485 z"
         style="fill:#5c5b3a;fill-opacity:1;stroke:none;stroke-width:0.1;stroke-linecap:round;stroke-linejoin:round"
         id="path1673" /><path
         d="M 47.8542,63.4258 50.133,63.141 47.8194,60.0464 Z"
         style="fill:#4f4b43;fill-opacity:1;stroke:none;stroke-width:0.1;stroke-linecap:round;stroke-linejoin:round"
         id="path1675" /><path
         d="M 71.629522,62.739996 79.4925,61.1636 76.5384,58.9816 Z"
         style="fill:#807844;fill-opacity:1;stroke:none;stroke-width:0.1;stroke-linecap:round;stroke-linejoin:round"
         id="path1679" /><path
         d="M 86.4414,64.0506 90.0229,62.6773 86.1393,59.653 Z"
         style="fill:#323636;fill-opacity:1;stroke:none;stroke-width:0.1;stroke-linecap:round;stroke-linejoin:round"
         id="path1683" /><path
         d="M 79.4925,61.1636 86.1393,59.653 82.3124,57.5717 Z"
         style="fill:#7f7945;fill-opacity:1;stroke:none;stroke-width:0.1;stroke-linecap:round;stroke-linejoin:round"
         id="path1685" /><path
         d="M 64.3753,59.5092 67.7935,62.69 65.9182,59.3905 Z"
         style="fill:#756b52;fill-opacity:1;stroke:none;stroke-width:0.1;stroke-linecap:round;stroke-linejoin:round"
         id="path1687" /><path
         d="m 50.133,63.141 4.4626,-0.3323 -2.8485,-2.8485 z"
         style="fill:#515244;fill-opacity:1;stroke:none;stroke-width:0.1;stroke-linecap:round;stroke-linejoin:round"
         id="path1689" /><path
         d="M 61.242,62.6662 67.7935,62.69 64.3753,59.5092 Z"
         style="fill:#4e4e3f;fill-opacity:1;stroke:none;stroke-width:0.1;stroke-linecap:round;stroke-linejoin:round"
         id="path1693" /><path
         d="M 67.7935,62.69 71.629522,62.74 69.8685,59.6657 Z"
         style="fill:#534c44;fill-opacity:1;stroke:none;stroke-width:0.1;stroke-linecap:round;stroke-linejoin:round"
         id="path1695" /><path
         d="m 54.5956,62.8087 6.6464,-0.1425 -4.2964,-2.706 z"
         style="fill:#4e4e3e;fill-opacity:1;stroke:none;stroke-width:0.1;stroke-linecap:round;stroke-linejoin:round"
         id="path1697" /><path
         d="m 67.7935,62.69 3.5752,4.449 0.260822,-4.399004 z"
         style="fill:#7f6d5d;fill-opacity:1;stroke:none;stroke-width:0.1;stroke-linecap:round;stroke-linejoin:round"
         id="path1699" /><path
         d="m 61.242,62.6662 5.0242,4.2714 1.5273,-4.2476 z"
         style="fill:#5f463c;fill-opacity:1;stroke:none;stroke-width:0.1;stroke-linecap:round;stroke-linejoin:round"
         id="path1701" /><path
         d="m 47.8542,63.4258 2.0889,4.4152 0.1899,-4.7 z"
         style="fill:#43535c;fill-opacity:1;stroke:none;stroke-width:0.1;stroke-linecap:round;stroke-linejoin:round"
         id="path1703" /><path
         d="m 56.7794,67.9359 4.4626,-5.2697 -6.6464,0.1425 z"
         style="fill:#424f56;fill-opacity:1;stroke:none;stroke-width:0.1;stroke-linecap:round;stroke-linejoin:round"
         id="path1705" /><path
         d="M 61.5743,67.4612 66.2662,66.9376 61.242,62.6662 Z"
         style="fill:#525244;fill-opacity:1;stroke:none;stroke-width:0.1;stroke-linecap:round;stroke-linejoin:round"
         id="path1707" /><path
         d="M 66.2662,66.9376 71.3687,67.139 67.7935,62.69 Z"
         style="fill:#76785d;fill-opacity:1;stroke:none;stroke-width:0.1;stroke-linecap:round;stroke-linejoin:round"
         id="path1709" /><path
         d="m 56.7794,67.9359 4.7949,-0.4747 -0.3323,-4.795 z"
         style="fill:#46535a;fill-opacity:1;stroke:none;stroke-width:0.1;stroke-linecap:round;stroke-linejoin:round"
         id="path1711" /><path
         d="m 86.4414,64.0506 3.682,4.615 -0.1005,-5.9883 z"
         style="fill:#465952;fill-opacity:1;stroke:none;stroke-width:0.1;stroke-linecap:round;stroke-linejoin:round"
         id="path1713" /><path
         d="m 46.1279,63.9006 3.8152,3.9404 -2.0889,-4.4152 z"
         style="fill:#41535c;fill-opacity:1;stroke:none;stroke-width:0.1;stroke-linecap:round;stroke-linejoin:round"
         id="path1715" /><path
         d="M 49.9431,67.841 54.5956,62.8087 50.133,63.141 Z"
         style="fill:#424f56;fill-opacity:1;stroke:none;stroke-width:0.1;stroke-linecap:round;stroke-linejoin:round"
         id="path1717" /><path
         d="m 44.9108,69.0753 1.2171,-5.1747 -1.5713,0.117 z"
         style="fill:#635c59;fill-opacity:1;stroke:none;stroke-width:0.1;stroke-linecap:round;stroke-linejoin:round"
         id="path1719" /><path
         d="m 86.9785,68.9182 3.1449,-0.2526 -3.682,-4.615 z"
         style="fill:#262a28;fill-opacity:1;stroke:none;stroke-width:0.1;stroke-linecap:round;stroke-linejoin:round"
         id="path1721" /><path
         d="M 44.9108,69.0753 49.9431,67.841 46.1279,63.9006 Z"
         style="fill:#565f64;fill-opacity:1;stroke:none;stroke-width:0.1;stroke-linecap:round;stroke-linejoin:round"
         id="path1723" /><path
         d="m 49.9431,67.841 6.8363,0.0949 -2.1838,-5.1272 z"
         style="fill:#47565d;fill-opacity:1;stroke:none;stroke-width:0.1;stroke-linecap:round;stroke-linejoin:round"
         id="path1725" /><path
         d="m 66.2662,66.9376 4.6661,3.894 0.4364,-3.6926 z"
         style="fill:#524a30;fill-opacity:1;stroke:none;stroke-width:0.1;stroke-linecap:round;stroke-linejoin:round"
         id="path1733" /><path
         d="m 66.2997,71.4359 4.6326,-0.6043 -4.6661,-3.894 z"
         style="fill:#765e51;fill-opacity:1;stroke:none;stroke-width:0.1;stroke-linecap:round;stroke-linejoin:round"
         id="path1741" /><path
         d="m 61.5743,67.4612 4.7254,3.9747 -0.0335,-4.4983 z"
         style="fill:#3e4134;fill-opacity:1;stroke:none;stroke-width:0.1;stroke-linecap:round;stroke-linejoin:round"
         id="path1743" /><path
         d="M 52.2219,72.2086 56.7794,67.9359 49.9431,67.841 Z"
         style="fill:#47565d;fill-opacity:1;stroke:none;stroke-width:0.1;stroke-linecap:round;stroke-linejoin:round"
         id="path1745" /><path
         d="m 57.6339,71.8763 3.9404,-4.4151 -4.7949,0.4747 z"
         style="fill:#455258;fill-opacity:1;stroke:none;stroke-width:0.1;stroke-linecap:round;stroke-linejoin:round"
         id="path1747" /><path
         d="m 57.6339,71.8763 3.7031,-0.095 0.2373,-4.3201 z"
         style="fill:#3a464f;fill-opacity:1;stroke:none;stroke-width:0.1;stroke-linecap:round;stroke-linejoin:round"
         id="path1749" /><path
         d="m 44.9108,69.0753 3.0384,3.4182 1.9939,-4.6525 z"
         style="fill:#445058;fill-opacity:1;stroke:none;stroke-width:0.1;stroke-linecap:round;stroke-linejoin:round"
         id="path1751" /><path
         d="m 61.337,71.7813 4.9627,-0.3454 -4.7254,-3.9747 z"
         style="fill:#634e47;fill-opacity:1;stroke:none;stroke-width:0.1;stroke-linecap:round;stroke-linejoin:round"
         id="path1753" /><path
         d="m 45.1482,72.6834 2.801,-0.1899 -3.0384,-3.4182 z"
         style="fill:#616164;fill-opacity:1;stroke:none;stroke-width:0.1;stroke-linecap:round;stroke-linejoin:round"
         id="path1757" /><path
         d="M 47.9492,72.4935 52.2219,72.2086 49.9431,67.841 Z"
         style="fill:#43505a;fill-opacity:1;stroke:none;stroke-width:0.1;stroke-linecap:round;stroke-linejoin:round"
         id="path1759" /><path
         d="m 52.2219,72.2086 5.412,-0.3323 -0.8545,-3.9404 z"
         style="fill:#414f54;fill-opacity:1;stroke:none;stroke-width:0.1;stroke-linecap:round;stroke-linejoin:round"
         id="path1761" /><path
         d="M 86.71321,71.485899 90.1234,68.6656 86.9785,68.9182 Z"
         style="fill:#313838;fill-opacity:1;stroke:none;stroke-width:0.1;stroke-linecap:round;stroke-linejoin:round"
         id="path1763" /><path
         d="m 63.7149,75.1285 2.5848,-3.6926 -4.9627,0.3454 z"
         style="fill:#107a78;fill-opacity:1;stroke:none;stroke-width:0.1;stroke-linecap:round;stroke-linejoin:round"
         id="path1765" /><path
         d="m 66.2997,71.4359 4.2634,3.0884 0.3692,-3.6927 z"
         style="fill:#152a28;fill-opacity:1;stroke:none;stroke-width:0.1;stroke-linecap:round;stroke-linejoin:round"
         id="path1767" /><path
         d="m 73.7186,70.5631 3.8269,4.3976 1.7456,-3.592 z"
         style="fill:#696236;fill-opacity:1;stroke:none;stroke-width:0.1;stroke-linecap:round;stroke-linejoin:round"
         id="path1769" /><path
         d="m 62.1371,75.1285 h 1.5778 L 61.337,71.7813 Z"
         style="fill:#082329;fill-opacity:1;stroke:none;stroke-width:0.1;stroke-linecap:round;stroke-linejoin:round"
         id="path1771" /><path
         d="M 86.71321,71.485899 90.7047,74.7928 90.1234,68.6656 Z"
         style="fill:#3f5951;fill-opacity:1;stroke:none;stroke-width:0.1;stroke-linecap:round;stroke-linejoin:round"
         id="path1773" /><path
         d="m 70.5631,74.5243 3.1555,-3.9612 -2.7863,0.2685 z"
         style="fill:#555951;fill-opacity:1;stroke:none;stroke-width:0.1;stroke-linecap:round;stroke-linejoin:round"
         id="path1775" /><path
         d="M 82.2452,75.8335 86.71321,71.485899 79.2911,71.3687 Z"
         style="fill:#676336;fill-opacity:1;stroke:none;stroke-width:0.1;stroke-linecap:round;stroke-linejoin:round"
         id="path1777" /><path
         d="m 57.6052,75.3971 3.7318,-3.6158 -3.7031,0.095 z"
         style="fill:#291f1b;fill-opacity:1;stroke:none;stroke-width:0.1;stroke-linecap:round;stroke-linejoin:round"
         id="path1779" /><path
         d="m 63.7149,75.1285 2.668395,-0.05 -0.0836,-3.642602 z"
         style="fill:#0b676a;fill-opacity:1;stroke:none;stroke-width:0.1;stroke-linecap:round;stroke-linejoin:round"
         id="path1781" /><path
         d="m 72.2751,76.3035 1.4435,-5.7404 -3.1555,3.9612 z"
         style="fill:#6d7360;fill-opacity:1;stroke:none;stroke-width:0.1;stroke-linecap:round;stroke-linejoin:round"
         id="path1783" /><path
         d="M 57.6052,75.3971 62.1371,75.1285 61.337,71.7813 Z"
         style="fill:#40453b;fill-opacity:1;stroke:none;stroke-width:0.1;stroke-linecap:round;stroke-linejoin:round"
         id="path1785" /><path
         d="M 66.383295,75.078502 70.5631,74.5243 66.2997,71.4359 Z"
         style="fill:#0f7472;fill-opacity:1;stroke:none;stroke-width:0.1;stroke-linecap:round;stroke-linejoin:round"
         id="path1787" /><path
         d="m 52.2219,72.2086 5.3833,3.1885 0.0287,-3.5208 z"
         style="fill:#13625e;fill-opacity:1;stroke:none;stroke-width:0.1;stroke-linecap:round;stroke-linejoin:round"
         id="path1789" /><path
         d="m 77.5455,74.9607 4.6997,0.8728 -2.9541,-4.4648 z"
         style="fill:#615c34;fill-opacity:1;stroke:none;stroke-width:0.1;stroke-linecap:round;stroke-linejoin:round"
         id="path1791" /><path
         d="m 47.9492,72.4935 4.3856,3.34 -0.1129,-3.6249 z"
         style="fill:#534d31;fill-opacity:1;stroke:none;stroke-width:0.1;stroke-linecap:round;stroke-linejoin:round"
         id="path1793" /><path
         d="m 52.3348,75.8335 5.2704,-0.4364 -5.3833,-3.1885 z"
         style="fill:#0f8581;fill-opacity:1;stroke:none;stroke-width:0.1;stroke-linecap:round;stroke-linejoin:round"
         id="path1797" /><path
         d="m 72.2751,76.3035 5.2704,-1.3428 -3.8269,-4.3976 z"
         style="fill:#5d562d;fill-opacity:1;stroke:none;stroke-width:0.1;stroke-linecap:round;stroke-linejoin:round"
         id="path1799" /><path
         d="m 72.2751,76.3035 4.0955,1.0406 1.1749,-2.3834 z"
         style="fill:#57522c;fill-opacity:1;stroke:none;stroke-width:0.1;stroke-linecap:round;stroke-linejoin:round"
         id="path1803" /><path
         d="m 49.3471,78.0491 2.9877,-2.2156 -4.3856,-3.34 z"
         style="fill:#b4b35f;fill-opacity:1;stroke:none;stroke-width:0.1;stroke-linecap:round;stroke-linejoin:round"
         id="path1805" /><path
         d="m 86.475,78.2505 4.2297,-3.4577 -3.99149,-3.306901 z"
         style="fill:#33342d;fill-opacity:1;stroke:none;stroke-width:0.1;stroke-linecap:round;stroke-linejoin:round"
         id="path1807" /><path
         d="m 82.2452,75.8335 4.2298,2.417 0.23821,-6.764601 z"
         style="fill:#5c5831;fill-opacity:1;stroke:none;stroke-width:0.1;stroke-linecap:round;stroke-linejoin:round"
         id="path1809" /><path
         d="m 86.475,78.2505 1.5442,0.2685 2.6855,-3.7262 z"
         style="fill:#1f1c14;fill-opacity:1;stroke:none;stroke-width:0.1;stroke-linecap:round;stroke-linejoin:round"
         id="path1811" /><path
         d="m 62.5735,78.9554 1.1414,-3.8269 h -1.5778 z"
         style="fill:#533d3f;fill-opacity:1;stroke:none;stroke-width:0.1;stroke-linecap:round;stroke-linejoin:round"
         id="path1813" /><path
         d="M 62.5735,78.9554 66.3333,76.337 63.7149,75.1285 Z"
         style="fill:#581e1c;fill-opacity:1;stroke:none;stroke-width:0.1;stroke-linecap:round;stroke-linejoin:round"
         id="path1817" /><path
         d="m 82.111,79.0226 4.364,-0.7721 -4.2298,-2.417 z"
         style="fill:#4c4626;fill-opacity:1;stroke:none;stroke-width:0.1;stroke-linecap:round;stroke-linejoin:round"
         id="path1819" /><path
         d="m 77.5455,74.9607 4.5655,4.0619 0.1342,-3.1891 z"
         style="fill:#4e4824;fill-opacity:1;stroke:none;stroke-width:0.1;stroke-linecap:round;stroke-linejoin:round"
         id="path1825" /><path
         d="m 66.3333,76.337 3.7262,3.0884 0.1343,-2.6855 z"
         style="fill:#5f1a1b;fill-opacity:1;stroke:none;stroke-width:0.1;stroke-linecap:round;stroke-linejoin:round"
         id="path1827" /><path
         d="m 76.3706,77.3441 5.7404,1.6785 -4.5655,-4.0619 z"
         style="fill:#4e4824;fill-opacity:1;stroke:none;stroke-width:0.1;stroke-linecap:round;stroke-linejoin:round"
         id="path1831" /><path
         d="m 82.111,79.0226 4.3304,1.2085 0.0336,-1.9806 z"
         style="fill:#524e24;fill-opacity:1;stroke:none;stroke-width:0.1;stroke-linecap:round;stroke-linejoin:round"
         id="path1833" /><path
         d="m 88.2877,81.7417 1.9135,0.1679 -2.182,-3.3906 z"
         style="fill:#232524;fill-opacity:1;stroke:none;stroke-width:0.1;stroke-linecap:round;stroke-linejoin:round"
         id="path1839" /><path
         d="m 90.2012,81.9096 0.5035,-7.1168 -2.6855,3.7262 z"
         style="fill:#353836;fill-opacity:1;stroke:none;stroke-width:0.1;stroke-linecap:round;stroke-linejoin:round"
         id="path1841" /><path
         d="m 62.5735,78.9554 7.486,0.47 -3.7262,-3.0884 z"
         style="fill:#591f1e;fill-opacity:1;stroke:none;stroke-width:0.1;stroke-linecap:round;stroke-linejoin:round"
         id="path1845" /></g></g><metadata
     id="metadata132"><rdf:RDF><cc:License
         rdf:about="http://creativecommons.org/licenses/by-sa/4.0/"><cc:permits
           rdf:resource="http://creativecommons.org/ns#Reproduction" /><cc:permits
           rdf:resource="http://creativecommons.org/ns#Distribution" /><cc:requires
           rdf:resource="http://creativecommons.org/ns#Notice" /><cc:requires
           rdf:resource="http://creativecommons.org/ns#Attribution" /><cc:permits
           rdf:resource="http://creativecommons.org/ns#DerivativeWorks" /><cc:requires
           rdf:resource="http://creativecommons.org/ns#ShareAlike" /></cc:License><cc:Work
         rdf:about=""><cc:license
           rdf:resource="http://creativecommons.org/licenses/by-sa/4.0/" /></cc:Work></rdf:RDF></metadata></svg>
