<?xml version="1.0" encoding="UTF-8" standalone="no"?>
<!-- Created with Inkscape (http://www.inkscape.org/) -->

<svg
   width="512"
   height="512"
   viewBox="0 0 135.46666 135.46667"
   version="1.1"
   id="svg5"
   xml:space="preserve"
   xmlns="http://www.w3.org/2000/svg"
   xmlns:svg="http://www.w3.org/2000/svg"
   xmlns:rdf="http://www.w3.org/1999/02/22-rdf-syntax-ns#"
   xmlns:cc="http://creativecommons.org/ns#"><defs
     id="defs2" /><g
     id="layer1"><g
       id="g408289"
       transform="translate(-0.0840675,-0.0600675)"><path
         d="m 34.0392,36.8876 3.4181,-3.6555 -2.801,-2.2313 z"
         style="fill:#443d30;fill-opacity:1;stroke:none;stroke-width:0.1;stroke-linecap:round;stroke-linejoin:round"
         id="path2863" /><path
         d="m 34.0392,36.8876 6.1716,-1.1393 -2.7535,-2.5162 z"
         style="fill:#494033;fill-opacity:1;stroke:none;stroke-width:0.1;stroke-linecap:round;stroke-linejoin:round"
         id="path2865" /><path
         d="m 34.0392,36.8876 3.8454,3.5131 2.3262,-4.6524 z"
         style="fill:#4e4437;fill-opacity:1;stroke:none;stroke-width:0.1;stroke-linecap:round;stroke-linejoin:round"
         id="path2867" /><path
         d="m 37.8846,40.4007 4.6525,-2.5636 -2.3263,-2.0888 z"
         style="fill:#4a4336;fill-opacity:1;stroke:none;stroke-width:0.1;stroke-linecap:round;stroke-linejoin:round"
         id="path2869" /><path
         d="m 33.1846,42.3472 4.7,-1.9465 -3.8454,-3.5131 z"
         style="fill:#443c30;fill-opacity:1;stroke:none;stroke-width:0.1;stroke-linecap:round;stroke-linejoin:round"
         id="path2871" /><path
         d="m 37.8846,40.4007 3.7979,2.7061 0.8546,-5.2697 z"
         style="fill:#584e3f;fill-opacity:1;stroke:none;stroke-width:0.1;stroke-linecap:round;stroke-linejoin:round"
         id="path2873" /><path
         d="m 41.6825,43.1068 3.5606,-3.1808 -2.706,-2.0889 z"
         style="fill:#605442;fill-opacity:1;stroke:none;stroke-width:0.1;stroke-linecap:round;stroke-linejoin:round"
         id="path2875" /><path
         d="m 33.1846,42.3472 3.798,3.4182 0.902,-5.3647 z"
         style="fill:#3d372d;fill-opacity:1;stroke:none;stroke-width:0.1;stroke-linecap:round;stroke-linejoin:round"
         id="path2893" /><path
         d="m 36.9826,45.7654 4.6999,-2.6586 -3.7979,-2.7061 z"
         style="fill:#453d32;fill-opacity:1;stroke:none;stroke-width:0.1;stroke-linecap:round;stroke-linejoin:round"
         id="path2901" /><path
         d="M 78.7601,46.8573 82.8429,45.528 78.0958,44.2936 Z"
         style="fill:#4f3e22;fill-opacity:1;stroke:none;stroke-width:0.1;stroke-linecap:round;stroke-linejoin:round"
         id="path2905" /><path
         d="m 32.8998,47.1421 4.0828,-1.3767 -3.798,-3.4182 z"
         style="fill:#483f32;fill-opacity:1;stroke:none;stroke-width:0.1;stroke-linecap:round;stroke-linejoin:round"
         id="path2907" /><path
         d="m 41.6825,43.1068 7.6434,0.2374 -4.0828,-3.4182 z"
         style="fill:#5a5040;fill-opacity:1;stroke:none;stroke-width:0.1;stroke-linecap:round;stroke-linejoin:round"
         id="path2909" /><path
         d="m 64.8975,45.528 2.6586,1.9464 -0.4273,-2.147594 z"
         style="fill:#b9b9b9;fill-opacity:1;stroke:none;stroke-width:0.1;stroke-linecap:round;stroke-linejoin:round"
         id="path2911" /><path
         d="m 75.247,45.8603 3.5131,0.997 -0.6643,-2.5637 z"
         style="fill:#342c15;fill-opacity:1;stroke:none;stroke-width:0.1;stroke-linecap:round;stroke-linejoin:round"
         id="path2913" /><path
         d="m 78.7601,46.8573 2.4212,1.0444 1.6616,-2.3737 z"
         style="fill:#7b8fad;fill-opacity:1;stroke:none;stroke-width:0.1;stroke-linecap:round;stroke-linejoin:round"
         id="path2917" /><path
         d="m 41.6825,43.1068 4.5576,4.8424 3.0858,-4.605 z"
         style="fill:#615443;fill-opacity:1;stroke:none;stroke-width:0.1;stroke-linecap:round;stroke-linejoin:round"
         id="path2919" /><path
         d="m 81.1813,47.9017 1.9464,0.6646 -0.2848,-3.0383 z"
         style="fill:#8e9fc3;fill-opacity:1;stroke:none;stroke-width:0.1;stroke-linecap:round;stroke-linejoin:round"
         id="path2925" /><path
         d="m 36.9826,45.7654 3.703,2.9434 0.9969,-5.602 z"
         style="fill:#4d4438;fill-opacity:1;stroke:none;stroke-width:0.1;stroke-linecap:round;stroke-linejoin:round"
         id="path2927" /><path
         d="m 83.1277,48.5663 2.801,-1.1393 -3.0858,-1.899 z"
         style="fill:#6c7c95;fill-opacity:1;stroke:none;stroke-width:0.1;stroke-linecap:round;stroke-linejoin:round"
         id="path2929" /><path
         d="m 75.4369,48.329 3.3232,-1.4717 -3.5131,-0.997 z"
         style="fill:#4b381f;fill-opacity:1;stroke:none;stroke-width:0.1;stroke-linecap:round;stroke-linejoin:round"
         id="path2931" /><path
         d="m 46.2401,47.9492 4.9373,-2.9434 -1.8515,-1.6616 z"
         style="fill:#585043;fill-opacity:1;stroke:none;stroke-width:0.1;stroke-linecap:round;stroke-linejoin:round"
         id="path2933" /><path
         d="m 72.1611,49.231 0.3323,-4.0828 -1.804,0.902 z"
         style="fill:none;stroke:none;stroke-width:0.1;stroke-linecap:round;stroke-linejoin:round"
         id="path2935" /><path
         d="m 69.8823,47.7118 2.2788,1.5192 -1.4717,-3.1808 z"
         style="fill:#171516;fill-opacity:1;stroke:none;stroke-width:0.1;stroke-linecap:round;stroke-linejoin:round"
         id="path2939" /><path
         d="m 34.9886,49.3734 1.994,-3.608 -4.0828,1.3767 z"
         style="fill:#3a352c;fill-opacity:1;stroke:none;stroke-width:0.1;stroke-linecap:round;stroke-linejoin:round"
         id="path2941" /><path
         d="M 72.4934,45.1482 75.4369,48.329 75.247,45.8603 Z"
         style="fill:#7b6031;fill-opacity:1;stroke:none;stroke-width:0.1;stroke-linecap:round;stroke-linejoin:round"
         id="path2943" /><path
         d="m 72.1611,49.231 3.2758,-0.902 -2.9435,-3.1808 z"
         style="fill:#917336;fill-opacity:1;stroke:none;stroke-width:0.1;stroke-linecap:round;stroke-linejoin:round"
         id="path2945" /><path
         d="m 40.6856,48.7088 5.5545,-0.7596 -4.5576,-4.8424 z"
         style="fill:#4d4539;fill-opacity:1;stroke:none;stroke-width:0.1;stroke-linecap:round;stroke-linejoin:round"
         id="path2947" /><path
         d="m 78.7601,46.8573 0.8545,2.9909 1.5667,-1.9465 z"
         style="fill:#7b8faf;fill-opacity:1;stroke:none;stroke-width:0.1;stroke-linecap:round;stroke-linejoin:round"
         id="path2949" /><path
         d="m 50.133,49.8007 2.6111,-1.0445 -1.5667,-3.7504 z"
         style="fill:#6a5e33;fill-opacity:1;stroke:none;stroke-width:0.1;stroke-linecap:round;stroke-linejoin:round"
         id="path2951" /><path
         d="m 70.3571,49.7532 1.804,-0.5222 -2.2788,-1.5192 z"
         style="fill:#6c6b69;fill-opacity:1;stroke:none;stroke-width:0.1;stroke-linecap:round;stroke-linejoin:round"
         id="path2953" /><path
         d="m 46.2401,47.9492 3.8929,1.8515 1.0444,-4.7949 z"
         style="fill:#6b5f4d;fill-opacity:1;stroke:none;stroke-width:0.1;stroke-linecap:round;stroke-linejoin:round"
         id="path2955" /><path
         d="m 83.1277,48.5663 3.1808,1.3768 -0.3798,-2.5161 z"
         style="fill:#343539;fill-opacity:1;stroke:none;stroke-width:0.1;stroke-linecap:round;stroke-linejoin:round"
         id="path2957" /><path
         d="m 67.5561,47.4744 2.801,2.2788 -0.4748,-2.0414 z"
         style="fill:#494949;fill-opacity:1;stroke:none;stroke-width:0.1;stroke-linecap:round;stroke-linejoin:round"
         id="path2959" /><path
         d="m 75.4369,48.329 4.1777,1.5192 -0.8545,-2.9909 z"
         style="fill:#57637a;fill-opacity:1;stroke:none;stroke-width:0.1;stroke-linecap:round;stroke-linejoin:round"
         id="path2961" /><path
         d="m 37.2674,51.2724 -0.2848,-5.507 -1.994,3.608 z"
         style="fill:#3d382d;fill-opacity:1;stroke:none;stroke-width:0.1;stroke-linecap:round;stroke-linejoin:round"
         id="path2963" /><path
         d="m 37.2674,51.2724 3.4182,-2.5636 -3.703,-2.9434 z"
         style="fill:#51483a;fill-opacity:1;stroke:none;stroke-width:0.1;stroke-linecap:round;stroke-linejoin:round"
         id="path2965" /><path
         d="M 56.607053,47.403254 60.245,51.3673 l 0.4748,-5.412 z"
         style="fill:#737373;fill-opacity:1;stroke:none;stroke-width:0.1;stroke-linecap:round;stroke-linejoin:round"
         id="path2967" /><path
         d="m 64.8975,45.528 1.7091,5.2696 0.9495,-3.3232 z"
         style="fill:#7d7d7d;fill-opacity:1;stroke:none;stroke-width:0.1;stroke-linecap:round;stroke-linejoin:round"
         id="path2969" /><path
         d="m 81.1813,47.9017 1.4717,3.3707 0.4747,-2.7061 z"
         style="fill:#46515f;fill-opacity:1;stroke:none;stroke-width:0.1;stroke-linecap:round;stroke-linejoin:round"
         id="path2971" /><path
         d="m 66.6066,50.7976 3.7505,-1.0444 -2.801,-2.2788 z"
         style="fill:#7e7e7e;fill-opacity:1;stroke:none;stroke-width:0.1;stroke-linecap:round;stroke-linejoin:round"
         id="path2973" /><path
         d="m 72.1611,49.231 2.6111,2.2313 0.6647,-3.1333 z"
         style="fill:#667696;fill-opacity:1;stroke:none;stroke-width:0.1;stroke-linecap:round;stroke-linejoin:round"
         id="path2975" /><path
         d="m 79.6146,49.8482 3.0384,1.4242 -1.4717,-3.3707 z"
         style="fill:#242c3d;fill-opacity:1;stroke:none;stroke-width:0.1;stroke-linecap:round;stroke-linejoin:round"
         id="path2977" /><path
         d="m 82.653,51.2724 3.6555,-1.3293 -3.1808,-1.3768 z"
         style="fill:#727d88;fill-opacity:1;stroke:none;stroke-width:0.1;stroke-linecap:round;stroke-linejoin:round"
         id="path2979" /><path
         d="m 75.4369,48.329 2.5636,3.9403 1.6141,-2.4211 z"
         style="fill:#3b4254;fill-opacity:1;stroke:none;stroke-width:0.1;stroke-linecap:round;stroke-linejoin:round"
         id="path2981" /><path
         d="m 74.7722,51.4623 3.2283,0.807 -2.5636,-3.9403 z"
         style="fill:#6b7c97;fill-opacity:1;stroke:none;stroke-width:0.1;stroke-linecap:round;stroke-linejoin:round"
         id="path2983" /><path
         d="m 60.245,51.3673 4.6525,-5.8393 -4.1777,0.4273 z"
         style="fill:#777777;fill-opacity:1;stroke:none;stroke-width:0.1;stroke-linecap:round;stroke-linejoin:round"
         id="path2985" /><path
         d="M 60.245,51.3673 66.6066,50.7976 64.8975,45.528 Z"
         style="fill:#7a7a7a;fill-opacity:1;stroke:none;stroke-width:0.1;stroke-linecap:round;stroke-linejoin:round"
         id="path2987" /><path
         d="m 51.7946,52.934 0.9495,-4.1778 -2.6111,1.0445 z"
         style="fill:#6b5b35;fill-opacity:1;stroke:none;stroke-width:0.1;stroke-linecap:round;stroke-linejoin:round"
         id="path2989" /><path
         d="m 39.7836,53.7411 0.902,-5.0323 -3.4182,2.5636 z"
         style="fill:#4c4337;fill-opacity:1;stroke:none;stroke-width:0.1;stroke-linecap:round;stroke-linejoin:round"
         id="path2991" /><path
         d="m 40.6856,48.7088 4.0353,5.0323 1.5192,-5.7919 z"
         style="fill:#4e4539;fill-opacity:1;stroke:none;stroke-width:0.1;stroke-linecap:round;stroke-linejoin:round"
         id="path2993" /><path
         d="M 80.4217,53.8835 82.653,51.2724 79.6146,49.8482 Z"
         style="fill:#2f3137;fill-opacity:1;stroke:none;stroke-width:0.1;stroke-linecap:round;stroke-linejoin:round"
         id="path2995" /><path
         d="m 78.0005,52.2693 2.4212,1.6142 -0.8071,-4.0353 z"
         style="fill:#16161a;fill-opacity:1;stroke:none;stroke-width:0.1;stroke-linecap:round;stroke-linejoin:round"
         id="path2997" /><path
         d="m 75.6742,53.8835 2.3263,-1.6142 -3.2283,-0.807 z"
         style="fill:#201f20;fill-opacity:1;stroke:none;stroke-width:0.1;stroke-linecap:round;stroke-linejoin:round"
         id="path2999" /><path
         d="m 60.245,51.3673 3.6556,2.8485 2.706,-3.4182 z"
         style="fill:#636363;fill-opacity:1;stroke:none;stroke-width:0.1;stroke-linecap:round;stroke-linejoin:round"
         id="path3001" /><path
         d="M 44.7209,53.7411 50.133,49.8007 46.2401,47.9492 Z"
         style="fill:#544c3b;fill-opacity:1;stroke:none;stroke-width:0.1;stroke-linecap:round;stroke-linejoin:round"
         id="path3003" /><path
         d="m 39.7836,53.7411 h 4.9373 l -4.0353,-5.0323 z"
         style="fill:#554d3c;fill-opacity:1;stroke:none;stroke-width:0.1;stroke-linecap:round;stroke-linejoin:round"
         id="path3005" /><path
         d="m 70.3571,49.7532 4.4151,1.7091 -2.6111,-2.2313 z"
         style="fill:#656568;fill-opacity:1;stroke:none;stroke-width:0.1;stroke-linecap:round;stroke-linejoin:round"
         id="path3007" /><path
         d="M 51.7946,52.934 56.607053,47.403254 52.7441,48.7562 Z"
         style="fill:#49361e;fill-opacity:1;stroke:none;stroke-width:0.1;stroke-linecap:round;stroke-linejoin:round"
         id="path3009" /><path
         d="m 82.653,51.2724 2.5636,4.0828 1.0919,-5.4121 z"
         style="fill:#1a2230;fill-opacity:1;stroke:none;stroke-width:0.1;stroke-linecap:round;stroke-linejoin:round"
         id="path3011" /><path
         d="M 85.2166,55.3552 88.065,53.1239 86.3085,49.9431 Z"
         style="fill:#74786d;fill-opacity:1;stroke:none;stroke-width:0.1;stroke-linecap:round;stroke-linejoin:round"
         id="path3013" /><path
         d="m 50.133,49.8007 -1.3293,5.7444 2.9909,-2.6111 z"
         style="fill:#5a4e2d;fill-opacity:1;stroke:none;stroke-width:0.1;stroke-linecap:round;stroke-linejoin:round"
         id="path3015" /><path
         d="m 44.7209,53.7411 4.0828,1.804 1.3293,-5.7444 z"
         style="fill:#52493d;fill-opacity:1;stroke:none;stroke-width:0.1;stroke-linecap:round;stroke-linejoin:round"
         id="path3017" /><path
         d="m 71.6389,55.8299 3.1333,-4.3676 -4.4151,-1.7091 z"
         style="fill:#818181;fill-opacity:1;stroke:none;stroke-width:0.1;stroke-linecap:round;stroke-linejoin:round"
         id="path3019" /><path
         d="m 71.6389,55.8299 4.0353,-1.9464 -0.902,-2.4212 z"
         style="fill:#848483;fill-opacity:1;stroke:none;stroke-width:0.1;stroke-linecap:round;stroke-linejoin:round"
         id="path3023" /><path
         d="m 39.7836,53.7411 2.6111,2.6585 2.3262,-2.6585 z"
         style="fill:#474135;fill-opacity:1;stroke:none;stroke-width:0.1;stroke-linecap:round;stroke-linejoin:round"
         id="path3025" /><path
         d="m 80.4217,53.8835 4.7949,1.4717 -2.5636,-4.0828 z"
         style="fill:#1c1b1b;fill-opacity:1;stroke:none;stroke-width:0.1;stroke-linecap:round;stroke-linejoin:round"
         id="path3027" /><path
         d="M 56.607053,47.403254 57.0168,56.4471 60.245,51.3673 Z"
         style="fill:#2b1a09;fill-opacity:1;stroke:none;stroke-width:0.1;stroke-linecap:round;stroke-linejoin:round"
         id="path3029" /><path
         d="m 85.2166,55.3552 2.2313,1.1394 0.6171,-3.3707 z"
         style="fill:#0f1622;fill-opacity:1;stroke:none;stroke-width:0.1;stroke-linecap:round;stroke-linejoin:round"
         id="path3031" /><path
         d="m 51.7946,52.934 5.2222,3.5131 -0.409747,-9.043846 z"
         style="fill:#201406;fill-opacity:1;stroke:none;stroke-width:0.1;stroke-linecap:round;stroke-linejoin:round"
         id="path3033" /><path
         d="m 66.6066,50.7976 5.0323,5.0323 -1.2818,-6.0767 z"
         style="fill:#7e7d7d;fill-opacity:1;stroke:none;stroke-width:0.1;stroke-linecap:round;stroke-linejoin:round"
         id="path3035" /><path
         d="m 67.1288,57.3016 -0.5222,-6.504 -2.706,3.4182 z"
         style="fill:#737373;fill-opacity:1;stroke:none;stroke-width:0.1;stroke-linecap:round;stroke-linejoin:round"
         id="path3037" /><path
         d="m 50.7502,57.3491 1.0444,-4.4151 -2.9909,2.6111 z"
         style="fill:#615731;fill-opacity:1;stroke:none;stroke-width:0.1;stroke-linecap:round;stroke-linejoin:round"
         id="path3039" /><path
         d="m 75.6742,53.8835 h 4.7475 l -2.4212,-1.6142 z"
         style="fill:#18161b;fill-opacity:1;stroke:none;stroke-width:0.1;stroke-linecap:round;stroke-linejoin:round"
         id="path3041" /><path
         d="m 67.1288,57.3016 4.5101,-1.4717 -5.0323,-5.0323 z"
         style="fill:#7b7b7b;fill-opacity:1;stroke:none;stroke-width:0.1;stroke-linecap:round;stroke-linejoin:round"
         id="path3043" /><path
         d="m 82.3681,57.5865 2.8485,-2.2313 -4.7949,-1.4717 z"
         style="fill:#535353;fill-opacity:1;stroke:none;stroke-width:0.1;stroke-linecap:round;stroke-linejoin:round"
         id="path3045" /><path
         d="m 75.6742,53.8835 3.798,4.0353 0.9495,-4.0353 z"
         style="fill:#86868a;fill-opacity:1;stroke:none;stroke-width:0.1;stroke-linecap:round;stroke-linejoin:round"
         id="path3047" /><path
         d="m 79.4722,57.9188 2.8959,-0.3323 -1.9464,-3.703 z"
         style="fill:#2b2c2c;fill-opacity:1;stroke:none;stroke-width:0.1;stroke-linecap:round;stroke-linejoin:round"
         id="path3049" /><path
         d="M 57.0168,56.4471 63.9006,54.2158 60.245,51.3673 Z"
         style="fill:#291909;fill-opacity:1;stroke:none;stroke-width:0.1;stroke-linecap:round;stroke-linejoin:round"
         id="path3051" /><path
         d="m 44.5785,58.6309 0.1424,-4.8898 -2.3262,2.6585 z"
         style="fill:#4a4334;fill-opacity:1;stroke:none;stroke-width:0.1;stroke-linecap:round;stroke-linejoin:round"
         id="path3053" /><path
         d="m 44.5785,58.6309 4.2252,-3.0858 -4.0828,-1.804 z"
         style="fill:#625b48;fill-opacity:1;stroke:none;stroke-width:0.1;stroke-linecap:round;stroke-linejoin:round"
         id="path3055" /><path
         d="m 50.7502,57.3491 6.2666,-0.902 -5.2222,-3.5131 z"
         style="fill:#251708;fill-opacity:1;stroke:none;stroke-width:0.1;stroke-linecap:round;stroke-linejoin:round"
         id="path3057" /><path
         d="m 85.2166,55.3552 0.8545,4.7 1.3768,-3.5606 z"
         style="fill:#969f8d;fill-opacity:1;stroke:none;stroke-width:0.1;stroke-linecap:round;stroke-linejoin:round"
         id="path3059" /><path
         d="m 82.3681,57.5865 3.703,2.4687 -0.8545,-4.7 z"
         style="fill:#5d697e;fill-opacity:1;stroke:none;stroke-width:0.1;stroke-linecap:round;stroke-linejoin:round"
         id="path3061" /><path
         d="m 75.6742,53.8835 2.0889,6.3615 1.7091,-2.3262 z"
         style="fill:#bdbfc8;fill-opacity:1;stroke:none;stroke-width:0.1;stroke-linecap:round;stroke-linejoin:round"
         id="path3063" /><path
         d="m 79.4722,57.9188 1.7091,3.1333 1.1868,-3.4656 z"
         style="fill:#98b2e2;fill-opacity:1;stroke:none;stroke-width:0.1;stroke-linecap:round;stroke-linejoin:round"
         id="path3065" /><path
         d="m 44.5785,58.6309 3.1333,2.5162 1.0919,-5.602 z"
         style="fill:#4e4639;fill-opacity:1;stroke:none;stroke-width:0.1;stroke-linecap:round;stroke-linejoin:round"
         id="path3067" /><path
         d="m 58.3461,60.1501 5.5545,-5.9343 -6.8838,2.2313 z"
         style="fill:#261808;fill-opacity:1;stroke:none;stroke-width:0.1;stroke-linecap:round;stroke-linejoin:round"
         id="path3069" /><path
         d="m 47.7118,61.1471 3.0384,-3.798 -1.9465,-1.804 z"
         style="fill:#605733;fill-opacity:1;stroke:none;stroke-width:0.1;stroke-linecap:round;stroke-linejoin:round"
         id="path3071" /><path
         d="m 50.7502,57.3491 3.703,3.798 2.5636,-4.7 z"
         style="fill:#1f1407;fill-opacity:1;stroke:none;stroke-width:0.1;stroke-linecap:round;stroke-linejoin:round"
         id="path3073" /><path
         d="m 57.0168,56.4471 -0.4273,4.8899 1.7566,-1.1869 z"
         style="fill:#29180a;fill-opacity:1;stroke:none;stroke-width:0.1;stroke-linecap:round;stroke-linejoin:round"
         id="path3075" /><path
         d="m 71.6389,55.8299 6.1242,4.4151 -2.0889,-6.3615 z"
         style="fill:#a8a8a8;fill-opacity:1;stroke:none;stroke-width:0.1;stroke-linecap:round;stroke-linejoin:round"
         id="path3077" /><path
         d="m 54.4532,61.1471 2.1363,0.1899 0.4273,-4.8899 z"
         style="fill:#261b09;fill-opacity:1;stroke:none;stroke-width:0.1;stroke-linecap:round;stroke-linejoin:round"
         id="path3079" /><path
         d="m 77.7631,60.245 3.4182,0.8071 -1.7091,-3.1333 z"
         style="fill:#313342;fill-opacity:1;stroke:none;stroke-width:0.1;stroke-linecap:round;stroke-linejoin:round"
         id="path3081" /><path
         d="m 82.3681,57.5865 1.7566,4.5575 1.9464,-2.0888 z"
         style="fill:#212224;fill-opacity:1;stroke:none;stroke-width:0.1;stroke-linecap:round;stroke-linejoin:round"
         id="path3083" /><path
         d="m 81.1813,61.0521 2.9434,1.0919 -1.7566,-4.5575 z"
         style="fill:#181c22;fill-opacity:1;stroke:none;stroke-width:0.1;stroke-linecap:round;stroke-linejoin:round"
         id="path3085" /><path
         d="M 73.8702,62.2865 77.7631,60.245 71.6389,55.8299 Z"
         style="fill:#a8a8a8;fill-opacity:1;stroke:none;stroke-width:0.1;stroke-linecap:round;stroke-linejoin:round"
         id="path3087" /><path
         d="m 56.5895,61.337 1.7566,1.4242 v -2.6111 z"
         style="fill:#a07707;fill-opacity:1;stroke:none;stroke-width:0.1;stroke-linecap:round;stroke-linejoin:round"
         id="path3089" /><path
         d="m 58.3461,60.1501 8.7827,-2.8485 -3.2282,-3.0858 z"
         style="fill:#241707;fill-opacity:1;stroke:none;stroke-width:0.1;stroke-linecap:round;stroke-linejoin:round"
         id="path3091" /><path
         d="m 49.3734,63.046 1.3768,-5.6969 -3.0384,3.798 z"
         style="fill:#5f512f;fill-opacity:1;stroke:none;stroke-width:0.1;stroke-linecap:round;stroke-linejoin:round"
         id="path3093" /><path
         d="m 50.7502,57.3491 2.706,5.3172 0.997,-1.5192 z"
         style="fill:#231605;fill-opacity:1;stroke:none;stroke-width:0.1;stroke-linecap:round;stroke-linejoin:round"
         id="path3095" /><path
         d="m 69.6924,63.4733 1.9465,-7.6434 -4.5101,1.4717 z"
         style="fill:#949494;fill-opacity:1;stroke:none;stroke-width:0.1;stroke-linecap:round;stroke-linejoin:round"
         id="path3097" /><path
         d="m 61.5268,63.4258 5.602,-6.1242 -8.7827,2.8485 z"
         style="fill:#301e09;fill-opacity:1;stroke:none;stroke-width:0.1;stroke-linecap:round;stroke-linejoin:round"
         id="path3099" /><path
         d="m 49.3734,63.046 4.0828,-0.3797 -2.706,-5.3172 z"
         style="fill:#25190c;fill-opacity:1;stroke:none;stroke-width:0.1;stroke-linecap:round;stroke-linejoin:round"
         id="path3101" /><path
         d="m 61.5268,63.4258 3.6081,-0.3323 1.9939,-5.7919 z"
         style="fill:#2f1e08;fill-opacity:1;stroke:none;stroke-width:0.1;stroke-linecap:round;stroke-linejoin:round"
         id="path3103" /><path
         d="m 69.6924,63.4733 4.1778,-1.1868 -2.2313,-6.4566 z"
         style="fill:#a7a7a7;fill-opacity:1;stroke:none;stroke-width:0.1;stroke-linecap:round;stroke-linejoin:round"
         id="path3105" /><path
         d="m 58.3461,62.7612 3.1807,0.6646 -3.1807,-3.2757 z"
         style="fill:#ca9508;fill-opacity:1;stroke:none;stroke-width:0.1;stroke-linecap:round;stroke-linejoin:round"
         id="path3107" /><path
         d="m 54.4532,61.1471 1.4717,2.6111 0.6646,-2.4212 z"
         style="fill:#9d6a11;fill-opacity:1;stroke:none;stroke-width:0.1;stroke-linecap:round;stroke-linejoin:round"
         id="path3109" /><path
         d="m 53.4562,62.6663 2.4687,1.0919 -1.4717,-2.6111 z"
         style="fill:#e4a612;fill-opacity:1;stroke:none;stroke-width:0.1;stroke-linecap:round;stroke-linejoin:round"
         id="path3113" /><path
         d="m 55.9249,63.7582 2.4212,-0.997 -1.7566,-1.4242 z"
         style="fill:#371f08;fill-opacity:1;stroke:none;stroke-width:0.1;stroke-linecap:round;stroke-linejoin:round"
         id="path3115" /><path
         d="m 65.1349,63.0935 4.5575,0.3798 -2.5636,-6.1717 z"
         style="fill:#2d1c09;fill-opacity:1;stroke:none;stroke-width:0.1;stroke-linecap:round;stroke-linejoin:round"
         id="path3117" /><path
         d="m 81.1813,61.0521 1.3292,3.6556 1.6142,-2.5637 z"
         style="fill:#353b48;fill-opacity:1;stroke:none;stroke-width:0.1;stroke-linecap:round;stroke-linejoin:round"
         id="path3119" /><path
         d="m 71.8763,65.4672 1.9939,-3.1807 -4.1778,1.1868 z"
         style="fill:#8a8a8a;fill-opacity:1;stroke:none;stroke-width:0.1;stroke-linecap:round;stroke-linejoin:round"
         id="path3121" /><path
         d="m 58.3461,62.7612 1.5191,2.706 1.6616,-2.0414 z"
         style="fill:#e1a506;fill-opacity:1;stroke:none;stroke-width:0.1;stroke-linecap:round;stroke-linejoin:round"
         id="path3123" /><path
         d="m 49.3734,63.046 3.1808,2.6586 0.902,-3.0383 z"
         style="fill:#1a0f05;fill-opacity:1;stroke:none;stroke-width:0.1;stroke-linecap:round;stroke-linejoin:round"
         id="path3125" /><path
         d="m 81.1813,61.0521 -0.8071,5.2697 2.1363,-1.6141 z"
         style="fill:#4e5360;fill-opacity:1;stroke:none;stroke-width:0.1;stroke-linecap:round;stroke-linejoin:round"
         id="path3127" /><path
         d="m 57.5865,66.3693 0.7596,-3.6081 -2.4212,0.997 z"
         style="fill:#482f15;fill-opacity:1;stroke:none;stroke-width:0.1;stroke-linecap:round;stroke-linejoin:round"
         id="path3129" /><path
         d="m 52.5542,65.7046 3.3707,-1.9464 -2.4687,-1.0919 z"
         style="fill:#717173;fill-opacity:1;stroke:none;stroke-width:0.1;stroke-linecap:round;stroke-linejoin:round"
         id="path3131" /><path
         d="m 57.5865,66.3693 2.2787,-0.9021 -1.5191,-2.706 z"
         style="fill:#191106;fill-opacity:1;stroke:none;stroke-width:0.1;stroke-linecap:round;stroke-linejoin:round"
         id="path3133" /><path
         d="m 73.253,66.5117 0.6172,-4.2252 -1.9939,3.1807 z"
         style="fill:#868c89;fill-opacity:1;stroke:none;stroke-width:0.1;stroke-linecap:round;stroke-linejoin:round"
         id="path3135" /><path
         d="m 77.7631,60.245 2.6111,6.0768 0.8071,-5.2697 z"
         style="fill:#2e343d;fill-opacity:1;stroke:none;stroke-width:0.1;stroke-linecap:round;stroke-linejoin:round"
         id="path3139" /><path
         d="m 75.6935,66.5117 2.0696,-6.2667 -3.8929,2.0415 z"
         style="fill:#8a8a8a;fill-opacity:1;stroke:none;stroke-width:0.1;stroke-linecap:round;stroke-linejoin:round"
         id="path3141" /><path
         d="m 48.7844,65.687 3.7698,0.0176 -3.1808,-2.6586 z"
         style="fill:#27170c;fill-opacity:1;stroke:none;stroke-width:0.1;stroke-linecap:round;stroke-linejoin:round"
         id="path3143" /><path
         d="m 73.253,66.5117 h 2.4405 l -1.8233,-4.2252 z"
         style="fill:#90844f;fill-opacity:1;stroke:none;stroke-width:0.1;stroke-linecap:round;stroke-linejoin:round"
         id="path3145" /><path
         d="m 52.5542,65.7046 2.5636,1.0444 0.8071,-2.9908 z"
         style="fill:#696969;fill-opacity:1;stroke:none;stroke-width:0.1;stroke-linecap:round;stroke-linejoin:round"
         id="path3147" /><path
         d="m 59.8652,65.4672 2.3738,1.4243 -0.7122,-3.4657 z"
         style="fill:#f6ce1b;fill-opacity:1;stroke:none;stroke-width:0.1;stroke-linecap:round;stroke-linejoin:round"
         id="path3149" /><path
         d="m 55.1178,66.749 2.4687,-0.3797 -1.6616,-2.6111 z"
         style="fill:#404040;fill-opacity:1;stroke:none;stroke-width:0.1;stroke-linecap:round;stroke-linejoin:round"
         id="path3151" /><path
         d="m 62.239,66.8915 2.8959,-3.798 -3.6081,0.3323 z"
         style="fill:#64390b;fill-opacity:1;stroke:none;stroke-width:0.1;stroke-linecap:round;stroke-linejoin:round"
         id="path3153" /><path
         d="M 75.6935,66.5117 80.3742,66.3218 77.7631,60.245 Z"
         style="fill:#50515b;fill-opacity:1;stroke:none;stroke-width:0.1;stroke-linecap:round;stroke-linejoin:round"
         id="path3155" /><path
         d="m 77.4782,67.4137 2.896,-1.0919 -4.6807,0.1899 z"
         style="fill:#424956;fill-opacity:1;stroke:none;stroke-width:0.1;stroke-linecap:round;stroke-linejoin:round"
         id="path3157" /><path
         d="M 53.0289,67.8884 55.1178,66.749 52.5542,65.7046 Z"
         style="fill:#757575;fill-opacity:1;stroke:none;stroke-width:0.1;stroke-linecap:round;stroke-linejoin:round"
         id="path3159" /><path
         d="m 60.245,68.3632 1.994,-1.4717 -2.3738,-1.4243 z"
         style="fill:#f8c40c;fill-opacity:1;stroke:none;stroke-width:0.1;stroke-linecap:round;stroke-linejoin:round"
         id="path3161" /><path
         d="m 57.5865,66.3693 2.6585,1.9939 -0.3798,-2.896 z"
         style="fill:#090404;fill-opacity:1;stroke:none;stroke-width:0.1;stroke-linecap:round;stroke-linejoin:round"
         id="path3163" /><path
         d="m 55.1178,66.749 2.2788,2.0415 0.1899,-2.4212 z"
         style="fill:#4a4a4a;fill-opacity:1;stroke:none;stroke-width:0.1;stroke-linecap:round;stroke-linejoin:round"
         id="path3165" /><path
         d="m 65.1349,63.0935 2.706,5.9818 1.8515,-5.602 z"
         style="fill:#2c1c08;fill-opacity:1;stroke:none;stroke-width:0.1;stroke-linecap:round;stroke-linejoin:round"
         id="path3167" /><path
         d="m 67.8409,69.0753 4.0354,-3.6081 -2.1839,-1.9939 z"
         style="fill:#5e5f5e;fill-opacity:1;stroke:none;stroke-width:0.1;stroke-linecap:round;stroke-linejoin:round"
         id="path3169" /><path
         d="M 57.3966,68.7905 60.245,68.3632 57.5865,66.3693 Z"
         style="fill:#482c0a;fill-opacity:1;stroke:none;stroke-width:0.1;stroke-linecap:round;stroke-linejoin:round"
         id="path3171" /><path
         d="m 58.4885,69.4551 1.7565,-1.0919 -2.8484,0.4273 z"
         style="fill:#250e06;fill-opacity:1;stroke:none;stroke-width:0.1;stroke-linecap:round;stroke-linejoin:round"
         id="path3173" /><path
         d="m 48.7844,65.687 4.2445,2.2014 -0.4747,-2.1838 z"
         style="fill:#1c1206;fill-opacity:1;stroke:none;stroke-width:0.1;stroke-linecap:round;stroke-linejoin:round"
         id="path3177" /><path
         d="m 62.239,66.8915 5.6019,2.1838 -2.706,-5.9818 z"
         style="fill:#362209;fill-opacity:1;stroke:none;stroke-width:0.1;stroke-linecap:round;stroke-linejoin:round"
         id="path3179" /><path
         d="m 55.1178,66.749 0.5222,3.6556 1.7566,-1.6141 z"
         style="fill:#484848;fill-opacity:1;stroke:none;stroke-width:0.1;stroke-linecap:round;stroke-linejoin:round"
         id="path3181" /><path
         d="M 53.0289,67.8884 55.64,70.4046 55.1178,66.749 Z"
         style="fill:#696969;fill-opacity:1;stroke:none;stroke-width:0.1;stroke-linecap:round;stroke-linejoin:round"
         id="path3183" /><path
         d="m 60.8147,70.1672 1.4243,-3.2757 -1.994,1.4717 z"
         style="fill:#eeae07;fill-opacity:1;stroke:none;stroke-width:0.1;stroke-linecap:round;stroke-linejoin:round"
         id="path3185" /><path
         d="m 58.4885,69.4551 2.3262,0.7121 -0.5697,-1.804 z"
         style="fill:#684910;fill-opacity:1;stroke:none;stroke-width:0.1;stroke-linecap:round;stroke-linejoin:round"
         id="path3187" /><path
         d="m 57.444,70.9743 1.0445,-1.5192 -1.0919,-0.6646 z"
         style="fill:#816501;fill-opacity:1;stroke:none;stroke-width:0.1;stroke-linecap:round;stroke-linejoin:round"
         id="path3189" /><path
         d="m 55.64,70.4046 1.804,0.5697 -0.0474,-2.1838 z"
         style="fill:#58523f;fill-opacity:1;stroke:none;stroke-width:0.1;stroke-linecap:round;stroke-linejoin:round"
         id="path3191" /><path
         d="M 67.8409,69.0753 73.253,66.5117 71.8763,65.4672 Z"
         style="fill:#858586;fill-opacity:1;stroke:none;stroke-width:0.1;stroke-linecap:round;stroke-linejoin:round"
         id="path3193" /><path
         d="m 48.7844,65.687 2.2506,5.5721 1.9939,-3.3707 z"
         style="fill:#261708;fill-opacity:1;stroke:none;stroke-width:0.1;stroke-linecap:round;stroke-linejoin:round"
         id="path3195" /><path
         d="m 67.8409,69.0753 3.5606,2.5636 1.8515,-5.1272 z"
         style="fill:#858686;fill-opacity:1;stroke:none;stroke-width:0.1;stroke-linecap:round;stroke-linejoin:round"
         id="path3199" /><path
         d="M 51.035,71.2591 55.64,70.4046 53.0289,67.8884 Z"
         style="fill:#2b1c0b;fill-opacity:1;stroke:none;stroke-width:0.1;stroke-linecap:round;stroke-linejoin:round"
         id="path3201" /><path
         d="m 57.444,70.9743 3.3707,-0.8071 -2.3262,-0.7121 z"
         style="fill:#826205;fill-opacity:1;stroke:none;stroke-width:0.1;stroke-linecap:round;stroke-linejoin:round"
         id="path3203" /><path
         d="m 72.9682,72.9682 0.2848,-6.4565 -1.8515,5.1272 z"
         style="fill:#806f37;fill-opacity:1;stroke:none;stroke-width:0.1;stroke-linecap:round;stroke-linejoin:round"
         id="path3207" /><path
         d="m 72.9682,72.9682 2.7253,-6.4565 H 73.253 Z"
         style="fill:#817238;fill-opacity:1;stroke:none;stroke-width:0.1;stroke-linecap:round;stroke-linejoin:round"
         id="path3209" /><path
         d="M 60.8147,70.1672 67.8409,69.0753 62.239,66.8915 Z"
         style="fill:#2c1a08;fill-opacity:1;stroke:none;stroke-width:0.1;stroke-linecap:round;stroke-linejoin:round"
         id="path3211" /><path
         d="m 72.9682,72.9682 4.51,-5.5545 -1.7847,-0.902 z"
         style="fill:#7a756f;fill-opacity:1;stroke:none;stroke-width:0.1;stroke-linecap:round;stroke-linejoin:round"
         id="path3213" /><path
         d="m 57.444,70.9743 3.5606,2.706 -0.1899,-3.5131 z"
         style="fill:#281a08;fill-opacity:1;stroke:none;stroke-width:0.1;stroke-linecap:round;stroke-linejoin:round"
         id="path3217" /><path
         d="m 51.035,71.2591 3.3707,2.896 1.2343,-3.7505 z"
         style="fill:#211509;fill-opacity:1;stroke:none;stroke-width:0.1;stroke-linecap:round;stroke-linejoin:round"
         id="path3219" /><path
         d="M 72.9682,72.9682 79.7096,69.645 77.4782,67.4137 Z"
         style="fill:#665a47;fill-opacity:1;stroke:none;stroke-width:0.1;stroke-linecap:round;stroke-linejoin:round"
         id="path3221" /><path
         d="M 54.4057,74.1551 57.444,70.9743 55.64,70.4046 Z"
         style="fill:#31200a;fill-opacity:1;stroke:none;stroke-width:0.1;stroke-linecap:round;stroke-linejoin:round"
         id="path3223" /><path
         d="m 60.8147,70.1672 4.8899,4.5575 2.1363,-5.6494 z"
         style="fill:#241707;fill-opacity:1;stroke:none;stroke-width:0.1;stroke-linecap:round;stroke-linejoin:round"
         id="path3225" /><path
         d="m 61.0046,73.6803 4.7,1.0444 -4.8899,-4.5575 z"
         style="fill:#2b1c0c;fill-opacity:1;stroke:none;stroke-width:0.1;stroke-linecap:round;stroke-linejoin:round"
         id="path3227" /><path
         d="m 70.0248,75.1045 2.9434,-2.1363 -1.5667,-1.3293 z"
         style="fill:#7c6d33;fill-opacity:1;stroke:none;stroke-width:0.1;stroke-linecap:round;stroke-linejoin:round"
         id="path3229" /><path
         d="m 67.8409,69.0753 2.1839,6.0292 1.3767,-3.4656 z"
         style="fill:#868686;fill-opacity:1;stroke:none;stroke-width:0.1;stroke-linecap:round;stroke-linejoin:round"
         id="path3231" /><path
         d="m 65.7046,74.7247 4.3202,0.3798 -2.1839,-6.0292 z"
         style="fill:#828282;fill-opacity:1;stroke:none;stroke-width:0.1;stroke-linecap:round;stroke-linejoin:round"
         id="path3233" /><path
         d="m 56.8743,76.5763 0.5697,-5.602 -3.0383,3.1808 z"
         style="fill:#1e1408;fill-opacity:1;stroke:none;stroke-width:0.1;stroke-linecap:round;stroke-linejoin:round"
         id="path3237" /><path
         d="m 56.8743,76.5763 4.1303,-2.896 -3.5606,-2.706 z"
         style="fill:#281a07;fill-opacity:1;stroke:none;stroke-width:0.1;stroke-linecap:round;stroke-linejoin:round"
         id="path3239" /><path
         d="m 72.9682,72.9682 5.602,4.3202 1.1394,-7.6434 z"
         style="fill:#6b5f4c;fill-opacity:1;stroke:none;stroke-width:0.1;stroke-linecap:round;stroke-linejoin:round"
         id="path3243" /><path
         d="M 67.328781,78.806191 70.0248,75.1045 65.7046,74.7247 Z"
         style="fill:#868686;fill-opacity:1;stroke:none;stroke-width:0.1;stroke-linecap:round;stroke-linejoin:round"
         id="path3245" /><path
         d="M 78.5702,77.2884 84.5994,73.8227 79.7096,69.645 Z"
         style="fill:#675b4a;fill-opacity:1;stroke:none;stroke-width:0.1;stroke-linecap:round;stroke-linejoin:round"
         id="path3247" /><path
         d="m 71.212,77.5732 1.7562,-4.605 -2.9434,2.1363 z"
         style="fill:#746833;fill-opacity:1;stroke:none;stroke-width:0.1;stroke-linecap:round;stroke-linejoin:round"
         id="path3249" /><path
         d="M 67.328781,78.806191 71.212,77.5732 70.0248,75.1045 Z"
         style="fill:#746838;fill-opacity:1;stroke:none;stroke-width:0.1;stroke-linecap:round;stroke-linejoin:round"
         id="path3253" /><path
         d="m 68.5531,79.3772 2.6589,-1.804 -3.883219,1.232991 z"
         style="fill:#52462d;fill-opacity:1;stroke:none;stroke-width:0.1;stroke-linecap:round;stroke-linejoin:round"
         id="path3255" /><path
         d="m 56.8743,76.5763 3.0859,3.0858 1.0444,-5.9818 z"
         style="fill:#1e1206;fill-opacity:1;stroke:none;stroke-width:0.1;stroke-linecap:round;stroke-linejoin:round"
         id="path3257" /><path
         d="M 63.9955,80.0894 67.328781,78.806191 65.7046,74.7247 Z"
         style="fill:#5c5c5c;fill-opacity:1;stroke:none;stroke-width:0.1;stroke-linecap:round;stroke-linejoin:round"
         id="path3259" /><path
         d="m 71.212,77.5732 7.3582,-0.2848 -5.602,-4.3202 z"
         style="fill:#615746;fill-opacity:1;stroke:none;stroke-width:0.1;stroke-linecap:round;stroke-linejoin:round"
         id="path3261" /><path
         d="m 61.0046,73.6803 2.9909,6.4091 1.7091,-5.3647 z"
         style="fill:#291a09;fill-opacity:1;stroke:none;stroke-width:0.1;stroke-linecap:round;stroke-linejoin:round"
         id="path3263" /><path
         d="m 59.9602,79.6621 4.0353,0.4273 -2.9909,-6.4091 z"
         style="fill:#2d1b0a;fill-opacity:1;stroke:none;stroke-width:0.1;stroke-linecap:round;stroke-linejoin:round"
         id="path3265" /><path
         d="m 69.4076,82.3207 -0.8545,-2.9435 -0.7122,1.5192 z"
         style="fill:#6c622f;fill-opacity:1;stroke:none;stroke-width:0.1;stroke-linecap:round;stroke-linejoin:round"
         id="path3271" /><path
         d="m 69.4076,82.3207 1.8044,-4.7475 -2.6589,1.804 z"
         style="fill:#706232;fill-opacity:1;stroke:none;stroke-width:0.1;stroke-linecap:round;stroke-linejoin:round"
         id="path3275" /><path
         d="m 84.5994,73.8227 1.1394,9.0676 2.6639,-5.6498 z"
         style="fill:#6c5e4c;fill-opacity:1;stroke:none;stroke-width:0.1;stroke-linecap:round;stroke-linejoin:round"
         id="path3277" /><path
         d="m 78.5702,77.2884 7.1686,5.6019 -1.1394,-9.0676 z"
         style="fill:#695e4b;fill-opacity:1;stroke:none;stroke-width:0.1;stroke-linecap:round;stroke-linejoin:round"
         id="path3279" /><path
         d="M 85.7388,82.8903 92.6701,80.754 88.4027,77.2405 Z"
         style="fill:#746750;fill-opacity:1;stroke:none;stroke-width:0.1;stroke-linecap:round;stroke-linejoin:round"
         id="path3281" /><path
         d="m 79.0924,83.6974 6.6464,-0.8071 -7.1686,-5.6019 z"
         style="fill:#5c5344;fill-opacity:1;stroke:none;stroke-width:0.1;stroke-linecap:round;stroke-linejoin:round"
         id="path3283" /><path
         d="M 72.1136,84.7893 71.212,77.5732 69.4076,82.3207 Z"
         style="fill:#6c5f4c;fill-opacity:1;stroke:none;stroke-width:0.1;stroke-linecap:round;stroke-linejoin:round"
         id="path3285" /><path
         d="m 72.1136,84.7893 6.4566,-7.5009 -7.3582,0.2848 z"
         style="fill:#595043;fill-opacity:1;stroke:none;stroke-width:0.1;stroke-linecap:round;stroke-linejoin:round"
         id="path3289" /><path
         d="m 72.1136,84.7893 6.9788,-1.0919 -0.5222,-6.409 z"
         style="fill:#595041;fill-opacity:1;stroke:none;stroke-width:0.1;stroke-linecap:round;stroke-linejoin:round"
         id="path3291" /><path
         d="m 74.5823,87.4004 4.5101,-3.703 -6.9788,1.0919 z"
         style="fill:#554c3e;fill-opacity:1;stroke:none;stroke-width:0.1;stroke-linecap:round;stroke-linejoin:round"
         id="path3293" /><path
         d="m 89.6792,87.7327 2.9909,-6.9787 -6.9313,2.1363 z"
         style="fill:#6d604d;fill-opacity:1;stroke:none;stroke-width:0.1;stroke-linecap:round;stroke-linejoin:round"
         id="path3295" /><path
         d="m 79.0924,83.6974 4.5575,4.605 2.0889,-5.4121 z"
         style="fill:#5f5645;fill-opacity:1;stroke:none;stroke-width:0.1;stroke-linecap:round;stroke-linejoin:round"
         id="path3297" /><path
         d="m 83.6499,88.3024 6.0293,-0.5697 -3.9404,-4.8424 z"
         style="fill:#645b46;fill-opacity:1;stroke:none;stroke-width:0.1;stroke-linecap:round;stroke-linejoin:round"
         id="path3301" /><path
         d="M 89.6792,87.7327 98.5545,85.5654 92.6701,80.754 Z"
         style="fill:#5f5443;fill-opacity:1;stroke:none;stroke-width:0.1;stroke-linecap:round;stroke-linejoin:round"
         id="path3303" /><path
         d="m 78.048,90.5337 1.0444,-6.8363 -4.5101,3.703 z"
         style="fill:#544a3e;fill-opacity:1;stroke:none;stroke-width:0.1;stroke-linecap:round;stroke-linejoin:round"
         id="path3305" /><path
         d="m 78.048,90.5337 5.6019,-2.2313 -4.5575,-4.605 z"
         style="fill:#584f3f;fill-opacity:1;stroke:none;stroke-width:0.1;stroke-linecap:round;stroke-linejoin:round"
         id="path3307" /><path
         d="m 80.9914,93.3347 2.6585,-5.0323 -5.6019,2.2313 z"
         style="fill:#58503f;fill-opacity:1;stroke:none;stroke-width:0.1;stroke-linecap:round;stroke-linejoin:round"
         id="path3311" /><path
         d="m 98.5545,85.5654 0.8095,9.0511 3.371,-5.1747 z"
         style="fill:#5e5341;fill-opacity:1;stroke:none;stroke-width:0.1;stroke-linecap:round;stroke-linejoin:round"
         id="path3315" /><path
         d="m 92.3852,94.6165 6.1693,-9.0511 -8.8753,2.1673 z"
         style="fill:#584e3f;fill-opacity:1;stroke:none;stroke-width:0.1;stroke-linecap:round;stroke-linejoin:round"
         id="path3317" /><path
         d="M 92.3852,94.6165 H 99.364 L 98.5545,85.5654 Z"
         style="fill:#615644;fill-opacity:1;stroke:none;stroke-width:0.1;stroke-linecap:round;stroke-linejoin:round"
         id="path3319" /><path
         d="m 84.8368,96.8004 -1.1869,-8.498 -2.6585,5.0323 z"
         style="fill:#554b3d;fill-opacity:1;stroke:none;stroke-width:0.1;stroke-linecap:round;stroke-linejoin:round"
         id="path3321" /><path
         d="m 84.8368,96.8004 4.8424,-9.0677 -6.0293,0.5697 z"
         style="fill:#564d3e;fill-opacity:1;stroke:none;stroke-width:0.1;stroke-linecap:round;stroke-linejoin:round"
         id="path3323" /><path
         d="m 84.8368,96.8004 7.5484,-2.1839 -2.706,-6.8838 z"
         style="fill:#544b3d;fill-opacity:1;stroke:none;stroke-width:0.1;stroke-linecap:round;stroke-linejoin:round"
         id="path3325" /><path
         d="M 95.8509,100.076 99.364,94.6165 H 92.3852 Z"
         style="fill:#554c3d;fill-opacity:1;stroke:none;stroke-width:0.1;stroke-linecap:round;stroke-linejoin:round"
         id="path3331" /><path
         d="m 84.8368,96.8004 4.2727,3.9406 3.2757,-6.1245 z"
         style="fill:#524a3c;fill-opacity:1;stroke:none;stroke-width:0.1;stroke-linecap:round;stroke-linejoin:round"
         id="path3333" /><path
         d="m 89.1095,100.741 6.7414,-0.665 -3.4657,-5.4595 z"
         style="fill:#504839;fill-opacity:1;stroke:none;stroke-width:0.1;stroke-linecap:round;stroke-linejoin:round"
         id="path3335" /><path
         d="m 92.5276,104.586 3.3233,-4.51 -6.7414,0.665 z"
         style="fill:#4b4336;fill-opacity:1;stroke:none;stroke-width:0.1;stroke-linecap:round;stroke-linejoin:round"
         id="path3337" /><path
         d="m 95.8509,100.076 6.8841,-10.6342 -3.371,5.1747 z"
         style="fill:none;stroke:none;stroke-width:0.1;stroke-linecap:round;stroke-linejoin:round"
         id="path3373" /><path
         d="M 72.4934,45.1482 72.1611,49.231 70.6894,46.0502 Z"
         style="fill:#262625;fill-opacity:1;stroke:none;stroke-width:0.1;stroke-linecap:round;stroke-linejoin:round"
         id="path407660" /></g></g><metadata
     id="metadata132"><rdf:RDF><cc:Work
         rdf:about=""><cc:license
           rdf:resource="http://creativecommons.org/licenses/by-sa/4.0/" /></cc:Work><cc:License
         rdf:about="http://creativecommons.org/licenses/by-sa/4.0/"><cc:permits
           rdf:resource="http://creativecommons.org/ns#Reproduction" /><cc:permits
           rdf:resource="http://creativecommons.org/ns#Distribution" /><cc:requires
           rdf:resource="http://creativecommons.org/ns#Notice" /><cc:requires
           rdf:resource="http://creativecommons.org/ns#Attribution" /><cc:permits
           rdf:resource="http://creativecommons.org/ns#DerivativeWorks" /><cc:requires
           rdf:resource="http://creativecommons.org/ns#ShareAlike" /></cc:License></rdf:RDF></metadata></svg>
