<?xml version="1.0" encoding="UTF-8" standalone="no"?>
<!-- Created with Inkscape (http://www.inkscape.org/) -->

<svg
   width="512"
   height="512"
   viewBox="0 0 135.46666 135.46667"
   version="1.1"
   id="svg5"
   sodipodi:docname="asteroid_0.svg"
   inkscape:version="1.2.1 (9c6d41e410, 2022-07-14)"
   xml:space="preserve"
   inkscape:export-filename="asteroid_0.png"
   inkscape:export-xdpi="96"
   inkscape:export-ydpi="96"
   xmlns:inkscape="http://www.inkscape.org/namespaces/inkscape"
   xmlns:sodipodi="http://sodipodi.sourceforge.net/DTD/sodipodi-0.dtd"
   xmlns="http://www.w3.org/2000/svg"
   xmlns:svg="http://www.w3.org/2000/svg"
   xmlns:rdf="http://www.w3.org/1999/02/22-rdf-syntax-ns#"
   xmlns:cc="http://creativecommons.org/ns#"><sodipodi:namedview
     id="namedview7"
     pagecolor="#000000"
     bordercolor="#000000"
     borderopacity="0.25"
     inkscape:showpageshadow="2"
     inkscape:pageopacity="0"
     inkscape:pagecheckerboard="0"
     inkscape:deskcolor="#d1d1d1"
     inkscape:document-units="mm"
     showgrid="false"
     inkscape:zoom="1.3932941"
     inkscape:cx="225.00634"
     inkscape:cy="289.96032"
     inkscape:window-width="1920"
     inkscape:window-height="1011"
     inkscape:window-x="0"
     inkscape:window-y="0"
     inkscape:window-maximized="1"
     inkscape:current-layer="svg5" /><defs
     id="defs2" /><g
     inkscape:label="normal_map"
     inkscape:groupmode="layer"
     id="g44092"
     style="display:none"
     sodipodi:insensitive="true"><g
       id="g87291"
       style="stroke:none"><path
         d="M 35.541666,12.445646 54.449731,7.1801999 30.754908,3.0768e-7 Z"
         style="fill:#500fa4;fill-opacity:1;stroke:none;stroke-width:1;stroke-linecap:round;stroke-linejoin:round"
         id="path43968" /><path
         d="M 35.541666,12.445646 48.226782,21.062037 54.449731,7.1801999 Z"
         style="fill:#591ac2;fill-opacity:1;stroke:none;stroke-width:1;stroke-linecap:round;stroke-linejoin:round"
         id="path43970" /><path
         d="M 12.31255,8.5014453 35.541666,12.445646 30.754908,3.0768e-7 Z"
         style="fill:#3e1393;fill-opacity:1;stroke:none;stroke-width:1;stroke-linecap:round;stroke-linejoin:round"
         id="path43972" /><path
         d="M 12.31255,8.5014453 24.532085,23.934041 35.541666,12.445646 Z"
         style="fill:#3220a4;fill-opacity:1;stroke:none;stroke-width:1;stroke-linecap:round;stroke-linejoin:round"
         id="path43974" /><path
         d="M 48.226782,21.062037 70.485539,24.652073 54.449731,7.1801999 Z"
         style="fill:#6d21d3;fill-opacity:1;stroke:none;stroke-width:1;stroke-linecap:round;stroke-linejoin:round"
         id="path43976" /><path
         d="M 4.9061142,31.11424 24.532085,23.934041 12.31255,8.5014453 Z"
         style="fill:#242c9f;fill-opacity:1;stroke:none;stroke-width:1;stroke-linecap:round;stroke-linejoin:round"
         id="path43978" /><path
         d="M 93.462329,33.986371 54.449731,7.1801999 70.485539,24.652073 Z"
         style="fill:#8e2ddf;fill-opacity:1;stroke:none;stroke-width:1;stroke-linecap:round;stroke-linejoin:round"
         id="path43980" /><path
         d="M 24.532085,23.934041 48.226782,21.062037 35.541666,12.445646 Z"
         style="fill:#4524c3;fill-opacity:1;stroke:none;stroke-width:1;stroke-linecap:round;stroke-linejoin:round"
         id="path43982" /><path
         d="M 48.226782,21.062037 66.656158,36.858501 70.485539,24.652073 Z"
         style="fill:#7735e6;fill-opacity:1;stroke:none;stroke-width:1;stroke-linecap:round;stroke-linejoin:round"
         id="path43984" /><path
         d="M 48.944814,41.884729 66.656158,36.858501 48.226782,21.062037 Z"
         style="fill:#6b3deb;fill-opacity:1;stroke:none;stroke-width:1;stroke-linecap:round;stroke-linejoin:round"
         id="path43986" /><path
         d="M 24.532085,23.934041 48.944814,41.884729 48.226782,21.062037 Z"
         style="fill:#4a36d9;fill-opacity:1;stroke:none;stroke-width:1;stroke-linecap:round;stroke-linejoin:round"
         id="path43988" /><path
         d="m 66.656158,36.858501 26.806171,-2.87213 -22.97679,-9.334298 z"
         style="fill:#933cea;fill-opacity:1;stroke:none;stroke-width:1;stroke-linecap:round;stroke-linejoin:round"
         id="path43990" /><path
         d="M 66.656158,36.858501 83.649343,47.389519 93.462329,33.986371 Z"
         style="fill:#9648f0;fill-opacity:1;stroke:none;stroke-width:1;stroke-linecap:round;stroke-linejoin:round"
         id="path43992" /><path
         d="M 4.9061142,31.11424 25.72868,45.235421 24.532085,23.934041 Z"
         style="fill:#2042ba;fill-opacity:1;stroke:none;stroke-width:1;stroke-linecap:round;stroke-linejoin:round"
         id="path43994" /><path
         d="M 25.72868,45.235421 48.944814,41.884729 24.532085,23.934041 Z"
         style="fill:#3d45db;fill-opacity:1;stroke:none;stroke-width:1;stroke-linecap:round;stroke-linejoin:round"
         id="path43996" /><path
         d="M 70.485539,52.894435 83.649343,47.389519 66.656158,36.858501 Z"
         style="fill:#8b57f8;fill-opacity:1;stroke:none;stroke-width:1;stroke-linecap:round;stroke-linejoin:round"
         id="path43998" /><path
         d="M 9.4535277,55.048407 25.72868,45.235421 4.9061142,31.11424 Z"
         style="fill:#1955be;fill-opacity:1;stroke:none;stroke-width:1;stroke-linecap:round;stroke-linejoin:round"
         id="path44000" /><path
         d="M 83.649343,47.389519 105.66876,53.13378 93.462329,33.986371 Z"
         style="fill:#b154ec;fill-opacity:1;stroke:none;stroke-width:1;stroke-linecap:round;stroke-linejoin:round"
         id="path44002" /><path
         d="M 48.944814,41.884729 70.485539,52.894435 66.656158,36.858501 Z"
         style="fill:#7154f6;fill-opacity:1;stroke:none;stroke-width:1;stroke-linecap:round;stroke-linejoin:round"
         id="path44004" /><path
         d="m 25.72868,45.235421 22.019413,14.59987 1.196721,-17.950562 z"
         style="fill:#485eee;fill-opacity:1;stroke:none;stroke-width:1;stroke-linecap:round;stroke-linejoin:round"
         id="path44006" /><path
         d="M 29.797532,61.271356 47.748093,59.835291 25.72868,45.235421 Z"
         style="fill:#4168ec;fill-opacity:1;stroke:none;stroke-width:1;stroke-linecap:round;stroke-linejoin:round"
         id="path44008" /><path
         d="M 47.748093,59.835291 70.485539,52.894435 48.944814,41.884729 Z"
         style="fill:#6864fa;fill-opacity:1;stroke:none;stroke-width:1;stroke-linecap:round;stroke-linejoin:round"
         id="path44010" /><path
         d="M 9.4535277,55.048407 29.797532,61.271356 25.72868,45.235421 Z"
         style="fill:#2668d7;fill-opacity:1;stroke:none;stroke-width:1;stroke-linecap:round;stroke-linejoin:round"
         id="path44012" /><path
         d="M 70.485539,52.894435 85.324753,66.536802 83.649343,47.389519 Z"
         style="fill:#976cfb;fill-opacity:1;stroke:none;stroke-width:1;stroke-linecap:round;stroke-linejoin:round"
         id="path44014" /><path
         d="M 85.324753,66.536802 105.66876,53.13378 83.649343,47.389519 Z"
         style="fill:#ad6bf5;fill-opacity:1;stroke:none;stroke-width:1;stroke-linecap:round;stroke-linejoin:round"
         id="path44016" /><path
         d="M 69.049474,78.74323 85.324753,66.536802 70.485539,52.894435 Z"
         style="fill:#927efe;fill-opacity:1;stroke:none;stroke-width:1;stroke-linecap:round;stroke-linejoin:round"
         id="path44018" /><path
         d="M 47.748093,59.835291 69.049474,78.74323 70.485539,52.894435 Z"
         style="fill:#787cff;fill-opacity:1;stroke:none;stroke-width:1;stroke-linecap:round;stroke-linejoin:round"
         id="path44020" /><path
         d="m 29.797532,61.271356 11.727739,19.865315 6.222822,-21.30138 z"
         style="fill:#4681f1;fill-opacity:1;stroke:none;stroke-width:1;stroke-linecap:round;stroke-linejoin:round"
         id="path44022" /><path
         d="M 15.197662,82.333392 29.797532,61.271356 9.4535277,55.048407 Z"
         style="fill:#287edc;fill-opacity:1;stroke:none;stroke-width:1;stroke-linecap:round;stroke-linejoin:round"
         id="path44024" /><path
         d="M 104.23269,83.051425 121.7052,73.477783 105.66876,53.13378 Z"
         style="fill:#cc7be5;fill-opacity:1;stroke:none;stroke-width:1;stroke-linecap:round;stroke-linejoin:round"
         id="path44026" /><path
         d="M 85.324753,66.536802 104.23269,83.051425 105.66876,53.13378 Z"
         style="fill:#ba7cf1;fill-opacity:1;stroke:none;stroke-width:1;stroke-linecap:round;stroke-linejoin:round"
         id="path44028" /><path
         d="M 41.525271,81.136671 69.049474,78.74323 47.748093,59.835291 Z"
         style="fill:#5e81fa;fill-opacity:1;stroke:none;stroke-width:1;stroke-linecap:round;stroke-linejoin:round"
         id="path44030" /><path
         d="M 15.197662,82.333392 41.525271,81.136671 29.797532,61.271356 Z"
         style="fill:#3489e6;fill-opacity:1;stroke:none;stroke-width:1;stroke-linecap:round;stroke-linejoin:round"
         id="path44032" /><path
         d="M 69.049474,78.74323 84.128032,91.907034 85.324753,66.536802 Z"
         style="fill:#9096fc;fill-opacity:1;stroke:none;stroke-width:1;stroke-linecap:round;stroke-linejoin:round"
         id="path44034" /><path
         d="M 84.128032,91.907034 104.23269,83.051425 85.324753,66.536802 Z"
         style="fill:#a896f6;fill-opacity:1;stroke:none;stroke-width:1;stroke-linecap:round;stroke-linejoin:round"
         id="path44036" /><path
         d="M 15.197662,82.333392 30.515564,99.565922 41.525271,81.136671 Z"
         style="fill:#36aade;fill-opacity:1;stroke:none;stroke-width:1;stroke-linecap:round;stroke-linejoin:round"
         id="path44038" /><path
         d="M 66.656158,98.129857 84.128032,91.907034 69.049474,78.74323 Z"
         style="fill:#8aa7f8;fill-opacity:1;stroke:none;stroke-width:1;stroke-linecap:round;stroke-linejoin:round"
         id="path44040" /><path
         d="m 115.24202,101.95936 6.46318,-28.481577 -17.47251,9.573642 z"
         style="fill:#d1a4da;fill-opacity:1;stroke:none;stroke-width:1;stroke-linecap:round;stroke-linejoin:round"
         id="path44042" /><path
         d="m 115.24202,101.95936 15.31853,-5.744257 -8.85535,-22.73732 z"
         style="fill:#e3a9c2;fill-opacity:1;stroke:none;stroke-width:1;stroke-linecap:round;stroke-linejoin:round"
         id="path44044" /><path
         d="M 41.525271,81.136671 66.656158,98.129857 69.049474,78.74323 Z"
         style="fill:#70a7f8;fill-opacity:1;stroke:none;stroke-width:1;stroke-linecap:round;stroke-linejoin:round"
         id="path44046" /><path
         d="M 53.492354,102.43805 66.656158,98.129857 41.525271,81.136671 Z"
         style="fill:#65aff2;fill-opacity:1;stroke:none;stroke-width:1;stroke-linecap:round;stroke-linejoin:round"
         id="path44048" /><path
         d="M 30.515564,99.565922 53.492354,102.43805 41.525271,81.136671 Z"
         style="fill:#50b1eb;fill-opacity:1;stroke:none;stroke-width:1;stroke-linecap:round;stroke-linejoin:round"
         id="path44050" /><path
         d="M 92.026264,107.7035 104.23269,83.051425 84.128032,91.907034 Z"
         style="fill:#afb1ea;fill-opacity:1;stroke:none;stroke-width:1;stroke-linecap:round;stroke-linejoin:round"
         id="path44052" /><path
         d="M 8.7354951,109.13956 30.515564,99.565922 15.197662,82.333392 Z"
         style="fill:#24b2c8;fill-opacity:1;stroke:none;stroke-width:1;stroke-linecap:round;stroke-linejoin:round"
         id="path44054" /><path
         d="M 92.026264,107.7035 115.24202,101.95936 104.23269,83.051425 Z"
         style="fill:#c5b4dc;fill-opacity:1;stroke:none;stroke-width:1;stroke-linecap:round;stroke-linejoin:round"
         id="path44056" /><path
         d="m 115.24202,101.95936 10.05271,13.16368 5.26582,-18.907937 z"
         style="fill:#e5c4a3;fill-opacity:1;stroke:none;stroke-width:1;stroke-linecap:round;stroke-linejoin:round"
         id="path44058" /><path
         d="m 53.492354,102.43805 15.55712,13.16393 -2.393316,-17.472123 z"
         style="fill:#72c7e8;fill-opacity:1;stroke:none;stroke-width:1;stroke-linecap:round;stroke-linejoin:round"
         id="path44060" /><path
         d="M 66.656158,98.129857 92.026264,107.7035 84.128032,91.907034 Z"
         style="fill:#8fbbef;fill-opacity:1;stroke:none;stroke-width:1;stroke-linecap:round;stroke-linejoin:round"
         id="path44062" /><path
         d="M 69.049474,115.60198 92.026264,107.7035 66.656158,98.129857 Z"
         style="fill:#89c5e9;fill-opacity:1;stroke:none;stroke-width:1;stroke-linecap:round;stroke-linejoin:round"
         id="path44064" /><path
         d="M 30.515564,99.565922 42.243303,119.90993 53.492354,102.43805 Z"
         style="fill:#50cadb;fill-opacity:1;stroke:none;stroke-width:1;stroke-linecap:round;stroke-linejoin:round"
         id="path44066" /><path
         d="m 92.026264,107.7035 13.163806,14.3604 10.05195,-20.10454 z"
         style="fill:#c2d2c6;fill-opacity:1;stroke:none;stroke-width:1;stroke-linecap:round;stroke-linejoin:round"
         id="path44068" /><path
         d="m 105.19007,122.0639 20.10466,-6.94086 -10.05271,-13.16368 z"
         style="fill:#d8d1a8;fill-opacity:1;stroke:none;stroke-width:1;stroke-linecap:round;stroke-linejoin:round"
         id="path44070" /><path
         d="M 8.7354951,109.13956 24.77143,127.80866 30.515564,99.565922 Z"
         style="fill:#26d1a9;fill-opacity:1;stroke:none;stroke-width:1;stroke-linecap:round;stroke-linejoin:round"
         id="path44072" /><path
         d="M 24.77143,127.80866 42.243303,119.90993 30.515564,99.565922 Z"
         style="fill:#3fd6c3;fill-opacity:1;stroke:none;stroke-width:1;stroke-linecap:round;stroke-linejoin:round"
         id="path44074" /><path
         d="m 42.243303,119.90993 26.806171,-4.30795 -15.55712,-13.16393 z"
         style="fill:#6cd5dc;fill-opacity:1;stroke:none;stroke-width:1;stroke-linecap:round;stroke-linejoin:round"
         id="path44076" /><path
         d="m 80.777213,130.2021 11.249051,-22.4986 -22.97679,7.89848 z"
         style="fill:#98e1cd;fill-opacity:1;stroke:none;stroke-width:1;stroke-linecap:round;stroke-linejoin:round"
         id="path44078" /><path
         d="M 80.777213,130.2021 105.19007,122.0639 92.026264,107.7035 Z"
         style="fill:#abe4c0;fill-opacity:1;stroke:none;stroke-width:1;stroke-linecap:round;stroke-linejoin:round"
         id="path44080" /><path
         d="m 52.534977,135.46667 16.514497,-19.86469 -26.806171,4.30795 z"
         style="fill:#63eeb7;fill-opacity:1;stroke:none;stroke-width:1;stroke-linecap:round;stroke-linejoin:round"
         id="path44082" /><path
         d="M 9.4535277,55.048407 8.7354951,109.13956 15.197662,82.333392 Z"
         style="fill:#179cc3;fill-opacity:1;stroke:none;stroke-width:1;stroke-linecap:round;stroke-linejoin:round"
         id="path44084" /><path
         d="M 52.534977,135.46667 80.777213,130.2021 69.049474,115.60198 Z"
         style="fill:#80efbd;fill-opacity:1;stroke:none;stroke-width:1;stroke-linecap:round;stroke-linejoin:round"
         id="path44086" /><path
         d="m 24.77143,127.80866 27.763547,7.65801 -10.291674,-15.55674 z"
         style="fill:#4aef9d;fill-opacity:1;stroke:none;stroke-width:1;stroke-linecap:round;stroke-linejoin:round"
         id="path44088" /></g></g><g
     inkscape:label="asteroid"
     inkscape:groupmode="layer"
     id="layer1"
     sodipodi:insensitive="true"
     style="display:inline"><g
       id="g12108"
       transform="matrix(1.2603696,0,0,1.2603696,-19.746085,-15.79659)"><path
         d="M 43.8663,22.4079 58.8683,18.2302 40.0684,12.5333 Z"
         style="fill:#c0c0c0;fill-opacity:1;stroke:none;stroke-width:1;stroke-linecap:round;stroke-linejoin:round"
         id="path2493" /><path
         d="m 43.8663,22.4079 10.0646,6.8364 4.9374,-11.0141 z"
         style="fill:#a5a5a5;fill-opacity:1;stroke:none;stroke-width:1;stroke-linecap:round;stroke-linejoin:round"
         id="path2495" /><path
         d="m 25.4359,19.2785 18.4304,3.1294 -3.7979,-9.8746 z"
         style="fill:#b5b5b5;fill-opacity:1;stroke:none;stroke-width:1;stroke-linecap:round;stroke-linejoin:round"
         id="path2497" /><path
         d="m 25.4359,19.2785 9.6952,12.2445 8.7352,-9.1151 z"
         style="fill:#9e9e9e;fill-opacity:1;stroke:none;stroke-width:1;stroke-linecap:round;stroke-linejoin:round"
         id="path2499" /><path
         d="M 53.9309,29.2443 71.5914,32.0927 58.8683,18.2302 Z"
         style="fill:#858585;fill-opacity:1;stroke:none;stroke-width:1;stroke-linecap:round;stroke-linejoin:round"
         id="path2501" /><path
         d="M 19.5595,37.2199 35.1311,31.523 25.4359,19.2785 Z"
         style="fill:#747474;fill-opacity:1;stroke:none;stroke-width:1;stroke-linecap:round;stroke-linejoin:round"
         id="path2503" /><path
         d="M 89.8216,39.4987 58.8683,18.2302 71.5914,32.0927 Z"
         style="fill:#9d9d9d;fill-opacity:1;stroke:none;stroke-width:1;stroke-linecap:round;stroke-linejoin:round"
         id="path2505" /><path
         d="M 35.1311,31.523 53.9309,29.2443 43.8663,22.4079 Z"
         style="fill:#9d9d9d;fill-opacity:1;stroke:none;stroke-width:1;stroke-linecap:round;stroke-linejoin:round"
         id="path2507" /><path
         d="m 53.9309,29.2443 14.6222,12.5332 3.0383,-9.6848 z"
         style="fill:#707070;fill-opacity:1;stroke:none;stroke-width:1;stroke-linecap:round;stroke-linejoin:round"
         id="path2509" /><path
         d="M 54.5006,45.7654 68.5531,41.7775 53.9309,29.2443 Z"
         style="fill:#757575;fill-opacity:1;stroke:none;stroke-width:1;stroke-linecap:round;stroke-linejoin:round"
         id="path2511" /><path
         d="M 35.1311,31.523 54.5006,45.7654 53.9309,29.2443 Z"
         style="fill:#7e7e7e;fill-opacity:1;stroke:none;stroke-width:1;stroke-linecap:round;stroke-linejoin:round"
         id="path2513" /><path
         d="M 68.5531,41.7775 89.8216,39.4987 71.5914,32.0927 Z"
         style="fill:#b6b6b6;fill-opacity:1;stroke:none;stroke-width:1;stroke-linecap:round;stroke-linejoin:round"
         id="path2515" /><path
         d="M 68.5531,41.7775 82.0358,50.133 89.8216,39.4987 Z"
         style="fill:#b2b2b2;fill-opacity:1;stroke:none;stroke-width:1;stroke-linecap:round;stroke-linejoin:round"
         id="path2517" /><path
         d="M 19.5595,37.2199 36.0805,48.4239 35.1311,31.523 Z"
         style="fill:#4e4e4e;fill-opacity:1;stroke:none;stroke-width:1;stroke-linecap:round;stroke-linejoin:round"
         id="path2519" /><path
         d="M 36.0805,48.4239 54.5006,45.7654 35.1311,31.523 Z"
         style="fill:#7e7e7e;fill-opacity:1;stroke:none;stroke-width:1;stroke-linecap:round;stroke-linejoin:round"
         id="path2521" /><path
         d="M 71.5914,54.5007 82.0358,50.133 68.5531,41.7775 Z"
         style="fill:#969696;fill-opacity:1;stroke:none;stroke-width:1;stroke-linecap:round;stroke-linejoin:round"
         id="path2523" /><path
         d="m 23.1675,56.2097 12.913,-7.7858 -16.521,-11.204 z"
         style="fill:#969696;fill-opacity:1;stroke:none;stroke-width:1;stroke-linecap:round;stroke-linejoin:round"
         id="path2525" /><path
         d="M 82.0358,50.133 99.5064,54.6906 89.8216,39.4987 Z"
         style="fill:#969696;fill-opacity:1;stroke:none;stroke-width:1;stroke-linecap:round;stroke-linejoin:round"
         id="path2527" /><path
         d="M 54.5006,45.7654 71.5914,54.5007 68.5531,41.7775 Z"
         style="fill:#6b6b6b;fill-opacity:1;stroke:none;stroke-width:1;stroke-linecap:round;stroke-linejoin:round"
         id="path2529" /><path
         d="M 36.0805,48.4239 53.5511,60.0077 54.5006,45.7654 Z"
         style="fill:#717171;fill-opacity:1;stroke:none;stroke-width:1;stroke-linecap:round;stroke-linejoin:round"
         id="path2531" /><path
         d="M 39.3088,61.1471 53.5511,60.0077 36.0805,48.4239 Z"
         style="fill:#707070;fill-opacity:1;stroke:none;stroke-width:1;stroke-linecap:round;stroke-linejoin:round"
         id="path2533" /><path
         d="M 53.5511,60.0077 71.5914,54.5007 54.5006,45.7654 Z"
         style="fill:#6a6a6a;fill-opacity:1;stroke:none;stroke-width:1;stroke-linecap:round;stroke-linejoin:round"
         id="path2535" /><path
         d="M 23.1675,56.2097 39.3088,61.1471 36.0805,48.4239 Z"
         style="fill:#707070;fill-opacity:1;stroke:none;stroke-width:1;stroke-linecap:round;stroke-linejoin:round"
         id="path2537" /><path
         d="M 71.5914,54.5007 83.3651,65.3248 82.0358,50.133 Z"
         style="fill:#7e7e7e;fill-opacity:1;stroke:none;stroke-width:1;stroke-linecap:round;stroke-linejoin:round"
         id="path2539" /><path
         d="M 83.3651,65.3248 99.5064,54.6906 82.0358,50.133 Z"
         style="fill:#5d5d5d;fill-opacity:1;stroke:none;stroke-width:1;stroke-linecap:round;stroke-linejoin:round"
         id="path2541" /><path
         d="M 70.452,75.0096 83.3651,65.3248 71.5914,54.5007 Z"
         style="fill:#8a8a8a;fill-opacity:1;stroke:none;stroke-width:1;stroke-linecap:round;stroke-linejoin:round"
         id="path2543" /><path
         d="M 53.5511,60.0077 70.452,75.0096 71.5914,54.5007 Z"
         style="fill:#868686;fill-opacity:1;stroke:none;stroke-width:1;stroke-linecap:round;stroke-linejoin:round"
         id="path2545" /><path
         d="m 39.3088,61.1471 9.305,15.7615 4.9373,-16.9009 z"
         style="fill:#727272;fill-opacity:1;stroke:none;stroke-width:1;stroke-linecap:round;stroke-linejoin:round"
         id="path2547" /><path
         d="M 27.725,77.8581 39.3088,61.1471 23.1675,56.2097 Z"
         style="fill:#828282;fill-opacity:1;stroke:none;stroke-width:1;stroke-linecap:round;stroke-linejoin:round"
         id="path2549" /><path
         d="M 98.367,78.4278 112.23,70.8319 99.5064,54.6906 Z"
         style="fill:#838383;fill-opacity:1;stroke:none;stroke-width:1;stroke-linecap:round;stroke-linejoin:round"
         id="path2551" /><path
         d="M 83.3651,65.3248 98.367,78.4278 99.5064,54.6906 Z"
         style="fill:#626262;fill-opacity:1;stroke:none;stroke-width:1;stroke-linecap:round;stroke-linejoin:round"
         id="path2553" /><path
         d="M 48.6138,76.9086 70.452,75.0096 53.5511,60.0077 Z"
         style="fill:#676767;fill-opacity:1;stroke:none;stroke-width:1;stroke-linecap:round;stroke-linejoin:round"
         id="path2555" /><path
         d="M 27.725,77.8581 48.6138,76.9086 39.3088,61.1471 Z"
         style="fill:#878787;fill-opacity:1;stroke:none;stroke-width:1;stroke-linecap:round;stroke-linejoin:round"
         id="path2557" /><path
         d="M 70.452,75.0096 82.4156,85.454 83.3651,65.3248 Z"
         style="fill:#555555;fill-opacity:1;stroke:none;stroke-width:1;stroke-linecap:round;stroke-linejoin:round"
         id="path2559" /><path
         d="M 82.4156,85.454 98.367,78.4278 83.3651,65.3248 Z"
         style="fill:#4a4a4a;fill-opacity:1;stroke:none;stroke-width:1;stroke-linecap:round;stroke-linejoin:round"
         id="path2561" /><path
         d="M 27.725,77.8581 39.8785,91.5307 48.6138,76.9086 Z"
         style="fill:#adadad;fill-opacity:1;stroke:none;stroke-width:1;stroke-linecap:round;stroke-linejoin:round"
         id="path2563" /><path
         d="M 68.5531,90.3913 82.4156,85.454 70.452,75.0096 Z"
         style="fill:#595959;fill-opacity:1;stroke:none;stroke-width:1;stroke-linecap:round;stroke-linejoin:round"
         id="path2565" /><path
         d="M 107.102,93.4297 112.23,70.8319 98.367,78.4278 Z"
         style="fill:#a6a6a6;fill-opacity:1;stroke:none;stroke-width:1;stroke-linecap:round;stroke-linejoin:round"
         id="path2567" /><path
         d="M 107.102,93.4297 119.256,88.8721 112.23,70.8319 Z"
         style="fill:#898989;fill-opacity:1;stroke:none;stroke-width:1;stroke-linecap:round;stroke-linejoin:round"
         id="path2569" /><path
         d="M 48.6138,76.9086 68.5531,90.3913 70.452,75.0096 Z"
         style="fill:#484848;fill-opacity:1;stroke:none;stroke-width:1;stroke-linecap:round;stroke-linejoin:round"
         id="path2571" /><path
         d="M 58.1087,93.8095 68.5531,90.3913 48.6138,76.9086 Z"
         style="fill:#363636;fill-opacity:1;stroke:none;stroke-width:1;stroke-linecap:round;stroke-linejoin:round"
         id="path2573" /><path
         d="M 39.8785,91.5307 58.1087,93.8095 48.6138,76.9086 Z"
         style="fill:#737373;fill-opacity:1;stroke:none;stroke-width:1;stroke-linecap:round;stroke-linejoin:round"
         id="path2575" /><path
         d="M 88.6822,97.9872 98.367,78.4278 82.4156,85.454 Z"
         style="fill:#a3a3a3;fill-opacity:1;stroke:none;stroke-width:1;stroke-linecap:round;stroke-linejoin:round"
         id="path2577" /><path
         d="M 22.5978,99.1266 39.8785,91.5307 27.725,77.8581 Z"
         style="fill:#a6a6a6;fill-opacity:1;stroke:none;stroke-width:1;stroke-linecap:round;stroke-linejoin:round"
         id="path2579" /><path
         d="M 88.6822,97.9872 107.102,93.4297 98.367,78.4278 Z"
         style="fill:#a6a6a6;fill-opacity:1;stroke:none;stroke-width:1;stroke-linecap:round;stroke-linejoin:round"
         id="path2581" /><path
         d="m 107.102,93.4297 7.976,10.4443 4.178,-15.0019 z"
         style="fill:#666666;fill-opacity:1;stroke:none;stroke-width:1;stroke-linecap:round;stroke-linejoin:round"
         id="path2583" /><path
         d="M 58.1087,93.8095 70.452,104.254 68.5531,90.3913 Z"
         style="fill:#555555;fill-opacity:1;stroke:none;stroke-width:1;stroke-linecap:round;stroke-linejoin:round"
         id="path2585" /><path
         d="M 68.5531,90.3913 88.6822,97.9872 82.4156,85.454 Z"
         style="fill:#8d8d8d;fill-opacity:1;stroke:none;stroke-width:1;stroke-linecap:round;stroke-linejoin:round"
         id="path2587" /><path
         d="M 70.452,104.254 88.6822,97.9872 68.5531,90.3913 Z"
         style="fill:#9e9e9e;fill-opacity:1;stroke:none;stroke-width:1;stroke-linecap:round;stroke-linejoin:round"
         id="path2589" /><path
         d="m 39.8785,91.5307 9.305,16.1413 8.9252,-13.8625 z"
         style="fill:#797979;fill-opacity:1;stroke:none;stroke-width:1;stroke-linecap:round;stroke-linejoin:round"
         id="path2591" /><path
         d="M 88.6822,97.9872 99.1266,109.381 107.102,93.4297 Z"
         style="fill:#8b8b8b;fill-opacity:1;stroke:none;stroke-width:1;stroke-linecap:round;stroke-linejoin:round"
         id="path2593" /><path
         d="m 99.1266,109.381 15.9514,-5.507 -7.976,-10.4443 z"
         style="fill:#636363;fill-opacity:1;stroke:none;stroke-width:1;stroke-linecap:round;stroke-linejoin:round"
         id="path2595" /><path
         d="M 22.5978,99.1266 35.321,113.939 39.8785,91.5307 Z"
         style="fill:#7d7d7d;fill-opacity:1;stroke:none;stroke-width:1;stroke-linecap:round;stroke-linejoin:round"
         id="path2597" /><path
         d="m 35.321,113.939 13.8625,-6.267 -9.305,-16.1413 z"
         style="fill:#858585;fill-opacity:1;stroke:none;stroke-width:1;stroke-linecap:round;stroke-linejoin:round"
         id="path2599" /><path
         d="M 49.1835,107.672 70.452,104.254 58.1087,93.8095 Z"
         style="fill:#5d5d5d;fill-opacity:1;stroke:none;stroke-width:1;stroke-linecap:round;stroke-linejoin:round"
         id="path2601" /><path
         d="M 79.757,115.838 88.6822,97.9872 70.452,104.254 Z"
         style="fill:#cbcbcb;fill-opacity:1;stroke:none;stroke-width:1;stroke-linecap:round;stroke-linejoin:round"
         id="path2603" /><path
         d="M 79.757,115.838 99.1266,109.381 88.6822,97.9872 Z"
         style="fill:#b0b0b0;fill-opacity:1;stroke:none;stroke-width:1;stroke-linecap:round;stroke-linejoin:round"
         id="path2605" /><path
         d="M 57.3491,120.015 70.452,104.254 49.1835,107.672 Z"
         style="fill:#686868;fill-opacity:1;stroke:none;stroke-width:1;stroke-linecap:round;stroke-linejoin:round"
         id="path2607" /><path
         d="M 23.1675,56.2097 22.5978,99.1266 27.725,77.8581 Z"
         style="fill:#bbbbbb;fill-opacity:1;stroke:none;stroke-width:1;stroke-linecap:round;stroke-linejoin:round"
         id="path2609" /><path
         d="M 57.3491,120.015 79.757,115.838 70.452,104.254 Z"
         style="fill:#919191;fill-opacity:1;stroke:none;stroke-width:1;stroke-linecap:round;stroke-linejoin:round"
         id="path2611" /><path
         d="m 35.321,113.939 22.0281,6.076 -8.1656,-12.343 z"
         style="fill:#696969;fill-opacity:1;stroke:none;stroke-width:1;stroke-linecap:round;stroke-linejoin:round"
         id="path2613" /></g></g><metadata
     id="metadata254"><rdf:RDF><cc:Work
         rdf:about=""><cc:license
           rdf:resource="http://creativecommons.org/licenses/by-sa/4.0/" /></cc:Work><cc:License
         rdf:about="http://creativecommons.org/licenses/by-sa/4.0/"><cc:permits
           rdf:resource="http://creativecommons.org/ns#Reproduction" /><cc:permits
           rdf:resource="http://creativecommons.org/ns#Distribution" /><cc:requires
           rdf:resource="http://creativecommons.org/ns#Notice" /><cc:requires
           rdf:resource="http://creativecommons.org/ns#Attribution" /><cc:permits
           rdf:resource="http://creativecommons.org/ns#DerivativeWorks" /><cc:requires
           rdf:resource="http://creativecommons.org/ns#ShareAlike" /></cc:License></rdf:RDF></metadata></svg>
